<svg width="21" height="21" viewBox="0 0 21 21" fill="none" xmlns="http://www.w3.org/2000/svg">
<g clip-path="url(#clip0)">
<path d="M0.653076 14.1522C2.13665 18.1505 5.98535 21 10.5 21C15.0146 21 18.8633 18.1505 20.3469 14.1522L10.5 13.2392L0.653076 14.1522Z" fill="#FFDA44"/>
<path d="M10.5 0C5.98535 0 2.13665 2.84944 0.653076 6.84785L10.5 7.76085L20.3469 6.8478C18.8633 2.84944 15.0146 0 10.5 0Z" fill="black"/>
<path d="M0.653092 6.84781C0.231041 7.9853 0 9.2156 0 10.5C0 11.7843 0.231041 13.0146 0.653092 14.1521H20.3469C20.769 13.0146 21 11.7843 21 10.5C21 9.2156 20.769 7.9853 20.3469 6.84781H0.653092Z" fill="#D80027"/>
</g>
<defs>
<clipPath id="clip0">
<rect width="21" height="21" fill="white"/>
</clipPath>
</defs>
</svg>
