<svg width="21" height="29" viewBox="0 0 21 29" fill="none" xmlns="http://www.w3.org/2000/svg">
<path d="M8.44736 16.8421C11.5285 16.8421 14.0263 14.3443 14.0263 11.2632C14.0263 8.18198 11.5285 5.6842 8.44736 5.6842C5.36619 5.6842 2.86841 8.18198 2.86841 11.2632C2.86841 14.3443 5.36619 16.8421 8.44736 16.8421Z" stroke="#FD3E72" stroke-width="2" stroke-linecap="round" stroke-linejoin="round"/>
<path d="M1.125 19.6316C2.30207 20.654 3.67998 21.4188 5.17022 21.8771C6.66046 22.3353 8.23007 22.4767 9.77821 22.2922C11.3264 22.1078 12.8188 21.6015 14.1597 20.806C15.5005 20.0104 16.6601 18.9432 17.564 17.6729C18.4679 16.4026 19.0961 14.9572 19.4082 13.4297C19.7203 11.9021 19.7094 10.3262 19.3762 8.80312C19.0431 7.28004 18.395 5.84349 17.4736 4.58576C16.5523 3.32803 15.378 2.27694 14.0263 1.5" stroke="#FD3E72" stroke-width="2" stroke-linecap="round" stroke-linejoin="round"/>
<path d="M8.44739 22.4211V28" stroke="#FD3E72" stroke-width="2" stroke-linecap="round" stroke-linejoin="round"/>
<path d="M2.86841 28H14.0263" stroke="#FD3E72" stroke-width="2" stroke-linecap="round" stroke-linejoin="round"/>
</svg>
