<svg width="21" height="21" viewBox="0 0 21 21" fill="none" xmlns="http://www.w3.org/2000/svg">
<path d="M0 10.5C0 11.7844 0.231041 13.0147 0.653092 14.1522L10.5 15.0652L20.3469 14.1522C20.769 13.0147 21 11.7844 21 10.5C21 9.21566 20.769 7.98535 20.3469 6.84786L10.5 5.93481L0.653092 6.84786C0.231041 7.98535 0 9.21566 0 10.5Z" fill="#FFDA44"/>
<path d="M20.3469 6.84785C18.8633 2.84948 15.0146 0 10.5 0C5.98535 0 2.13665 2.84948 0.653076 6.84785H20.3469Z" fill="#D80027"/>
<path d="M0.653076 14.1522C2.13665 18.1505 5.98535 21 10.5 21C15.0146 21 18.8633 18.1505 20.3469 14.1522H0.653076Z" fill="#D80027"/>
</svg>
