<svg width="80" height="60" viewBox="0 0 80 60" fill="none" xmlns="http://www.w3.org/2000/svg">
<path d="M0 0H80V60H0V0Z" fill="white"/>
<path d="M3.33496 3.33398H76.6683V20.0007H3.33496V3.33398Z" fill="#FF9933"/>
<path d="M3.33496 39.999H76.6683V56.6657H3.33496V39.999Z" fill="#128807"/>
<path d="M39.9956 38C44.4139 38 47.9956 34.4183 47.9956 30C47.9956 25.5817 44.4139 22 39.9956 22C35.5773 22 31.9956 25.5817 31.9956 30C31.9956 34.4183 35.5773 38 39.9956 38Z" fill="#000088"/>
<path d="M39.9961 36.999C43.8621 36.999 46.9961 33.865 46.9961 29.999C46.9961 26.133 43.8621 22.999 39.9961 22.999C36.1301 22.999 32.9961 26.133 32.9961 29.999C32.9961 33.865 36.1301 36.999 39.9961 36.999Z" fill="white"/>
<path d="M39.9977 31.4006C40.7709 31.4006 41.3977 30.7738 41.3977 30.0006C41.3977 29.2274 40.7709 28.6006 39.9977 28.6006C39.2245 28.6006 38.5977 29.2274 38.5977 30.0006C38.5977 30.7738 39.2245 31.4006 39.9977 31.4006Z" fill="#000088"/>
<path d="M46.892 31.2717C47.0891 31.2977 47.2699 31.1589 47.2958 30.9618C47.3217 30.7647 47.1829 30.5838 46.9858 30.5578C46.7887 30.5318 46.6079 30.6705 46.582 30.8677C46.5561 31.0648 46.6948 31.2457 46.892 31.2717Z" fill="#000088"/>
<path d="M39.9983 36.9988L40.2383 32.7988L39.9983 30.7988L39.7583 32.7988L39.9983 36.9988Z" fill="#000088"/>
</svg>
