<svg xmlns="http://www.w3.org/2000/svg" width="89" height="98" fill="none"  xmlns:v="https://vecta.io/nano"><g opacity=".8"><path d="M44.341 97.683c24.489 0 44.341-19.852 44.341-44.341S68.829 9.001 44.341 9.001 0 28.853 0 53.342s19.852 44.341 44.341 44.341z" fill="#ffcfdc"/><path d="M81.719 74.409l-1.312.25c-.187.063-.687.125-.875.317s-.25-.062-.875.125-.812.062-.437-.625.125-.875.062-1.375.687-.812-.562-.875-1.312-.316-2.187.187l-1.562 1-.875-.5s-1-1.062-1.187-1.125a5.77 5.77 0 0 0-.937-.062c-.108-.386-.129-.791-.062-1.187.125-.562-.062-.75-.437-.562l-1.062.562s-1.125.125-1.812.5-.75.625-1.874.5-1.187.875-2.057.316-1.312-.75-1.687-1.187-.625-.187-.5.475.937.532.093.812-1.28-.125-1.125.843.187 1.624-.093 1.624-.938-.718-.437-1.343.032-.968.032-.968.218-.475.532-.532.562-.75-.032-.657-.562-.187-.718.343-.282.657-.875.812-.657 0-1.093.317 0 .437-.657.437-.843.187-.843.687-.218.532-.5.843l-.562.625a.79.79 0 0 0-.218.5c-.032.125-.282.187-.437.125s-.375-.343-.937-.718-.937-.532-1.593-.532-1.218 1.344-2.124.905-.812-.532-1.343-.875-.375-.407-.475-.875-.282-.532-.032-.905.282-.625.25-1.405.562-1.844 0-2.155.657-.375-1.125-.437-1.437-.437-2.624-.25l-2.187.316c-.343-.027-.875-.158-.25-.718s.843-.187.812-.905-.282-1.28.093-1.062.625-.125.875-.437-.407-.968.25-1.499 1.218-.843.218-.843-.187-.475-1.498-.343-1.28.062-1.343.475-1-.375-.562.625.475 1.499.062 1.562a7.73 7.73 0 0 0-1.062.158c-.968.187-1.562.875-1.812.407s.158-.593-.562-.593-.812.282-1.062-.687-1.312-1.843-.843-1.843.407-.5.187-1.03-.158-1.25-.158-1.812-.032-1.53.375-1.187.437.125.437-.475-.5-1-.125-1.53-.032-.5.78-.812.562-.343 1.375-.375.782.125 1.093-.218.032-1 .437-.657.187.25 1.03.187 1.312.282 1.405-.359-.25-.703.75-.766l1.899-.093c.43.032.475-.282.562.25s.593.317.968.25.407-.562.75-.25 1.093.657 1.25 1.03.316.532.158 1.125-.475.812-.093 1.125.562.158.593.625.407.875.437 1.094.532.375.687.316.812-.593.343-2.249-.187-1.718-.407-2.624-.375-1 .187-1.812.687-1.093 1.343-1.405.875-.5 1.375-1.25.968-1 1.593-1.28.093-.359.109-.671.421-.158.687-.328.475-.218.328-.475-.5.062-.453-.141.703-.562.532-.75-.407-.266-.734-.093-.671.062-.532-.141.359.109.297-.516-.484-1.405-.282-1.741.266-.633.297.317-.093 1.921.343 1.639.812-.516.578-1.078-.593-.859-.158-.671.343.812.671.437.782-.782.5-1.093-.062-.671-.047-.875-.328-.484.187-.5.984.282 1.218-.158.437-.562.093-.516-.734.343-.949.282.391-.391.905-.484.032-.234.532-.25 1.093.125 1.108-.203-.453-.687-.633-.578-.317 0-.298-.297.375-.475.516-.828.75-.929.921-1.035.791.26.911-.193.146-.633.229-.668.317.115.459-.169.347-.913.388-.475-.104.518.285.185.535-.748.557-.475.158.459.316.271.141.277-.089.316-.661-.475-.622.032-.176.158-.225.59-.049 1.375.492.916.451-.791.829-1.076a7.76 7.76 0 0 1 .983-.571l.578-.706s.429-.272-.063-.272-.339-.084-.723.044-.568.093-.774-.09-.158-.247-.601-.225-.511.1-.721-.573.475-.625-.211-.671-.625-.016-1.03.117-.562.024-.297-.196.593-.109.949-.282.935-.109.586-.532c-.253-.27-.586-.451-.949-.516l-1.375.578-.843.755-.718.949c-.266.353-.703.654-.453.217s.593-1.139.95-1.514a10.82 10.82 0 0 1 .937-.807c.328-.286.296-1.005.766-1.082s.913-.032 1.741-.125 1.785-.158 2.081-.317.335-.416.451-.707.125-.239.589-.348.464-.65.464-.921-.502-.375-.584-.729.03-.646-.234-.459-.18.646-.326.459.229-.707-.291-.582-.271-.062-.771.521-.802.475-.495 0 .949-.756 1.162-.856-.396-.225-1.041-.329a2.51 2.51 0 0 1-1.228-.543c-.146-.103-.322-.154-.5-.146-.062 0-.166-.229-.812-.832l-1.899-1.853c-.421-.457-.5-1.146-.605-.5s.25.957-.166 1.187-.255.355-.658.475-.263.041-.604-.084-.695.146-.715-.125.687.104.062-.5-.26-.258-.244-.72-.875-.521-1.396-.646-.25-.396-.957-.437c-.451-.023-.9-.085-1.34-.187l-1.388-.271s-.459-.582-.475.125l-.021 1.062c0 .291.345.723.345.723s.441-.316.535-.062-.75.391-.968.546-.328.047.141.421.875.475.984.703l.297.657s.484.343.234.375-.203.109-.546.578c-.293.4-.694.709-1.155.891-.343.125-.391.158-.266.593s.5.375.578.782-.144.158.158.693l.301.535s-.316-.305-.128.131.158.78-.093.375-.125-.532-.343-.317-.25.25-.062.546.407.812.187.516-.234-.633-.578-.484-.578.441-.734.408.016-.44.016-.44l.297-.609-.484-.391s-.722.203-.462-.109-.179-.407-.316-.407-.593-.343-.234-.343.404.032.554-.218-.115-.578-.225-.782.109-.687-.359-.687-1.266.125-1.424.016-.407-.375-.766-.475-.828.047-1 .062-.062-.261-.187-.419-.578-.299-.703-.316l-.328-.047a.55.55 0 0 1-.236-.21c-.056-.092-.084-.198-.08-.306 0-.391-.266-.75-.5-.532a5.33 5.33 0 0 0-.437.475s-.484-.657-.421-.937.328-.141.328-.475.032-.032.297-.453.296-.812.75-.75.75.141.782-.475.093-1.296.475-1.546.062.032.546-.316.812-.516.5-.609-.516.109-.75-.109-.633-.391-.109-.343.782.375 1.03.297c.267-.123.494-.318.657-.562.062-.125.141.062.282-.109s.032-.328.391-.158.5.218.516-.077.375-.391.375-.633-.297-.077-.407-.5-.25-.766-.421-.875-.407-.359-.657-.172-.391.203-.343.453a.97.97 0 0 1-.078.516 3.07 3.07 0 0 0-.421.375c-.297.296-.25.905-.5.218s-.187-.937-.437-1a.65.65 0 0 0-.453-.016c-.218.047-.234.032-.562 0s-.453-.218-.484.016-.016.475.109.5-.032.095-.407.282a3.27 3.27 0 0 0-.532.317s.437.25.172.391-.218.218-.359.141-.421-.218-.297-.475a1.51 1.51 0 0 1 .203-.375c.187-.282.421-.407.437-.484s-.172-.297-.475-.475-.5-.475-.734-.266a5.46 5.46 0 0 0-.532.453c-.062.093.328.062.475.109s.25.359.25.359a.29.29 0 0 1-.187.234c-.172.063-.437.187-.437.187s.359.297-.437-.032-1.062-.577-1.741-.921-.703-.671-.891-.343.172.391-.359.475-.593.032-.718.234c-.087.166-.145.346-.172.532l-.032.282s-.187.282-.25.297a.6.6 0 0 1-.316-.093c-.062-.048.109-.407.109-.484a2.59 2.59 0 0 0-.234-.475s-.218-.391-.5-.328c-.248.046-.498.077-.75.093 0 0-.766-.25-.718-.359s.475-.109.437-.187.125-.166-.375-.223-1.266-.261-1.266-.633-.296-.421-.734-.407-.016-.391-.532-.218-.766-.043-.766-.043.187-.207-.578-.191-.516.047-.859.172-.359.03-.391-.172-.375-.264-.609-.234c-.156.028-.301.098-.421.203-.023-.223-.092-.438-.203-.633-.203-.407.062-.297-.391-.437s-.937-.359-.625-.532.859-.516.484-.78-.297-.316-.921-.172-.828-.125-1.046.172.032.266-.633.516-.516.109-.828.546-.328.578-.421.407.062-.657.359-1a4.92 4.92 0 0 0 .494-.761l-1.731.913a.72.72 0 0 0-.272.448c-.084.605.317.881-.145.972s-.605.424-.855.445-.084-.187-.687-.229c-.299-.021-.451-.082-.623-.084l-2.712 1.899c.475.579.43 1.014.43 1.014l-1.15.774-1.529.434s.532.454 1.47.226 1.5-1.323 1.468-.885-.562.646-.843.95.968-.105 1.218-.418.532-1.469.875-1.219c.211.162.355.396.407.657l-.532.532.782.385 1.155.616s.062 0 0 .343-.271.416-.166.552.092.125-.1.437a7.46 7.46 0 0 0-.484.812c-.041.136.218.218.302 0l.229-.532s.396-.718.489-.633c.074.089.131.192.166.302l-.316.759-.073.384c-.041.187.021.23-.084.317s-.334-.291-.105.084.146.375 0 .541-.304.209-.12.375.432-.25.536-.125.23.021.166.271.263.396.017.541-.59-.209-.72-.166-.191.028-.234.203-.187.256 0 .381-.041.291-.062.416 1.108-.355.687 0-.5.375-.625.707-.355.625-.084.625.475-.375.646-.375.055.187-.149.375-.559-.021-.684.25a1.04 1.04 0 0 1-.375.459c-.187.166-.166.209.084.416s.883-.084.791 0-.198.084-.316.218-.25.328-.025.291c.174-.014.341-.073.484-.172.104-.089.432-.282.255-.073s-.307.146-.282.317.093.052.073.218-.021.271.062.317c.06.008.121 0 .177-.024s.104-.062.139-.112c.041-.084.25-.125.146.041s-.316.291-.218.459l.187.302-.136.334-.041.573a4.88 4.88 0 0 1-.271.81c-.146.291-.375.935-.375.935h-.291l.062-1.07s-.104-.633-.166-.701-.209-.122-.316.087a2.55 2.55 0 0 0-.166.475.74.74 0 0 1-.084.407 1.76 1.76 0 0 0-.166.529s-.416.18-.666.826-.413.642-.54 1.184.082.853-.418 1.165-.582.123-.73.707.084.625-.187 1.146-.437.521-.475.957-.212.866-.21 1.223-.272.65 0 .9.127.229.272.25.104-.166.396 0 .521-.062.291.166l-.316.334s-.146-.166-.209.125-.334.267-.291.415a1.45 1.45 0 0 0 .291.397s-.5.041-.25.541.209.396.209.791a2.03 2.03 0 0 0 .104.666l.354.596.316.402s-.271.02.209.354.437-.316.562.437a4.2 4.2 0 0 1 .085 1.062l.337.437a1.9 1.9 0 0 1 .098.791v.837c0 .646 0 .791.25 1.228s.812.646.916.896a2.72 2.72 0 0 1 .104.771 6.3 6.3 0 0 0 .084.5c.063.313-.041.229-.317-.084s-.5.041-.5.041a.63.63 0 0 0 .209.541l.73.771s.166-.125.291.416.259.396.255.832-.171 1 .536 1.582.334.334.625 1c.192.496.508.935.916 1.275.291.225 1.166 1.15.625 0s-.824-1.084-1.059-1.472.017-.804-.316-1.845-.875-2.078-1-2.809-.084-1.473-.625-2.706-.875-1.94-.375-1.608 1.125-.25 1.166.459l.084 1.771s0 .187.459 1.266.75 1.125.957 1.332.375.875.375.875.916.375.916.707-.375.166 0 .875-.125.125.375.707c.316.375.595.779.832 1.207l1.296 1.636c.018.293.104.578.25.832.25.459.682.421.4.766s-.657.437-.475.546.234.172.093.297.348.633.557 1.266.5.687.896 1.062c.267.22.48.498.625.812.25.437-.062.104.75.396s1.146.707 1.332.832.573.209 1.916.896 1.719 1.03 2.374 1.25.75.5 1.25.375.75-.407 1.062-.25.125.53.562.28.5-.209.625.084.937.823.937.823-.625.282.407.905c.95.571 1.855 1.035 2.196.95.013.057.108.142.332.274.968.562 1.25.937 1.5 1.218s.437.875.407 1.062.062.437.407.593.812.062 1.187.317-.093.343.593.657a3.64 3.64 0 0 0 1.062.343l.375-.158 1 .158s.437.25.475.437-.218.343.158.5c.097.048.204.073.313.073s.215-.025.313-.073c0 0 .968-.158.78-.5s-.875-.282-.375-.593l.937-.562c.218-.125.316-.218.687.158s.593-.062.375.375-.233.562.087.593a1.06 1.06 0 0 1 .538.218s.407.169.407.381-.316.149-.282.43-.437.187-.218.475-.187.407-.032.718-.316.343.032.782.125.812-.5 1-.375-.317-.718.343-.25.687-.541.771a7.86 7.86 0 0 0-1.125.521c-.5.25-.437-.25-.687.475s0 .73-.5 1.146-.416.896-.416.896 1.899-.229 1.146.25-.771.562-.957.771a3.76 3.76 0 0 0-.334.437l-.334.604-.084.707s.166-.146.73.23.687.396.771.521a5.83 5.83 0 0 0 1.021 1.353 10.67 10.67 0 0 0 1.155 1.062c.282.218.562.125.532.5s-.062.218.657.437 1.187.437 1.687.437 1.655.187 1.999.187.562-.032.343.218-.625 1.187-1.155 1.719-.687.844-1.437 1.094l-1.655.625c-.468.15-.779.837-.78.843a44.4 44.4 0 0 0 31.363-23.359l-.908.122-1.312.986zm-22.105-46.98c.158-.084.364.104.521.229.087.089.203.144.327.155s.248-.022.35-.094c.316-.187.509-.073.823.062s-.041.282-.448.437-.073.146-.437.146-.114.198-.229.354-.407-.316-.832-.666-.408-.445-.074-.623zm-15.666 7.059c1.218-.407.937-.703 1.655-.149s1.062.215 1.155.775.905 1.036.905 1.036l1.125.212 1.687.353s.511.177.625.571.475.557-.218.551a6.01 6.01 0 0 1-1.53-.286s-.174.158-.15.843.337.562-.131.968-1.562.75-.718.718 1.499-.475 1.874-.218.622-.316.999-.343-.062-.285.407-.633.516-.592 1.211-.529.57-.158 1.226-.158 1.187.559.316.685-1-.03-1.687.252-.687-.158-.843.475.437.532-.407.843-.375.079-1.343.226-.75.211-1.53.149-1.437-.062-1.062-.657 1.344-.375 1.125-1.062-.532-.593-.968-.437.203-.582.211-.837-.242-.579-.711-.668-.475-.522-.875.117-.407.182-.562.551-.25-.041-.25 1.054.218 1.768-.718 1.962-1.03-1.34-.625-1.962.78-1.079.282-1.054.032-.891.593-.995.812-.055 1.28-.127.843-.01.905-.133-.5-.78-1.062-.671-.125.158-.843.241-1.405-.038-1.218-.241.356-.203-.158-.391.038-1.033.038-1.033h-.006zm-4.383-4.803c.355-.054.041-.279.104-.633s.396-.187 1.125-.166c0 0 .125.25-.209.334s-.166.145-.25.354-.084.209-.104.646-.041.521.23.875.145.354.25 1.054-.316.362-.75.467 0 0-.024-.355.127-.582-.122-1.071-.396-.177-.437-.532.125-.354-.176-.646.014-.272.369-.326l-.006-.002zm-1.108.013s.355.521.105.734-.187.432.145.598.396.105.271.416.104.416.209.957-.475.229-.475-.258-.187-.366-.5-.616-.291-.375-.223-.625.119-.375-.297-.791-.057-.457.775-.415l-.01-.002zm-1.448-3.551c.047-.578-.081-.464.502-.375.204.032.389.187.201.766s-.282.218-.791.516.052-.329.1-.905l-.011-.002zM26.124 40.204c-.266.609-.297.282-.907.328s0-.316 0-1.139-.077-.555.78-.593c.372-.014.402.798.138 1.407l-.011-.002zm4.242-20.916s.25-.078.891-.218.109-.093-.271-.266-.291-.047-1.108-.158.593-.141 1.405-.172.222-.033 1.046.093c.316.051-.032.328.421.484s0 .109 0 .359-.172.297-.562.047-.317 0-.437.109-.633.5-.633.5c-.349-.117-.686-.267-1.008-.446-.4-.248.255-.332.255-.332zm4.273 2.499c-.234.016-.359.187-.657.5s-.475.316-.812.316-.407.062-1.203.282-.546.093-.968-.187-.5-.297-.546-.437.633.032.859-.109a2.93 2.93 0 0 0 .5-.484s-.158-.475.282-.593c.198-.057.141.203.282.532s.282.484.791.43.593-.316 1.312-.399.402.138.168.154l-.008-.005zm8.229 49.738c.248-.207.579-.435.608-.182.027.154-.364.146-.596.187l-.011-.005z" fill="#ff97b3"/><path d="M67.023 30.207c-.239.098-.316.25-.342.516a2.26 2.26 0 0 1-.127.5l-.125.375c.043.058.072.124.085.195s.011.143-.008.212a1.47 1.47 0 0 0-.078.453s-.237.039-.283.158-.475-.184-.114.223.302.279.225.475.062.453.297.375-.188-.252.679-.158.976-.381 1.055-.179.112.218.228.062.614-.391.373-.078-.691.633-.373.696.818-.12.725-.502 0-.791.141-.381-.016.75.316.718.378.081.562.179.532.117.297-.335-.078-1.03-.328-.78-.532.328-.657-.062-.093-.407-.343-.625.171-.609-.337-.625-.554.407-.866.218-.316-.546-.538-.282-.399.562-.508.328-.328-.166-.172-.489.478-1.293.214-1.187zm-12.73 26.022c-.138.106-.133.432 0 .625s.261.131.334.291c.084.187-.081.316 0 .541.044.127.158.274.271.271.174 0 .286-.355.334-.5.093-.209.115-.443.062-.666-.152-.453-.791-.722-1-.562zm-1.186.646a.37.37 0 0 1 .29-.012c.047.017.089.044.126.078s.065.075.085.121c.034.084.035.177.005.261a.37.37 0 0 1-.171.198c-.065.031-.137.042-.207.031s-.136-.043-.188-.092a.39.39 0 0 1-.103-.306.4.4 0 0 1 .052-.157c.028-.048.067-.089.113-.121zm.957 1.478c.093 0 .158.128.25.334.147.307.25.521.146.707-.056.099-.146.174-.252.212a.48.48 0 0 1-.33-.003c-.217-.111-.21-.43-.209-.541.006-.348.222-.723.396-.709zM55.501 58c-.204.014-.413.198-.396.334s.309.141.416.396c.054.125.009.188.084.271.05.053.116.087.187.098s.145-.002.208-.037c.139-.095.114-.316.105-.396-.043-.305-.291-.688-.605-.666zm.375 1.798c-.057.042-.098.102-.117.169s-.015.14.012.206c.051.144.212.274.354.23a.33.33 0 0 0-.25-.605zm1.062.117c-.149.063-.158.359-.146.475a.64.64 0 0 0 .271.5c.032.019.242.139.396.041s.13-.385.125-.416c-.049-.361-.453-.682-.646-.6zm1.832 2.186c-.26.047-.524.294-.475.521.035.174.236.256.271.271a.56.56 0 0 0 .646-.166.44.44 0 0 0 .096-.221c.011-.081-.001-.163-.034-.238-.109-.184-.362-.191-.503-.166zm-12.744.876c-.07-.299 1.022-.873 1.958-1.166.89-.266 1.822-.364 2.749-.291a11.4 11.4 0 0 1 2.125.336l1.916.541c.155.085.325.141.5.166.372.046.519-.104.75 0 .198.089.139.222.375.416a1.54 1.54 0 0 0 .832.291c.426.052.585-.047.707.084a.52.52 0 0 1 .088.291.53.53 0 0 1-.088.291c-.192.307-.658.316-1.082.334-1.885.101-2.668.558-2.915.166-.182-.29.12-.736-.084-.875-.177-.12-.44.198-.75.084-.269-.1-.214-.391-.5-.582-.158-.111-.275-.074-1.041-.041-.859.038-1.051 0-1.25-.084s-.158-.128-.459-.291-.85-.389-.957-.25c-.076.098.112.304.041.375s-.408-.271-.832-.25c-.19.01-.187.085-.75.375s-.764.317-.916.291c-.041-.008-.38-.055-.416-.211zm12.61.777c.18-.258.646.021 1.499-.062.606-.059.649-.225 1.405-.282a2.25 2.25 0 0 1 .905.062c.346.116.342.239.782.437.502.226.791.191.843.375.043.142-.081.331-.218.437-.407.317-.858-.158-1.623.093-.22.07-.253.131-.562.218-.378.108-.527.073-.657.218-.106.119-.051.19-.187.475-.103.21-.158.317-.25.375-.294.184-.62-.28-1.312-.282-.339 0-.41.109-.657.032-.373-.119-.633-.508-.562-.625s.535.19.937 0c.316-.158.554-.516.475-.687-.1-.199-.573 0-.78-.282a.46.46 0 0 1-.038-.503zm-3.997-51.255c-.514.087-.848.013-1.562.158a1.01 1.01 0 0 0-.625.316c-.111.136-.081.207-.187.316-.253.247-.633.068-.718.218s.299.53.532.75c.275.261.411.391.562.437.457.142.698-.242 1.312-.187a2.08 2.08 0 0 1 .657.218 7.83 7.83 0 0 1 1.28.75c1.253.828 1.388.926 1.655.905.21-.034.425-.012.625.062.04.016.383.158.375.343s-.427.237-.437.437c0 .158.245.291.407.375s.35.184.532.125.222-.26.343-.25c.084 0 .131.103.317.475l.218.437a2.53 2.53 0 0 0 .407.657c.203.199.296.158.562.375a2.57 2.57 0 0 1 .407.475c.475.587 1.179.866 1.218.812s-.274-.283-.25-.317.489.297 1.187.782c.995.692 1.177.791 1.468.875.438.122.454 0 .905.158.389.13.641.302 1.125.375.145.022.292.022.437 0 .174-.025.394-.059.475-.187.103-.177-.105-.475-.282-.718-.486-.676-.813-.684-1.125-1.25-.179-.317-.104-.381-.282-.593-.316-.375-.692-.372-.75-.657-.025-.123.035-.239.158-.475.253-.475.475-.5.475-.687 0-.241-.429-.475-1.28-.937-.328-.177-.438-.222-.532-.375-.184-.302.01-.522-.125-.969-.082-.272-.307-.699-.593-.718-.078 0-.128.022-.782.437-.215.136-.297.19-.375.158-.133-.059-.179-.347-.093-.562.104-.264.361-.302.343-.407s-.394-.134-1.125-.282c-.529-.106-.693-.172-.75-.316-.071-.172.093-.288.032-.5-.055-.187-.233-.274-.562-.437-.369-.182-.647-.316-.968-.25-.245.054-.264.172-.437.158-.248-.024-.316-.28-.625-.532a1.93 1.93 0 0 0-.718-.343 3.15 3.15 0 0 0-1.655-.032c-.699.133-.573.291-1.174.394z" fill="#fd3e72"/><path d="M72.961 19.067a44.15 44.15 0 0 1 10.377 28.498c0 24.489-19.853 44.341-44.341 44.341a44.15 44.15 0 0 1-28.497-10.379 44.24 44.24 0 0 0 33.977 15.86c24.489 0 44.341-19.853 44.341-44.342a44.24 44.24 0 0 0-15.857-33.977z" fill="#e5dcba" style="mix-blend-mode:multiply" opacity=".31"/><path d="M3.735 56.859c0-24.489 19.853-44.341 44.341-44.341a44.17 44.17 0 0 1 29.433 11.178A44.23 44.23 0 0 0 44.346 8.785C19.856 8.785.005 28.638.005 53.126a44.23 44.23 0 0 0 14.911 33.163 44.17 44.17 0 0 1-11.181-29.43z" fill="#fff" style="mix-blend-mode:overlay" opacity=".21"/><path d="M58.939 14.439l-.405-.858m-28.78 37.936l.06.949" stroke="#fff" stroke-width="2" stroke-miterlimit="10"/><path d="M58.856 0a4.42 4.42 0 0 0-1.681.345 4.4 4.4 0 0 0-1.421.959c-.406.409-.726.894-.944 1.427a4.36 4.36 0 0 0-.323 1.678c.015 2.416 4.466 9.805 4.466 9.805s4.348-7.447 4.333-9.865a4.36 4.36 0 0 0-.346-1.673 4.38 4.38 0 0 0-.963-1.414 4.4 4.4 0 0 0-1.434-.939A4.42 4.42 0 0 0 58.856 0zm.042 6.341c-.417.003-.826-.117-1.174-.345a2.1 2.1 0 0 1-.783-.936 2.09 2.09 0 0 1-.129-1.212 2.1 2.1 0 0 1 .569-1.079 2.11 2.11 0 0 1 1.075-.582 2.12 2.12 0 0 1 1.219.111c.387.156.718.423.952.766a2.09 2.09 0 0 1-.242 2.65 2.11 2.11 0 0 1-1.485.626h-.003zm-36.526.39a9.61 9.61 0 0 0-3.429.653A9.04 9.04 0 0 0 16.045 9.2a8.27 8.27 0 0 0-1.925 2.703c-.443 1.009-.667 2.089-.659 3.178.031 4.575 9.11 18.571 9.11 18.571s8.868-14.104 8.837-18.685c-.008-1.089-.248-2.166-.707-3.169s-1.126-1.913-1.965-2.678-1.833-1.369-2.925-1.779-2.26-.617-3.439-.609zm.087 12.011a4.56 4.56 0 0 1-2.395-.654c-.711-.432-1.267-1.049-1.598-1.773a3.7 3.7 0 0 1-.263-2.295c.16-.772.564-1.483 1.161-2.043s1.361-.944 2.194-1.103a4.63 4.63 0 0 1 2.487.21c.788.296 1.464.801 1.942 1.451s.736 1.417.742 2.203c.008 1.053-.436 2.067-1.236 2.817s-1.889 1.177-3.028 1.186h-.006z" fill="#fd3e72"/><path d="M29.813 52.463l.745-.587M68.482 84.5l-.06.949" stroke="#fff" stroke-width="2" stroke-miterlimit="10"/><path d="M68.351 74.964a3.23 3.23 0 0 0-2.277.962 3.23 3.23 0 0 0-.93 2.29c.013 1.783 3.279 7.232 3.279 7.232s3.192-5.493 3.179-7.279a3.23 3.23 0 0 0-3.25-3.204zm.032 4.676c-.306.002-.606-.086-.862-.255s-.456-.409-.575-.691-.152-.593-.095-.894a1.55 1.55 0 0 1 1.207-1.225 1.55 1.55 0 0 1 1.593.647 1.55 1.55 0 0 1 .153 1.451c-.076.188-.189.36-.332.504s-.312.26-.5.339-.388.121-.591.122z" fill="#fd3e72"/></g><circle opacity=".9" cx="44.308" cy="53.282" r="29.725" fill="#fff"/><path d="M36.979 52.004a1.57 1.57 0 0 1-1.115-.462l-3.992-3.989a8.2 8.2 0 0 1 .002-11.588c3.197-3.195 8.4-3.196 11.597-.001l3.991 3.988c.616.616.616 1.613 0 2.229a1.58 1.58 0 0 1-2.23 0l-3.991-3.988c-1.967-1.966-5.169-1.966-7.136.001s-1.968 5.165-.002 7.13l3.992 3.989c.616.616.616 1.613 0 2.229a1.57 1.57 0 0 1-1.115.462z" fill="#ff5886"/><g fill="#ee3a6b"><path d="M32.663 35.965a8.2 8.2 0 0 0-.002 11.588l3.992 3.989a1.57 1.57 0 0 0 .721.411 1.59 1.59 0 0 1-.394.05c-.404 0-.807-.154-1.115-.461l-3.992-3.989a8.2 8.2 0 0 1 .002-11.588c1.698-1.697 3.963-2.493 6.192-2.387a8.17 8.17 0 0 0-5.404 2.387zm14.078 6.628c-.522.135-1.1-.002-1.509-.411l-3.991-3.988a5.03 5.03 0 0 0-3.173-1.459 5.04 5.04 0 0 1 3.962 1.459l3.991 3.988a1.57 1.57 0 0 0 .721.411z"/><path d="M35.749 73.152c-2.609 0-4.731-2.121-4.731-4.728V53.61c0-2.607 2.122-4.728 4.731-4.728h14.824c2.609 0 4.731 2.121 4.731 4.728v14.814c0 2.607-2.122 4.728-4.731 4.728H35.749z"/></g><path d="M53.726 53.61c0-1.734-1.419-3.152-3.154-3.152H35.748c-1.735 0-3.154 1.418-3.154 3.152v14.814c0 1.733 1.419 3.152 3.154 3.152h14.824c1.735 0 3.154-1.418 3.154-3.152V53.61z" fill="#ff5886"/><path d="M45.123 58.802c0-1.084-.879-1.962-1.963-1.962s-1.963.878-1.963 1.962c0 .718.387 1.353.963 1.695l-.546 4.696h3.19l-.551-4.751c.525-.352.871-.96.871-1.639z" fill="#fff"/><path d="M53.49 44.626c-.691.524-.929.324-.531-.446l2.099-4.055c.398-.77 1.226-.898 1.84-.285l.135.135a1.34 1.34 0 0 1-.14 2.068l-3.403 2.584zm2.387 3.415c-.702-.509-.571-.856.293-.771l2.893.283c.863.085 1.25.773.86 1.529s-1.284.959-1.986.45l-2.059-1.492z" fill="#cb4920"/></svg>