<svg width="159" height="69" viewBox="0 0 159 69" fill="none" xmlns="http://www.w3.org/2000/svg">
<path fill-rule="evenodd" clip-rule="evenodd" d="M0 8.57143C0 5.92857 2.5 4 5.21429 4.78571C6.35714 5.14285 7.35714 6.07143 7.71429 7.28571C8.57143 10 6.57143 12.5714 3.92857 12.5714C1.71429 12.5714 0 10.7857 0 8.57143Z" fill="white"/>
<path d="M7.50112 15H0.429688V44.2143H7.50112V15Z" fill="white"/>
<path fill-rule="evenodd" clip-rule="evenodd" d="M11.8594 29C11.8594 19 17.8594 12.7143 27.2879 12.7143C36.7165 12.7143 42.7165 19 42.7165 29C42.7165 39 36.7879 45.2857 27.2879 45.2857C17.7879 45.2857 11.8594 39 11.8594 29ZM36.5022 29C36.5022 22.0714 33.2165 18 27.7165 18C22.2165 18 18.9308 22.1429 18.9308 29C18.9308 35.9286 22.2165 40 27.7165 40C33.2165 40 36.5022 35.9286 36.5022 29Z" fill="white"/>
<path fill-rule="evenodd" clip-rule="evenodd" d="M94.5692 5.64288V13.2857H100.783V18.5H94.5692V35.8572C94.5692 38.6429 95.7835 39.9286 98.4978 39.9286C99.2121 39.9286 100.283 39.8572 100.712 39.7857V44.9286C99.9978 45.1429 98.4978 45.2143 96.9978 45.2143C90.4263 45.2143 87.8549 42.7857 87.8549 36.5V18.5H83.1406V13.2857H87.8549V5.64288H94.5692Z" fill="white"/>
<path d="M52.5039 45.2857H44.5039L42.7182 47.9286H50.8611L52.5039 45.2857Z" fill="white"/>
<path d="M51.5737 3H43.0737L44.788 5.71429H53.288L51.5737 3Z" fill="white"/>
<path d="M57.5726 37.3572H49.644L46.144 42.6429H54.2154L57.5726 37.3572Z" fill="white"/>
<path d="M66.2182 13.6428H74.0753L77.5753 8.28571H69.5753L66.2182 13.6428Z" fill="white"/>
<path d="M40.7885 50.9286H48.9314L49.5742 49.9286H41.4314L40.7885 50.9286Z" fill="white"/>
<path d="M54.9314 8.28571H46.5028L49.9314 13.6428H58.2885L54.9314 8.28571Z" fill="white"/>
<path d="M74.0006 50.7857L74.072 50.9286H82.6434L82.0006 49.9286H73.4291L74.0006 50.7857Z" fill="white"/>
<path d="M72.8611 3L71.2182 5.71429H79.2896L81.0039 3H72.8611Z" fill="white"/>
<path d="M62.2874 19.8571L59.9303 16.2142H51.6445L57.5017 25.2857L51.3588 34.7142H59.216L61.5731 31.0714L63.8588 34.7142H72.0731L66.1445 25.7142L72.3588 16.2142H64.5731L62.2874 19.8571Z" fill="white"/>
<path d="M49.6445 0H41.0731L41.716 1H50.2874L49.6445 0Z" fill="white"/>
<path d="M83.0011 0H74.7868L74.144 1H82.3583L83.0011 0Z" fill="white"/>
<path d="M72.2182 47.9286H80.7182L78.9325 45.2857H70.5039L72.2182 47.9286Z" fill="white"/>
<path d="M68.861 42.6429H77.2182L73.7896 37.3572H65.5039L68.861 42.6429Z" fill="white"/>
<path d="M68.7148 60.7857L68.7863 59.5H70.4291V67.6428H68.7863V66.3571H68.7148C68.5006 67.1428 67.5006 67.7857 66.2863 67.7857C64.4291 67.7857 63.2148 66.4286 63.2148 64.2857V62.9286C63.2148 60.7857 64.4291 59.4286 66.2863 59.4286C67.5006 59.3571 68.4291 59.9286 68.7148 60.7857ZM65.0006 63.0714V63.9286C65.0006 65.4286 65.7148 66.2857 66.8577 66.2857C68.0006 66.2857 68.7863 65.4286 68.7863 64.0714V62.9286C68.7863 61.5714 68.0006 60.7143 66.8577 60.7143C65.6434 60.7857 65.0006 61.5714 65.0006 63.0714Z" fill="white"/>
<path d="M72.7154 56.5714H74.4297V67.5714H72.7154V56.5714Z" fill="white"/>
<path d="M76.644 56.5714H78.3583V67.5714H76.644V56.5714Z" fill="white"/>
<path d="M81.5 56.5C82.0714 56.5 82.5 56.9286 82.5 57.5C82.5 58.0714 82.0714 58.4286 81.5 58.4286C80.9286 58.4286 80.5 58 80.5 57.5C80.5 57 81 56.5 81.5 56.5ZM80.6429 59.5H82.3571V67.6429H80.6429V59.5Z" fill="white"/>
<path d="M89.7852 60.7857H89.8566V59.5H91.4994V67.6428H89.8566V66.3571H89.7852C89.5709 67.1428 88.5709 67.7857 87.3566 67.7857C85.4994 67.7857 84.2852 66.4286 84.2852 64.2857V62.9286C84.2852 60.7857 85.4994 59.4286 87.3566 59.4286C88.5709 59.3571 89.4994 59.9286 89.7852 60.7857ZM85.9994 63.0714V63.9286C85.9994 65.4286 86.7137 66.2857 87.8566 66.2857C88.9994 66.2857 89.7852 65.4286 89.7852 64.0714V62.9286C89.7852 61.5714 88.9994 60.7143 87.8566 60.7143C86.7137 60.7857 85.9994 61.5714 85.9994 63.0714Z" fill="white"/>
<path d="M93.716 59.5H95.3588V60.6428H95.4302C95.716 60.0714 96.4302 59.3571 97.7874 59.3571C99.4302 59.3571 100.645 60.4285 100.645 62.3571V67.5714H98.9302V62.7143C98.9302 61.4285 98.1445 60.8571 97.1445 60.8571C95.9302 60.8571 95.3588 61.7143 95.3588 62.7857V67.6428H93.6445L93.716 59.5Z" fill="white"/>
<path d="M102.359 63.1428C102.359 60.9285 103.645 59.3571 105.859 59.3571C107.859 59.3571 109.002 60.6428 109.074 62.0714H107.431C107.288 61.3571 106.717 60.7857 105.931 60.7857C104.717 60.7857 104.074 61.7143 104.074 63.2143V63.9285C104.074 65.4285 104.788 66.3571 105.931 66.3571C106.859 66.3571 107.359 65.7857 107.502 65.2143H109.145C108.931 66.8571 107.788 67.7857 105.859 67.7857C103.645 67.7857 102.359 66.2143 102.359 63.9285V63.1428Z" fill="white"/>
<path d="M110.5 63.8571V63.0714C110.5 60.7857 111.857 59.3571 114 59.3571C116.143 59.3571 117.5 60.8571 117.5 63.1428V63.9285H112.214V64.1428C112.214 65.5 112.929 66.4285 114.143 66.4285C115 66.4285 115.571 66 115.786 65.2857H117.429C117.214 66.5714 116.143 67.7857 114.143 67.7857C111.857 67.7143 110.5 66.2857 110.5 63.8571ZM115.786 62.7143C115.786 61.5714 115.071 60.6428 114 60.6428C112.929 60.6428 112.214 61.5714 112.214 62.7143H115.786Z" fill="white"/>
<path d="M132.787 58.5715C135.073 58.5715 136.93 56.3572 136.93 53.5715C136.93 50.7858 136.358 48.5715 132.787 48.5715C129.215 48.5715 128.644 50.7858 128.644 53.5715C128.715 56.2858 130.573 58.5715 132.787 58.5715Z" fill="white"/>
<path d="M140.571 66.0001C140.5 61.2144 139.857 59.7858 135.071 58.9286C135.071 58.9286 134.429 59.7858 132.786 59.7858C131.143 59.7858 130.5 58.9286 130.5 58.9286C125.714 59.7858 125.071 61.1429 125 65.8572C125 66.2144 125 66.2858 125 66.2144C125 66.2858 125 66.4287 125 66.7144C125 66.7144 126.143 69.0001 132.786 69.0001C139.429 69.0001 140.571 66.7144 140.571 66.7144C140.571 66.5715 140.571 66.4287 140.571 66.3572C140.571 66.3572 140.571 66.2858 140.571 66.0001Z" fill="white"/>
<path d="M150.288 58.5715C152.574 58.5715 154.431 56.3572 154.431 53.5715C154.431 50.7858 153.859 48.5715 150.288 48.5715C146.717 48.5715 146.145 50.7858 146.145 53.5715C146.145 56.2858 148.002 58.5715 150.288 58.5715Z" fill="white"/>
<path d="M158.002 66C157.93 61.2143 157.287 59.7857 152.502 58.9286C152.502 58.9286 151.859 59.7857 150.216 59.7857C148.573 59.7857 147.93 58.9286 147.93 58.9286C143.145 59.7857 142.502 61.1429 142.43 65.8572C142.43 66.2143 142.43 66.2857 142.43 66.2143C142.43 66.2857 142.43 66.4286 142.43 66.7143C142.43 66.7143 143.573 69 150.216 69C156.859 69 158.002 66.7143 158.002 66.7143C158.002 66.5714 158.002 66.4286 158.002 66.3572C158.073 66.3572 158.002 66.2857 158.002 66Z" fill="white"/>
</svg>
