<svg width="93" height="30" viewBox="0 0 93 30" fill="none" xmlns="http://www.w3.org/2000/svg">
<path d="M77.3193 17.4269C78.2663 17.4269 79.0341 16.6672 79.0341 15.7301C79.0341 14.7929 78.2663 14.0332 77.3193 14.0332C76.3722 14.0332 75.6045 14.7929 75.6045 15.7301C75.6045 16.6672 76.3722 17.4269 77.3193 17.4269Z" fill="#FF4500"/>
<path d="M53.019 22.9524C53.6824 22.9989 54.2582 22.5034 54.3083 21.8439C54.3114 21.8067 54.3114 21.7634 54.3114 21.7231C54.302 21.494 54.2738 21.2617 54.2269 21.0357C53.8201 18.8868 51.9645 17.3045 49.7584 17.2178C47.2457 17.2178 45.146 19.503 45.146 22.3083C45.146 25.1137 47.2113 27.402 49.7553 27.402C51.104 27.4546 52.412 26.9159 53.3194 25.9281C53.6918 25.5256 53.6605 24.9032 53.2537 24.5347C53.2224 24.5068 53.1943 24.4821 53.163 24.4604C52.7562 24.2096 52.2274 24.2622 51.8831 24.5904C51.3168 25.1478 50.5564 25.4667 49.7553 25.4915C48.3722 25.3831 47.2645 24.3117 47.1268 22.94H52.9815L53.019 22.9524ZM49.7459 19.1345C50.9632 19.215 51.9864 20.0758 52.2586 21.2555H47.2394C47.5085 20.0727 48.5255 19.2119 49.7459 19.1345Z" fill="black"/>
<path d="M45.2457 18.2047C45.2457 17.7278 44.889 17.3222 44.4102 17.2634C43.1179 17.0497 41.8036 17.5235 40.9556 18.5143V18.3905C40.9556 17.861 40.5238 17.4337 39.9887 17.4337C39.4536 17.4337 39.0218 17.861 39.0218 18.3905V26.2245C39.0093 26.7385 39.4067 27.1751 39.9261 27.2185C40.4549 27.2556 40.9181 26.8593 40.9525 26.336C40.9556 26.2988 40.9556 26.2617 40.9525 26.2245V22.2053C40.868 20.6013 42.1103 19.2358 43.7312 19.1491C43.8751 19.1398 44.0222 19.1429 44.1662 19.1584H44.3602C44.8608 19.115 45.2457 18.7032 45.2457 18.2047Z" fill="black"/>
<path d="M78.2835 19.2322C78.2835 18.7027 77.8516 18.2754 77.3165 18.2754C76.7814 18.2754 76.3496 18.7027 76.3496 19.2322V26.2209C76.3496 26.7504 76.7814 27.1777 77.3165 27.1777C77.8516 27.1777 78.2835 26.7504 78.2835 26.2209V19.2322Z" fill="black"/>
<path d="M64.0148 13.9225C64.0148 13.3961 63.583 12.9688 63.051 12.9688C62.519 12.9688 62.0872 13.3961 62.0872 13.9225V18.1956C61.4363 17.5453 60.5414 17.1923 59.6183 17.2171C57.1055 17.2171 55.0059 19.5023 55.0059 22.3077C55.0059 25.113 57.0743 27.4013 59.6183 27.4013C60.557 27.4292 61.4645 27.0731 62.131 26.4136C62.2812 26.9183 62.8163 27.2062 63.3264 27.0576C63.7113 26.9461 63.9866 26.6117 64.0117 26.2123L64.0148 13.9225ZM59.612 25.5156C58.1319 25.5156 56.9272 24.0912 56.9272 22.3293C56.9272 20.5674 58.1225 19.1431 59.612 19.1431C61.1015 19.1431 62.2969 20.5674 62.2969 22.3293C62.2969 24.0912 61.1015 25.5001 59.6183 25.5001L59.612 25.5156Z" fill="black"/>
<path d="M74.0968 13.9225C74.0968 13.3961 73.665 12.9688 73.133 12.9688C72.6011 12.9688 72.1692 13.3961 72.1692 13.9225V18.1956C71.5184 17.5453 70.6234 17.1923 69.7003 17.2171C67.1876 17.2171 65.0879 19.5023 65.0879 22.3077C65.0879 25.113 67.1563 27.4013 69.7003 27.4013C70.6391 27.4292 71.5465 27.0731 72.213 26.4136C72.3632 26.9183 72.8983 27.2062 73.4084 27.0576C73.7933 26.9461 74.0686 26.6117 74.0937 26.2123L74.0968 13.9225ZM69.6972 25.5156C68.2171 25.5156 67.0123 24.0912 67.0123 22.3293C67.0123 20.5674 68.2077 19.1431 69.6972 19.1431C71.1867 19.1431 72.382 20.5674 72.382 22.3293C72.382 24.0912 71.1867 25.5001 69.7034 25.5001L69.6972 25.5156Z" fill="black"/>
<path d="M83.2941 26.2185V19.1338H84.1296C84.5927 19.1616 84.987 18.8117 85.0152 18.3566C85.0152 18.3411 85.0183 18.3225 85.0183 18.3039C85.059 17.8487 84.7179 17.4462 84.261 17.406C84.236 17.4029 84.2078 17.4029 84.1828 17.4029H83.2973V16.0869C83.3035 15.5759 82.9092 15.1455 82.3929 15.0991C81.8641 15.0619 81.4041 15.4583 81.3665 15.9816C81.3634 16.0033 81.3634 16.028 81.3634 16.0497V17.4245H80.5248C80.0617 17.3967 79.6674 17.7466 79.6392 18.2017C79.6392 18.2172 79.6361 18.2358 79.6361 18.2544C79.5954 18.7096 79.9365 19.1121 80.3934 19.1524C80.4184 19.1554 80.4466 19.1554 80.4716 19.1554H81.3071V26.2216C81.3071 26.7479 81.7389 27.1753 82.2709 27.1753C82.8028 27.2093 83.2566 26.8068 83.291 26.2804C83.2941 26.2618 83.2941 26.2401 83.2941 26.2185Z" fill="black"/>
<path d="M15.1433 29.9688C23.5064 29.9688 30.2861 23.26 30.2861 14.9844C30.2861 6.70873 23.5064 0 15.1433 0C6.78014 0 0.000488281 6.70873 0.000488281 14.9844C0.000488281 23.26 6.78014 29.9688 15.1433 29.9688Z" fill="#FF4500"/>
<path d="M25.2421 14.9849C25.1969 13.7781 24.1731 12.8358 22.9498 12.8767C22.4077 12.8954 21.8921 13.1151 21.5006 13.4839C19.7767 12.3218 17.7516 11.6848 15.6701 11.6402L16.6525 6.96569L19.8934 7.63985C19.9837 8.463 20.729 9.05895 21.5608 8.96956C22.3927 8.88017 22.9949 8.14268 22.9046 7.31953C22.8143 6.49638 22.069 5.90043 21.2371 5.98982C20.7591 6.03824 20.33 6.31387 20.0928 6.72358L16.3815 5.98982C16.1293 5.93395 15.8771 6.09039 15.8207 6.34367C15.8207 6.34739 15.8207 6.34739 15.8207 6.35111L14.7027 11.5508C12.5949 11.5843 10.5434 12.2249 8.79693 13.3945C7.90861 12.5676 6.50838 12.6086 5.67276 13.4913C4.83714 14.3703 4.87855 15.7559 5.77063 16.5828C5.94377 16.743 6.14327 16.8808 6.36535 16.9776C6.35029 17.1974 6.35029 17.4171 6.36535 17.6369C6.36535 20.9928 10.3176 23.723 15.1921 23.723C20.0665 23.723 24.0188 20.9965 24.0188 17.6369C24.0338 17.4171 24.0338 17.1974 24.0188 16.9776C24.7791 16.6014 25.2571 15.8267 25.2421 14.9849ZM10.0993 16.486C10.0993 15.6591 10.7806 14.9849 11.6162 14.9849C12.4518 14.9849 13.1331 15.6591 13.1331 16.486C13.1331 17.3128 12.4518 17.987 11.6162 17.987C10.7768 17.9796 10.0993 17.3128 10.0993 16.486ZM18.8959 20.6054C17.8194 21.4063 16.5019 21.816 15.1544 21.7601C13.8069 21.816 12.4895 21.4063 11.4129 20.6054C11.2699 20.4341 11.2963 20.1771 11.4694 20.0356C11.62 19.9127 11.8345 19.9127 11.9888 20.0356C12.8997 20.6948 14.0101 21.0301 15.1394 20.9779C16.2686 21.0375 17.3827 20.7172 18.3049 20.0654C18.4705 19.9052 18.7416 19.9089 18.9034 20.0728C19.0653 20.2367 19.0615 20.5049 18.8959 20.665V20.6054ZM18.6249 18.0391C17.7892 18.0391 17.108 17.365 17.108 16.5381C17.108 15.7112 17.7892 15.0371 18.6249 15.0371C19.4605 15.0371 20.1418 15.7112 20.1418 16.5381C20.1757 17.365 19.5245 18.0615 18.6889 18.095C18.6625 18.095 18.6399 18.095 18.6136 18.095L18.6249 18.0391Z" fill="white"/>
<path d="M39.9867 9.22734C40.315 9.22734 40.6048 9.18848 40.8607 9.10108C41.1118 9.0186 41.3242 8.9021 41.4981 8.75157C41.6719 8.60103 41.812 8.41173 41.923 8.18839C42.0341 7.96505 42.1161 7.72237 42.1645 7.46017C42.2128 7.19797 42.2369 6.90183 42.2369 6.57175V2.06641H40.5806V6.61545C40.5806 7.3048 40.3441 7.64464 39.8709 7.64464C39.755 7.64464 39.6439 7.62037 39.528 7.57184C39.4121 7.5233 39.3059 7.46017 39.2142 7.38253C39.1223 7.3048 39.0403 7.22232 38.9727 7.12517L38.0215 8.29522C38.2484 8.5962 38.5382 8.82921 38.8906 8.9895C39.2431 9.1497 39.6101 9.22734 39.9867 9.22734Z" fill="#FF4500"/>
<path d="M46.771 9.22677C47.2877 9.22677 47.7705 9.13937 48.2148 8.96457C48.659 8.78986 49.0405 8.54226 49.3592 8.22668C49.6731 7.91111 49.9193 7.52757 50.1028 7.07606C50.2815 6.62455 50.3732 6.13427 50.3732 5.60019C50.3732 5.06612 50.2815 4.57583 50.1028 4.12433C49.9193 3.67282 49.6731 3.28927 49.3592 2.9737C49.0405 2.65814 48.659 2.41054 48.2148 2.23576C47.7705 2.06099 47.2877 1.96875 46.771 1.96875C46.2398 1.96875 45.7522 2.06099 45.3031 2.24062C44.8492 2.42025 44.4678 2.66785 44.1539 2.98827C43.84 3.30869 43.5937 3.69225 43.4199 4.13883C43.2412 4.59034 43.1543 5.07588 43.1543 5.60019C43.1543 6.12451 43.2412 6.61488 43.4199 7.06147C43.5937 7.51297 43.84 7.89652 44.1539 8.21209C44.4678 8.5325 44.8492 8.7801 45.3031 8.95974C45.7522 9.13937 46.2398 9.22677 46.771 9.22677ZM46.771 7.67318C46.4041 7.67318 46.0805 7.58094 45.7907 7.39647C45.5011 7.212 45.2742 6.96439 45.1147 6.64882C44.9554 6.33325 44.8782 5.98373 44.8782 5.60019C44.8782 5.21665 44.9554 4.86714 45.1147 4.55157C45.2742 4.23599 45.5011 3.98355 45.7907 3.79899C46.0805 3.61452 46.4041 3.52228 46.771 3.52228C47.1283 3.52228 47.447 3.61452 47.7368 3.79416C48.0265 3.97863 48.2486 4.22623 48.408 4.54181C48.5673 4.86222 48.6493 5.21182 48.6493 5.60019C48.6493 5.98857 48.5673 6.34301 48.408 6.65858C48.2486 6.97415 48.0265 7.22176 47.7368 7.40131C47.447 7.58587 47.1283 7.67318 46.771 7.67318Z" fill="#FF4500"/>
<path d="M51.3823 9.13027H53.053V2.06641H51.3823V9.13027Z" fill="#FF4500"/>
<path d="M58.7072 2.06641V6.40671H58.6879L55.979 2.06641H54.3228V9.13027H55.9693V4.89681H55.9886L58.654 9.13027H60.3586V2.06641H58.7072Z" fill="#FF4500"/>
<path d="M66.8196 9.22734C67.4328 9.22734 67.9591 9.106 68.4034 8.85356C68.8428 8.60103 69.1759 8.24668 69.3981 7.79034C69.6202 7.33391 69.7361 6.79992 69.7361 6.18337V2.06641H68.075V6.07654C68.075 6.57175 67.9543 6.96012 67.7226 7.24167C67.4908 7.52814 67.1866 7.66891 66.8196 7.66891C66.6168 7.66891 66.4381 7.63013 66.2836 7.54273C66.1243 7.46017 65.9939 7.34367 65.8973 7.19797C65.7959 7.05236 65.7187 6.88732 65.6656 6.69309C65.6124 6.50378 65.5883 6.29987 65.5883 6.07654V2.06641H63.9224V6.18337C63.9224 6.66882 63.99 7.1009 64.13 7.48444C64.2652 7.87282 64.4632 8.19322 64.7192 8.44575C64.9702 8.69819 65.2744 8.89234 65.6317 9.02828C65.9891 9.16421 66.385 9.22734 66.8196 9.22734Z" fill="#FF4500"/>
<path d="M73.034 9.22703C73.2657 9.22703 73.4975 9.20276 73.7292 9.15423C73.9611 9.10569 74.188 9.02313 74.415 8.90662C74.6419 8.79012 74.8399 8.64934 75.0137 8.47938C75.1875 8.31434 75.3275 8.09584 75.4338 7.83373C75.54 7.57153 75.5931 7.28022 75.5931 6.95981C75.5931 6.67827 75.5497 6.43066 75.4724 6.21216C75.3324 5.84805 75.0475 5.54215 74.6178 5.29947C74.4101 5.18297 74.0094 5.013 73.4203 4.77999C73.0195 4.62462 72.7491 4.49836 72.6042 4.39162C72.4593 4.28478 72.3917 4.15368 72.3965 3.99832C72.3965 3.82844 72.4545 3.6925 72.5704 3.59534C72.6863 3.49827 72.8408 3.44973 73.0388 3.44973C73.4444 3.44973 73.9272 3.67791 74.4874 4.12942L75.429 2.89628C74.6757 2.27 73.8644 1.96414 72.9856 1.97386C72.5608 1.98356 72.1744 2.07581 71.822 2.26029C71.4695 2.44478 71.1894 2.69238 70.9866 3.01279C70.7838 3.33322 70.6824 3.68274 70.6824 4.06628C70.6824 4.26052 70.7017 4.44499 70.7452 4.61003C70.7886 4.77999 70.8466 4.93044 70.9142 5.0567C70.9818 5.1878 71.0736 5.30914 71.1845 5.42565C71.2956 5.54215 71.4067 5.63931 71.5226 5.72179C71.6385 5.80435 71.7737 5.88692 71.9281 5.96456C72.0827 6.0422 72.2228 6.11017 72.358 6.16363C72.4932 6.217 72.6428 6.27046 72.8167 6.32867C73.2223 6.4646 73.5023 6.59087 73.6472 6.70253C73.792 6.8142 73.8644 6.96465 73.8644 7.15404C73.8644 7.26563 73.8355 7.36279 73.7872 7.44526C73.7389 7.53266 73.652 7.60063 73.5313 7.65409C73.4057 7.70746 73.256 7.73173 73.0726 7.73173C72.8119 7.73173 72.5317 7.66376 72.2372 7.51815C71.9427 7.37729 71.6674 7.16855 71.4164 6.88701L70.4409 8.10068C70.808 8.47938 71.2184 8.76092 71.6626 8.94548C72.1068 9.13479 72.5656 9.22703 73.034 9.22703Z" fill="#FF4500"/>
<path d="M82.2519 9.22677C82.7681 9.22677 83.2517 9.13937 83.6958 8.96457C84.1399 8.78986 84.5213 8.54226 84.84 8.22668C85.1535 7.91111 85.4 7.52757 85.5839 7.07606C85.7625 6.62455 85.8536 6.13427 85.8536 5.60019C85.8536 5.06612 85.7625 4.57583 85.5839 4.12433C85.4 3.67282 85.1535 3.28927 84.84 2.9737C84.5213 2.65814 84.1399 2.41054 83.6958 2.23576C83.2517 2.06099 82.7681 1.96875 82.2519 1.96875C81.7211 1.96875 81.2332 2.06099 80.7839 2.24062C80.3304 2.42025 79.9481 2.66785 79.6346 2.98827C79.3211 3.30869 79.0746 3.69225 78.901 4.13883C78.7224 4.59034 78.6348 5.07588 78.6348 5.60019C78.6348 6.12451 78.7224 6.61488 78.901 7.06147C79.0746 7.51297 79.3211 7.89652 79.6346 8.21209C79.9481 8.5325 80.3304 8.7801 80.7839 8.95974C81.2332 9.13937 81.7211 9.22677 82.2519 9.22677ZM82.2519 7.67318C81.8851 7.67318 81.5613 7.58094 81.2718 7.39647C80.9815 7.212 80.7547 6.96439 80.5958 6.64882C80.436 6.33325 80.3587 5.98373 80.3587 5.60019C80.3587 5.21665 80.436 4.86714 80.5958 4.55157C80.7547 4.23599 80.9815 3.98355 81.2718 3.79899C81.5613 3.61452 81.8851 3.52228 82.2519 3.52228C82.6092 3.52228 82.9279 3.61452 83.2174 3.79416C83.5069 3.97863 83.7293 4.22623 83.8891 4.54181C84.048 4.86222 84.1305 5.21182 84.1305 5.60019C84.1305 5.98857 84.048 6.34301 83.8891 6.65858C83.7293 6.97415 83.5069 7.22176 83.2174 7.40131C82.9279 7.58587 82.6092 7.67318 82.2519 7.67318Z" fill="#FF4500"/>
<path d="M91.204 2.06641V6.40671H91.1851L88.4759 2.06641H86.8198V9.13027H88.4665V4.89681H88.4854L91.1508 9.13027H92.8558V2.06641H91.204Z" fill="#FF4500"/>
</svg>
