<svg width="99" height="28" viewBox="0 0 99 28" fill="none" xmlns="http://www.w3.org/2000/svg">
<path d="M14.6201 11.5273C13.8332 11.5273 13.2119 12.2062 13.2119 13.0514C13.2119 13.8966 13.8469 14.5755 14.6201 14.5755C15.407 14.5755 16.0282 13.8966 16.0282 13.0514C16.0282 12.2062 15.3931 11.5273 14.6201 11.5273ZM9.58105 11.5273C8.79415 11.5273 8.17285 12.2062 8.17285 13.0514C8.17285 13.8966 8.80798 14.5755 9.58105 14.5755C10.368 14.5755 10.9892 13.8966 10.9892 13.0514C11.003 12.2062 10.368 11.5273 9.58105 11.5273Z" fill="#7289DA"/>
<path d="M21.3294 0H2.83015C1.27008 0 0 1.27468 0 2.84033V21.4062C0 22.9718 1.27008 24.2465 2.83015 24.2465H18.4856L17.7538 21.711L19.521 23.3459L21.1914 24.8838L24.1733 27.4747V2.84033C24.1596 1.27468 22.8894 0 21.3294 0ZM16.0005 17.9424C16.0005 17.9424 15.5035 17.3467 15.0893 16.834C16.8979 16.3213 17.5882 15.1991 17.5882 15.1991C17.0221 15.5732 16.4837 15.8364 16.0005 16.0166C15.3103 16.3075 14.6476 16.4876 13.9987 16.6123C12.6734 16.8617 11.4585 16.7925 10.4231 16.5985C9.63623 16.4461 8.9597 16.2382 8.39372 16.0027C8.07616 15.878 7.73103 15.7256 7.38589 15.5316C7.34449 15.5039 7.30308 15.49 7.26168 15.4623C7.23402 15.4485 7.22028 15.4347 7.20645 15.4347C6.95795 15.296 6.81991 15.1991 6.81991 15.1991C6.81991 15.1991 7.48252 16.2936 9.23586 16.8201C8.82166 17.3467 8.31092 17.9563 8.31092 17.9563C5.25984 17.8593 4.10023 15.8641 4.10023 15.8641C4.10023 11.4443 6.08824 7.8559 6.08824 7.8559C8.07616 6.37338 9.95371 6.41492 9.95371 6.41492L10.0918 6.58117C7.60682 7.2878 6.47478 8.38237 6.47478 8.38237C6.47478 8.38237 6.77851 8.21612 7.28926 7.99442C8.76643 7.34324 9.93996 7.17699 10.4231 7.12155C10.5059 7.10764 10.575 7.09382 10.6578 7.09382C11.4999 6.98302 12.4526 6.9553 13.4466 7.0661C14.758 7.21853 16.1662 7.60648 17.6019 8.38237C17.6019 8.38237 16.5114 7.34324 14.1644 6.63661L14.3577 6.41492C14.3577 6.41492 16.249 6.37338 18.2232 7.8559C18.2232 7.8559 20.2112 11.4443 20.2112 15.8641C20.2112 15.8502 19.0515 17.8454 16.0005 17.9424Z" fill="#7289DA"/>
<path d="M35.5714 11.6213H31.0273V16.7542L34.0521 19.4927V14.5111H35.6672C36.6937 14.5111 37.2001 15.0065 37.2001 15.8047V19.6165C37.2001 20.4147 36.721 20.9514 35.6672 20.9514H31.0137V23.855H35.5576C37.994 23.8687 40.2797 22.644 40.2797 19.8367V15.7359C40.2933 12.8736 38.0076 11.6213 35.5714 11.6213ZM59.3865 19.8367V15.6257C59.3865 14.1121 62.0965 13.7681 62.9177 15.2818L65.4225 14.2634C64.437 12.0892 62.644 11.4562 61.1522 11.4562C58.7158 11.4562 56.3069 12.8736 56.3069 15.6257V19.8367C56.3069 22.6165 58.7159 24.0063 61.0974 24.0063C62.6303 24.0063 64.4644 23.2495 65.4772 21.2679L62.7945 20.0293C62.1376 21.722 59.3865 21.3092 59.3865 19.8367ZM51.1059 16.2038C50.1616 15.9974 49.532 15.6533 49.4909 15.0616C49.5457 13.6442 51.7219 13.5891 52.9947 14.9515L55.0067 13.3964C53.7475 11.8552 52.3241 11.4424 50.8596 11.4424C48.6287 11.4424 46.4661 12.7084 46.4661 15.1029C46.4661 17.4285 48.2454 18.6808 50.2026 18.9835C51.2018 19.1211 52.3104 19.5202 52.283 20.2083C52.2009 21.5156 49.5183 21.4467 48.3002 19.9605L46.3566 21.7908C47.4927 23.2632 49.0392 24.0063 50.4901 24.0063C52.721 24.0063 55.1983 22.7127 55.2941 20.3459C55.431 17.3597 53.2685 16.6029 51.1059 16.2038ZM41.9358 23.8412H45.0016V11.6213H41.9358V23.8412ZM93.6308 11.6213H89.0868V16.7542L92.1121 19.4927V14.5111H93.727C94.7534 14.5111 95.2594 15.0065 95.2594 15.8047V19.6165C95.2594 20.4147 94.7809 20.9514 93.727 20.9514H89.073V23.855H93.6308C96.0677 23.8687 98.3534 22.644 98.3534 19.8367V15.7359C98.3534 12.8736 96.0677 11.6213 93.6308 11.6213ZM71.3352 11.4562C68.8167 11.4562 66.3121 12.8323 66.3121 15.6533V19.8229C66.3121 22.6165 68.8304 24.0201 71.3627 24.0201C73.8812 24.0201 76.386 22.6165 76.386 19.8229V15.6533C76.386 12.846 73.8537 11.4562 71.3352 11.4562ZM73.3057 19.8229C73.3057 20.7037 72.3205 21.1578 71.349 21.1578C70.3637 21.1578 69.3776 20.7311 69.3776 19.8229V15.6533C69.3776 14.7588 70.3362 14.2772 71.294 14.2772C72.293 14.2772 73.3057 14.7038 73.3057 15.6533V19.8229ZM87.3894 15.6533C87.3216 12.791 85.3777 11.6351 82.8729 11.6351H78.0146V23.855H81.1215V19.9743H81.6687L84.4878 23.855H88.3206L85.0084 19.6578C86.4729 19.1899 87.3894 17.9102 87.3894 15.6533ZM82.9279 17.3047H81.1215V14.5111H82.9279C84.858 14.5111 84.858 17.3047 82.9279 17.3047Z" fill="#7289DA"/>
<path d="M32.5463 8.02226C32.8746 8.02226 33.1643 7.9834 33.4203 7.896C33.6714 7.81352 33.8838 7.69702 34.0577 7.54649C34.2315 7.39596 34.3715 7.20665 34.4826 6.98331C34.5937 6.75997 34.6757 6.51729 34.7241 6.25509C34.7723 5.99289 34.7965 5.69675 34.7965 5.36667V0.861328H33.1402V5.41037C33.1402 6.09972 32.9036 6.43956 32.4304 6.43956C32.3145 6.43956 32.2035 6.4153 32.0875 6.36676C31.9716 6.31822 31.8655 6.25509 31.7737 6.17745C31.6819 6.09972 31.5999 6.01725 31.5323 5.92009L30.5811 7.09014C30.808 7.39112 31.0977 7.62413 31.4502 7.78442C31.8027 7.94462 32.1696 8.02226 32.5463 8.02226Z" fill="#7289DA"/>
<path d="M39.3306 8.0217C39.8473 8.0217 40.3301 7.9343 40.7743 7.7595C41.2186 7.58478 41.6001 7.33718 41.9188 7.02161C42.2326 6.70603 42.4789 6.32249 42.6624 5.87098C42.841 5.41947 42.9328 4.92919 42.9328 4.39511C42.9328 3.86104 42.841 3.37076 42.6624 2.91925C42.4789 2.46774 42.2326 2.08419 41.9188 1.76862C41.6001 1.45306 41.2186 1.20546 40.7743 1.03068C40.3301 0.855908 39.8473 0.763672 39.3306 0.763672C38.7994 0.763672 38.3117 0.855908 37.8627 1.03554C37.4088 1.21517 37.0273 1.46277 36.7135 1.78319C36.3996 2.10361 36.1533 2.48717 35.9795 2.93376C35.8008 3.38527 35.7139 3.8708 35.7139 4.39511C35.7139 4.91943 35.8008 5.4098 35.9795 5.85639C36.1533 6.3079 36.3996 6.69144 36.7135 7.00701C37.0273 7.32742 37.4088 7.57502 37.8627 7.75466C38.3117 7.9343 38.7994 8.0217 39.3306 8.0217ZM39.3306 6.4681C38.9636 6.4681 38.6401 6.37586 38.3503 6.19139C38.0607 6.00692 37.8337 5.75931 37.6743 5.44374C37.515 5.12817 37.4377 4.77866 37.4377 4.39511C37.4377 4.01157 37.515 3.66206 37.6743 3.34649C37.8337 3.03091 38.0607 2.77847 38.3503 2.59391C38.6401 2.40944 38.9636 2.31721 39.3306 2.31721C39.6879 2.31721 40.0066 2.40944 40.2963 2.58908C40.5861 2.77355 40.8082 3.02116 40.9675 3.33673C41.1269 3.65714 41.2089 4.00674 41.2089 4.39511C41.2089 4.78349 41.1269 5.13793 40.9675 5.4535C40.8082 5.76907 40.5861 6.01668 40.2963 6.19623C40.0066 6.38079 39.6879 6.4681 39.3306 6.4681Z" fill="#7289DA"/>
<path d="M43.9419 7.92519H45.6126V0.861328H43.9419V7.92519Z" fill="#7289DA"/>
<path d="M51.2668 0.861328V5.20163H51.2475L48.5386 0.861328H46.8823V7.92519H48.5289V3.69173H48.5482L51.2136 7.92519H52.9182V0.861328H51.2668Z" fill="#7289DA"/>
<path d="M59.3792 8.02226C59.9924 8.02226 60.5187 7.90093 60.9629 7.64848C61.4024 7.39596 61.7355 7.04161 61.9576 6.58526C62.1798 6.12883 62.2956 5.59484 62.2956 4.97829V0.861328H60.6346V4.87146C60.6346 5.36667 60.5139 5.75505 60.2821 6.03659C60.0504 6.32306 59.7461 6.46383 59.3792 6.46383C59.1764 6.46383 58.9977 6.42506 58.8432 6.33766C58.6838 6.25509 58.5534 6.13859 58.4569 5.99289C58.3554 5.84728 58.2782 5.68224 58.2251 5.48801C58.172 5.2987 58.1478 5.0948 58.1478 4.87146V0.861328H56.4819V4.97829C56.4819 5.46374 56.5495 5.89582 56.6895 6.27936C56.8247 6.66774 57.0227 6.98815 57.2787 7.24067C57.5298 7.49311 57.834 7.68726 58.1913 7.8232C58.5486 7.95913 58.9445 8.02226 59.3792 8.02226Z" fill="#7289DA"/>
<path d="M65.5936 8.02195C65.8253 8.02195 66.0571 7.99768 66.2888 7.94915C66.5206 7.90061 66.7476 7.81805 66.9745 7.70154C67.2015 7.58504 67.3995 7.44427 67.5732 7.2743C67.7471 7.10926 67.8871 6.89076 67.9934 6.62865C68.0996 6.36645 68.1527 6.07514 68.1527 5.75473C68.1527 5.47319 68.1092 5.22558 68.032 5.00708C67.892 4.64297 67.6071 4.33707 67.1773 4.09439C66.9697 3.97789 66.5689 3.80792 65.9798 3.57491C65.579 3.41955 65.3086 3.29328 65.1637 3.18654C65.0189 3.07971 64.9513 2.94861 64.9561 2.79324C64.9561 2.62336 65.0141 2.48742 65.13 2.39027C65.2458 2.29319 65.4004 2.24466 65.5984 2.24466C66.004 2.24466 66.4868 2.47283 67.0469 2.92434L67.9886 1.6912C67.2352 1.06492 66.424 0.759063 65.5452 0.768779C65.1203 0.778486 64.734 0.870731 64.3815 1.05521C64.029 1.2397 63.749 1.4873 63.5462 1.80772C63.3434 2.12814 63.2419 2.47766 63.2419 2.86121C63.2419 3.05544 63.2613 3.23991 63.3047 3.40495C63.3482 3.57491 63.4062 3.72536 63.4738 3.85162C63.5414 3.98272 63.6331 4.10407 63.7441 4.22057C63.8552 4.33707 63.9662 4.43423 64.0822 4.51671C64.1981 4.59927 64.3333 4.68184 64.4877 4.75948C64.6422 4.83712 64.7823 4.90509 64.9175 4.95855C65.0527 5.01192 65.2024 5.06538 65.3762 5.12359C65.7818 5.25952 66.0619 5.38579 66.2068 5.49746C66.3516 5.60912 66.424 5.75957 66.424 5.94897C66.424 6.06055 66.3951 6.15771 66.3468 6.24018C66.2985 6.32758 66.2116 6.39555 66.0909 6.44901C65.9653 6.50238 65.8156 6.52665 65.6321 6.52665C65.3714 6.52665 65.0913 6.45868 64.7968 6.31307C64.5022 6.17222 64.227 5.96347 63.9759 5.68193L63.0005 6.8956C63.3675 7.2743 63.7779 7.55585 64.2222 7.74041C64.6664 7.92972 65.1252 8.02195 65.5936 8.02195Z" fill="#7289DA"/>
<path d="M74.8115 8.0217C75.3277 8.0217 75.8113 7.9343 76.2554 7.7595C76.6995 7.58478 77.0809 7.33718 77.3996 7.02161C77.7131 6.70603 77.9596 6.32249 78.1434 5.87098C78.3221 5.41947 78.4131 4.92919 78.4131 4.39511C78.4131 3.86104 78.3221 3.37076 78.1434 2.91925C77.9596 2.46774 77.7131 2.08419 77.3996 1.76862C77.0809 1.45306 76.6995 1.20546 76.2554 1.03068C75.8113 0.855908 75.3277 0.763672 74.8115 0.763672C74.2806 0.763672 73.7927 0.855908 73.3435 1.03554C72.8899 1.21517 72.5077 1.46277 72.1942 1.78319C71.8807 2.10361 71.6341 2.48717 71.4606 2.93376C71.2819 3.38527 71.1943 3.8708 71.1943 4.39511C71.1943 4.91943 71.2819 5.4098 71.4606 5.85639C71.6341 6.3079 71.8807 6.69144 72.1942 7.00701C72.5077 7.32742 72.8899 7.57502 73.3435 7.75466C73.7927 7.9343 74.2806 8.0217 74.8115 8.0217ZM74.8115 6.4681C74.4447 6.4681 74.1209 6.37586 73.8314 6.19139C73.5411 6.00692 73.3143 5.75931 73.1554 5.44374C72.9956 5.12817 72.9183 4.77866 72.9183 4.39511C72.9183 4.01157 72.9956 3.66206 73.1554 3.34649C73.3143 3.03091 73.5411 2.77847 73.8314 2.59391C74.1209 2.40944 74.4447 2.31721 74.8115 2.31721C75.1688 2.31721 75.4875 2.40944 75.777 2.58908C76.0664 2.77355 76.2889 3.02116 76.4487 3.33673C76.6076 3.65714 76.69 4.00674 76.69 4.39511C76.69 4.78349 76.6076 5.13793 76.4487 5.4535C76.2889 5.76907 76.0664 6.01668 75.777 6.19623C75.4875 6.38079 75.1688 6.4681 74.8115 6.4681Z" fill="#7289DA"/>
<path d="M83.7636 0.861328V5.20163H83.7447L81.0355 0.861328H79.3794V7.92519H81.026V3.69173H81.0449L83.7103 7.92519H85.4154V0.861328H83.7636Z" fill="#7289DA"/>
</svg>
