<svg width="98" height="25" viewBox="0 0 98 25" fill="none" xmlns="http://www.w3.org/2000/svg">
<path d="M70.2024 8.49949C70.4342 8.49949 70.6659 8.47522 70.8977 8.42669C71.1295 8.37815 71.3565 8.29559 71.5834 8.17908C71.8104 8.06258 72.0083 7.92181 72.1821 7.75184C72.356 7.5868 72.496 7.3683 72.6022 7.10619C72.7085 6.84399 72.7616 6.55268 72.7616 6.23227C72.7616 5.95073 72.7181 5.70312 72.6409 5.48462C72.5009 5.12051 72.216 4.81461 71.7862 4.57193C71.5786 4.45543 71.1778 4.28546 70.5887 4.05245C70.1879 3.89709 69.9175 3.77082 69.7726 3.66408C69.6278 3.55725 69.5602 3.42614 69.565 3.27078C69.565 3.1009 69.623 2.96496 69.7389 2.8678C69.8547 2.77073 70.0093 2.7222 70.2073 2.7222C70.6129 2.7222 71.0957 2.95037 71.6558 3.40188L72.5974 2.16874C71.8441 1.54246 71.0329 1.2366 70.1541 1.24632C69.7292 1.25603 69.3429 1.34827 68.9904 1.53275C68.6379 1.71724 68.3579 1.96484 68.1551 2.28526C67.9523 2.60568 67.8508 2.9552 67.8508 3.33874C67.8508 3.53298 67.8702 3.71745 67.9136 3.88249C67.9571 4.05245 68.0151 4.2029 68.0827 4.32916C68.1503 4.46026 68.242 4.5816 68.353 4.69811C68.4641 4.81461 68.5751 4.91177 68.6911 4.99425C68.807 5.07681 68.9422 5.15938 69.0966 5.23702C69.2511 5.31466 69.3912 5.38263 69.5264 5.43609C69.6616 5.48946 69.8113 5.54292 69.9851 5.60113C70.3907 5.73706 70.6708 5.86333 70.8157 5.975C70.9605 6.08666 71.0329 6.23711 71.0329 6.42651C71.0329 6.53809 71.004 6.63525 70.9557 6.71772C70.9074 6.80512 70.8205 6.87309 70.6998 6.92655C70.5742 6.97992 70.4245 7.00419 70.241 7.00419C69.9803 7.00419 69.7002 6.93622 69.4057 6.79061C69.1111 6.64975 68.8359 6.44101 68.5848 6.15947L67.6094 7.37314C67.9764 7.75184 68.3868 8.03339 68.8311 8.21795C69.2753 8.40725 69.734 8.49949 70.2024 8.49949Z" fill="#33CCFF"/>
<path d="M79.4204 8.49923C79.9366 8.49923 80.4202 8.41184 80.8643 8.23704C81.3084 8.06232 81.6898 7.81472 82.0084 7.49914C82.322 7.18357 82.5685 6.80003 82.7523 6.34852C82.931 5.89701 83.022 5.40673 83.022 4.87265C83.022 4.33858 82.931 3.8483 82.7523 3.39679C82.5685 2.94528 82.322 2.56173 82.0084 2.24616C81.6898 1.9306 81.3084 1.683 80.8643 1.50822C80.4202 1.33345 79.9366 1.24121 79.4204 1.24121C78.8895 1.24121 78.4016 1.33345 77.9524 1.51308C77.4988 1.69271 77.1166 1.94031 76.8031 2.26073C76.4895 2.58115 76.243 2.96471 76.0695 3.4113C75.8908 3.8628 75.8032 4.34834 75.8032 4.87265C75.8032 5.39697 75.8908 5.88734 76.0695 6.33393C76.243 6.78544 76.4895 7.16898 76.8031 7.48455C77.1166 7.80496 77.4988 8.05256 77.9524 8.2322C78.4016 8.41184 78.8895 8.49923 79.4204 8.49923ZM79.4204 6.94564C79.0536 6.94564 78.7297 6.8534 78.4403 6.66893C78.1499 6.48446 77.9232 6.23685 77.7643 5.92128C77.6045 5.60571 77.5272 5.25619 77.5272 4.87265C77.5272 4.48911 77.6045 4.1396 77.7643 3.82403C77.9232 3.50845 78.1499 3.25601 78.4403 3.07145C78.7297 2.88698 79.0536 2.79475 79.4204 2.79475C79.7777 2.79475 80.0964 2.88698 80.3858 3.06662C80.6753 3.25109 80.8978 3.4987 81.0576 3.81427C81.2165 4.13468 81.2989 4.48428 81.2989 4.87265C81.2989 5.26103 81.2165 5.61547 81.0576 5.93104C80.8978 6.24661 80.6753 6.49422 80.3858 6.67377C80.0964 6.85833 79.7777 6.94564 79.4204 6.94564Z" fill="#33CCFF"/>
<path d="M88.3725 1.33887V5.67917H88.3536L85.6444 1.33887H83.9883V8.40273H85.6349V4.16927H85.6538L88.3192 8.40273H90.0243V1.33887H88.3725Z" fill="#33CCFF"/>
<path d="M38.3951 23.8737C37.168 23.559 36.0419 22.6713 35.4658 21.5647C35.0243 20.7166 35.0248 20.7225 35.0238 16.8246C34.9715 13.4529 34.9915 13.3441 35.2275 13.0189C35.7289 12.2228 36.8345 12.0528 37.5593 12.6603C38.0683 13.0869 38.1087 13.2318 38.1087 14.6275V15.8378H40.2469C41.5547 15.8378 42.5095 15.8633 42.7057 15.9033C43.8215 16.1312 44.2451 17.4018 43.4703 18.197C43.379 18.2907 43.191 18.4257 43.0524 18.4969C42.8093 18.6218 42.719 18.6269 40.4546 18.6446L38.1087 18.663V19.2027C38.1087 19.9878 38.1942 20.2447 38.5769 20.6091C39.0238 21.0346 39.1431 21.0547 41.2382 21.0563C42.8636 21.0574 43.0098 21.0664 43.2729 21.1797C44.2707 21.6098 44.5193 22.755 43.7835 23.5322C43.3534 23.9864 43.325 23.991 40.9427 23.9884C39.0832 23.9864 38.781 23.9728 38.395 23.8737H38.3951ZM47.9163 23.8995C46.9475 23.676 45.9476 22.9751 45.3364 22.0911C44.7732 21.2764 44.6634 20.7032 44.6605 18.5622C44.658 16.7158 44.697 16.4833 45.07 16.1176C45.4153 15.7791 45.6353 15.6913 46.1433 15.6895C46.5311 15.6881 46.6291 15.7115 46.8973 15.8694C47.0882 15.9818 47.2782 16.1626 47.3962 16.3442C47.6325 16.7341 47.5891 16.8977 47.6183 18.5015C47.6491 20.3268 47.6528 20.37 47.7974 20.5915C48.2859 21.3396 49.296 21.4499 49.9661 20.8282C50.3529 20.4692 50.3893 20.2584 50.3893 18.3732C50.3893 16.823 50.3966 16.7186 50.5223 16.4801C50.7742 16.0022 51.1394 15.7492 51.6792 15.6788C52.2568 15.6034 52.8797 15.9276 53.1782 16.4589C53.3112 16.6958 53.3192 16.793 53.3492 18.5409C53.3385 19.9951 53.4103 20.4206 53.5544 20.6243C54.0153 21.2868 54.984 21.4293 55.5889 20.9236C56.0225 20.5611 56.0223 20.5623 56.0579 18.5363C56.0885 16.7973 56.097 16.6951 56.2289 16.4589C56.7829 15.4675 58.1853 15.4051 58.7951 16.3446C59.1895 16.8652 59.0168 17.967 59.0168 18.6775C59.0454 19.6124 58.9878 20.8112 58.8162 21.1807C58.3491 22.4359 57.3088 23.433 56.0572 23.8248C55.4895 24.0025 54.2384 24.0452 53.6747 23.906C53.1313 23.7719 52.661 23.5663 52.2135 23.2674L51.8377 23.0165L51.4621 23.2674C51.0078 23.5708 50.548 23.7763 50.0454 23.9005C49.577 24.0163 48.4202 24.0158 47.9163 23.8995ZM60.996 23.9082C60.7091 23.7893 60.3508 23.4681 60.1943 23.1894C60.0574 22.9459 60.0563 22.919 60.0563 19.8556C60.0563 16.9078 60.0619 16.7565 60.1798 16.53C60.6703 15.5883 61.9366 15.3764 62.7044 16.1075C63.1819 16.5622 63.1806 16.551 63.1601 19.9525C63.1425 22.8884 63.1396 22.9483 63.006 23.1838C62.8301 23.4935 62.5107 23.783 62.2153 23.9003C61.9296 24.0138 61.261 24.0181 60.996 23.9083V23.9082ZM67.6048 23.8745C66.2049 23.525 64.9861 22.4719 64.4715 21.167C64.1938 20.4629 64.1718 20.1042 64.1929 16.6174C64.2124 13.4014 64.2149 13.3454 64.3487 13.1094C65.0157 11.9323 66.8415 12.0813 67.2375 13.3451C67.3043 13.5584 67.3301 13.9458 67.3301 14.7338V15.8268L68.8258 15.8485C70.2088 15.8686 70.3405 15.8799 70.5734 15.9984C71.6681 16.5557 71.673 17.9384 70.5824 18.4933C70.3379 18.6177 70.2275 18.6273 68.8207 18.646L67.3198 18.6659L67.3407 19.3657C67.3651 20.1823 67.4628 20.4271 67.8883 20.7377C68.261 21.0097 68.4956 21.0541 69.5658 21.0552C70.4245 21.056 70.5394 21.069 70.8289 21.1973C72.0384 21.7336 72.0372 23.3575 70.8268 23.8811C70.4526 24.0429 68.2616 24.0384 67.6048 23.8745H67.6048ZM75.6225 23.8774C74.0366 23.4643 72.7346 22.1957 72.3239 20.6635C72.2229 20.2869 72.2118 19.9067 72.2113 16.8273C72.2353 13.631 72.0687 13.756 72.3831 13.0981C72.7451 12.4444 73.4921 12.1564 74.2831 12.3655C74.6129 12.4527 75.1677 12.981 75.2592 13.295C75.2973 13.4257 75.3277 14.0393 75.3279 14.6835L75.3282 15.8379H76.6107C78.0795 15.8379 78.4696 15.8897 78.8235 16.1318C79.5897 16.656 79.6072 17.8307 78.8564 18.3486C78.4818 18.607 78.1276 18.6563 76.6476 18.6563H75.3282V19.1994C75.3282 19.9148 75.4145 20.2155 75.7118 20.5372C76.1172 20.9757 76.2675 21.0175 77.5691 21.0535C78.702 21.0848 78.7095 21.0859 79.0176 21.267C79.3704 21.4744 79.6968 21.9328 79.7601 22.31C79.8518 22.8559 79.5514 23.4706 79.0334 23.7973L78.7701 23.9633L77.4113 23.9763C76.2513 23.9874 75.9896 23.9729 75.6225 23.8774L75.6225 23.8774ZM83.4838 23.9045C82.5631 23.6678 81.8847 23.2787 81.2206 22.6066C80.414 21.7901 80.0503 20.8902 80.0526 19.7168C80.054 19 80.1829 18.4396 80.4828 17.8468C80.7996 17.2205 81.147 16.8121 81.6587 16.4644C83.1488 15.4519 85.7974 15.3887 87.4657 16.3257C88.0628 16.6611 88.6838 17.2959 88.9864 17.8802C89.5983 19.0618 89.5367 20.132 88.8368 20.48C88.5947 20.6004 88.4818 20.6059 85.9241 20.6221L83.2633 20.6389V20.7963C83.2633 21.0415 83.6734 21.3739 84.1248 21.4945C84.4325 21.5767 84.8037 21.5947 86.1959 21.595C87.1379 21.595 87.9935 21.6221 88.12 21.6556C89.2041 21.9423 89.4214 23.3095 88.4675 23.8418C88.1585 24.0407 87.972 23.9907 85.9973 23.9894C84.3601 23.9865 83.7182 23.9648 83.4838 23.9045V23.9045ZM86.2524 18.5813C86.1339 18.203 85.794 17.979 85.1724 17.8696C84.5112 17.7532 83.5868 18.0136 83.4084 18.3665C83.3299 18.5219 83.2549 18.6988 83.2549 18.6988C83.2549 18.6988 83.8051 18.7163 84.781 18.7163H86.2947L86.2524 18.5813ZM91.0049 23.8779C90.6804 23.71 90.3347 23.32 90.2524 23.0289C90.2043 22.8587 90.1888 22.1929 90.2047 20.9716C90.2277 19.1928 90.2306 19.1587 90.4004 18.6734C90.8476 17.3951 92.0434 16.3349 93.4342 15.9834C93.9454 15.8542 96.3057 15.7923 96.8205 15.8946C97.5354 16.0366 98 16.562 98 17.2285C98 17.7969 97.7288 18.2367 97.2206 18.4924C96.9814 18.6128 96.844 18.6256 95.4809 18.6547C94.0675 18.6849 93.9903 18.6926 93.7634 18.8269C93.464 19.0041 93.2458 19.2774 93.1573 19.5858C93.1158 19.7305 93.0883 20.4456 93.0881 21.388C93.0878 22.95 93.0878 22.9504 92.9241 23.2632C92.8135 23.4744 92.6652 23.6387 92.4675 23.7691C92.2103 23.9386 92.117 23.9641 91.7023 23.9783C91.3311 23.9909 91.1818 23.9694 91.0049 23.8779ZM60.9187 14.783C59.919 14.3087 59.7373 13.0558 60.5675 12.3616C60.891 12.0912 61.1512 12 61.5992 12C62.2257 12 62.7123 12.2787 62.9937 12.7987C63.6665 14.0419 62.2373 15.4087 60.9187 14.783Z" fill="#33CCFF"/>
<path d="M37.1552 8.4998C37.4835 8.4998 37.7732 8.46094 38.0292 8.37354C38.2803 8.29106 38.4927 8.17456 38.6665 8.02403C38.8404 7.87349 38.9804 7.68419 39.0915 7.46085C39.2025 7.23751 39.2846 6.99483 39.3329 6.73263C39.3812 6.47043 39.4054 6.17429 39.4054 5.84421V1.33887H37.7491V5.88791C37.7491 6.57726 37.5125 6.9171 37.0393 6.9171C36.9234 6.9171 36.8124 6.89284 36.6964 6.8443C36.5805 6.79576 36.4744 6.73263 36.3826 6.65499C36.2908 6.57726 36.2088 6.49479 36.1412 6.39763L35.1899 7.56768C35.4169 7.86866 35.7066 8.10167 36.059 8.26196C36.4116 8.42216 36.7785 8.4998 37.1552 8.4998Z" fill="#33CCFF"/>
<path d="M43.9395 8.49923C44.4561 8.49923 44.939 8.41184 45.3832 8.23704C45.8275 8.06232 46.209 7.81472 46.5276 7.49914C46.8415 7.18357 47.0878 6.80003 47.2713 6.34852C47.4499 5.89701 47.5417 5.40673 47.5417 4.87265C47.5417 4.33858 47.4499 3.8483 47.2713 3.39679C47.0878 2.94528 46.8415 2.56173 46.5276 2.24616C46.209 1.9306 45.8275 1.683 45.3832 1.50822C44.939 1.33345 44.4561 1.24121 43.9395 1.24121C43.4083 1.24121 42.9206 1.33345 42.4716 1.51308C42.0177 1.69271 41.6362 1.94031 41.3223 2.26073C41.0085 2.58115 40.7622 2.96471 40.5883 3.4113C40.4097 3.8628 40.3228 4.34834 40.3228 4.87265C40.3228 5.39697 40.4097 5.88734 40.5883 6.33393C40.7622 6.78544 41.0085 7.16898 41.3223 7.48455C41.6362 7.80496 42.0177 8.05256 42.4716 8.2322C42.9206 8.41184 43.4083 8.49923 43.9395 8.49923ZM43.9395 6.94564C43.5725 6.94564 43.2489 6.8534 42.9592 6.66893C42.6696 6.48446 42.4426 6.23685 42.2832 5.92128C42.1239 5.60571 42.0466 5.25619 42.0466 4.87265C42.0466 4.48911 42.1239 4.1396 42.2832 3.82403C42.4426 3.50845 42.6696 3.25601 42.9592 3.07145C43.2489 2.88698 43.5725 2.79475 43.9395 2.79475C44.2968 2.79475 44.6155 2.88698 44.9052 3.06662C45.1949 3.25109 45.4171 3.4987 45.5764 3.81427C45.7358 4.13468 45.8178 4.48428 45.8178 4.87265C45.8178 5.26103 45.7358 5.61547 45.5764 5.93104C45.4171 6.24661 45.1949 6.49422 44.9052 6.67377C44.6155 6.85833 44.2968 6.94564 43.9395 6.94564Z" fill="#33CCFF"/>
<path d="M48.5508 8.40273H50.2215V1.33887H48.5508V8.40273Z" fill="#33CCFF"/>
<path d="M55.8757 1.33887V5.67917H55.8563L53.1475 1.33887H51.4912V8.40273H53.1378V4.16927H53.1571L55.8225 8.40273H57.5271V1.33887H55.8757Z" fill="#33CCFF"/>
<path d="M63.9881 8.4998C64.6013 8.4998 65.1276 8.37846 65.5718 8.12602C66.0113 7.8735 66.3444 7.51915 66.5665 7.0628C66.7887 6.60637 66.9045 6.07238 66.9045 5.45583V1.33887H65.2434V5.349C65.2434 5.84421 65.1228 6.23259 64.891 6.51413C64.6593 6.8006 64.355 6.94137 63.9881 6.94137C63.7853 6.94137 63.6066 6.90259 63.4521 6.81519C63.2927 6.73263 63.1623 6.61613 63.0658 6.47043C62.9643 6.32482 62.8871 6.15978 62.834 5.96555C62.7809 5.77624 62.7567 5.57234 62.7567 5.349V1.33887H61.0908V5.45583C61.0908 5.94128 61.1584 6.37336 61.2984 6.7569C61.4336 7.14528 61.6316 7.46569 61.8876 7.71821C62.1387 7.97065 62.4429 8.1648 62.8002 8.30074C63.1575 8.43667 63.5534 8.4998 63.9881 8.4998Z" fill="#33CCFF"/>
<path d="M30 2.95936C28.8963 3.46141 27.7099 3.80057 26.4651 3.95315C27.7357 3.17208 28.7118 1.93528 29.1712 0.461442C27.9819 1.18482 26.6647 1.70994 25.2627 1.99295C24.1401 0.766296 22.5405 0 20.7702 0C17.3712 0 14.6152 2.8257 14.6152 6.3111C14.6152 6.80576 14.6697 7.28751 14.7747 7.74941C9.65937 7.48624 5.12426 4.97354 2.08855 1.15513C1.55875 2.08724 1.25515 3.17132 1.25515 4.32799C1.25515 6.51767 2.34175 8.44941 3.99325 9.58116C2.98435 9.5484 2.0353 9.26447 1.2055 8.7918C1.2048 8.8181 1.2048 8.84455 1.2048 8.87117C1.2048 11.929 3.32641 14.4796 6.14206 15.0598C5.62561 15.2041 5.08186 15.2812 4.52056 15.2812C4.12396 15.2812 3.73846 15.2415 3.36256 15.168C4.14586 17.6753 6.41881 19.5 9.11222 19.5507C7.00576 21.2436 4.35196 22.2526 1.4682 22.2526C0.971402 22.2526 0.481501 22.2226 0 22.1643C2.72385 23.9552 5.95906 25 9.43487 25C20.7558 25 26.9468 15.3831 26.9468 7.04279C26.9468 6.76916 26.9408 6.49706 26.9289 6.2262C28.1313 5.33654 29.1747 4.22509 29.9999 2.95936H30Z" fill="#33CCFF"/>
</svg>
