<svg width="227" height="238" viewBox="0 0 227 238" fill="none" xmlns="http://www.w3.org/2000/svg">
<path d="M96.86 173.243L92.3682 213.525H144.479L137.692 173.243H96.86Z" fill="#B7AF98"/>
<path d="M2.8207e-08 74.9203V175.449C-0.000241675 179.426 1.55287 183.245 4.32824 186.093C7.10361 188.941 10.8817 190.593 14.857 190.695C51.5735 191.642 180.001 193.938 214.951 193.421C217.843 193.377 220.606 192.219 222.664 190.188C224.722 188.156 225.917 185.409 225.999 182.518C226.673 159.165 227.769 103.005 223.715 76.9305C223.299 74.2738 221.968 71.8458 219.953 70.0653C217.937 68.2848 215.364 67.2635 212.676 67.1775C181.912 66.1931 45.7747 63.0661 10.8325 63.8686C7.94233 63.9343 5.19216 65.1267 3.16852 67.1913C1.14487 69.2559 0.00788107 72.0294 2.8207e-08 74.9203Z" fill="#D3D3D3"/>
<path d="M6.30762 74.4322V169.94C6.30729 172.257 7.21763 174.482 8.84241 176.135C10.4672 177.788 12.6763 178.736 14.9935 178.775L209.905 181.182C211.042 181.199 212.171 180.99 213.227 180.568C214.283 180.145 215.245 179.517 216.057 178.721C216.868 177.924 217.514 176.974 217.956 175.926C218.398 174.878 218.628 173.753 218.632 172.616L218.959 77.9604C218.965 76.3145 218.325 74.7318 217.178 73.5519C216.031 72.3719 214.466 71.6886 212.821 71.6486L13.2687 67.6159C12.3613 67.596 11.4591 67.7577 10.6151 68.0914C9.77107 68.4252 9.00223 68.9242 8.35374 69.5592C7.70526 70.1942 7.1902 70.9523 6.83883 71.7892C6.48746 72.626 6.30685 73.5246 6.30762 74.4322Z" fill="#F2F1ED"/>
<path d="M161.037 224.077H70.5593C68.1024 224.077 66.2536 222.327 66.7292 220.445L67.8915 215.854C68.2389 214.473 69.761 213.459 71.5644 213.402L158.787 210.701C160.673 210.643 162.34 211.644 162.754 213.079L164.847 220.392C165.389 222.282 163.536 224.077 161.037 224.077Z" fill="url(#paint0_linear)"/>
<path opacity="0.65" d="M220.121 185.123L6.3111 181.479C6.23869 181.471 6.17195 181.436 6.12352 181.381C6.07509 181.327 6.04834 181.256 6.04834 181.183C6.04834 181.111 6.07509 181.04 6.12352 180.986C6.17195 180.931 6.23869 180.896 6.3111 180.888L220.121 184.532C220.193 184.54 220.26 184.575 220.308 184.63C220.357 184.684 220.383 184.754 220.383 184.827C220.383 184.9 220.357 184.971 220.308 185.025C220.26 185.08 220.193 185.115 220.121 185.123Z" fill="white"/>
<path d="M131.919 151.579C170.004 151.579 200.877 120.706 200.877 82.6212C200.877 44.5367 170.004 13.6631 131.919 13.6631C93.8345 13.6631 62.9609 44.5367 62.9609 82.6212C62.9609 120.706 93.8345 151.579 131.919 151.579Z" fill="#F9F8F4"/>
<path d="M190.048 115.72C190.048 115.72 188.299 116.011 188.008 116.109C187.718 116.208 186.94 116.304 186.647 116.601C186.354 116.899 186.259 116.505 185.286 116.796C184.314 117.086 184.024 116.892 184.607 115.824C185.19 114.756 184.802 114.463 184.703 113.685C184.605 112.908 185.771 112.423 183.83 112.324C181.888 112.226 181.789 111.832 180.429 112.615C179.068 113.397 178 114.17 178 114.17L176.639 113.392C176.639 113.392 175.083 111.741 174.793 111.643C174.311 111.571 173.824 111.539 173.336 111.547C173.168 110.946 173.135 110.316 173.24 109.701C173.435 108.827 173.144 108.534 172.561 108.827C171.978 109.12 170.91 109.701 170.91 109.701C170.91 109.701 169.16 109.895 168.092 110.479C167.024 111.062 166.925 111.451 165.178 111.256C163.431 111.062 163.332 112.617 161.979 111.748C160.625 110.88 159.939 110.582 159.355 109.903C158.772 109.224 158.383 109.612 158.578 110.641C158.772 111.67 160.035 111.468 158.723 111.904C157.411 112.339 156.732 111.709 156.973 113.215C157.214 114.721 157.264 115.74 156.828 115.74C156.392 115.74 155.369 114.623 156.149 113.651C156.929 112.679 156.198 112.145 156.198 112.145C156.198 112.145 156.538 111.406 157.025 111.318C157.512 111.229 157.899 110.151 156.976 110.297C156.053 110.442 156.102 110.006 155.858 110.831C155.615 111.655 155.42 111.852 154.498 112.093C153.575 112.334 153.476 112.093 152.797 112.585C152.118 113.077 152.797 113.264 151.776 113.264C150.754 113.264 150.464 113.555 150.464 114.332C150.464 115.11 150.124 115.159 149.686 115.644C149.248 116.129 149.152 116.227 148.813 116.616C148.611 116.827 148.491 117.103 148.473 117.394C148.424 117.588 148.035 117.684 147.794 117.588C147.553 117.492 147.211 117.054 146.337 116.471C145.463 115.888 144.88 115.644 143.859 115.644C142.838 115.644 141.964 117.733 140.556 117.052C139.149 116.37 139.294 116.225 138.467 115.691C137.64 115.157 137.884 115.058 137.729 114.33C137.574 113.602 137.291 113.503 137.679 112.922C138.068 112.342 138.118 111.95 138.068 110.737C138.019 109.524 138.942 107.87 138.068 107.385C137.195 106.9 139.09 106.802 136.319 106.706C133.548 106.61 134.084 106.027 132.238 106.317C130.393 106.608 129.371 106.851 128.837 106.809C128.303 106.768 127.476 106.563 128.448 105.692C129.421 104.821 129.76 105.402 129.711 104.284C129.662 103.167 129.273 102.294 129.856 102.633C130.439 102.973 130.828 102.439 131.217 101.954C131.606 101.469 130.585 100.448 131.606 99.6234C132.627 98.799 133.501 98.3117 131.945 98.3117C130.39 98.3117 131.655 97.5734 129.615 97.7777C127.575 97.9819 127.624 97.8737 127.526 98.516C127.427 99.1583 125.97 97.9327 126.652 99.4881C127.334 101.043 127.39 101.819 126.748 101.917C126.192 101.961 125.641 102.043 125.097 102.163C123.591 102.453 122.668 103.524 122.279 102.796C121.89 102.067 122.525 101.873 121.405 101.873C120.286 101.873 120.143 102.311 119.754 100.805C119.365 99.2986 117.714 97.9377 118.442 97.9377C119.171 97.9377 119.075 97.16 118.733 96.3356C118.391 95.5112 118.487 94.3914 118.487 93.5178C118.487 92.6442 118.437 91.1381 119.07 91.6721C119.702 92.2061 119.749 91.8665 119.749 90.9338C119.749 90.0011 118.971 89.3785 119.555 88.5541C120.138 87.7297 119.505 87.7764 120.768 87.2916C122.03 86.8068 121.641 86.7576 122.906 86.7084C124.171 86.6591 124.122 86.9028 124.607 86.3688C125.092 85.8347 124.656 84.8134 125.286 85.3475C125.916 85.8815 125.577 85.7363 126.888 85.6378C128.2 85.5394 128.928 86.0759 129.074 85.0792C129.219 84.0825 128.685 83.9866 130.24 83.8881C131.795 83.7897 132.524 83.6937 133.193 83.7429C133.863 83.7921 133.931 83.3049 134.067 84.1318C134.202 84.9586 134.99 84.6239 135.573 84.5206C136.156 84.4172 136.205 83.6469 136.739 84.1318C137.273 84.6166 138.44 85.153 138.684 85.7338C138.927 86.3146 139.176 86.5607 138.93 87.4836C138.684 88.4064 138.191 88.746 138.784 89.2333C139.378 89.7206 139.658 89.4794 139.707 90.2054C139.757 90.9313 140.34 91.5663 140.387 91.9059C140.433 92.2455 141.213 92.4891 141.455 92.3981C141.696 92.307 142.717 91.4752 141.989 88.9011C141.26 86.3269 141.698 86.2285 141.356 84.8208C141.014 83.4132 140.773 83.2655 141.647 82.003C142.52 80.7406 142.715 80.3025 143.736 79.8177C144.757 79.3329 145.097 79.0401 145.874 77.8736C146.652 76.7071 147.381 76.3182 148.353 75.8827C149.325 75.4471 148.498 75.324 148.522 74.8392C148.547 74.3544 149.177 74.5931 149.59 74.3298C150.004 74.0665 150.329 73.9902 150.1 73.5915C149.871 73.1929 149.322 73.6875 149.396 73.3725C149.47 73.0575 150.489 72.4989 150.223 72.206C149.957 71.9132 149.59 71.7926 149.081 72.0608C148.572 72.3291 148.038 72.1568 148.254 71.8418C148.471 71.5268 148.813 72.0116 148.717 71.0395C148.621 70.0675 147.964 68.8542 148.279 68.3325C148.594 67.8108 148.692 67.3481 148.741 68.8247C148.791 70.3012 148.596 71.8123 149.275 71.3742C149.955 70.9362 150.538 70.5719 150.174 69.6983C149.809 68.8247 149.251 68.362 149.928 68.6549C150.604 68.9477 150.462 69.9173 150.971 69.3341C151.48 68.7508 152.187 68.1184 151.749 67.6336C151.311 67.1488 151.653 66.5901 151.675 66.2727C151.697 65.9552 151.165 65.5196 151.965 65.495C152.765 65.4704 153.496 65.9331 153.86 65.2489C154.224 64.5648 154.539 64.3753 154.005 64.4467C153.471 64.518 152.864 64.9807 152.529 64.8847C152.194 64.7887 153.137 64.2768 153.936 64.1317C154.736 63.9865 153.986 63.7674 154.763 63.7428C155.541 63.7182 156.464 63.9372 156.486 63.4278C156.508 62.9184 155.782 62.3598 155.502 62.5296C155.221 62.6994 155.009 62.5296 155.039 62.0669C155.069 61.6043 155.622 61.3286 155.841 60.7798C156.06 60.2311 157.008 59.3353 157.274 59.1704C157.539 59.0055 158.504 59.574 158.691 58.8702C158.878 58.1663 158.917 57.8858 159.048 57.8316C159.178 57.7775 159.54 58.0113 159.762 57.5683C159.983 57.1253 160.3 56.1483 160.364 56.83C160.428 57.5117 160.202 57.6348 160.807 57.118C161.413 56.6012 161.639 55.9539 161.674 56.3797C161.708 56.8054 161.92 57.0934 162.166 56.8005C162.412 56.5076 162.385 57.2312 162.028 57.2927C161.671 57.3542 160.999 56.5544 161.061 57.3419C161.122 58.1294 160.788 57.588 160.711 58.2598C160.635 58.9317 160.635 60.3984 161.477 59.6847C162.318 58.9711 162.178 58.4543 162.766 58.0113C163.253 57.6782 163.764 57.3813 164.295 57.1229L165.193 56.0253C165.193 56.0253 165.86 55.602 165.094 55.602C164.329 55.602 164.568 55.4716 163.97 55.6709C163.372 55.8703 163.086 55.8161 162.766 55.5307C162.446 55.2452 162.52 55.1467 161.831 55.1812C161.142 55.2156 161.036 55.3362 160.709 54.2903C160.382 53.2444 161.447 53.3183 160.382 53.2469C159.316 53.1755 159.41 53.2223 158.78 53.429C158.15 53.6357 157.906 53.4659 158.317 53.1239C158.728 52.7818 159.24 52.954 159.794 52.6858C160.347 52.4176 161.248 52.516 160.704 51.8589C160.311 51.4396 159.793 51.1582 159.228 51.0567L157.089 51.9549L155.777 53.1288C155.777 53.1288 155.073 54.0565 154.66 54.6053C154.247 55.1541 153.567 55.6217 153.956 54.9425C154.345 54.2633 154.879 53.1706 155.433 52.5874C155.894 52.1416 156.38 51.7225 156.89 51.3323C157.399 50.8869 157.35 49.7696 158.081 49.649C158.812 49.5284 159.501 49.5998 160.788 49.4546C162.075 49.3094 163.564 49.2085 164.024 48.9624C164.484 48.7163 164.546 48.3152 164.725 47.8623C164.905 47.4095 164.92 47.4907 165.641 47.3209C166.362 47.1511 166.362 46.3095 166.362 45.8887C166.362 45.4678 165.582 45.3054 165.454 44.7542C165.326 44.2029 165.5 43.7501 165.089 44.0405C164.678 44.3309 164.809 45.0446 164.583 44.7542C164.356 44.4638 164.939 43.6541 164.13 43.8485C163.32 44.043 163.709 43.7526 162.931 44.6582C162.154 45.5638 161.684 45.3965 162.161 44.6582C162.638 43.9199 163.638 43.4819 163.967 43.3268C164.297 43.1718 163.352 42.9774 162.348 42.8149C161.647 42.7123 160.986 42.4205 160.438 41.9708C160.211 41.8112 159.938 41.7315 159.661 41.7444C159.565 41.7444 159.402 41.3876 158.398 40.45C157.394 39.5124 156.1 38.2794 155.445 37.5682C154.79 36.857 154.667 35.7865 154.505 36.7906C154.343 37.7946 154.894 38.2794 154.247 38.6363C153.599 38.9931 153.85 39.1875 153.223 39.3745C152.595 39.5616 152.814 39.4385 152.283 39.2441C151.751 39.0497 151.202 39.4705 151.17 39.0497C151.138 38.6289 152.238 39.2121 151.266 38.272C150.294 37.332 150.863 37.8709 150.887 37.1523C150.912 36.4337 149.526 36.3427 148.717 36.1482C147.907 35.9538 148.328 35.533 147.228 35.469C146.526 35.434 145.828 35.3368 145.144 35.1786C144.863 35.1147 142.985 34.7578 142.985 34.7578C142.985 34.7578 142.272 33.8522 142.247 34.9522C142.222 36.0523 142.215 36.1507 142.215 36.6035C142.215 37.0563 142.751 37.7282 142.751 37.7282C142.751 37.7282 143.438 37.236 143.583 37.6322C143.728 38.0284 142.417 38.2401 142.077 38.4812C141.738 38.7224 141.568 38.5551 142.296 39.1358C143.025 39.7166 143.657 39.8741 143.827 40.2285C143.997 40.5829 144.29 41.2498 144.29 41.2498C144.29 41.2498 145.043 41.7838 144.654 41.833C144.265 41.8823 144.339 42.0028 143.805 42.7313C143.349 43.3535 142.726 43.8338 142.008 44.1168C141.474 44.3112 141.4 44.3629 141.595 45.0396C141.789 45.7164 142.372 45.6229 142.493 46.2554C142.614 46.8878 142.269 46.5014 142.739 47.3332L143.207 48.165C143.207 48.165 142.715 47.6901 143.007 48.3693C143.3 49.0485 143.254 49.5825 142.862 48.9525C142.471 48.3225 142.668 48.1257 142.328 48.4604C141.989 48.795 141.939 48.8492 142.232 49.3094C142.525 49.7696 142.865 50.5718 142.523 50.1116C142.181 49.6515 142.158 49.1273 141.624 49.3586C141.09 49.5899 140.726 50.0452 140.482 49.9935C140.239 49.9418 140.507 49.3094 140.507 49.3094L140.97 48.3619L140.217 47.7541C140.217 47.7541 139.095 48.0691 139.498 47.5843C139.902 47.0995 139.22 46.9518 139.006 46.9518C138.792 46.9518 138.083 46.4178 138.642 46.4178C139.2 46.4178 139.269 46.467 139.503 46.0782C139.737 45.6893 139.323 45.1799 139.154 44.8625C138.984 44.545 139.323 43.7944 138.595 43.7944C137.866 43.7944 136.626 43.9888 136.38 43.819C136.134 43.6492 135.748 43.2358 135.189 43.0807C134.63 42.9257 133.902 43.1546 133.634 43.1767C133.365 43.1989 133.538 42.7707 133.343 42.5246C133.149 42.2785 132.445 42.0594 132.251 42.0324C132.056 42.0053 131.741 41.9585 131.741 41.9585C131.589 41.888 131.462 41.7743 131.374 41.6316C131.287 41.4889 131.243 41.3236 131.249 41.1563C131.249 40.5484 130.836 39.9898 130.471 40.3294C130.23 40.5616 130.003 40.8081 129.792 41.0677C129.792 41.0677 129.039 40.0464 129.138 39.6108C129.236 39.1752 129.647 39.3918 129.647 38.8725C129.647 38.3533 129.696 38.8233 130.11 38.1687C130.523 37.5141 130.57 36.9062 131.276 37.0022C131.982 37.0982 132.443 37.2212 132.492 36.2639C132.541 35.3066 132.637 34.2484 133.23 33.8596C133.823 33.4707 133.326 33.9088 134.079 33.3674C134.832 32.826 135.342 32.5651 134.857 32.4199C134.372 32.2747 134.054 32.5897 133.69 32.2501C133.326 31.9105 132.706 31.6423 133.52 31.7161C134.335 31.7899 134.736 32.2993 135.123 32.1787C135.537 31.9872 135.89 31.6848 136.144 31.3051C136.24 31.1107 136.363 31.4011 136.582 31.1353C136.801 30.8695 136.631 30.6259 137.19 30.8892C137.748 31.1525 137.967 31.2288 137.992 30.7686C138.017 30.3084 138.575 30.1608 138.575 29.7842C138.575 29.4077 138.113 29.6637 137.943 29.0066C137.773 28.3495 137.554 27.8155 137.288 27.6457C137.022 27.4759 136.656 27.0871 136.267 27.3774C135.878 27.6678 135.659 27.6924 135.733 28.0813C135.767 28.3547 135.725 28.6321 135.612 28.8835C135.377 29.0574 135.157 29.2527 134.958 29.4668C134.495 29.927 134.569 30.8744 134.18 29.8064C133.791 28.7383 133.89 28.3495 133.501 28.2511C133.277 28.1588 133.027 28.1501 132.797 28.2265C132.457 28.3003 132.433 28.2757 131.923 28.2265C131.414 28.1772 131.219 27.8869 131.17 28.2511C131.121 28.6153 131.146 28.9894 131.34 29.0287C131.534 29.0681 131.291 29.1764 130.708 29.4668C130.417 29.6044 130.14 29.7692 129.881 29.959C129.881 29.959 130.56 30.3478 130.149 30.5668C129.738 30.7859 129.809 30.9064 129.59 30.7859C129.371 30.6653 128.936 30.4462 129.128 30.0476C129.205 29.8392 129.311 29.6429 129.443 29.4643C129.733 29.0263 130.097 28.8319 130.122 28.7113C130.147 28.5907 129.854 28.2486 129.384 27.973C128.914 27.6974 128.606 27.2347 128.242 27.5596C127.951 27.7763 127.675 28.0114 127.415 28.2634C127.319 28.4086 127.924 28.3594 128.153 28.4332C128.382 28.507 128.542 28.9918 128.542 28.9918C128.531 29.0731 128.498 29.15 128.447 29.2141C128.396 29.2783 128.328 29.3273 128.252 29.356C127.983 29.4545 127.572 29.6464 127.572 29.6464C127.572 29.6464 128.131 30.1091 126.893 29.5972C125.655 29.0853 125.242 28.699 124.186 28.1649C123.13 27.6309 123.093 27.1215 122.801 27.6309C122.508 28.1403 123.069 28.2388 122.242 28.3692C121.415 28.4996 121.319 28.4184 121.125 28.7334C120.99 28.9921 120.899 29.2716 120.856 29.5603L120.807 29.9983C120.807 29.9983 120.517 30.4364 120.418 30.461C120.244 30.4593 120.074 30.409 119.926 30.3158C119.83 30.242 120.096 29.6833 120.096 29.5628C120 29.3049 119.878 29.0575 119.732 28.8245C119.732 28.8245 119.392 28.2166 118.954 28.3151C118.568 28.3862 118.179 28.4347 117.788 28.4603C117.788 28.4603 116.597 28.0714 116.67 27.9016C116.744 27.7318 117.409 27.7318 117.35 27.6112C117.291 27.4906 117.544 27.3528 116.766 27.2642C115.989 27.1756 114.798 26.8582 114.798 26.2799C114.798 25.7015 114.337 25.6253 113.656 25.6474C112.974 25.6695 113.631 25.0395 112.829 25.3078C112.027 25.576 111.638 25.2413 111.638 25.2413C111.638 25.2413 111.928 24.919 110.74 24.9436C109.551 24.9682 109.937 25.0174 109.403 25.2118C108.869 25.4062 108.845 25.2586 108.795 24.9436C108.746 24.6286 108.212 24.5326 107.848 24.5793C107.605 24.6237 107.379 24.7325 107.193 24.8944C107.158 24.5479 107.05 24.2127 106.878 23.91C106.563 23.2775 106.974 23.4473 106.27 23.2307C105.567 23.0142 104.814 22.6721 105.298 22.4039C105.783 22.1356 106.635 21.6016 106.051 21.1906C105.468 20.7797 105.589 20.6984 104.619 20.9224C103.65 21.1463 103.332 20.728 102.992 21.1906C102.653 21.6533 103.042 21.6041 102.008 21.9929C100.974 22.3817 101.206 22.1627 100.721 22.8419C100.236 23.5211 100.212 23.7402 100.066 23.4744C99.9212 23.2086 100.162 22.4531 100.625 21.9191C100.917 21.549 101.174 21.1527 101.393 20.7354C100.484 21.1882 99.5865 21.6615 98.7006 22.1553C98.4768 22.3259 98.3257 22.5746 98.2773 22.8518C98.1468 23.7918 98.7695 24.2225 98.0509 24.3628C97.3323 24.5031 97.1108 25.0223 96.722 25.0543C96.3331 25.0863 96.5915 24.7639 95.6539 24.6975C95.1888 24.6655 94.9525 24.5695 94.6843 24.567C93.2405 25.5038 91.8345 26.4882 90.4662 27.5202C91.2045 28.4209 91.1356 29.0976 91.1356 29.0976L89.3465 30.301L86.9692 30.9753C86.9692 30.9753 87.7961 31.6816 89.2555 31.3273C90.7148 30.9729 91.5884 29.2699 91.5392 29.9516C91.49 30.6333 90.6656 30.9557 90.2275 31.4282C89.7895 31.9007 91.7336 31.2657 92.1225 30.7785C92.5113 30.2912 92.9493 28.4947 93.4834 28.8835C93.8112 29.1358 94.0361 29.4989 94.1158 29.9048L93.2889 30.7317L94.5047 31.3297L96.3011 32.287C96.3011 32.287 96.3971 32.287 96.3011 32.8211C96.2052 33.3551 95.8803 33.4683 96.0427 33.6799C96.2052 33.8916 96.1855 33.8743 95.8877 34.3591C95.6103 34.7636 95.3587 35.1853 95.1347 35.6216C95.0707 35.8332 95.4743 35.9612 95.6047 35.6216C95.7351 35.282 95.9615 34.7947 95.9615 34.7947C95.9615 34.7947 96.5768 33.6775 96.722 33.8104C96.8378 33.9488 96.9256 34.1084 96.9804 34.2804L96.4882 35.4616C96.4882 35.4616 96.439 35.7693 96.375 36.0597C96.311 36.35 96.407 36.4165 96.2445 36.5518C96.0821 36.6872 95.7253 36.099 96.0821 36.6823C96.439 37.2655 96.3085 37.2655 96.0821 37.5239C95.8557 37.7823 95.6096 37.8488 95.8951 38.1072C96.1806 38.3656 96.5669 37.7183 96.7293 37.9127C96.8918 38.1072 97.0862 37.9447 96.9877 38.3336C96.8893 38.7224 97.3963 38.9488 97.0148 39.1752C96.6334 39.4016 96.0969 38.8504 95.8951 38.9168C95.6933 38.9833 95.5973 38.9611 95.5309 39.2318C95.4644 39.5025 95.2405 39.6305 95.5309 39.8249C95.8213 40.0193 95.4669 40.2777 95.4349 40.4721C95.4029 40.6665 97.1576 39.9209 96.5029 40.4721C95.8483 41.0234 95.7253 41.0554 95.5309 41.5722C95.3364 42.089 94.9796 42.5442 95.4004 42.5442C95.8213 42.5442 96.1387 41.961 96.4045 41.961C96.6703 41.961 96.4906 42.2514 96.1732 42.5442C95.8557 42.8371 95.3045 42.5123 95.11 42.9331C94.9889 43.2224 94.7862 43.4704 94.5268 43.6467C94.2364 43.9051 94.2684 43.9716 94.6572 44.294C95.0461 44.6164 96.0304 44.1635 95.8877 44.294C95.745 44.4244 95.5801 44.4244 95.3955 44.6336C95.2109 44.8428 95.0067 45.143 95.3561 45.0864C95.6265 45.0653 95.8864 44.9727 96.1092 44.8182C96.2716 44.6803 96.781 44.3801 96.5054 44.705C96.2298 45.0298 96.028 44.9314 96.0674 45.1971C96.1067 45.4629 96.2125 45.2784 96.1806 45.5368C96.1486 45.7952 96.1486 45.9576 96.2765 46.0289C96.37 46.0415 96.4652 46.0284 96.5519 45.9911C96.6385 45.9539 96.7135 45.8938 96.7687 45.8173C96.8327 45.6869 97.1576 45.6229 96.9951 45.8813C96.8327 46.1397 96.5029 46.3341 96.6555 46.595C96.8081 46.8558 96.9459 47.065 96.9459 47.065L96.7343 47.5843L96.6703 48.4751C96.5671 48.9066 96.4262 49.3282 96.2495 49.7351C96.0231 50.1879 95.6662 51.1895 95.6662 51.1895H95.2134L95.3094 49.5259C95.3094 49.5259 95.147 48.5416 95.051 48.4357C94.955 48.3299 94.7261 48.2463 94.5588 48.5711C94.4485 48.8081 94.3619 49.0554 94.3004 49.3094C94.3184 49.5283 94.2731 49.7479 94.17 49.9418C94.041 50.2005 93.9538 50.4779 93.9116 50.7638C93.9116 50.7638 93.2643 51.0443 92.8755 52.0484C92.4867 53.0525 92.2332 53.0476 92.0363 53.8892C91.8394 54.7308 92.1643 55.2157 91.3866 55.7005C90.609 56.1853 90.481 55.8924 90.2521 56.8005C90.0233 57.7086 90.3826 57.7726 89.9617 58.5822C89.5409 59.3919 89.2825 59.3919 89.2235 60.0711C89.1644 60.7503 88.8937 61.4172 88.8962 61.9734C88.8986 62.5296 88.4729 62.9849 88.8962 63.3737C89.3194 63.7625 89.093 63.7305 89.3194 63.7625C89.5458 63.7945 89.4819 63.5041 89.9347 63.7625C90.3875 64.0209 90.7443 63.6665 90.3875 64.0209C90.0307 64.3753 89.8953 64.5402 89.8953 64.5402C89.8953 64.5402 89.6689 64.2818 89.5705 64.7346C89.472 65.1874 89.0512 65.1505 89.1176 65.3794C89.2322 65.6096 89.3854 65.8185 89.5705 65.9971C89.5705 65.9971 88.7928 66.061 89.1816 66.8387C89.5705 67.6163 89.5065 67.4539 89.5065 68.0692C89.5024 68.4212 89.5573 68.7714 89.6689 69.1052L90.2201 70.033L90.7123 70.6581C90.7123 70.6581 90.2915 70.6901 91.0372 71.2093C91.7828 71.7286 91.7164 70.7171 91.9108 71.8886C92.025 72.4311 92.0696 72.986 92.0437 73.5398L92.5679 74.2191C92.7052 74.6138 92.7573 75.0332 92.7205 75.4495C92.6885 76.2641 92.7205 75.7473 92.7205 76.7514C92.7205 77.7554 92.7205 77.9818 93.1093 78.6611C93.4981 79.3403 94.3718 79.6651 94.5342 80.054C94.6454 80.4436 94.7001 80.8472 94.6966 81.2524C94.6966 81.2524 94.7286 81.5428 94.827 82.0301C94.9255 82.5174 94.763 82.3869 94.3348 81.8997C93.9066 81.4124 93.5572 81.9637 93.5572 81.9637C93.5403 82.1197 93.561 82.2775 93.6175 82.4239C93.674 82.5703 93.7647 82.7011 93.882 82.8053C94.3029 83.2581 95.0165 84.0038 95.0165 84.0038C95.0165 84.0038 95.2749 83.8094 95.4693 84.651C95.6638 85.4927 95.8729 85.2663 95.8656 85.9455C95.8582 86.6247 95.5998 87.5008 96.6998 88.4064C97.7999 89.312 97.2191 88.9257 97.6719 89.9617C97.9713 90.7328 98.4616 91.4153 99.0968 91.9453C99.5496 92.2947 100.91 93.7344 100.069 91.9453C99.2272 90.1562 98.7867 90.2595 98.4225 89.6566C98.0583 89.0536 98.4495 88.4064 97.9303 86.7871C97.411 85.1678 96.5694 83.5559 96.375 82.4189C96.1806 81.282 96.2445 80.1278 95.4029 78.2107C94.5613 76.2936 94.042 75.1936 94.8197 75.7104C95.5973 76.2272 96.5694 75.3216 96.6334 76.4241C96.6974 77.5266 96.7638 79.1779 96.7638 79.1779C96.7638 79.1779 96.7638 79.4683 97.4775 81.1466C98.1911 82.825 98.644 82.8964 98.9663 83.2187C99.2887 83.5411 99.5496 84.5796 99.5496 84.5796C99.5496 84.5796 100.974 85.1629 100.974 85.6797C100.974 86.1965 100.391 85.9381 100.974 87.0406C101.558 88.1431 100.78 87.235 101.558 88.1406C102.049 88.7233 102.482 89.3521 102.852 90.0183L104.868 92.5629C104.896 93.0185 105.029 93.4614 105.257 93.8574C105.645 94.5711 106.317 94.512 105.879 95.0485C105.441 95.585 104.858 95.7277 105.141 95.8975C105.424 96.0673 105.505 96.1658 105.286 96.3602C105.067 96.5546 105.827 97.3446 106.152 98.3289C106.477 99.3133 106.93 99.397 107.545 99.9802C107.96 100.323 108.292 100.754 108.517 101.243C108.906 101.922 108.421 101.405 109.684 101.858C110.946 102.311 111.465 102.958 111.756 103.152C112.046 103.347 112.647 103.477 114.736 104.545C116.825 105.613 117.409 106.147 118.427 106.489C119.446 106.832 119.594 107.267 120.372 107.073C121.149 106.878 121.538 106.44 122.023 106.684C122.508 106.927 122.217 107.508 122.897 107.119C123.576 106.731 123.674 106.795 123.869 107.25C124.063 107.705 125.326 108.53 125.326 108.53C125.326 108.53 124.353 108.968 125.958 109.937C127.435 110.826 128.842 111.547 129.374 111.414C129.393 111.502 129.541 111.635 129.891 111.84C131.397 112.713 131.835 113.296 132.224 113.734C132.612 114.173 132.903 115.095 132.856 115.386C132.809 115.676 132.952 116.065 133.488 116.309C134.025 116.552 134.751 116.405 135.334 116.801C135.917 117.197 135.189 117.335 136.257 117.822C136.777 118.084 137.334 118.264 137.908 118.356L138.492 118.11L140.047 118.356C140.047 118.356 140.726 118.745 140.785 119.035C140.844 119.326 140.446 119.569 141.031 119.813C141.182 119.887 141.349 119.926 141.517 119.926C141.686 119.926 141.852 119.887 142.003 119.813C142.003 119.813 143.509 119.567 143.217 119.035C142.924 118.504 141.856 118.597 142.633 118.112C143.411 117.628 143.751 117.433 144.09 117.239C144.43 117.044 144.582 116.899 145.158 117.485C145.734 118.071 146.081 117.389 145.742 118.068C145.402 118.747 145.38 118.942 145.877 118.991C146.182 119.024 146.472 119.142 146.714 119.331C146.714 119.331 147.346 119.594 147.346 119.924C147.346 120.253 146.854 120.155 146.908 120.593C146.962 121.031 146.229 120.884 146.568 121.331C146.908 121.779 146.278 121.964 146.519 122.449C146.76 122.933 146.027 122.983 146.568 123.664C147.11 124.346 146.763 124.927 145.791 125.22C144.819 125.513 145.208 124.727 144.673 125.754C144.139 126.78 144.285 126.822 143.832 126.952C143.228 127.176 142.643 127.446 142.082 127.762C141.304 128.151 141.403 127.373 141.014 128.5C140.625 129.627 141.014 129.635 140.236 130.282C139.459 130.929 139.589 131.675 139.589 131.675C139.589 131.675 142.542 131.318 141.371 132.064C140.199 132.809 140.172 132.937 139.882 133.262C139.693 133.476 139.519 133.703 139.363 133.941L138.843 134.881L138.713 135.981C138.713 135.981 138.971 135.755 139.848 136.338C140.724 136.921 140.916 136.953 141.046 137.148C141.47 137.923 142.005 138.632 142.633 139.252C143.191 139.846 143.791 140.398 144.43 140.903C144.868 141.243 145.303 141.098 145.257 141.681C145.21 142.264 145.161 142.021 146.278 142.36C147.395 142.7 148.124 143.039 148.901 143.039C149.679 143.039 151.476 143.33 152.01 143.33C152.544 143.33 152.883 143.281 152.544 143.669C152.204 144.058 151.571 145.515 150.747 146.342C149.923 147.169 149.679 147.654 148.513 148.042C147.346 148.431 146.667 148.781 145.938 149.015C145.21 149.248 144.728 150.316 144.725 150.326C155.089 148.396 164.873 144.118 173.328 137.821C181.783 131.524 188.683 123.375 193.501 113.998L192.088 114.187L190.048 115.72ZM155.671 42.6574C155.918 42.527 156.237 42.8199 156.481 43.0143C156.617 43.1526 156.797 43.2381 156.99 43.2557C157.183 43.2733 157.376 43.2217 157.534 43.1103C158.027 42.8199 158.327 42.9971 158.814 43.2062C159.301 43.4154 158.75 43.6443 158.118 43.8855C157.485 44.1266 158.004 44.1119 157.438 44.1119C156.872 44.1119 157.261 44.4195 157.082 44.6631C156.902 44.9068 156.449 44.1709 155.787 43.6271C155.125 43.0832 155.152 42.9355 155.671 42.6574ZM131.308 53.6357C133.203 53.0033 132.765 52.5431 133.882 53.4044C134.999 54.2657 135.534 53.7391 135.679 54.6103C135.824 55.4814 137.086 56.2222 137.086 56.2222L138.836 56.5519L141.459 57.1007C141.459 57.1007 142.254 57.3764 142.432 57.9891C142.609 58.6019 143.17 58.8554 142.092 58.8455C141.283 58.8008 140.483 58.6511 139.712 58.4001C139.712 58.4001 139.442 58.6462 139.478 59.7118C139.515 60.7774 140.003 60.5854 139.274 61.2179C138.546 61.8504 136.845 62.3844 138.157 62.3352C139.469 62.2859 140.487 61.5969 141.071 61.9956C141.654 62.3942 142.038 61.5034 142.624 61.4615C143.209 61.4197 142.528 61.0186 143.256 60.4771C143.984 59.9357 144.058 59.5568 145.139 59.6552C146.219 59.7536 146.025 59.4091 147.046 59.4091C148.067 59.4091 148.892 60.2778 147.538 60.4747C146.184 60.6716 145.983 60.4279 144.915 60.866C143.847 61.304 143.847 60.6199 143.603 61.6043C143.359 62.5886 144.282 62.4311 142.97 62.9159C141.659 63.4007 142.387 63.039 140.881 63.2679C139.375 63.4967 139.715 63.5952 138.501 63.4992C137.288 63.4032 136.267 63.4032 136.85 62.4779C137.433 61.5526 138.939 61.8947 138.6 60.8266C138.26 59.7586 137.773 59.9037 137.094 60.1474C136.415 60.391 137.409 59.2418 137.421 58.8455C137.433 58.4493 137.045 57.9448 136.316 57.807C135.588 57.6692 135.578 56.9949 134.955 57.9891C134.333 58.9834 134.323 58.2721 134.082 58.8455C133.84 59.4189 133.693 58.7816 133.693 60.4845C133.693 62.1875 134.032 63.2334 132.575 63.5361C131.119 63.8388 130.973 61.4517 131.603 60.4845C132.233 59.5174 132.817 58.8062 132.041 58.8455C131.266 58.8849 132.091 57.46 132.964 57.2976C133.838 57.1352 134.227 57.2115 134.955 57.1007C135.684 56.99 136.267 57.086 136.363 56.894C136.459 56.7021 135.585 55.6808 134.712 55.8506C133.838 56.0204 134.517 56.0967 133.4 56.2246C132.283 56.3526 131.215 56.1656 131.505 55.8506C131.795 55.5356 132.059 55.5356 131.259 55.2427C130.459 54.9499 131.318 53.6357 131.318 53.6357H131.308ZM124.491 46.1668C125.043 46.0831 124.555 45.7336 124.654 45.1824C124.752 44.6311 125.269 44.892 126.403 44.924C126.403 44.924 126.598 45.3128 126.079 45.4432C125.559 45.5737 125.82 45.6696 125.69 45.9945C125.559 46.3193 125.559 46.3193 125.527 46.9986C125.495 47.6778 125.463 47.8082 125.884 48.3595C126.305 48.9107 126.111 48.9107 126.273 49.9984C126.435 51.0862 125.781 50.562 125.106 50.7244C124.432 50.8869 125.106 50.7244 125.07 50.1732C125.033 49.6219 125.266 49.2675 124.88 48.5071C124.494 47.7467 124.265 48.2315 124.201 47.6802C124.137 47.129 124.395 47.129 123.928 46.6762C123.46 46.2234 123.95 46.2529 124.501 46.1692L124.491 46.1668ZM122.769 46.1864C122.769 46.1864 123.32 46.9961 122.931 47.3283C122.542 47.6605 122.641 48.0002 123.157 48.2586C123.674 48.517 123.773 48.421 123.578 48.9058C123.384 49.3906 123.741 49.553 123.903 50.3947C124.066 51.2363 123.165 50.7515 123.165 49.9935C123.165 49.2356 122.874 49.425 122.387 49.0362C121.9 48.6474 121.934 48.453 122.04 48.0641C122.146 47.6753 122.225 47.4809 121.578 46.8337C120.93 46.1864 121.489 46.1225 122.783 46.1889L122.769 46.1864ZM120.517 40.6641C120.591 39.7658 120.391 39.943 121.297 40.0808C121.614 40.1301 121.902 40.3712 121.609 41.2719C121.317 42.1726 121.171 41.6115 120.379 42.0742C119.587 42.5369 120.46 41.5623 120.534 40.6665L120.517 40.6641ZM103.588 62.5247C103.175 63.4721 103.125 62.9627 102.178 63.0341C101.23 63.1054 102.178 62.5419 102.178 61.2622C102.178 59.9825 102.057 60.3984 103.391 60.3393C103.969 60.3172 104.016 61.5797 103.605 62.5271L103.588 62.5247ZM110.186 29.9959C110.186 29.9959 110.575 29.8753 111.571 29.6563C112.568 29.4373 111.741 29.5111 111.15 29.2428C110.56 28.9746 110.698 29.169 109.428 28.9967C108.158 28.8245 110.351 28.7777 111.613 28.7285C112.876 28.6793 111.958 28.6768 113.24 28.8737C113.732 28.9524 113.191 29.3831 113.894 29.6267C114.598 29.8704 113.894 29.7966 113.894 30.1854C113.894 30.5742 113.626 30.648 113.021 30.2592C112.415 29.8704 112.529 30.2592 112.342 30.429C112.155 30.5988 111.357 31.2067 111.357 31.2067C110.814 31.0239 110.29 30.7916 109.79 30.5127C109.167 30.1263 110.186 29.9959 110.186 29.9959ZM116.83 33.8817C116.466 33.9063 116.272 34.1721 115.809 34.6594C115.346 35.1466 115.071 35.1516 114.547 35.1516C114.022 35.1516 113.914 35.2475 112.676 35.5896C111.438 35.9317 111.827 35.7348 111.17 35.2992C110.513 34.8636 110.393 34.8366 110.321 34.62C110.25 34.4034 111.306 34.6692 111.657 34.4502C111.946 34.231 112.207 33.9782 112.435 33.6971C112.435 33.6971 112.189 32.9589 112.873 32.7743C113.181 32.6857 113.092 33.0893 113.311 33.6012C113.53 34.113 113.749 34.3542 114.542 34.2705C115.334 34.1869 115.465 33.7784 116.582 33.6504C117.699 33.5224 117.207 33.8645 116.843 33.8891L116.83 33.8817ZM129.627 111.234C130.014 110.912 130.528 110.557 130.572 110.951C130.614 111.19 130.006 111.178 129.644 111.242L129.627 111.234Z" fill="#B7AF98"/>
<path d="M136.541 32.4336C136.078 32.094 135.862 31.656 135.862 32.2392C135.862 32.8225 135.424 32.6773 135.862 33.2113C136.3 33.7453 136.325 33.7945 135.911 33.7945C135.498 33.7945 135.377 34.0406 135.665 34.4738C135.953 34.9069 135.569 35.372 136.199 35.1062C136.703 34.9087 137.171 34.6293 137.585 34.2793C137.875 34.0111 137.754 33.7699 138.264 34.0849C138.773 34.3999 139.187 34.4738 139.6 34.2793C140.013 34.0849 140.427 33.6961 139.6 33.6961C138.773 33.6961 138.557 33.6961 138.557 33.3811C138.557 33.0661 138.896 32.9677 137.973 32.8225C137.481 32.7557 137 32.625 136.541 32.4336Z" fill="#B7AF98"/>
<path d="M138.46 34.8623C137.722 34.8082 137.476 34.6556 137.173 35.1847C136.87 35.7138 136.883 36.2971 137.562 35.955C138.241 35.6129 138.216 35.6178 138.583 35.4333C138.95 35.2487 138.967 34.8992 138.46 34.8623Z" fill="#B7AF98"/>
<path d="M141.179 34.8004C140.146 34.7709 139.794 34.9997 140.256 35.4279C140.719 35.8561 141.034 36.149 141.179 35.674C141.324 35.1991 141.536 34.8102 141.179 34.8004Z" fill="#B7AF98"/>
<path d="M141.551 41.3307C141.243 41.348 141.194 41.5891 141.081 41.914C140.967 42.2388 141.081 42.1256 140.79 42.352C140.5 42.5785 140.677 42.7089 141.017 42.8442C141.356 42.9796 141.713 43.0903 141.713 42.6178C141.713 42.1453 141.519 42.0346 141.875 41.7909C142.232 41.5473 141.843 41.316 141.551 41.3307Z" fill="#B7AF98"/>
<path d="M162.777 50.2452C161.145 50.2845 159.354 49.4281 160.373 50.2452C161.391 51.0622 161.731 51.3673 162.459 51.3354C163.188 51.3034 162.777 50.2452 162.777 50.2452Z" fill="#B7AF98"/>
<path d="M165.653 52.8984C165.129 52.859 165.562 53.0067 165.102 53.7351C164.768 54.2667 164.258 54.877 164.352 54.9779C164.403 55.0345 164.62 54.9287 164.738 54.8524C164.95 54.7035 165.115 54.4956 165.21 54.2544C165.398 53.8173 165.546 53.3643 165.653 52.9009V52.8984Z" fill="#B7AF98"/>
<path d="M166.318 54.3998C166.586 54.6828 166.78 54.7443 166.512 54.9929C166.244 55.2415 166.438 55.0126 166.173 55.4186C165.907 55.8247 165.862 56.2874 165.653 55.8493C165.571 55.6469 165.544 55.4263 165.575 55.2101C165.606 54.9938 165.694 54.7897 165.83 54.6188C165.889 54.5473 165.964 54.4904 166.049 54.4524C166.133 54.4144 166.225 54.3964 166.318 54.3998Z" fill="#B7AF98"/>
<path d="M167.195 46.9774C166.823 47.1299 166.702 47.3662 166.663 47.7796C166.627 48.0455 166.561 48.3064 166.466 48.5573L166.272 49.1405C166.338 49.23 166.384 49.3334 166.405 49.4429C166.425 49.5525 166.421 49.6653 166.392 49.773C166.315 49.9998 166.275 50.2374 166.272 50.4768C166.272 50.4768 165.903 50.5384 165.831 50.7229C165.76 50.9075 165.093 50.4375 165.654 51.0699C166.215 51.7024 166.124 51.503 166.003 51.8082C165.883 52.1134 166.099 52.512 166.466 52.3914C166.833 52.2709 166.173 52.0002 167.522 52.1454C168.87 52.2905 169.04 51.5523 169.163 51.8673C169.286 52.1823 169.338 52.2069 169.518 51.9632C169.697 51.7196 170.472 51.3554 170.098 51.8427C169.724 52.3299 169.023 52.827 169.518 52.9255C170.012 53.0239 170.79 52.7384 170.645 52.1454C170.5 51.5523 170.645 50.9149 170.864 51.5523C171.083 52.1897 170.839 52.7188 171.356 52.6695C171.873 52.6203 171.944 52.795 172.23 52.9476C172.515 53.1002 173.056 53.1297 172.692 52.4259C172.328 51.7221 172.572 50.8238 172.183 51.2127C171.794 51.6015 171.356 51.7221 171.162 51.1167C170.967 50.5113 171.016 50.4842 170.628 50.1446C170.239 49.805 170.893 49.1971 170.103 49.1725C169.313 49.1479 169.242 49.805 168.757 49.5121C168.272 49.2193 168.265 48.6631 167.92 49.0741C167.576 49.4851 167.3 49.9477 167.131 49.5835C166.961 49.2193 166.621 49.3251 166.862 48.8231C167.103 48.321 167.605 46.8125 167.195 46.9774Z" fill="#B7AF98"/>
<path d="M115.696 25.0738C114.756 24.3946 113.203 24.749 114.756 23.9073C116.309 23.0657 116.376 23.3881 116.991 22.9353C117.363 22.6619 117.797 22.4837 118.253 22.416C118.253 22.416 119.937 22.416 120.261 22.7409C120.586 23.0657 121.362 23.233 120.552 23.3241C120.027 23.3947 119.515 23.5362 119.029 23.7449L118.056 24.1977L117.052 24.936L115.696 25.0738Z" fill="#B7AF98"/>
<path d="M121.069 24.3372C121.096 24.032 121.199 23.754 120.549 23.9484C119.9 24.1428 119.481 23.9828 119.06 24.1108C118.64 24.2388 118.964 24.2388 118.541 24.4996C118.118 24.7605 117.498 25.0829 117.498 25.0829L118.347 25.3093C118.347 25.3093 119.252 25.6661 118.573 25.6661C117.894 25.6661 116.144 25.5701 116.922 25.8605C117.7 26.1509 118.645 25.9565 119.255 26.2494C119.865 26.5422 119.826 26.6382 118.925 26.6382C118.024 26.6382 116.683 26.0229 117.5 26.6382C118.317 27.2534 118.898 26.8966 118.576 27.3174C118.253 27.7382 118.285 27.9326 119.255 27.8367C120.224 27.7407 119.934 27.9819 120.776 27.8613C121.337 27.768 121.882 27.5965 122.395 27.3519C122.462 27.2607 122.546 27.1839 122.643 27.1262C122.74 27.0684 122.848 27.0308 122.96 27.0156C123.072 27.0005 123.185 27.008 123.294 27.0379C123.403 27.0678 123.505 27.1193 123.594 27.1894C124.332 27.6816 125.245 28.6463 125.828 28.5823C126.411 28.5183 126.32 28.2575 125.99 27.9031C125.661 27.5487 125.764 27.3839 126.249 27.2879C126.734 27.1919 127.317 26.9975 126.638 26.7046C125.958 26.4118 125.959 25.991 125.959 25.5381C125.964 25.1714 125.837 24.815 125.602 24.5341C125.439 24.3717 126.153 23.594 125.277 24.5021C124.401 25.4102 124.273 26.0574 124.11 25.7326C123.948 25.4077 124.142 24.7285 124.142 24.7285C124.142 24.7285 124.273 24.1452 123.753 24.2363C123.234 24.3274 123.429 24.1723 122.976 24.4947C122.523 24.8171 122.393 25.1099 122.329 24.7211C122.265 24.3323 122.685 24.0419 122.198 24.1059C121.711 24.1699 121.615 24.1699 121.485 24.3003C121.354 24.4307 121.037 24.6842 121.069 24.3372Z" fill="#B7AF98"/>
<path d="M129.278 24.7104C129.569 24.9449 129.831 25.2143 130.056 25.5127C130.056 25.5127 130.833 25.5373 130.25 26.0713C129.667 26.6053 129.667 26.6792 129.278 26.8244C128.889 26.9695 129.01 27.5774 128.599 26.9942C128.188 26.4109 128.309 26.3814 128.016 26.2263C127.723 26.0713 127.277 25.6333 127.895 25.584C128.513 25.5348 128.633 25.5102 128.697 25.0746C128.761 24.639 129.278 24.7104 129.278 24.7104Z" fill="#B7AF98"/>
<path d="M131.392 26.2246C130.809 26.4338 130.007 26.6282 129.96 26.9924C129.913 27.3566 130.228 28.0605 130.228 28.0605C130.502 28.015 130.771 27.9416 131.03 27.8415C131.33 27.7185 131.655 27.6687 131.978 27.6963C132.44 27.6963 132.876 27.5855 132.536 27.1425C132.202 26.7826 131.816 26.4733 131.392 26.2246Z" fill="#B7AF98"/>
<path d="M131.075 24.7057C130.829 24.8558 130.829 24.9297 130.829 25.3406C130.829 25.7516 130.683 26.0469 130.949 25.9731C131.131 25.8973 131.318 25.8324 131.508 25.7787C131.776 25.7295 130.974 26.0937 131.897 25.7787C132.82 25.4637 132.869 25.2693 133.014 25.0749C133.159 24.8804 133.961 24.654 133.014 24.7057C132.066 24.7574 131.075 24.7057 131.075 24.7057Z" fill="#B7AF98"/>
<path d="M136.031 24.5159C135.642 24.3461 135.704 24.5405 135.364 24.698C135.025 24.8555 135.079 24.3215 134.545 24.9047C134.011 25.488 133.868 25.0007 134.013 25.488C134.085 25.7515 134.201 26.0011 134.355 26.2262C134.355 26.2262 134.963 26.337 134.848 26.7012C134.732 27.0654 135.067 27.2943 135.286 27.1442C135.609 26.9848 135.97 26.9159 136.329 26.9448C136.822 26.9434 137.315 26.9681 137.806 27.0187C138.182 27.0679 138.861 27.0679 138.861 27.0679C138.861 27.0679 139.13 27.7471 139.614 27.4321C140.099 27.1171 139.979 26.4846 140.562 26.8735C140.879 27.0968 141.232 27.2634 141.605 27.3657L142.383 27.8455L142.991 29.1302H144.207C144.377 29.2463 144.526 29.3922 144.645 29.5608C144.718 29.7306 145.277 28.3304 145.617 29.1326C145.956 29.9349 145.836 30.3631 145.836 30.3631C145.836 30.3631 145.302 30.4935 145.181 30.8553C145.061 31.217 145.4 31.249 144.962 31.3942C144.524 31.5394 144.549 31.6034 144.015 31.628C143.481 31.6526 144.184 31.8421 143.116 31.628C142.048 31.4139 142.169 31.1629 141.829 31.4558C141.49 31.7486 141.305 31.6009 141.396 32.1596C141.487 32.7182 142.134 33.0086 142.134 33.0086C142.134 33.0086 143.714 33.2547 144.054 32.7896C144.394 32.3245 144.856 32.7896 145.531 32.9102C146.205 33.0308 147.11 33.4442 147.376 33.7838C147.642 34.1234 147.061 33.9782 148.592 34.1972C150.123 34.4163 150.243 34.4163 150.876 34.5615C151.508 34.7067 152.17 34.9724 152.042 34.8076C151.698 34.3137 151.205 33.9435 150.635 33.7518C149.955 33.5328 149.227 32.9988 149.712 33.1194C150.196 33.2399 151.048 33.5746 151.048 33.5746C151.048 33.5746 152.384 33.993 152.554 34.1382C152.724 34.2834 153.841 35.0118 153.162 34.2342C152.483 33.4565 152.483 33.2129 152.483 33.2129L151.454 31.9652C151.167 31.8016 150.855 31.6845 150.531 31.6182C150.147 31.5097 149.791 31.3191 149.488 31.0595C149.488 31.0595 149.512 30.4517 149.05 30.3803C148.587 30.309 149.365 29.8217 149.704 30.1121C150.044 30.4025 150.118 30.6461 150.652 30.8159C151.186 30.9857 150.898 30.5969 151.599 31.1063C152.301 31.6157 152.667 31.2515 152.667 31.2515L152.741 30.4984L152.596 29.6568C152.596 29.6568 151.747 29.6568 151.284 29.6568C150.822 29.6568 150.507 29.1646 150.507 29.1646L149.803 28.9948L148.427 28.7659C148.427 28.7659 147.31 28.6207 147.48 28.3033C147.591 28.0665 147.657 27.8111 147.674 27.5502L147.091 27.0876C147.091 27.0876 146.352 27.0384 146.047 27.063C145.742 27.0876 145.27 26.6741 145.27 26.6741C145.27 26.6741 145.27 26.3591 144.322 26.3345C143.375 26.3099 143.399 26.3099 143.18 26.2607C142.961 26.2115 143.131 25.4092 141.95 25.3378C140.769 25.2665 140.621 24.6832 140.094 25.0918C139.568 25.5003 139.302 25.9654 138.839 25.3378C138.377 24.7103 138.623 24.196 137.808 24.2206C136.994 24.2452 136.314 24.1467 136.558 24.6931C136.748 25.0902 136.976 25.4684 137.237 25.8226C136.703 26.2361 136.873 26.3148 136.499 26.3321C136.125 26.3493 136.085 26.1623 136.11 25.8226C136.135 25.483 136.231 25.6282 136.135 25.0696L136.031 24.5159Z" fill="#B7AF98"/>
<path d="M139.043 23.9576C138.629 24.3956 138.41 24.5162 138.797 24.6959C139.183 24.8755 139.646 25.0478 139.988 24.6959C140.33 24.3439 141.179 24.1495 140.497 23.9576C140.019 23.8475 139.521 23.8475 139.043 23.9576Z" fill="#B7AF98"/>
<path d="M131.609 22.815C131.683 23.2776 131.729 23.5532 131.729 23.5532C131.729 23.5532 131.948 23.7993 132.239 24.0627C132.374 24.1894 132.536 24.2849 132.713 24.3423C132.889 24.3997 133.076 24.4177 133.26 24.3949C133.551 24.3284 133.26 24.1365 133.819 23.9888C134.377 23.8412 134.596 23.9618 135.35 23.8781C136.103 23.7944 136.952 23.7944 137.318 23.7206C137.565 23.6464 137.773 23.4809 137.902 23.2579C137.902 23.2579 138.047 22.9897 136.639 22.9897C135.231 22.9897 135.477 23.1349 134.759 23.0389C134.04 22.9429 134.04 22.2612 133.651 22.6501C133.263 23.0389 133.725 23.2924 133.213 23.4696C132.702 23.6468 132.721 24.0208 132.46 23.4696C132.2 22.9183 132.241 22.8691 132.241 22.6501C132.241 22.4311 131.609 22.815 131.609 22.815Z" fill="#B7AF98"/>
<path d="M141.108 20.0934C139.698 20.0516 138.935 20.0688 138.935 20.0688L137.106 20.0344C137.106 20.0344 136.57 19.8375 136.422 20.15C136.275 20.4626 135.79 20.5069 135.79 20.5069C135.79 20.5069 134.842 19.3527 134.914 19.9655C134.985 20.5782 134.985 20.5782 134.985 20.5782C134.985 20.5782 135.568 21.1664 135.568 21.3362C135.538 21.5677 135.489 21.7965 135.423 22.0204H134.892V21.5725L135.829 22.8029H136.412L135.659 22.7193L134.183 22.264C134.183 22.264 133.87 22.7783 134.756 22.7783C135.642 22.7783 135.374 22.9555 136.54 22.5888C137.707 22.2221 137.98 22.1139 138.595 22.1139C139.211 22.1139 137.973 22.2911 139.58 22.0966C141.187 21.9022 141.524 21.917 141.475 21.4814C141.425 21.0458 141.354 21.063 141.354 20.6742C141.354 20.2854 141.617 20.1107 141.108 20.0934Z" fill="#B7AF98"/>
<path d="M130.784 21.6733C130.845 21.6441 130.912 21.6289 130.979 21.6289C131.046 21.6289 131.113 21.6441 131.173 21.6733C131.223 21.6991 131.266 21.7357 131.3 21.7804C131.334 21.8251 131.357 21.8768 131.368 21.9317C131.387 22.136 131.151 22.3107 130.947 22.3525C130.792 22.3845 130.551 22.3525 130.477 22.2073C130.403 22.0621 130.575 21.7668 130.784 21.6733Z" fill="#B7AF98"/>
<path d="M129.31 22.6451C129.478 22.6992 129.5 23.0167 129.505 23.0659C129.51 23.1723 129.494 23.2786 129.458 23.3788C129.421 23.4789 129.365 23.5708 129.293 23.6491C129.249 23.7123 129.191 23.7644 129.124 23.8011C129.056 23.8379 128.981 23.8583 128.904 23.8608C128.802 23.8368 128.711 23.779 128.647 23.6967C128.582 23.6145 128.547 23.5127 128.547 23.4079C128.547 23.2431 128.651 23.1372 128.823 22.9551C128.995 22.773 129.163 22.5958 129.31 22.6451Z" fill="#B7AF98"/>
<path d="M130.413 23.5681C130.642 23.3491 131.198 23.5681 131.24 23.7945C131.27 23.9668 131.016 24.1464 130.964 24.1833C130.913 24.2202 130.677 24.3876 130.512 24.3137C130.456 24.2717 130.409 24.2189 130.373 24.1584C130.338 24.0979 130.315 24.031 130.306 23.9616C130.297 23.8921 130.301 23.8216 130.32 23.754C130.338 23.6864 130.37 23.6232 130.413 23.5681Z" fill="#B7AF98"/>
<path d="M130.215 22.8064C130.196 22.8975 130.297 22.9861 130.311 23.0008C130.511 23.1756 130.919 23.0919 130.976 22.9196C130.985 22.8737 130.981 22.8262 130.964 22.7826C130.947 22.739 130.918 22.7012 130.88 22.6735C130.678 22.5013 130.252 22.6415 130.215 22.8064Z" fill="#B7AF98"/>
<path d="M128.663 20.734C128.425 20.6561 128.172 20.6342 127.925 20.6701C127.457 20.6848 127.223 20.6947 127.186 20.8005C127.122 20.9555 127.432 21.2213 127.592 21.3345C127.882 21.5262 128.234 21.6018 128.577 21.5462C128.747 21.5191 129.069 21.4674 129.111 21.2878C129.153 21.1081 128.889 20.8448 128.663 20.734Z" fill="#B7AF98"/>
<path d="M129.943 21.0733C129.889 21.0773 129.836 21.0926 129.788 21.1181C129.741 21.1436 129.699 21.1787 129.665 21.2213C129.631 21.2638 129.607 21.3129 129.594 21.3654C129.58 21.4179 129.577 21.4726 129.586 21.5261C129.603 21.5952 129.639 21.6581 129.69 21.707C129.742 21.756 129.807 21.7889 129.876 21.8017C129.93 21.8104 129.985 21.8079 130.037 21.7943C130.09 21.7807 130.139 21.7563 130.181 21.7228C130.224 21.6893 130.259 21.6472 130.284 21.5994C130.31 21.5515 130.325 21.4989 130.329 21.4449C130.327 21.3446 130.285 21.2493 130.212 21.1798C130.14 21.1102 130.043 21.0719 129.943 21.0733Z" fill="#B7AF98"/>
<path d="M125.634 22.1441C125.764 22.2229 125.656 22.4296 125.828 22.6634C125.954 22.8307 126.074 22.8234 126.104 22.939C126.133 23.0547 125.939 23.2786 125.747 23.3426C125.58 23.3941 125.399 23.3791 125.242 23.3007C125.085 23.2224 124.965 23.0867 124.905 22.9218C124.891 22.8188 124.901 22.7138 124.935 22.6155C124.968 22.5171 125.025 22.4281 125.1 22.3558C125.238 22.2106 125.496 22.058 125.634 22.1441Z" fill="#B7AF98"/>
<path d="M121.521 22.2713C121.654 22.0646 121.895 22.0252 122.2 21.9637C122.444 21.9225 122.693 21.9167 122.938 21.9465C123.191 21.951 123.441 22.0002 123.677 22.0917C123.826 22.1472 123.963 22.2317 124.079 22.3402C124.196 22.4488 124.29 22.5792 124.356 22.7241C124.371 22.761 124.486 23.076 124.356 23.1942C124.225 23.3123 124.056 23.2138 123.79 23.1129C123.244 22.9062 123.143 22.7094 122.786 22.6921C122.639 22.7057 122.493 22.7271 122.348 22.7561C121.718 22.8619 121.585 22.9235 121.489 22.8373C121.393 22.7512 121.41 22.446 121.521 22.2713Z" fill="#B7AF98"/>
<path d="M119.336 21.3991C119.35 21.217 119.828 21.1284 119.934 21.1087C120.219 21.0546 120.453 21.0103 120.598 21.1579C120.743 21.3056 120.758 21.5886 120.647 21.6772C120.536 21.7658 120.372 21.5738 120.032 21.5812C119.802 21.5865 119.58 21.6659 119.4 21.8076C119.4 21.8076 119.07 21.6944 119.092 21.6329C119.114 21.5713 119.323 21.5394 119.336 21.3991Z" fill="#B7AF98"/>
<path d="M122.095 20.9461C122.016 20.9806 121.787 21.0815 121.787 21.2217C121.787 21.362 122.095 21.5343 122.353 21.5294C122.442 21.5277 122.529 21.5081 122.61 21.4718C122.691 21.4354 122.763 21.383 122.823 21.3177C122.872 21.2611 122.993 21.1208 122.954 21.0101C122.897 20.8329 122.437 20.7985 122.095 20.9461Z" fill="#B7AF98"/>
<path d="M124.583 21.059C124.288 20.9557 123.904 21.059 123.869 21.2214C123.835 21.3839 124.059 21.5266 124.241 21.5931C124.539 21.7038 124.932 21.6103 124.979 21.4479C125.026 21.2854 124.782 21.1378 124.583 21.059Z" fill="#B7AF98"/>
<path d="M126.234 23.9722C126.307 23.9262 126.39 23.896 126.476 23.8835C126.562 23.871 126.649 23.8765 126.733 23.8996C126.817 23.9227 126.895 23.963 126.962 24.0179C127.03 24.0727 127.085 24.141 127.124 24.2183C127.142 24.3049 127.139 24.3942 127.116 24.4795C127.094 24.5648 127.052 24.6438 126.994 24.7105C126.924 24.8075 126.826 24.881 126.713 24.9214C126.6 24.9618 126.478 24.9672 126.362 24.9369C126.285 24.8855 126.221 24.8185 126.172 24.7403C126.124 24.6622 126.092 24.5746 126.08 24.4834C126.068 24.3922 126.076 24.2994 126.102 24.2113C126.129 24.1232 126.173 24.0417 126.234 23.9722Z" fill="#B7AF98"/>
<path d="M142.225 28.4513C142.371 28.507 142.493 28.6103 142.573 28.7443C142.652 28.8783 142.684 29.0352 142.663 29.1896C142.597 29.5538 142.183 29.6818 142.129 29.699C141.706 29.8245 141.174 29.6055 141.108 29.3102C141.022 28.9115 141.718 28.2741 142.225 28.4513Z" fill="#B7AF98"/>
<path d="M162.474 53.9296C162.84 54.0182 162.826 54.6113 163.301 54.7565C163.603 54.8476 163.847 54.6778 163.899 54.7737C163.95 54.8697 163.709 55.2659 163.406 55.293C163.104 55.3201 163.04 55.0617 162.597 54.8722C162.038 54.6261 161.659 54.8254 161.593 54.6605C161.492 54.4391 162.065 53.8312 162.474 53.9296Z" fill="#B7AF98"/>
<path d="M147.399 87.4472C147.184 87.612 147.192 88.119 147.399 88.4192C147.605 88.7195 147.805 88.6235 147.918 88.872C148.048 89.1624 147.792 89.3642 147.918 89.7137C147.987 89.9106 148.164 90.1394 148.339 90.1345C148.609 90.1345 148.784 89.5833 148.858 89.3569C149.003 89.0314 149.036 88.6673 148.954 88.3208C148.718 87.617 147.723 87.1986 147.399 87.4472Z" fill="#B7AF98"/>
<path d="M145.552 88.4514C145.622 88.4182 145.698 88.3994 145.775 88.396C145.853 88.3927 145.93 88.405 146.003 88.4321C146.075 88.4591 146.141 88.5005 146.198 88.5537C146.254 88.6069 146.299 88.6708 146.33 88.7417C146.382 88.8716 146.385 89.0163 146.337 89.148C146.29 89.2797 146.195 89.3892 146.072 89.4554C145.971 89.5036 145.859 89.5203 145.749 89.5031C145.639 89.486 145.537 89.4359 145.456 89.3594C145.397 89.2963 145.352 89.221 145.324 89.1389C145.297 89.0567 145.287 88.9696 145.296 88.8834C145.305 88.7972 145.333 88.714 145.377 88.6395C145.421 88.5649 145.481 88.5007 145.552 88.4514Z" fill="#B7AF98"/>
<path d="M147.042 90.7506C147.187 90.7506 147.288 90.95 147.43 91.2699C147.659 91.7473 147.819 92.0795 147.657 92.3699C147.57 92.5234 147.43 92.6405 147.264 92.7001C147.098 92.7597 146.916 92.7578 146.751 92.6948C146.414 92.5225 146.424 92.0254 146.426 91.8531C146.436 91.3117 146.771 90.7285 147.042 90.7506Z" fill="#B7AF98"/>
<path d="M149.276 90.2016C148.959 90.2238 148.634 90.5092 148.661 90.7209C148.688 90.9325 149.141 90.9399 149.308 91.3361C149.392 91.5305 149.323 91.629 149.438 91.7569C149.516 91.8387 149.618 91.8925 149.73 91.9099C149.841 91.9272 149.955 91.9072 150.054 91.8529C150.27 91.7053 150.231 91.3607 150.216 91.2377C150.15 90.7627 149.763 90.1672 149.276 90.2016Z" fill="#B7AF98"/>
<path d="M149.859 92.9975C149.771 93.0627 149.707 93.1555 149.677 93.2612C149.648 93.3668 149.655 93.4793 149.696 93.5807C149.775 93.8047 150.026 94.0065 150.248 93.9376C150.358 93.8767 150.442 93.7775 150.483 93.6587C150.525 93.54 150.521 93.4101 150.473 93.2938C150.425 93.1775 150.336 93.083 150.223 93.0283C150.109 92.9737 149.98 92.9627 149.859 92.9975Z" fill="#B7AF98"/>
<path d="M151.51 93.1794C151.279 93.2778 151.264 93.738 151.284 93.9177C151.29 94.0709 151.331 94.2207 151.404 94.3556C151.477 94.4905 151.58 94.6067 151.705 94.6953C151.754 94.7249 152.081 94.9119 152.32 94.7593C152.559 94.6067 152.522 94.1613 152.515 94.1121C152.438 93.551 151.811 93.0514 151.51 93.1794Z" fill="#B7AF98"/>
<path d="M154.36 96.5799C153.957 96.6537 153.546 97.0376 153.622 97.3895C153.676 97.6602 153.989 97.7882 154.043 97.8103C154.216 97.8809 154.407 97.8939 154.588 97.8473C154.768 97.8008 154.93 97.6972 155.047 97.5519C155.127 97.4534 155.179 97.3346 155.196 97.2086C155.212 97.0827 155.194 96.9545 155.143 96.8383C154.973 96.5528 154.579 96.5405 154.36 96.5799Z" fill="#B7AF98"/>
<path d="M134.54 97.9405C134.431 97.4754 136.129 96.5821 137.584 96.1268C138.969 95.7139 140.418 95.5604 141.858 95.674C142.974 95.7435 144.081 95.9182 145.163 96.1957C146.726 96.555 147.506 96.7347 148.144 97.0374C148.385 97.1694 148.649 97.2569 148.921 97.2958C149.5 97.3671 149.729 97.1333 150.088 97.2958C150.395 97.4336 150.304 97.6403 150.671 97.943C151.049 98.2166 151.499 98.374 151.966 98.3958C152.628 98.477 152.876 98.322 153.066 98.5262C153.155 98.6602 153.203 98.8178 153.203 98.979C153.203 99.1403 153.155 99.2978 153.066 99.4319C152.768 99.9093 152.042 99.924 151.382 99.9511C148.451 100.109 147.233 100.82 146.849 100.21C146.566 99.7592 147.036 99.0652 146.719 98.8486C146.443 98.6616 146.035 99.1562 145.552 98.979C145.134 98.824 145.22 98.3712 144.775 98.0734C144.529 97.9011 144.346 97.9577 143.155 98.0094C141.819 98.0685 141.521 98.0094 141.211 97.879C140.901 97.7486 140.965 97.6797 140.498 97.4262C140.03 97.1727 139.176 96.8208 139.009 97.0374C138.891 97.1899 139.183 97.5099 139.073 97.6206C138.962 97.7313 138.438 97.1998 137.778 97.2318C137.483 97.2465 137.488 97.3647 136.612 97.815C135.736 98.2654 135.423 98.3072 135.187 98.2678C135.123 98.2555 134.596 98.1817 134.54 97.9405Z" fill="#B7AF98"/>
<path d="M154.151 99.1488C154.432 98.7477 155.155 99.1808 156.482 99.0528C157.424 98.9618 157.491 98.7034 158.667 98.6148C159.138 98.5509 159.617 98.5836 160.075 98.7107C160.614 98.8904 160.606 99.0823 161.29 99.39C162.07 99.7419 162.521 99.6877 162.602 99.9732C162.668 100.195 162.477 100.488 162.262 100.652C161.63 101.145 160.929 100.406 159.737 100.798C159.395 100.906 159.344 101.002 158.864 101.137C158.276 101.305 158.044 101.25 157.843 101.477C157.678 101.661 157.764 101.772 157.552 102.215C157.392 102.542 157.306 102.707 157.163 102.798C156.706 103.084 156.199 102.363 155.123 102.36C154.597 102.36 154.486 102.53 154.102 102.41C153.521 102.225 153.118 101.62 153.228 101.437C153.339 101.255 154.06 101.733 154.685 101.437C155.177 101.191 155.546 100.635 155.423 100.369C155.268 100.059 154.533 100.369 154.21 99.9314C154.125 99.8208 154.074 99.6879 154.064 99.5489C154.053 99.4099 154.084 99.2708 154.151 99.1488Z" fill="#B7AF98"/>
<path d="M147.935 19.439C147.135 19.5743 146.616 19.4587 145.506 19.6851C145.134 19.7278 144.789 19.9024 144.534 20.1773C144.362 20.3889 144.408 20.4997 144.244 20.6695C143.85 21.0534 143.259 20.7753 143.126 21.0091C142.993 21.2429 143.591 21.8335 143.953 22.1756C144.381 22.5816 144.593 22.7834 144.827 22.8548C145.538 23.0763 145.912 22.4783 146.867 22.5644C147.224 22.6197 147.569 22.7345 147.888 22.904C148.587 23.2289 149.254 23.6195 149.879 24.0705C151.828 25.3576 152.037 25.5101 152.453 25.4781C152.78 25.426 153.115 25.4591 153.425 25.5741C153.487 25.5987 154.021 25.8202 154.009 26.1081C153.996 26.3961 153.344 26.4773 153.329 26.7874C153.329 27.0335 153.711 27.2402 153.962 27.3706C154.213 27.501 154.506 27.6561 154.789 27.565C155.072 27.474 155.133 27.1614 155.323 27.1762C155.453 27.1762 155.527 27.3362 155.815 27.9145L156.155 28.5937C156.312 28.9645 156.525 29.3089 156.787 29.615C157.102 29.9251 157.247 29.8611 157.661 30.1982C157.901 30.4175 158.113 30.6655 158.293 30.9365C159.031 31.8495 160.127 32.2827 160.188 32.199C160.25 32.1153 159.762 31.7585 159.799 31.7068C159.836 31.6551 160.56 32.1695 161.645 32.9225C163.193 33.9979 163.476 34.153 163.929 34.2834C164.61 34.4729 164.635 34.2834 165.336 34.5295C165.942 34.7313 166.333 34.9995 167.086 35.1127C167.311 35.1465 167.54 35.1465 167.765 35.1127C168.036 35.0734 168.378 35.0217 168.504 34.8224C168.664 34.5467 168.341 34.0841 168.066 33.7051C167.31 32.6543 166.801 32.642 166.316 31.7609C166.038 31.2687 166.153 31.1678 165.878 30.8381C165.386 30.2548 164.802 30.2598 164.711 29.8168C164.672 29.6248 164.765 29.4452 164.957 29.0785C165.351 28.3402 165.696 28.3008 165.696 28.0105C165.696 27.6364 165.029 27.2722 163.705 26.5536C163.195 26.2779 163.023 26.209 162.878 25.9703C162.592 25.5003 162.893 25.1582 162.683 24.4642C162.556 24.041 162.206 23.3765 161.761 23.347C161.64 23.347 161.561 23.3814 160.545 24.0262C160.21 24.2378 160.082 24.3215 159.962 24.2723C159.755 24.1812 159.684 23.7333 159.816 23.3986C159.979 22.9877 160.378 22.9286 160.351 22.7662C160.323 22.6038 159.738 22.557 158.601 22.3281C157.779 22.1632 157.523 22.0599 157.434 21.8359C157.324 21.5677 157.579 21.3881 157.483 21.0583C157.397 20.7679 157.122 20.6325 156.61 20.3791C156.036 20.0961 155.603 19.8869 155.104 19.9902C154.722 20.0739 154.693 20.2585 154.425 20.2363C154.038 20.1994 153.932 19.8007 153.452 19.4095C153.122 19.1552 152.741 18.9733 152.335 18.8754C151.497 18.6297 150.608 18.6127 149.761 18.8262C148.673 19.0329 148.87 19.279 147.935 19.439Z" fill="#B7AF98"/>
<g style="mix-blend-mode:multiply" opacity="0.31">
<path d="M176.43 29.6543C186.875 42.0581 192.592 57.7581 192.569 73.9735C192.569 112.059 161.694 142.932 123.611 142.932C107.396 142.953 91.6955 137.235 79.292 126.79C85.756 134.52 93.8392 140.736 102.97 144.999C112.101 149.261 122.057 151.465 132.133 151.456C170.219 151.456 201.092 120.581 201.092 82.4957C201.101 72.4194 198.897 62.4639 194.636 53.3331C190.375 44.2022 184.16 36.1188 176.43 29.6543Z" fill="#E5DCBA"/>
</g>
<g style="mix-blend-mode:overlay" opacity="0.21">
<path d="M68.7687 88.4257C68.7687 50.3401 99.6438 19.4675 137.727 19.4675C154.602 19.4433 170.896 25.6314 183.5 36.8516C177.038 29.5523 169.098 23.71 160.207 19.7121C151.315 15.7142 141.675 13.652 131.926 13.6621C93.8409 13.6621 62.9683 44.5372 62.9683 82.6203C62.9581 92.3692 65.0203 102.009 69.0183 110.9C73.0162 119.792 78.8585 127.732 86.1578 134.194C74.9369 121.592 68.7471 105.3 68.7687 88.4257Z" fill="#FF9191"/>
</g>
<path d="M154.624 22.4559C154.624 22.4559 154.412 21.9637 153.994 21.1221" stroke="white" stroke-width="2" stroke-miterlimit="10"/>
<path d="M109.234 80.1191C109.288 81.0715 109.327 81.5957 109.327 81.5957" stroke="white" stroke-width="2" stroke-miterlimit="10"/>
<path d="M109.46 44.2111C106.321 44.236 103.319 45.4872 101.114 47.6902C98.9096 49.8933 97.6811 52.8684 97.6984 55.963C97.7443 62.4101 109.724 82.1059 109.724 82.1059C109.724 82.1059 121.428 62.2517 121.382 55.8046C121.357 52.7101 120.088 49.7517 117.853 47.5783C115.618 45.405 112.6 44.194 109.46 44.2111ZM109.579 61.1169C108.457 61.1243 107.358 60.8038 106.42 60.1959C105.483 59.5879 104.75 58.7198 104.313 57.7012C103.876 56.6826 103.755 55.5592 103.965 54.4729C104.176 53.3866 104.708 52.3861 105.495 51.5978C106.282 50.8094 107.288 50.2687 108.386 50.0438C109.485 49.8189 110.627 49.92 111.667 50.3343C112.707 50.7485 113.6 51.4574 114.231 52.3713C114.863 53.2852 115.206 54.3632 115.217 55.4691C115.225 56.2057 115.085 56.9367 114.806 57.62C114.527 58.3034 114.113 58.9256 113.589 59.4511C113.066 59.9765 112.442 60.3948 111.753 60.682C111.065 60.9692 110.326 61.1195 109.579 61.1244V61.1169Z" fill="#FD3E72"/>
<path d="M154.493 0.000163067C153.594 0.00630903 152.706 0.188535 151.878 0.536437C151.05 0.884339 150.299 1.39111 149.668 2.0278C149.038 2.66449 148.539 3.41863 148.201 4.24717C147.863 5.07572 147.692 5.96243 147.698 6.85667C147.722 10.6137 154.644 22.1054 154.644 22.1054C154.644 22.1054 161.406 10.5244 161.382 6.76275C161.376 5.8685 161.193 4.98422 160.843 4.1604C160.494 3.33658 159.984 2.58935 159.345 1.96138C158.705 1.33341 157.947 0.837 157.115 0.500493C156.282 0.163987 155.391 -0.00602543 154.493 0.000163067ZM154.559 9.86227C153.91 9.8669 153.275 9.68001 152.733 9.32523C152.191 8.97045 151.767 8.46372 151.515 7.86912C151.262 7.27452 151.192 6.61875 151.314 5.98474C151.436 5.35072 151.744 4.76694 152.2 4.30721C152.655 3.84748 153.237 3.53245 153.872 3.40196C154.508 3.27147 155.167 3.33137 155.768 3.5741C156.369 3.81683 156.885 4.23148 157.249 4.76562C157.613 5.29976 157.81 5.92939 157.815 6.5749C157.821 7.43974 157.482 8.2717 156.873 8.88807C156.263 9.50444 155.432 9.85483 154.564 9.86227H154.559Z" fill="#FD3E72"/>
<path d="M109.325 81.5907C109.696 81.2672 110.083 80.9625 110.484 80.6777" stroke="white" stroke-width="2" stroke-miterlimit="10"/>
<path d="M169.463 131.415C169.426 132.365 169.369 132.892 169.369 132.892" stroke="white" stroke-width="2" stroke-miterlimit="10"/>
<path d="M169.259 116.584C168.6 116.589 167.948 116.723 167.34 116.98C166.732 117.236 166.181 117.61 165.718 118.08C165.255 118.549 164.888 119.105 164.64 119.717C164.392 120.328 164.267 120.982 164.271 121.641C164.291 124.415 169.37 132.888 169.37 132.888C169.37 132.888 174.334 124.346 174.314 121.568C174.304 120.237 173.766 118.964 172.818 118.03C171.87 117.096 170.59 116.576 169.259 116.584ZM169.309 123.856C168.833 123.86 168.366 123.722 167.969 123.46C167.571 123.198 167.26 122.825 167.075 122.386C166.889 121.948 166.838 121.464 166.928 120.997C167.017 120.529 167.243 120.099 167.577 119.76C167.912 119.421 168.339 119.189 168.805 119.092C169.271 118.996 169.756 119.04 170.197 119.219C170.638 119.398 171.016 119.704 171.283 120.098C171.55 120.492 171.695 120.956 171.698 121.432C171.701 121.748 171.641 122.062 171.522 122.355C171.403 122.647 171.227 122.914 171.006 123.139C170.784 123.364 170.52 123.543 170.228 123.666C169.937 123.789 169.625 123.854 169.309 123.856Z" fill="#FD3E72"/>
<path d="M54.8364 230.391C51.765 230.657 46.44 231.088 42.2396 231.28C39.7149 231.391 38.2392 231.142 37.4258 230.808C37.4258 230.902 37.4258 230.991 37.4258 231.075C37.4414 231.289 37.5336 231.49 37.6855 231.641C37.8374 231.792 38.0388 231.883 38.2525 231.897C43.7466 232.205 49.2535 232.205 54.7475 231.897C54.8535 231.892 54.9563 231.86 55.046 231.803C55.1358 231.746 55.2095 231.668 55.2599 231.574C55.3104 231.481 55.336 231.376 55.3342 231.27C55.3324 231.164 55.3033 231.06 55.2497 230.968C55.1257 230.766 54.9875 230.573 54.8364 230.391Z" fill="#B7B9BA"/>
<path d="M42.2392 231.275C46.4396 231.088 51.769 230.657 54.8359 230.386C51.8179 226.684 42.2392 224.186 42.2392 224.186H39.5322C38.1556 226.114 37.4173 228.426 37.4209 230.795C38.261 231.137 39.7145 231.386 42.2392 231.275Z" fill="#D3D3D3"/>
<path d="M39.0742 219.776L39.3276 224.786C39.3403 225.051 39.4449 225.303 39.6233 225.499C39.8017 225.696 40.0429 225.824 40.3054 225.861C40.9883 225.969 41.6869 225.916 42.3456 225.706C42.5739 225.629 42.7772 225.492 42.9337 225.309C43.0902 225.125 43.1942 224.903 43.2346 224.666L44.1236 219.776H39.0742Z" fill="#FFA68A"/>
<path d="M7.67582 236.173C7.1412 236.091 6.64475 235.846 6.25362 235.473C5.86249 235.099 5.59556 234.614 5.48894 234.084V234.111C5.38827 234.604 5.44677 235.117 5.65602 235.576C5.86527 236.034 6.2145 236.415 6.65349 236.662C7.64845 237.173 8.76517 237.399 9.88048 237.315C10.372 237.293 10.8503 237.149 11.273 236.897C11.6956 236.645 12.0494 236.293 12.3029 235.871C11.3028 236.498 9.89826 236.573 7.67582 236.173Z" fill="#B7B9BA"/>
<path d="M13.9516 221.319H11.7292C8.32885 221.23 6.1953 230.493 5.50635 234.08C5.61297 234.611 5.8799 235.095 6.27103 235.469C6.66216 235.843 7.15861 236.087 7.69323 236.169C9.91567 236.569 11.3203 236.494 12.3248 235.854C14.1605 232.742 15.0717 228.155 15.5073 225.488C15.9874 222.452 13.9516 221.319 13.9516 221.319Z" fill="url(#paint1_linear)"/>
<path d="M12.0046 216.67L10.7867 221.599C10.7133 221.894 10.7424 222.204 10.8693 222.48C10.9962 222.755 11.2132 222.979 11.4846 223.115C12.2635 223.561 13.1527 223.776 14.0493 223.737C14.2557 223.71 14.4504 223.626 14.6115 223.494C14.7725 223.362 14.8934 223.188 14.9605 222.991L16.7784 217.808L12.0046 216.67Z" fill="url(#paint2_linear)"/>
<path d="M55.5919 151.766C55.5919 151.766 44.5197 220.977 44.702 221.359C42.661 222.18 40.3937 222.243 38.3102 221.537C38.3102 221.537 39.3103 184.538 41.6572 170.354C41.6572 170.354 22.7621 203.424 16.766 219.901C14.737 219.606 12.7901 218.898 11.0454 217.821C11.0454 217.821 31.394 158.3 36.8256 150.37L55.5919 151.766Z" fill="#4C2D22"/>
<path opacity="0.26" d="M42.1012 169.99C42.04 169.991 41.9799 169.974 41.9278 169.941C41.8567 169.895 41.8062 169.822 41.7872 169.74C41.7681 169.657 41.7819 169.57 41.8256 169.497L45.9638 162.887C45.9876 162.85 46.0188 162.817 46.0554 162.792C46.0921 162.767 46.1335 162.749 46.1772 162.741L49.2219 162.127C49.2661 162.112 49.3129 162.107 49.3593 162.112C49.4056 162.117 49.4504 162.131 49.4907 162.155C49.531 162.178 49.5659 162.21 49.5931 162.248C49.6202 162.285 49.639 162.329 49.6482 162.374C49.6574 162.42 49.6568 162.467 49.6464 162.513C49.636 162.558 49.6161 162.601 49.588 162.638C49.5599 162.675 49.5242 162.706 49.4833 162.728C49.4424 162.75 49.3973 162.764 49.3508 162.767L46.4439 163.354L42.3812 169.843C42.3506 169.889 42.3089 169.927 42.26 169.953C42.2111 169.978 42.1564 169.991 42.1012 169.99Z" fill="url(#paint3_linear)"/>
<path d="M106.401 83.9951C106.401 83.9951 98.9291 85.6442 94.3998 87.7421C93.5003 88.1592 92.7797 88.8845 92.3685 89.7868C91.0084 92.7649 86.9413 100.228 79.0562 103.793C80.1896 105.299 82.0209 108.433 82.8165 113.705C87.5547 110.18 91.6396 104.29 93.6042 94.6362C94.135 94.8754 94.7131 94.9914 95.2951 94.9752C95.8771 94.959 96.4479 94.8112 96.9645 94.5428C97.9513 94.0628 99.0892 93.3871 99.9426 92.8538C100.796 92.3294 101.415 91.4971 101.672 90.5291C101.996 89.2534 101.805 88.1333 101.805 86.9287L105.645 85.7375C105.973 85.6021 106.235 85.3446 106.376 85.0193C106.517 84.6941 106.526 84.3268 106.401 83.9951Z" fill="#FFA68A"/>
<path d="M82.7942 113.694C81.9986 108.423 80.1673 105.289 79.0338 103.782C74.1445 106.005 67.7616 106.703 59.6497 103.893C58.9004 103.64 58.1196 103.49 57.3295 103.449C53.0091 103.196 38.7766 102.733 26.9932 106.627C25.7714 107.03 24.6482 107.686 23.697 108.552C22.7458 109.418 21.9878 110.475 21.4727 111.654C18.2857 118.966 13.1297 135.621 27.4511 144.026C28.3728 141.731 29.5317 139.538 30.9092 137.483C28.6023 133.594 27.9178 128.278 32.0115 121.362C34.994 129.42 36.3941 141.177 36.6875 146.382C36.7793 148.096 36.4751 149.809 35.7985 151.387L35.7274 151.56C35.6934 151.64 35.6774 151.727 35.6806 151.814C35.6839 151.901 35.7062 151.986 35.7461 152.063C35.786 152.14 35.8425 152.208 35.9115 152.261C35.9805 152.314 36.0603 152.351 36.1452 152.369C44.2082 154.178 52.5913 153.703 55.0982 153.48C55.3153 153.462 55.521 153.376 55.6862 153.234C55.8514 153.092 55.9676 152.901 56.0183 152.689C59.9386 136.168 59.9475 124.9 58.9874 117.779C62.6722 118.584 73.9044 120.339 82.7942 113.694Z" fill="#FD3E72"/>
<path d="M59.0184 118.215C58.9391 118.215 58.8626 118.186 58.803 118.134C58.7434 118.082 58.7046 118.009 58.6939 117.931C57.7738 110.975 55.8981 107.939 55.8803 107.912C55.845 107.84 55.8376 107.757 55.8596 107.679C55.8815 107.601 55.9313 107.534 55.9994 107.491C56.0674 107.448 56.1491 107.431 56.2287 107.444C56.3084 107.457 56.3806 107.498 56.4314 107.561C56.5115 107.686 58.4005 110.726 59.3429 117.846C59.3543 117.932 59.3312 118.019 59.2788 118.089C59.2263 118.158 59.1487 118.203 59.0628 118.215H59.0184Z" fill="#F2173D"/>
<path d="M39.1231 93.8184C39.1231 93.8184 38.3096 102.441 37.5896 104.993C37.5395 105.181 37.5524 105.38 37.6262 105.56C37.7001 105.739 37.8309 105.89 37.9985 105.988C39.2164 106.686 42.1411 107.82 46.137 105.86C46.4528 105.704 46.7163 105.459 46.8955 105.156C47.0746 104.853 47.1617 104.504 47.146 104.153L46.7904 95.8186L39.1231 93.8184Z" fill="#FFA68A"/>
<path d="M46.9731 82.7861C46.9731 82.7861 49.5822 88.7778 49.7556 91.9248C49.9289 95.0717 50.609 97.1119 46.9731 97.7431C43.3372 98.3743 40.2746 96.5652 38.6122 93.4316C38.6122 93.4316 36.012 88.6045 36.5943 86.6265C37.1766 84.6485 46.9731 82.7861 46.9731 82.7861Z" fill="#FFA68A"/>
<path d="M39.8527 91.177L40.0616 91.0837C40.1241 91.0566 40.1804 91.0169 40.2269 90.9672C40.2735 90.9174 40.3093 90.8586 40.3322 90.7944C40.3552 90.7303 40.3647 90.6621 40.3602 90.5941C40.3556 90.5261 40.3372 90.4598 40.3061 90.3992C39.7949 89.408 38.7948 87.1367 40.0838 86.6077C41.7462 85.9232 48.3424 84.5808 49.7648 82.2428C51.1338 79.9937 49.9203 77.0912 48.0979 76.2645C48.04 76.2362 47.9733 76.2315 47.9119 76.2514C47.8506 76.2713 47.7993 76.3142 47.769 76.3712L47.6179 76.6601C47.5929 76.6994 47.5575 76.731 47.5155 76.7512C47.4735 76.7714 47.4267 76.7794 47.3804 76.7743C47.3341 76.7692 47.2901 76.7512 47.2535 76.7224C47.2169 76.6936 47.1892 76.655 47.1734 76.6112C47.1607 76.5652 47.1349 76.5239 47.099 76.4924C47.0631 76.4609 47.0189 76.4406 46.9716 76.434C46.9243 76.4274 46.8762 76.4348 46.833 76.4552C46.7899 76.4756 46.7537 76.5082 46.7289 76.549C46.2844 77.2468 45.111 78.3847 41.9551 78.967C37.4702 79.7937 34.501 81.6117 34.4299 84.7098C34.4289 84.7538 34.4162 84.7969 34.3931 84.8344C34.37 84.872 34.3374 84.9028 34.2985 84.9236C34.2596 84.9444 34.2159 84.9545 34.1718 84.9528C34.1277 84.9512 34.0849 84.9379 34.0477 84.9142C33.7143 84.7142 33.1854 84.6164 32.4786 85.212C31.2474 86.2477 31.7497 88.9368 34.4521 91.1459C34.4834 91.1686 34.5088 91.1983 34.5263 91.2327C34.5438 91.2671 34.5529 91.3051 34.5529 91.3437C34.5529 91.3823 34.5438 91.4203 34.5263 91.4547C34.5088 91.4891 34.4834 91.5188 34.4521 91.5415C33.9632 91.8616 33.2343 92.6172 35.1233 93.6306C37.0124 94.644 38.5414 94.5907 39.1237 94.5196C39.157 94.5144 39.1888 94.5023 39.2172 94.4842C39.2456 94.4661 39.27 94.4423 39.2888 94.4144C39.3076 94.3864 39.3204 94.3549 39.3264 94.3217C39.3324 94.2886 39.3315 94.2546 39.3237 94.2218L38.6792 91.4704C38.6713 91.4343 38.6715 91.3969 38.6799 91.3609C38.6882 91.3249 38.7044 91.2912 38.7274 91.2623C38.7504 91.2333 38.7796 91.2099 38.8127 91.1936C38.8459 91.1773 38.8823 91.1686 38.9193 91.1682L39.8527 91.177Z" fill="#182335"/>
<path d="M39.968 91.7565C39.968 91.7565 38.9724 87.9295 37.2567 89.0007C35.541 90.0719 38.1456 93.29 39.528 93.4456L39.968 91.7565Z" fill="#FFA68A"/>
<path d="M95.5822 93.742C95.5208 93.7412 95.4607 93.7232 95.409 93.69C95.3572 93.6568 95.3158 93.6098 95.2894 93.5542C95.263 93.4987 95.2527 93.4369 95.2597 93.3758C95.2667 93.3147 95.2907 93.2568 95.3289 93.2086C95.6134 92.8619 98.1203 89.7949 99.0848 89.2482C99.4359 89.0482 99.6448 88.8438 99.6893 88.6571C99.7088 88.5527 99.6932 88.4449 99.6448 88.3504L96.6979 88.9415L95.0266 90.3728C94.9606 90.4317 94.8739 90.462 94.7855 90.457C94.6972 90.452 94.6144 90.4121 94.5555 90.3461C94.4965 90.2801 94.4662 90.1934 94.4712 90.105C94.4762 90.0167 94.5161 89.9339 94.5821 89.875L96.3156 88.3859C96.3578 88.3503 96.4082 88.3258 96.4623 88.3148L99.7248 87.6614C99.7885 87.6479 99.8547 87.6538 99.915 87.6783C99.9752 87.7029 100.027 87.745 100.063 87.7992C100.173 87.9402 100.251 88.1034 100.293 88.2775C100.334 88.4516 100.338 88.6326 100.303 88.8082C100.229 89.0321 100.109 89.238 99.9502 89.4126C99.7917 89.5871 99.5983 89.7265 99.3826 89.8216C98.6581 90.2305 96.5601 92.7063 95.8267 93.622C95.7971 93.6585 95.7599 93.6882 95.7177 93.7089C95.6755 93.7296 95.6292 93.7409 95.5822 93.742Z" fill="#F9A670"/>
<path d="M39.8389 148.161L51.3689 148.303L47.3329 144.502C46.8441 144.041 46.215 143.756 45.5457 143.693C44.8765 143.631 44.2054 143.793 43.6392 144.156C42.8641 144.653 42.1725 145.269 41.5901 145.983C41.5901 145.983 34.3983 143.356 30.9225 137.471C29.545 139.525 28.3861 141.718 27.4644 144.014C30.5847 145.849 34.6339 147.294 39.8389 148.161Z" fill="#FFA68A"/>
<path d="M41.0837 149.646H41.1504L70.4199 149.615C70.5965 149.625 70.7733 149.6 70.9394 149.539C71.1056 149.479 71.2577 149.385 71.3864 149.264C71.515 149.142 71.6175 148.996 71.6876 148.834C71.7576 148.671 71.7937 148.496 71.7937 148.319C71.7937 148.143 71.7576 147.968 71.6876 147.805C71.6175 147.643 71.515 147.496 71.3864 147.375C71.2577 147.254 71.1056 147.16 70.9394 147.1C70.7733 147.039 70.5965 147.013 70.4199 147.024L41.1504 147.055C40.8183 147.065 40.5026 147.201 40.2683 147.437C40.034 147.672 39.899 147.989 39.891 148.321C39.883 148.653 40.0027 148.976 40.2255 149.222C40.4482 149.469 40.7569 149.62 41.0882 149.646H41.0837Z" fill="url(#paint4_linear)"/>
<path d="M96.7335 123.356H72.3578C71.4803 123.354 70.6202 123.6 69.8769 124.067C69.1336 124.533 68.5374 125.2 68.1574 125.991L56.8896 149.634H87.1815C87.7471 149.635 88.2999 149.466 88.7683 149.149C89.2367 148.832 89.5991 148.381 89.8084 147.856L98.547 125.978C98.66 125.685 98.6996 125.368 98.6624 125.056C98.6252 124.744 98.5123 124.446 98.3335 124.187C98.1548 123.929 97.9156 123.718 97.6367 123.573C97.3578 123.428 97.0478 123.353 96.7335 123.356Z" fill="url(#paint5_linear)"/>
<path d="M79.5576 135.476C79.0286 137.098 79.4198 138.676 80.4466 138.996C81.4733 139.316 82.7046 138.263 83.2291 136.636C83.7535 135.009 83.3668 133.436 82.3401 133.116C81.3133 132.796 80.0865 133.854 79.5576 135.476Z" fill="#FD3E72"/>
<defs>
<linearGradient id="paint0_linear" x1="43791.6" y1="8084.85" x2="43635.3" y2="10606.4" gradientUnits="userSpaceOnUse">
<stop stop-color="#9E906A"/>
<stop offset="1" stop-color="#171042"/>
</linearGradient>
<linearGradient id="paint1_linear" x1="2051.39" y1="9568.19" x2="2279.77" y2="9568.19" gradientUnits="userSpaceOnUse">
<stop stop-color="#D3D3D3"/>
<stop offset="1" stop-color="#171042"/>
</linearGradient>
<linearGradient id="paint2_linear" x1="1306.7" y1="4457.26" x2="1388.55" y2="4457.26" gradientUnits="userSpaceOnUse">
<stop stop-color="#F7B777"/>
<stop offset="1" stop-color="#F47960"/>
</linearGradient>
<linearGradient id="paint3_linear" x1="88.0835" y1="0.476262" x2="41.3282" y2="183.098" gradientUnits="userSpaceOnUse">
<stop stop-color="#9A7FBA"/>
<stop offset="1" stop-color="#E09AC4"/>
</linearGradient>
<linearGradient id="paint4_linear" x1="202877" y1="11033.2" x2="203002" y2="11541.8" gradientUnits="userSpaceOnUse">
<stop stop-color="#8B919A"/>
<stop offset="1" stop-color="#171042"/>
</linearGradient>
<linearGradient id="paint5_linear" x1="268511" y1="10360.5" x2="269376" y2="11815.2" gradientUnits="userSpaceOnUse">
<stop stop-color="#D2D7DA"/>
<stop offset="1" stop-color="#171042"/>
</linearGradient>
</defs>
</svg>
