<svg width="188" height="70" viewBox="0 0 188 70" fill="none" xmlns="http://www.w3.org/2000/svg">
<g clip-path="url(#clip0_9264:2832)">
<path d="M11.2479 56.5002C7.37531 56.5002 4.56796 55.6876 2.8257 54.0626C1.08344 52.4376 0.17706 49.7381 0.106723 45.9642C0.0355772 42.5395 0.000364805 38.8787 0.00117328 34.9818C0.00198175 31.085 0.0371941 27.4243 0.106723 23.9996C0.17706 20.2604 1.08344 17.5783 2.8257 15.9532C4.56796 14.3282 7.37531 13.5157 11.2479 13.5157C15.1197 13.5157 17.9004 14.3282 19.5902 15.9532C21.2799 17.5783 22.195 20.2604 22.3356 23.9996C22.4763 27.4946 22.5467 31.1731 22.5467 35.0352C22.5467 38.8973 22.4763 42.5407 22.3356 45.9654C22.195 49.7393 21.2799 52.4388 19.5902 54.0639C17.9004 55.6889 15.1197 56.501 11.2479 56.5002Z" fill="#191818"/>
<path d="M26.5074 55.4573V13.5218H36.6942C40.6363 13.5218 43.4785 14.3169 45.2207 15.9072C46.963 17.4974 47.9044 20.1097 48.0451 23.7437C48.0799 24.7228 48.1066 25.5789 48.1252 26.3122C48.1438 27.0455 48.1438 27.7792 48.1252 28.5133C48.1066 29.2474 48.0799 30.1035 48.0451 31.0818C48.0497 33.0018 47.654 34.9018 46.8833 36.6603C46.1993 38.09 45.0687 39.2584 43.6624 39.9892L48.626 55.4524H40.2316L36.2188 41.2989H34.424V55.4573H26.5074Z" fill="#191818"/>
<path d="M62.2823 56.5001C60.1103 56.5838 57.9445 56.218 55.9204 55.4257C54.3741 54.7667 53.1229 53.5638 52.4035 52.0446C51.5799 50.1226 51.1491 48.0552 51.1364 45.9641C51.1008 44.4968 51.0656 42.8281 51.0308 40.9581C50.996 39.0881 50.9787 37.1477 50.9787 35.137C50.9787 33.128 50.996 31.197 51.0308 29.3439C51.0656 27.4909 51.1008 25.8659 51.1364 24.4688C51.1441 22.2726 51.5837 20.0995 52.4303 18.073C53.1381 16.5136 54.3983 15.2715 55.9678 14.5865C57.9732 13.7973 60.1202 13.4315 62.2738 13.512C65.9702 13.512 68.6628 14.3245 70.3517 15.9496C72.0406 17.5746 73.0088 20.2567 73.2561 23.9959C73.3265 24.8003 73.3617 25.7612 73.3617 26.8785C73.3617 27.9958 73.3265 28.9567 73.2561 29.7611H65.3359C65.4063 28.7828 65.4415 27.5774 65.4415 26.1448C65.4415 24.7122 65.4063 23.5064 65.3359 22.5273C65.23 20.7802 64.2093 19.9066 62.2738 19.9066C60.2316 19.9066 59.158 20.7802 59.0529 22.5273C58.9114 24.9738 58.8144 27.6647 58.7618 30.6003C58.7093 33.5359 58.7093 36.4625 58.7618 39.3803C58.8144 42.2981 58.9114 44.9802 59.0529 47.4267C59.158 49.2053 60.2316 50.0946 62.2738 50.0946C63.1352 50.1402 63.9876 49.9006 64.6992 49.4131C65.0019 49.1747 65.2487 48.8729 65.422 48.5289C65.5952 48.1848 65.6909 47.8068 65.7022 47.4218C65.7369 47.0022 65.7632 46.4694 65.7809 45.8234C65.7987 45.1775 65.7987 44.5222 65.7809 43.8577C65.7623 43.1939 65.7361 42.6684 65.7022 42.2812H62.7977V35.4669H73.4101C73.4804 37.075 73.5068 38.8221 73.489 40.7083C73.4712 42.5944 73.4272 44.3419 73.3568 45.9508C73.1806 49.7248 72.2301 52.4242 70.5056 54.0493C68.7812 55.6743 66.04 56.4912 62.2823 56.5001Z" fill="#191818"/>
<path d="M187.322 0H0V6.85181H187.322V0Z" fill="#191818"/>
<path d="M187.322 62.8984H0.121216V70H187.322V62.8984Z" fill="#191818"/>
<path d="M83.3507 29.1888C83.284 25.2608 83.284 22.4485 83.3507 18.6091C83.3956 15.8866 84.5998 14.7927 87.5431 14.7927C90.4426 14.7927 91.625 15.8841 91.7135 18.6091C91.8251 22.4704 91.8251 25.279 91.7135 29.1888C91.6238 31.9343 90.4426 33.0051 87.5431 33.0051C84.5986 33.0051 83.3943 31.9331 83.3507 29.1888ZM89.1498 29.3003C89.2832 25.3724 89.2832 22.4254 89.1498 18.4756C89.128 17.3151 88.7036 16.9137 87.5442 16.9137C86.3631 16.9137 85.9386 17.3151 85.9155 18.4756C85.7591 22.3818 85.7591 25.3275 85.9155 29.3003C85.9374 30.4827 86.3618 30.8853 87.5442 30.8853C88.7024 30.8841 89.1208 30.4827 89.1486 29.3003H89.1498Z" fill="#191818"/>
<path d="M94.2566 14.9709H98.2706C101.06 14.9709 102.196 16.02 102.285 18.5861C102.33 20.2159 102.351 21.4432 102.285 22.8936C102.196 25.4597 101.036 26.5086 98.2706 26.5086H96.7984V32.8244H94.2517L94.2566 14.9709ZM98.2706 24.2336C99.2747 24.2336 99.675 23.854 99.7259 23.0063C99.8154 21.4974 99.8154 19.9846 99.7259 18.4757C99.7041 17.6268 99.2796 17.2484 98.2706 17.2484H96.7984V24.2348L98.2706 24.2336Z" fill="#191818"/>
<path d="M104.606 14.9709H111.631V17.2472H107.144V22.6486H111.404V24.9285H107.144V30.553H111.631V32.8293H104.606V14.9709Z" fill="#191818"/>
<path d="M113.661 14.9709H118.233L119.392 20.6403L120.753 30.5494H121.734L121.311 21.9562L121.133 14.9709H123.719V32.8257H118.969L117.742 26.71L116.671 17.2241H115.645L116.025 26.0624L116.226 32.8257H113.661V14.9709Z" fill="#191818"/>
<path d="M131.75 14.9709H135.675C138.465 14.9709 139.601 16.02 139.689 18.5861C139.756 20.2596 139.756 21.2867 139.689 22.782C139.623 24.4555 139.132 25.4597 138.039 25.9739L139.979 32.8257H137.281L135.608 26.3983H134.292V32.8257H131.745L131.75 14.9709ZM135.675 24.1221C136.68 24.1221 137.103 23.7425 137.148 22.9166C137.214 21.3547 137.214 20.0377 137.148 18.4757C137.103 17.6268 136.68 17.2484 135.675 17.2484H134.293V24.1233L135.675 24.1221Z" fill="#191818"/>
<path d="M142.188 14.9709H144.734V32.8257H142.188V14.9709Z" fill="#191818"/>
<path d="M147.406 29.2336C147.339 25.9751 147.339 21.8688 147.406 18.6769C147.518 15.9095 148.677 14.7963 151.621 14.7963C154.476 14.7963 155.637 15.8671 155.792 18.546C155.837 19.4834 155.837 20.4863 155.792 21.4249H153.227C153.272 20.3092 153.272 19.3937 153.227 18.278C153.182 17.2739 152.781 16.9161 151.621 16.9161C150.417 16.9161 150.016 17.2739 149.971 18.278C149.814 22.0944 149.814 25.6876 149.971 29.504C150.016 30.5312 150.417 30.8878 151.621 30.8878C152.892 30.8878 153.295 30.5299 153.362 29.504C153.407 28.6557 153.407 27.8056 153.362 26.9573H151.868V24.7029H155.86C155.905 26.3097 155.905 27.8717 155.838 29.2336C155.726 31.9343 154.544 33.0051 151.623 33.0051C148.678 33.0051 147.496 31.9331 147.406 29.2336Z" fill="#191818"/>
<path d="M157.912 14.9709H160.458V22.6486H163.49V14.9709H166.055V32.8257H163.49V24.9285H160.458V32.8293H157.912V14.9709Z" fill="#191818"/>
<path d="M171.004 17.2472H168.083V14.9709H176.45V17.2472H173.551V32.8257H171.004V17.2472Z" fill="#191818"/>
<path d="M178.232 29.2336C178.199 28.2363 178.222 27.2379 178.299 26.2431H180.724C180.646 27.38 180.646 28.521 180.724 29.658C180.769 30.5287 181.281 30.8853 182.375 30.8853C183.424 30.8853 183.913 30.5275 184.003 29.658C184.07 28.744 184.07 27.8265 184.003 26.9125C184.008 26.5152 183.871 26.1292 183.618 25.8229C183.365 25.5165 183.012 25.3097 182.621 25.2389L180.97 24.8594C178.897 24.3682 178.227 23.1616 178.181 20.9314C178.158 20.1274 178.158 19.3694 178.181 18.5436C178.27 15.8659 179.474 14.7938 182.373 14.7938C185.206 14.7938 186.389 15.8647 186.477 18.5436C186.5 19.3476 186.5 20.4184 186.455 21.4225H183.979C184.024 20.2171 184.046 19.1681 184.002 18.1191C183.979 17.2702 183.467 16.9137 182.373 16.9137C181.324 16.9137 180.813 17.2714 180.745 18.1191C180.656 19.0544 180.656 19.9961 180.745 20.9314C180.79 21.8688 181.079 22.4267 181.86 22.6049L183.355 22.9178C185.653 23.4308 186.476 24.6811 186.566 26.9125C186.589 27.6486 186.589 28.5193 186.544 29.2336C186.432 31.9343 185.25 33.0051 182.395 33.0051C179.526 33.0051 178.343 31.9331 178.232 29.2336Z" fill="#191818"/>
<path d="M83.3507 51.5523C83.284 48.2937 83.284 44.1875 83.3507 40.9956C83.4623 38.2282 84.6215 37.115 87.566 37.115C90.4207 37.115 91.5802 38.1858 91.7366 40.8647C91.7815 41.8021 91.7815 42.805 91.7366 43.7437H89.1717C89.2166 42.628 89.2166 41.7124 89.1717 40.5906C89.1269 39.5865 88.7254 39.2287 87.566 39.2287C86.3618 39.2287 85.9604 39.5853 85.9156 40.5906C85.7591 44.407 85.7591 48.0003 85.9156 51.8166C85.9604 52.8438 86.3618 53.2003 87.566 53.2003C88.8369 53.2003 89.2384 52.8438 89.3051 51.8166C89.3499 50.9683 89.3499 50.1183 89.3051 49.27H87.811V47.0156H91.8032C91.8481 48.6224 91.8482 50.1844 91.7815 51.5462C91.6699 54.2469 90.4874 55.3177 87.566 55.3177C84.6215 55.3238 83.4392 54.2518 83.3507 51.5523Z" fill="#191818"/>
<path d="M93.8552 37.2896H97.7807C100.57 37.2896 101.706 38.3386 101.796 40.9047C101.863 42.5782 101.863 43.6054 101.796 45.1007C101.729 46.7742 101.238 47.7783 100.146 48.2925L102.086 55.1443H99.3876L97.7153 48.717H96.3994V55.1443H93.8527L93.8552 37.2896ZM97.7807 46.4407C98.7848 46.4407 99.208 46.0611 99.2529 45.2353C99.3196 43.6733 99.3196 42.3563 99.2529 40.7943C99.208 39.9454 98.7848 39.5671 97.7807 39.5671H96.3982V46.4407H97.7807Z" fill="#191818"/>
<path d="M104.093 51.5075C104.026 47.5795 104.026 44.7672 104.093 40.9278C104.138 38.2053 105.342 37.1114 108.286 37.1114C111.186 37.1114 112.367 38.2028 112.457 40.9278C112.569 44.7891 112.569 47.5977 112.457 51.5075C112.368 54.253 111.186 55.3239 108.286 55.3239C105.342 55.3239 104.138 54.2518 104.093 51.5075ZM109.892 51.619C110.026 47.6911 110.026 44.7442 109.892 40.7944C109.87 39.6338 109.446 39.2324 108.286 39.2324C107.104 39.2324 106.681 39.6338 106.658 40.7944C106.501 44.7005 106.501 47.6462 106.658 51.619C106.681 52.8014 107.104 53.2041 108.286 53.2041C109.446 53.2029 109.867 52.8014 109.892 51.619Z" fill="#191818"/>
<path d="M115.022 51.5741C114.955 46.8203 114.977 42.0446 115.022 37.2896H117.587C117.52 42.0434 117.542 47.0871 117.587 51.8421C117.587 52.7796 118.072 53.204 119.192 53.204C120.313 53.204 120.798 52.7796 120.798 51.8421C120.842 47.0883 120.887 42.0446 120.798 37.2896H123.363C123.43 42.0434 123.43 46.8203 123.363 51.5741C123.318 54.2518 122.136 55.3238 119.192 55.3238C116.249 55.3238 115.065 54.2518 115.022 51.5741Z" fill="#191818"/>
<path d="M126.174 37.2896H130.188C132.977 37.2896 134.114 38.3386 134.203 40.9047C134.248 42.5346 134.27 43.7618 134.203 45.2122C134.114 47.7783 132.954 48.8273 130.188 48.8273H128.716V55.1431H126.169L126.174 37.2896ZM130.188 46.5511C131.192 46.5511 131.593 46.1715 131.643 45.3238C131.732 43.8149 131.732 42.3021 131.643 40.7931C131.621 39.9442 131.197 39.5658 130.188 39.5658H128.716V46.5511H130.188Z" fill="#191818"/>
</g>
<defs>
<clipPath id="clip0_9264:2832">
<rect width="187.322" height="70" fill="white"/>
</clipPath>
</defs>
</svg>
