<?xml version="1.0" encoding="UTF-8"?>
<svg fill="none" viewBox="0 0 87 86" xmlns="http://www.w3.org/2000/svg">
<path d="M58.429 0H3a3 3 0 0 0-3 3v80a3 3 0 0 0 3 3h55.429a3 3 0 0 0 3-3V3a3 3 0 0 0-3-3z" fill="#fd3e72"/>
<path d="M56.357 3.071H5.071a2 2 0 0 0-2 2v75.857a2 2 0 0 0 2 2h51.286a2 2 0 0 0 2-2V5.071a2 2 0 0 0-2-2z" fill="#455b64"/>
<path d="M54.783 6.143H6.646c-.278 0-.503.57-.503 1.273v71.169c0 .703.225 1.273.503 1.273h48.136c.278 0 .503-.57.503-1.273V7.416c0-.703-.225-1.273-.503-1.273z" fill="#ffecf1"/>
<path d="M14.765 10.509c.539 0 .975-.437.975-.975s-.436-.975-.975-.975-.975.436-.975.975.437.975.975.975zm-5.906 0c.538 0 .975-.437.975-.975s-.436-.975-.975-.975-.975.436-.975.975.436.975.975.975zm2.833 0c.538 0 .975-.437.975-.975s-.437-.975-.975-.975-.975.436-.975.975.437.975.975.975z" fill="#263238"/>
<path d="M53.128 16.97H8.779v33.835h44.349V16.97zm-.382 40.334H8.971v6.882h43.776v-6.882z" fill="#e9c3cd"/>
<path d="M86.019 27.296s-3.655 29.254-9.659 35.837c-7.22 7.897-12.448 6.742-15.35 10.815-2.91-4.078-8.143-2.918-15.358-10.82C39.647 56.546 36 27.291 36 27.291 51.823 19.609 61.01 11 61.01 11c.274.276 9.43 8.738 25.01 16.296z" fill="#ee3a6b"/>
<path d="m82.138 29.654s-3.087 24.711-8.158 30.275c-6.094 6.679-10.518 5.699-12.978 9.139-2.46-3.44-6.881-2.46-12.978-9.139-5.071-5.564-8.151-30.275-8.151-30.275 13.366-6.49 21.129-13.762 21.129-13.762s7.77 7.262 21.136 13.762z" fill="#ff5886"/>
<path d="M49.208 39.845C50.99 35.254 55.449 32 60.669 32s9.679 3.254 11.461 7.844c-1.782 4.59-6.241 7.845-11.461 7.845s-9.68-3.254-11.461-7.845z" fill="#ebebeb" fill-rule="evenodd"/>
<circle cx="60.669" cy="39.714" r="5.23" fill="#861836"/>
<path d="m50.798 32 20.722 14.708" stroke="#ff5886" stroke-linecap="round" stroke-width="3"/>
</svg>
