<svg xmlns="http://www.w3.org/2000/svg" width="112" height="94" fill="none"  xmlns:v="https://vecta.io/nano"><rect y="18.21" width="97.444" height="58.776" rx="2" fill="#ee3a6b"/><path d="M4.64 23.851a1 1 0 0 1 1-1h86.164a1 1 0 0 1 1 1v47.496a1 1 0 0 1-1 1H5.64a1 1 0 0 1-1-1V23.851z" fill="#ffecf1"/><path d="M79 40H18V56H79V40Z" fill="#fcc0d0"/><path opacity=".8" d="M25.133 50.82h1.133l-.055-1.727 1.438.914.57-.992-1.524-.789 1.524-.797-.57-.977-1.461.906.078-1.727h-1.133l.063 1.727-1.445-.922-.586.992 1.523.813-1.516.773.578.992 1.445-.914-.062 1.727zm6.516 0h1.133l-.055-1.727 1.438.914.57-.992-1.523-.789 1.523-.797-.57-.977-1.461.906.078-1.727h-1.133l.063 1.727-1.445-.922-.586.992 1.523.813-1.516.773.578.992 1.445-.914-.062 1.727zm6.516 0h1.133l-.055-1.727 1.438.914.57-.992-1.523-.789 1.523-.797-.57-.977-1.461.906.078-1.727h-1.133l.063 1.727-1.445-.922-.586.992 1.523.813-1.516.773.578.992 1.445-.914-.062 1.727zm6.516 0h1.133l-.055-1.727 1.438.914.57-.992-1.523-.789 1.523-.797-.57-.977-1.461.906.078-1.727H44.68l.063 1.727-1.445-.922-.586.992 1.523.813-1.516.773.578.992 1.445-.914-.062 1.727zm6.516 0h1.133l-.055-1.727 1.438.914.57-.992-1.523-.789 1.523-.797-.57-.977-1.461.906.078-1.727h-1.133l.063 1.727-1.445-.922-.586.992 1.523.813-1.516.773.578.992 1.445-.914-.062 1.727zm6.516 0h1.133l-.055-1.727 1.438.914.57-.992-1.523-.789 1.523-.797-.57-.977-1.461.906.078-1.727h-1.133l.063 1.727-1.445-.922-.586.992 1.523.813-1.516.773.578.992 1.445-.914-.062 1.727zm6.516 0h1.133l-.055-1.727 1.438.914.57-.992-1.523-.789 1.523-.797-.57-.977-1.461.906.078-1.727h-1.133l.063 1.727-1.445-.922-.586.992 1.523.813-1.516.773.578.992 1.445-.914-.062 1.727zm6.516 0h1.133l-.055-1.727 1.438.914.57-.992-1.523-.789 1.523-.797-.57-.977-1.461.906.078-1.727h-1.133l.063 1.727-1.445-.922-.586.992 1.523.813-1.516.773.578.992 1.445-.914-.062 1.727z" fill="#000"/><circle cx="48.5" cy="48.5" r="15.5" fill="#fff"/><path d="M43.414 48.116c-.184-.189-.297-.449-.297-.737l-.003-3.729c-.002-2.986 2.36-5.413 5.266-5.41s5.272 2.434 5.275 5.42l.003 3.728c.001.575-.453 1.041-1.013 1.041a1.03 1.03 0 0 1-1.014-1.042l-.003-3.728c-.002-1.838-1.458-3.334-3.246-3.335s-3.242 1.492-3.241 3.329l.003 3.729c0 .575-.453 1.041-1.013 1.041a1 1 0 0 1-.717-.306z" fill="#ff5886"/><path d="M44.556 57c-1.403 0-2.545-.872-2.545-1.945v-6.094c0-1.072 1.142-1.945 2.545-1.945h7.974c1.403 0 2.545.872 2.545 1.945v6.094c0 1.072-1.142 1.945-2.545 1.945h-7.974z" fill="#ee3a6b"/><path d="M53.735 49.473c0-.593-.698-1.079-1.55-1.079h-7.285c-.852 0-1.55.486-1.55 1.079v5.071c0 .593.697 1.079 1.55 1.079h7.285c.852 0 1.55-.486 1.55-1.079v-5.071z" fill="#ff5886"/><path d="M49.716 50.64c0-.67-.6-1.213-1.34-1.213s-1.34.543-1.34 1.213c0 .444.264.837.657 1.048l-.373 2.903h2.177l-.376-2.937c.358-.218.595-.593.595-1.014z" fill="#fff"/><path fill="#ee3a6b" d="M24.748 89.36h49.496v4.64H24.748z"/><g fill="#fd3e72"><path d="M40.216 76.986h18.561V89.36H40.216z"/><path d="M92.907 32.518a13.94 13.94 0 0 0 13.936-13.936A13.94 13.94 0 0 0 92.907 4.646a13.94 13.94 0 0 0-13.936 13.936 13.94 13.94 0 0 0 13.936 13.936z" stroke="#ee3a6b" stroke-width="2.75" stroke-linejoin="round"/></g><g stroke="#fff" stroke-linecap="round"><path d="M92.906 12.388h.016" stroke-width="2.75" stroke-linejoin="round"/><path d="M91.358 18.582h1.548v6.194h1.548" stroke-width="2" stroke-linejoin="round"/></g></svg>