<svg width="247" height="227" viewBox="0 0 247 227" fill="none" xmlns="http://www.w3.org/2000/svg">
<rect x="20.2217" y="35.2715" width="115.687" height="127.915" fill="#D3D3D3"/>
<rect x="0.000488281" width="156.131" height="55.9627" rx="15" fill="#F2F1ED"/>
<circle cx="25.6299" cy="27.9805" r="9.64062" fill="#FD3E72"/>
<rect x="115.217" y="25.8652" width="23.984" height="4.70274" fill="#D3D3D3"/>
<rect y="130.737" width="156.131" height="55.9627" rx="15" fill="#F2F1ED"/>
<circle cx="25.6299" cy="158.718" r="9.64062" fill="#D3D3D3"/>
<rect x="59.7251" y="156.602" width="79.4764" height="4.70274" fill="#D3D3D3"/>
<rect y="65.3682" width="156.131" height="55.9627" rx="15" fill="#F2F1ED"/>
<rect x="129.796" y="75.2441" width="9.40549" height="4.70274" fill="#FD3E72"/>
<rect x="111.455" y="75.2441" width="9.40549" height="4.70274" fill="#FD3E72"/>
<rect x="93.1138" y="75.2441" width="9.40549" height="4.70274" fill="#FD3E72"/>
<rect x="74.7734" y="75.2441" width="9.40549" height="4.70274" fill="#FD3E72"/>
<path d="M0.000488281 9.87576C0.000488281 4.42153 4.42202 0 9.87625 0V55.9627C4.42202 55.9627 0.000488281 51.5411 0.000488281 46.0869V9.87576Z" fill="#FAF9F6"/>
<path d="M0 75.2439C0 69.7897 4.42153 65.3682 9.87576 65.3682V121.331C4.42153 121.331 0 116.909 0 111.455V75.2439Z" fill="#FAF9F6"/>
<path d="M0 140.612C0 135.158 4.42153 130.736 9.87576 130.736V186.699C4.42153 186.699 0 182.277 0 176.823V140.612Z" fill="#FAF9F6"/>
<path d="M156.133 9.91321C156.133 4.43829 151.695 0 146.22 0V56.1749C151.695 56.1749 156.133 51.7366 156.133 46.2617V9.91321Z" fill="#E7E7E7"/>
<path d="M156.133 75.1749C156.133 69.7 151.695 65.2617 146.22 65.2617V121.437C151.695 121.437 156.133 116.998 156.133 111.523V75.1749Z" fill="#E7E7E7"/>
<path d="M156.133 140.438C156.133 134.963 151.695 130.524 146.22 130.524V186.699C151.695 186.699 156.133 182.261 156.133 176.786V140.438Z" fill="#E7E7E7"/>
<path d="M97.6694 164.859C100.645 164.861 103.604 165.297 106.455 166.152C108.457 159.987 112.36 154.614 117.604 150.803C122.848 146.992 129.163 144.939 135.646 144.938C151.334 144.938 165.134 154.741 167.305 169.288C170.477 165.885 175.434 164.245 181.818 164.245C184.716 164.226 187.584 164.84 190.22 166.045C192.856 167.249 195.197 169.015 197.08 171.219C198.962 173.423 200.341 176.011 201.119 178.803C201.897 181.595 202.055 184.523 201.583 187.383C204.324 186.48 207.228 186.182 210.094 186.511C212.961 186.84 215.722 187.788 218.186 189.288C220.651 190.789 222.76 192.807 224.368 195.202C225.977 197.598 227.046 200.314 227.501 203.163C227.957 206.013 227.789 208.927 227.008 211.705C226.227 214.482 224.852 217.057 222.978 219.252C221.104 221.446 218.777 223.207 216.156 224.414C213.535 225.62 210.683 226.243 207.797 226.24H97.6694C93.6128 226.28 89.5884 225.516 85.8289 223.991C82.0694 222.467 78.6494 220.212 75.7665 217.358C72.8837 214.504 70.5952 211.106 69.0334 207.362C67.4716 203.618 66.6675 199.601 66.6675 195.545C66.6675 191.488 67.4716 187.471 69.0334 183.727C70.5952 179.983 72.8837 176.585 75.7665 173.731C78.6494 170.877 82.0694 168.622 85.8289 167.098C89.5884 165.573 93.6128 164.809 97.6694 164.849V164.859Z" fill="#D3D3D3"/>
<path d="M101.677 170.554C104.42 170.551 107.15 170.921 109.794 171.653C113.482 161.065 124.156 151.466 136.763 151.466C151.258 151.466 162.697 165.093 164.387 178.155C167.775 174.154 173.783 170.809 179.678 170.809C189.899 170.809 196.857 179.309 196.857 188.811C196.849 190.122 196.767 191.431 196.611 192.733C198.472 192.166 200.406 191.88 202.351 191.883C212.524 191.883 220.951 195.647 220.951 205.112C220.951 214.577 213.583 221.408 203.423 221.408H101.677C86.0156 221.408 73.3174 209.59 73.3174 195.012C73.3174 180.435 86.0125 170.554 101.677 170.554Z" fill="url(#paint0_linear)"/>
<path style="mix-blend-mode:screen" opacity="0.55" d="M101.677 170.554C104.42 170.551 107.15 170.921 109.794 171.653C113.482 161.065 124.156 151.466 136.763 151.466C151.258 151.466 162.697 165.093 164.387 178.155C167.775 174.154 173.783 170.809 179.678 170.809C189.899 170.809 196.857 179.309 196.857 188.811C196.849 190.122 196.767 191.431 196.611 192.733C198.472 192.166 200.406 191.88 202.351 191.883C212.524 191.883 220.951 195.647 220.951 205.112C220.951 214.577 213.583 221.408 203.423 221.408H101.677C86.0156 221.408 73.3174 209.59 73.3174 195.012C73.3174 180.435 86.0125 170.554 101.677 170.554Z" fill="url(#paint1_linear)"/>
<path style="mix-blend-mode:multiply" opacity="0.85" d="M207.797 186.385C205.686 186.387 203.588 186.725 201.583 187.387C202.055 184.527 201.897 181.599 201.119 178.807C200.341 176.015 198.963 173.426 197.08 171.222C195.198 169.019 192.856 167.253 190.22 166.048C187.584 164.844 184.717 164.23 181.818 164.249C175.443 164.249 170.489 165.894 167.308 169.276C166.817 166.047 165.721 162.939 164.078 160.117C159.406 172.035 148.259 181.148 139.537 190.328C129.356 201.047 115.653 223.972 117.122 226.261H207.797C213.084 226.261 218.154 224.161 221.893 220.423C225.631 216.685 227.731 211.614 227.731 206.328C227.731 201.041 225.631 195.971 221.893 192.232C218.154 188.494 213.084 186.394 207.797 186.394V186.385Z" fill="url(#paint2_linear)"/>
<path d="M182.219 216.885L180.941 221.663C180.796 222.203 180.777 222.77 180.886 223.319C180.995 223.868 181.229 224.385 181.569 224.829C181.91 225.273 182.349 225.632 182.851 225.879C183.353 226.126 183.906 226.254 184.466 226.253H200.087C201.635 226.253 202.78 224.644 202.106 223.251C201.259 221.499 198.8 219.247 192.343 217.246L182.219 216.885Z" fill="#A8A8A8"/>
<path d="M229.135 213.979L225.556 219.373C225.41 219.913 225.391 220.48 225.5 221.029C225.609 221.578 225.843 222.095 226.184 222.539C226.525 222.983 226.964 223.342 227.466 223.589C227.968 223.836 228.521 223.964 229.08 223.963H244.702C246.25 223.963 247.395 222.354 246.721 220.961C245.874 219.209 243.415 216.957 236.958 214.956L235.036 211.656L229.135 213.979Z" fill="#D3D3D3"/>
<path d="M207.272 180.76C209.983 181.598 211.577 183.947 212.822 186.591C215.584 192.465 224.606 218.42 224.606 218.42L238.44 214.777C238.44 214.777 232.101 178.702 228.528 170.985C224.885 163.092 217.709 160.967 213.401 159.753C194.826 154.441 196.159 154.975 177.459 154.465C177.35 154.58 177.231 154.68 177.122 154.799C177.122 154.799 164.136 173.256 185.728 177.478C192.449 178.793 184.86 178.853 191.693 179.13C198.87 179.421 203.277 179.546 207.272 180.76Z" fill="#351D14"/>
<path d="M180.816 218.663H197.925C202.427 211.52 216.573 179.731 214.949 171.386C213.778 165.366 198.678 160.8 183.536 156.262C175.407 153.834 169.32 154.641 162.784 154.462C162.675 154.577 166.776 154.677 166.667 154.796C165.192 157.41 158.064 177.424 171.054 177.475C180.816 177.512 192.361 179.127 192.361 179.127C195.576 179.13 183.245 208.196 180.816 218.663Z" fill="#4C2D22"/>
<path d="M229.101 142.511C226.994 141.904 224.566 142.417 223.142 142.815C223.537 144.557 223.986 146.287 224.308 148.048C224.923 147.955 225.547 147.929 226.169 147.972C229.38 148.261 235.561 152.274 235.755 149.025C235.959 145.547 232.547 143.476 229.101 142.511Z" fill="#FBBB8F"/>
<path d="M224.33 148.885C224.33 148.885 201.064 150.865 199.41 146.933C194.055 134.184 199.182 110.964 199.182 110.964C199.182 110.964 204.853 112.731 206.978 121.285C208.383 126.947 208.696 134.973 212.852 138.962C213.265 139.356 225.735 141.363 225.735 141.363L224.33 148.885Z" fill="#FD3E72"/>
<path d="M201.875 140.082C202.364 136.163 201.058 118.833 202.883 113.459C200.069 110.324 192.14 108.675 192.14 108.675C192.02 108.881 191.885 109.076 191.736 109.261C189.468 112.03 188.512 110.172 185.085 110.321C183.371 110.533 181.632 110.382 179.981 109.877C178.329 109.373 176.803 108.526 175.501 107.391C175.313 107.227 165.055 108.876 164.114 110.503C153.338 129.12 164.309 160.47 164.309 160.47L201.468 157.801C201.468 157.801 201.562 142.587 201.875 140.082Z" fill="#FD3E72"/>
<g style="mix-blend-mode:multiply" opacity="0.75">
<path d="M164.102 110.49C164.226 110.319 164.384 110.175 164.567 110.068C166.883 112.16 169.242 114.391 170.426 117.148C172.198 121.27 172.593 125.851 174.578 129.913C177.089 135.052 182.826 141.958 189.578 139.296C195.072 137.128 199.137 132.532 201.869 127.323C201.905 132.809 202.109 138.112 201.869 140.073C201.565 142.589 201.459 157.792 201.459 157.792L164.3 160.46C164.3 160.46 153.338 129.108 164.102 110.49Z" fill="#F02A60"/>
</g>
<path d="M192.133 108.675C188.633 106.75 189.201 99.6952 189.07 96.5624C187.517 98.1944 185.427 99.2127 183.184 99.4311C181.345 99.5889 179.329 90.6094 177.72 89.9082C178.057 93.0865 177.274 104.847 174.411 107.096C174.062 107.371 173.669 107.584 173.249 107.728C174.587 109.273 176.491 110.991 178.409 111.607C181.138 112.488 190.512 112.761 192.133 108.675Z" fill="#FFA68A"/>
<g style="mix-blend-mode:multiply" opacity="0.55">
<path d="M189.149 100.722C189.231 102.628 189.453 104.668 190.142 106.268C188.964 106.954 187.206 107.534 184.571 107.755C181.584 108.01 177.398 106.62 175.446 105.721C175.446 105.697 175.465 105.67 175.477 105.645C176.084 104.461 176.545 102.81 176.897 100.995C177.526 98.0075 177.831 94.9614 177.808 91.909C177.808 91.8665 177.808 91.8179 177.808 91.7754C178.907 93.3752 179.092 94.7443 180.34 96.5687C180.361 96.6355 180.376 96.7023 180.4 96.7691C181.466 99.8047 184.228 100.81 187.191 100.779C187.868 100.773 188.512 100.758 189.149 100.722Z" fill="#E3C3A3"/>
</g>
<path d="M183.597 79.0801C183.597 79.0801 196.678 79.9452 196.854 83.5395C197.03 87.1337 196.979 90.1603 196.881 92.0393C196.757 94.5225 193.485 105.846 188.209 104.728C182.189 103.453 179.727 99.0851 179.165 96.8357C178.935 95.925 178.962 95.6214 178.862 94.31C178.862 94.31 176.546 93.2688 175.72 91.1802C175.192 89.8385 174.606 86.3991 174.621 85.8162C174.77 80.7163 179.973 79.1286 183.597 79.0801Z" fill="#FFA68A"/>
<path d="M179.007 95.5943L176.366 95.6489C176.366 95.6489 172.268 88.0597 174.76 79.1986C176.761 72.0921 181.084 75.659 181.084 75.659C181.084 75.659 180.862 71.3393 191.023 74.5207C191.023 74.5207 195.834 77.2194 199.274 76.0931C199.274 76.0931 202.006 86.718 193.09 84.1498C184.951 81.8032 184.824 80.425 182.881 80.2216C182.881 80.2216 182.028 87.3737 182.301 90.7767L180.398 90.4731C180.398 90.4731 180.14 85.2457 177.793 85.7891C176.357 86.123 175.58 87.8108 175.993 89.3772C176.579 91.5933 178.84 93.8154 178.84 93.8154L179.007 95.5943Z" fill="#182335"/>
<path d="M182.264 151.617C182.264 151.617 186.566 149.857 189.407 150.1C192.804 150.403 199.343 154.653 199.546 151.214C199.765 147.571 196.155 145.367 192.51 144.335C189.85 143.579 186.675 144.487 185.446 144.86L182.264 151.617Z" fill="#FBBB8F"/>
<path d="M157.093 150.864C153.146 149.926 152.509 146.232 153.104 142.225C154.303 134.141 156.033 117.815 160.32 112.275C162.117 109.953 166.54 109.239 166.54 109.239C166.54 109.239 177.435 118.741 166.506 138.667C166.506 138.667 171.035 140.992 187.847 143.709L183.755 151.824C183.755 151.824 167.441 153.329 157.093 150.864Z" fill="#FD3E72"/>
<path d="M226.017 154.089H222.706V156.314H226.017V154.089Z" fill="#212121"/>
<path d="M200.145 154.089H196.833V156.314H200.145V154.089Z" fill="#212121"/>
<path d="M200.5 131.202L236.454 132.092C236.981 131.971 237.532 132.011 238.036 132.207C238.409 132.374 238.23 133.014 238.187 133.212L231.154 155.181C231.113 155.323 231.025 155.448 230.905 155.534C230.785 155.621 230.64 155.666 230.492 155.661L192.495 155.539C192.1 155.539 191.851 155.26 191.96 154.932L199.896 131.609C199.949 131.492 200.034 131.392 200.14 131.321C200.247 131.249 200.371 131.208 200.5 131.202Z" fill="#8B919A"/>
<path d="M202.607 131.977L238.503 133.127L231.655 153.563L195.036 154.079L202.607 131.977Z" fill="#212121"/>
<path d="M201.44 131.218L238.615 132.059C239.241 132.013 239.222 132.517 239.159 132.811L232.101 155.178C232.06 155.32 231.973 155.445 231.854 155.532C231.735 155.618 231.59 155.663 231.442 155.658L193.496 155.537C193.101 155.537 192.853 155.257 192.962 154.929L200.855 131.622C200.907 131.508 200.989 131.41 201.092 131.339C201.195 131.268 201.316 131.226 201.44 131.218Z" fill="url(#paint3_linear)"/>
<path d="M177.231 158.651H231.746C231.941 158.635 232.122 158.542 232.25 158.393C232.378 158.244 232.442 158.051 232.429 157.856V156.802C232.442 156.606 232.378 156.413 232.25 156.265C232.122 156.116 231.941 156.023 231.746 156.007H177.231C177.036 156.023 176.854 156.116 176.727 156.265C176.599 156.413 176.535 156.606 176.548 156.802V157.856C176.535 158.051 176.599 158.244 176.727 158.393C176.854 158.542 177.036 158.635 177.231 158.651Z" fill="url(#paint4_linear)"/>
<path d="M177.231 156.007H195.005L194.48 158.651H177.231C177.036 158.635 176.854 158.542 176.727 158.393C176.599 158.244 176.535 158.051 176.548 157.856V156.802C176.535 156.606 176.599 156.413 176.727 156.265C176.854 156.116 177.036 156.023 177.231 156.007Z" fill="#8B919A"/>
<defs>
<linearGradient id="paint0_linear" x1="219.108" y1="217.983" x2="78.4993" y2="173.833" gradientUnits="userSpaceOnUse">
<stop stop-color="#C1C6C9"/>
<stop offset="0.21" stop-color="#BFC4C7"/>
<stop offset="0.29" stop-color="#B8BEC2"/>
<stop offset="0.34" stop-color="#AFB7BB"/>
<stop offset="1" stop-color="#D8DCDF"/>
</linearGradient>
<linearGradient id="paint1_linear" x1="114277" y1="44887.6" x2="166472" y2="10293" gradientUnits="userSpaceOnUse">
<stop stop-color="#F2F1ED"/>
<stop offset="1" stop-color="#D8DCDF"/>
</linearGradient>
<linearGradient id="paint2_linear" x1="14581.2" y1="44796.2" x2="60766.6" y2="20521.7" gradientUnits="userSpaceOnUse">
<stop stop-color="#F2F6F9"/>
<stop offset="1" stop-color="#D8DCDF"/>
</linearGradient>
<linearGradient id="paint3_linear" x1="237.377" y1="132.472" x2="197.81" y2="153.22" gradientUnits="userSpaceOnUse">
<stop stop-color="#DCE0E2"/>
<stop offset="1" stop-color="#CAD0D3"/>
</linearGradient>
<linearGradient id="paint4_linear" x1="26274.4" y1="1318.9" x2="36561.5" y2="1318.9" gradientUnits="userSpaceOnUse">
<stop stop-color="#DCE0E2"/>
<stop offset="1" stop-color="#CAD0D3"/>
</linearGradient>
</defs>
</svg>
