<svg width="80" height="60" viewBox="0 0 80 60" fill="none" xmlns="http://www.w3.org/2000/svg">
<path d="M1.6665 1.66211H78.3332V58.18H1.6665V1.66211Z" fill="white" stroke="#F5F2E9"/>
<path fill-rule="evenodd" clip-rule="evenodd" d="M3.3335 3.3252H76.6668V33.2465H3.3335V3.3252Z" fill="#DF0000"/>
<path fill-rule="evenodd" clip-rule="evenodd" d="M21.1402 5.01417C18.7724 5.52167 16.6518 6.82619 15.1344 8.70872C13.617 10.5912 12.7952 12.9371 12.8069 15.3526C12.8186 17.768 13.6632 20.1058 15.1988 21.9736C16.7344 23.8414 18.8676 25.1254 21.2402 25.61C19.8808 26.0024 18.4571 26.1234 17.0507 25.9658C15.6444 25.8082 14.2831 25.3752 13.0449 24.6916C11.8067 24.0081 10.7161 23.0874 9.8355 21.9824C8.95492 20.8775 8.30176 19.61 7.91349 18.2527C7.14201 15.5247 7.48494 12.6031 8.86728 10.1266C10.2496 7.6502 12.5589 5.82042 15.2902 5.03744C17.1999 4.463 19.2359 4.45491 21.1502 5.01417H21.1402Z" fill="white"/>
<path fill-rule="evenodd" clip-rule="evenodd" d="M19.5135 13.7135L20.1268 15.5819L18.5001 14.435L16.9001 15.6085L17.4901 13.7135L15.8901 12.5532L17.8768 12.53L18.5001 10.6582L19.1268 12.53H21.1001L19.5135 13.7135ZM21.7001 20.1965L22.3268 22.0782L20.7001 20.9312L19.0901 22.0915L19.6901 20.2098L18.0901 19.0362L20.0768 19.0229L20.6901 17.1412L21.3135 19.0129H23.3135L21.7001 20.1965ZM29.0135 20.1466L29.6268 22.0416L28.0001 20.878L26.4001 22.0383L26.9901 20.1566L25.3901 18.993L27.3768 18.9697L28.0001 17.1013L28.6268 18.9697H30.6001L29.0135 20.1433V20.1466ZM31.1901 13.7135L31.8001 15.5952L30.1768 14.4483L28.5768 15.6085L29.1768 13.7268L27.5635 12.5532L29.5635 12.5399L30.1635 10.6582L30.7901 12.53H32.7901L31.1901 13.7135ZM25.4001 9.43811L26.0268 11.3331L24.4001 10.1695L22.7901 11.3431L23.3901 9.44808L21.7901 8.27783L23.7635 8.26453L24.3901 6.38281L25.0135 8.25123H27.0135L25.4001 9.43811Z" fill="white"/>
</svg>
