<svg width="80" height="60" viewBox="0 0 80 60" fill="none" xmlns="http://www.w3.org/2000/svg">
<g clip-path="url(#clip0)">
<path d="M79.5313 59.5312H0.46875V0.46875H79.5313V59.5312Z" fill="white" stroke="#F5F2E9"/>
<path fill-rule="evenodd" clip-rule="evenodd" d="M40.7456 30.0488C40.7456 33.5453 39.3566 36.8986 36.8842 39.371C34.4118 41.8434 31.0585 43.2324 27.562 43.2324C24.0655 43.2324 20.7122 41.8434 18.2398 39.371C15.7674 36.8986 14.3784 33.5453 14.3784 30.0488C14.3784 26.5523 15.7674 23.199 18.2398 20.7266C20.7122 18.2542 24.0655 16.8652 27.562 16.8652C31.0585 16.8652 34.4118 18.2542 36.8842 20.7266C39.3566 23.199 40.7456 26.5523 40.7456 30.0488Z" fill="white"/>
<path fill-rule="evenodd" clip-rule="evenodd" d="M57.2817 30.8242C57.2817 40.3164 49.6645 48.0273 40.2544 48.0273C30.8442 48.0273 23.2388 40.3164 23.2388 30.8242C23.2388 21.332 30.8559 13.6094 40.2661 13.6094C49.6762 13.6094 57.2817 21.332 57.2817 30.8242Z" fill="#C70000"/>
<path fill-rule="evenodd" clip-rule="evenodd" d="M5.43652 14.8633L15.2334 3.53125L17.5654 5.53515L7.75684 16.8789L5.43652 14.8633ZM8.64746 17.6406L18.4443 6.30859L20.7764 8.30078L10.9678 19.6562L8.64746 17.6406Z" fill="black"/>
<path fill-rule="evenodd" clip-rule="evenodd" d="M5.43652 14.8633L15.2334 3.53125L17.5654 5.53516L7.75684 16.8789L5.43652 14.8633Z" fill="black"/>
<path fill-rule="evenodd" clip-rule="evenodd" d="M5.43652 14.8633L15.2334 3.53125L17.5654 5.53516L7.75684 16.8789L5.43652 14.8633ZM11.9287 20.4883L21.7256 9.13281L24.0576 11.1484L14.249 22.4922L11.9287 20.4883Z" fill="black"/>
<path fill-rule="evenodd" clip-rule="evenodd" d="M5.43652 14.8633L15.2334 3.53125L17.5654 5.53516L7.75684 16.8789L5.43652 14.8633Z" fill="black"/>
<path fill-rule="evenodd" clip-rule="evenodd" d="M5.43652 14.8623L15.2334 3.53027L17.5654 5.53418L7.75684 16.8779L5.43652 14.8623ZM65.0615 3.51855L74.7881 14.9326L72.4443 16.9248L62.7178 5.51074L65.0615 3.51855ZM58.5342 9.08496L68.2607 20.499L65.917 22.4912L56.1904 11.0772L58.5342 9.08496Z" fill="black"/>
<path fill-rule="evenodd" clip-rule="evenodd" d="M60.1636 15.6592L69.3511 7.71387L71.0737 9.70605L61.23 18.542L60.1401 15.6592H60.1636Z" fill="white"/>
<path fill-rule="evenodd" clip-rule="evenodd" d="M71.4829 43.6436L62.061 54.8701L59.7524 52.9482L69.1743 41.7217L71.4829 43.6436ZM61.8267 6.27246L71.5532 17.6865L69.2212 19.6787L59.5063 8.25293L61.8267 6.27246ZM74.6821 46.3037L65.2485 57.5303L62.9282 55.6084L72.3618 44.3818L74.6821 46.3037ZM68.2251 40.9365L58.8032 52.1631L56.4946 50.2412L65.9165 39.0147L68.2251 40.9365Z" fill="black"/>
<path fill-rule="evenodd" clip-rule="evenodd" d="M23.4859 27.7885C24.0249 32.1245 24.8101 36.9526 31.4781 37.4448C33.9742 37.5971 38.8374 36.8589 40.5015 30.0385C42.7046 23.4995 49.2906 21.6245 53.7788 25.1635C56.3452 26.8276 57.0484 29.4643 57.2124 31.4565C57.0132 37.7846 53.357 43.2925 48.6812 45.7534C43.2906 48.9526 35.8374 49.0229 29.3101 44.1714C26.3687 41.4175 22.2554 36.3198 23.4859 27.7885Z" fill="#3D5897"/>
<path fill-rule="evenodd" clip-rule="evenodd" d="M62.3198 43.4795L71.5308 51.4014L69.8198 53.3935L59.6128 44.9795L62.3081 43.4795H62.3198Z" fill="white"/>
<path fill-rule="evenodd" clip-rule="evenodd" d="M11.0029 41.9102L20.7295 53.3125L18.3857 55.3047L8.65918 43.9023L11.0029 41.9102Z" fill="black"/>
<path fill-rule="evenodd" clip-rule="evenodd" d="M9.32666 51.2959L18.5376 43.3389L20.2602 45.3311L10.4165 54.1787L9.32666 51.2842V51.2959Z" fill="white"/>
<path fill-rule="evenodd" clip-rule="evenodd" d="M14.2388 39.1562L23.9653 50.5586L21.6216 52.5508L11.895 41.1484L14.2388 39.1562ZM7.71143 44.7227L17.438 56.125L15.0942 58.1172L5.36768 46.7148L7.71143 44.7227Z" fill="black"/>
</g>
<defs>
<clipPath id="clip0">
<rect width="80" height="60" fill="white"/>
</clipPath>
</defs>
</svg>
