<svg width="547" height="40" viewBox="0 0 547 40" fill="none" xmlns="http://www.w3.org/2000/svg">
<path d="M42.053 14.5H58.2397V17.5133H51.8664V34.5H48.373V17.5133H42.0264L42.053 14.5ZM57.5464 20.02H60.533V22.82H60.5864C60.693 22.42 60.8797 22.0467 61.1464 21.6733C61.413 21.3 61.733 20.9533 62.133 20.66C62.5064 20.34 62.933 20.1 63.413 19.9133C63.8664 19.7267 64.3464 19.62 64.8264 19.62C65.1997 19.62 65.4664 19.6467 65.5997 19.6467C65.733 19.6733 65.893 19.7 66.0264 19.7V22.7667C65.813 22.7133 65.573 22.6867 65.333 22.66C65.093 22.6333 64.8797 22.6067 64.6397 22.6067C64.1064 22.6067 63.5997 22.7133 63.1197 22.9267C62.6397 23.14 62.2397 23.46 61.8664 23.86C61.5197 24.2867 61.2264 24.7933 61.013 25.4067C60.7997 26.02 60.693 26.74 60.693 27.54V34.42H57.493L57.5464 20.02ZM80.693 34.5H77.5464V32.4733H77.493C77.093 33.22 76.5064 33.78 75.733 34.2333C74.9597 34.6867 74.1597 34.9 73.3597 34.9C71.4664 34.9 70.0797 34.4467 69.2264 33.4867C68.373 32.5533 67.9464 31.1133 67.9464 29.22V20.02H71.1464V28.9C71.1464 30.18 71.3864 31.0867 71.893 31.5933C72.373 32.1267 73.0664 32.3933 73.9464 32.3933C74.613 32.3933 75.173 32.2867 75.6264 32.0733C76.0797 31.86 76.453 31.5933 76.7197 31.2467C77.013 30.9 77.1997 30.4733 77.333 29.9933C77.4664 29.5133 77.5197 28.98 77.5197 28.42V20.02H80.7197V34.5H80.693ZM86.133 29.86C86.2397 30.7933 86.5864 31.4333 87.1997 31.8333C87.813 32.2067 88.5597 32.3933 89.413 32.3933C89.7064 32.3933 90.053 32.3667 90.4264 32.3133C90.7997 32.26 91.173 32.18 91.493 32.0467C91.8397 31.9133 92.1064 31.7267 92.3197 31.46C92.533 31.1933 92.6397 30.8733 92.613 30.4733C92.5864 30.0733 92.453 29.7267 92.1597 29.46C91.8664 29.1933 91.5197 29.0067 91.093 28.82C90.6664 28.66 90.1597 28.5267 89.5997 28.42C89.0397 28.3133 88.4797 28.18 87.893 28.0467C87.3064 27.9133 86.7197 27.7533 86.1597 27.5667C85.5997 27.38 85.1197 27.14 84.6664 26.7933C84.2397 26.4733 83.8664 26.0733 83.6264 25.5667C83.3597 25.06 83.2264 24.4733 83.2264 23.7267C83.2264 22.9267 83.413 22.2867 83.813 21.7533C84.1864 21.22 84.693 20.7933 85.2797 20.4733C85.8664 20.1533 86.533 19.9133 87.253 19.78C87.973 19.6467 88.6664 19.5933 89.3064 19.5933C90.053 19.5933 90.773 19.6733 91.4397 19.8333C92.1064 19.9933 92.7464 20.2333 93.2797 20.6067C93.8397 20.9533 94.293 21.4333 94.6397 21.9933C95.013 22.5533 95.2264 23.2467 95.333 24.0467H91.9997C91.8397 23.2733 91.493 22.7667 90.9597 22.5C90.3997 22.2333 89.7864 22.1 89.0664 22.1C88.853 22.1 88.5597 22.1267 88.2664 22.1533C87.9464 22.2067 87.6797 22.26 87.3864 22.3667C87.1197 22.4733 86.8797 22.6333 86.693 22.82C86.5064 23.0067 86.3997 23.2733 86.3997 23.5933C86.3997 23.9933 86.533 24.2867 86.7997 24.5267C87.0664 24.7667 87.413 24.9533 87.8664 25.14C88.293 25.3 88.7997 25.4333 89.3597 25.54C89.9197 25.6467 90.5064 25.78 91.093 25.9133C91.6797 26.0467 92.2397 26.2067 92.7997 26.3933C93.3597 26.58 93.8664 26.82 94.293 27.1667C94.7197 27.4867 95.093 27.8867 95.3597 28.3667C95.6264 28.8467 95.7597 29.46 95.7597 30.1533C95.7597 31.0067 95.573 31.7267 95.173 32.34C94.773 32.9267 94.2664 33.4333 93.653 33.8067C93.0397 34.18 92.3197 34.4467 91.573 34.6333C90.7997 34.7933 90.053 34.9 89.3064 34.9C88.3997 34.9 87.5464 34.7933 86.773 34.58C85.9997 34.3667 85.3064 34.0467 84.7464 33.6467C84.1864 33.22 83.733 32.7133 83.413 32.0733C83.093 31.46 82.9064 30.7133 82.8797 29.8333H86.1064V29.86H86.133ZM96.6664 20.02H99.093V15.6467H102.293V19.9933H105.173V22.3667H102.293V30.1C102.293 30.4467 102.32 30.7133 102.346 30.98C102.373 31.22 102.453 31.4333 102.533 31.5933C102.64 31.7533 102.8 31.8867 102.986 31.9667C103.2 32.0467 103.466 32.1 103.84 32.1C104.053 32.1 104.293 32.1 104.506 32.0733C104.72 32.0467 104.96 32.02 105.173 31.9667V34.4467C104.826 34.5 104.48 34.5267 104.133 34.5533C103.786 34.6067 103.466 34.6067 103.093 34.6067C102.24 34.6067 101.573 34.5267 101.066 34.3667C100.56 34.2067 100.16 33.9667 99.8664 33.6733C99.573 33.3533 99.3864 32.98 99.2797 32.5267C99.173 32.0733 99.1197 31.5133 99.093 30.9267V22.3933H96.6664V19.9667V20.02ZM107.413 20.02H110.426V21.9933H110.48C110.933 21.14 111.546 20.5533 112.346 20.18C113.146 19.8067 114 19.62 114.96 19.62C116.106 19.62 117.093 19.8067 117.946 20.2333C118.8 20.6333 119.493 21.1667 120.053 21.8867C120.613 22.58 121.04 23.4067 121.306 24.34C121.573 25.2733 121.733 26.2867 121.733 27.3267C121.733 28.3133 121.6 29.2467 121.36 30.1533C121.093 31.06 120.72 31.8867 120.213 32.58C119.706 33.2733 119.066 33.8333 118.266 34.26C117.466 34.6867 116.56 34.9 115.493 34.9C115.04 34.9 114.56 34.8467 114.106 34.7667C113.653 34.6867 113.2 34.5533 112.773 34.3667C112.346 34.18 111.946 33.94 111.6 33.6467C111.226 33.3533 110.933 33.0067 110.693 32.6333H110.64V39.86H107.44V20.02H107.413ZM118.586 27.2733C118.586 26.6333 118.506 25.9933 118.32 25.38C118.16 24.7667 117.893 24.2333 117.546 23.7533C117.2 23.2733 116.773 22.9 116.293 22.6067C115.786 22.3133 115.2 22.18 114.56 22.18C113.226 22.18 112.213 22.6333 111.52 23.5667C110.853 24.5 110.506 25.7533 110.506 27.3C110.506 28.0467 110.586 28.7133 110.773 29.3267C110.96 29.94 111.2 30.4733 111.573 30.9267C111.92 31.38 112.346 31.7267 112.853 31.9933C113.36 32.26 113.92 32.3933 114.586 32.3933C115.333 32.3933 115.92 32.2333 116.426 31.94C116.933 31.6467 117.333 31.2467 117.68 30.7933C118 30.3133 118.24 29.78 118.373 29.1667C118.506 28.5267 118.586 27.9133 118.586 27.2733ZM124.213 14.5H127.413V17.5133H124.213V14.5ZM124.213 20.02H127.413V34.5H124.213V20.02ZM130.266 14.5H133.466V34.5H130.266V14.5ZM143.226 34.9C142.08 34.9 141.04 34.7133 140.133 34.3133C139.226 33.9133 138.48 33.4067 137.84 32.74C137.226 32.0733 136.746 31.2467 136.426 30.3133C136.106 29.38 135.92 28.34 135.92 27.2467C135.92 26.1533 136.08 25.14 136.426 24.2067C136.746 23.2733 137.226 22.4733 137.84 21.78C138.453 21.1133 139.226 20.58 140.133 20.2067C141.04 19.8333 142.08 19.62 143.226 19.62C144.373 19.62 145.413 19.8067 146.32 20.2067C147.226 20.58 147.973 21.1133 148.613 21.78C149.226 22.4467 149.706 23.2733 150.026 24.2067C150.346 25.14 150.533 26.1533 150.533 27.2467C150.533 28.3667 150.373 29.38 150.026 30.3133C149.68 31.2467 149.226 32.0467 148.613 32.74C148 33.4067 147.226 33.94 146.32 34.3133C145.413 34.6867 144.4 34.9 143.226 34.9ZM143.226 32.3667C143.92 32.3667 144.56 32.2067 145.066 31.9133C145.6 31.62 146 31.22 146.346 30.74C146.693 30.26 146.933 29.7 147.093 29.1133C147.253 28.5 147.333 27.8867 147.333 27.2467C147.333 26.6333 147.253 26.02 147.093 25.4067C146.933 24.7933 146.693 24.26 146.346 23.78C146 23.3 145.573 22.9267 145.066 22.6333C144.533 22.34 143.92 22.18 143.226 22.18C142.533 22.18 141.893 22.34 141.386 22.6333C140.853 22.9267 140.453 23.3267 140.106 23.78C139.76 24.26 139.52 24.7933 139.36 25.4067C139.2 26.02 139.12 26.6333 139.12 27.2467C139.12 27.8867 139.2 28.5 139.36 29.1133C139.52 29.7267 139.76 30.26 140.106 30.74C140.453 31.22 140.88 31.62 141.386 31.9133C141.92 32.2333 142.533 32.3667 143.226 32.3667ZM151.493 20.02H153.92V15.6467H157.12V19.9933H160V22.3667H157.12V30.1C157.12 30.4467 157.146 30.7133 157.173 30.98C157.2 31.22 157.28 31.4333 157.36 31.5933C157.466 31.7533 157.626 31.8867 157.813 31.9667C158.026 32.0467 158.293 32.1 158.666 32.1C158.88 32.1 159.12 32.1 159.333 32.0733C159.546 32.0467 159.786 32.02 160 31.9667V34.4467C159.653 34.5 159.306 34.5267 158.96 34.5533C158.613 34.6067 158.293 34.6067 157.92 34.6067C157.066 34.6067 156.4 34.5267 155.893 34.3667C155.386 34.2067 154.986 33.9667 154.693 33.6733C154.4 33.3533 154.213 32.98 154.106 32.5267C154 32.0733 153.946 31.5133 153.92 30.9267V22.3933H151.493V19.9667V20.02Z" fill="white"/>
<path d="M38.32 14.5001H23.68L19.1733 0.580078L14.64 14.5001L0 14.4734L11.84 23.0867L7.30667 37.0067L19.1467 28.3934L30.9867 37.0067L26.48 23.0867L38.32 14.5001Z" fill="#00B67A"/>
<path d="M27.4938 26.2336L26.4805 23.0869L19.1738 28.3936L27.4938 26.2336Z" fill="#005128"/>
<rect x="353.043" width="40" height="40" fill="#DCDCE6"/>
<rect x="353.043" width="20" height="40" fill="#00B67A"/>
<path fill-rule="evenodd" clip-rule="evenodd" d="M376.264 16.619H387.036L378.324 22.9368L378.325 22.938L372.949 26.842L379.071 25.2527L378.491 23.4508L381.64 33.1789L372.928 26.8414L364.217 33.1789L367.552 22.9368L358.841 16.5993L369.613 16.619L372.948 6.37695L376.264 16.619Z" fill="white"/>
<rect x="308.984" width="40" height="40" fill="#00B67A"/>
<path fill-rule="evenodd" clip-rule="evenodd" d="M332.203 16.619H342.975L334.264 22.9368L337.58 33.1789L328.868 26.8414L320.156 33.1789L323.492 22.9368L314.78 16.5993L325.552 16.619L328.888 6.37695L332.203 16.619ZM334.263 22.9375L335.008 25.2527L328.887 26.842L334.263 22.9375Z" fill="white"/>
<rect x="264.927" width="40" height="40" fill="#00B67A"/>
<path fill-rule="evenodd" clip-rule="evenodd" d="M288.147 16.619H298.919L290.207 22.9368L293.523 33.1789L284.811 26.8414L276.1 33.1789L279.435 22.9368L270.724 16.5993L281.495 16.619L284.831 6.37695L288.147 16.619ZM290.207 22.9375L290.953 25.2527L284.831 26.842L290.207 22.9375Z" fill="white"/>
<rect x="220.868" width="40" height="40" fill="#00B67A"/>
<path fill-rule="evenodd" clip-rule="evenodd" d="M244.089 16.619H254.861L246.149 22.9368L249.465 33.1789L240.754 26.8414L232.042 33.1789L235.378 22.9368L226.666 16.5993L237.438 16.619L240.773 6.37695L244.089 16.619ZM246.15 22.9375L246.895 25.2527L240.773 26.842L246.15 22.9375Z" fill="white"/>
<rect x="176.812" width="40" height="40" fill="#00B67A"/>
<path fill-rule="evenodd" clip-rule="evenodd" d="M200.031 16.619H210.802L202.091 22.9368L205.407 33.1789L196.695 26.8414L187.983 33.1789L191.319 22.9368L182.607 16.5993L193.379 16.619L196.715 6.37695L200.031 16.619ZM202.09 22.9375L202.836 25.2527L196.714 26.842L202.09 22.9375Z" fill="white"/>
<path d="M417.219 34.2027H420.14V30.3304H422.83V27.776H420.14V14.5967H415.738C411.322 20.9825 409.094 24.5016 407.409 27.6673V30.3304H417.219V34.2027ZM410.249 27.7489C411.811 24.9092 413.795 21.8521 417.192 16.9472H417.246V27.8168H410.249V27.7489Z" fill="white"/>
<path d="M427.871 34.3521C428.876 34.3521 429.65 33.5641 429.65 32.5722C429.65 31.5668 428.876 30.7923 427.871 30.7923C426.879 30.7923 426.091 31.5668 426.091 32.5722C426.091 33.5641 426.879 34.3521 427.871 34.3521Z" fill="white"/>
<path d="M440.764 34.5695C444.99 34.5695 447.952 31.7842 447.952 27.7624C447.952 23.9581 445.248 21.1999 441.484 21.1999C439.568 21.1999 437.965 21.9472 437.109 23.1836H437.041L437.585 17.1646H446.81V14.5967H435.139L434.106 25.6836H436.892C437.653 24.3929 439.12 23.6184 440.818 23.6184C443.264 23.6184 444.976 25.3847 444.976 27.844C444.976 30.3032 443.264 32.0287 440.791 32.0287C438.604 32.0287 436.933 30.6972 436.715 28.7543H433.808C433.984 32.1782 436.851 34.5695 440.764 34.5695Z" fill="white"/>
<path d="M465.363 34.3927C469.262 34.3927 471.884 31.4851 471.884 26.8927C471.884 22.2867 469.262 19.3791 465.363 19.3791C461.477 19.3791 458.854 22.2867 458.854 26.8927C458.854 31.4851 461.463 34.3927 465.363 34.3927ZM465.363 33.4416C462.075 33.4416 459.914 30.928 459.914 26.8927C459.914 22.8438 462.075 20.3438 465.363 20.3438C468.651 20.3438 470.811 22.8438 470.811 26.8927C470.811 30.9144 468.651 33.4416 465.363 33.4416Z" fill="white"/>
<path d="M486.313 19.5693H485.253V28.3193C485.253 31.4307 483.147 33.4416 480.362 33.4416C477.685 33.4416 475.933 31.784 475.933 28.9035V19.5693H474.873V29.0666C474.873 32.341 476.993 34.3927 480.145 34.3927C482.577 34.3927 484.628 32.9796 485.281 31.0095H485.321V34.2024H486.313V19.5693Z" fill="white"/>
<path d="M490.919 15.8057V19.5693H488.772V20.4932H490.919V30.8736C490.919 33.2921 491.829 34.2296 493.949 34.2296C494.112 34.2296 495.022 34.216 495.103 34.2024V33.2649C495.049 33.2785 494.166 33.2921 494.084 33.2921C492.617 33.2921 491.965 32.5992 491.965 30.8465V20.4932H494.913V19.5693H491.965V15.8057H490.919Z" fill="white"/>
<path d="M510.007 34.3927C513.907 34.3927 516.529 31.4851 516.529 26.8927C516.529 22.2867 513.907 19.3791 510.007 19.3791C506.121 19.3791 503.499 22.2867 503.499 26.8927C503.499 31.4851 506.108 34.3927 510.007 34.3927ZM510.007 33.4416C506.719 33.4416 504.559 30.928 504.559 26.8927C504.559 22.8438 506.719 20.3438 510.007 20.3438C513.295 20.3438 515.456 22.8438 515.456 26.8927C515.456 30.9144 513.295 33.4416 510.007 33.4416Z" fill="white"/>
<path d="M520.306 34.2024H521.365V20.4932H524.504V19.5693H521.365V17.5584C521.365 15.7106 522.194 15.0177 523.594 15.0177C523.96 15.0177 524.314 15.0584 524.613 15.1399V14.216C524.341 14.1345 523.96 14.0938 523.539 14.0938C521.488 14.0938 520.306 15.0992 520.306 17.4905V19.5693H518.268V20.4932H520.306V34.2024Z" fill="white"/>
<path d="M539.978 34.4878C543.864 34.4878 546.718 31.7296 546.718 27.9524C546.718 24.216 543.946 21.4307 540.25 21.4307C538.131 21.4307 536.16 22.409 535.101 23.9579H535.06L535.984 15.5747H545.454V14.5965H535.06L533.891 25.2894H534.978C536.038 23.4823 537.954 22.3954 540.128 22.3954C543.266 22.3954 545.644 24.8003 545.644 27.966C545.644 31.159 543.239 33.5231 539.992 33.5231C537.22 33.5231 534.951 31.7704 534.652 29.4062H533.579C533.878 32.341 536.595 34.4878 539.978 34.4878Z" fill="white"/>
</svg>
