<svg width="547" height="40" viewBox="0 0 547 40" fill="none" xmlns="http://www.w3.org/2000/svg">
<path d="M42.054 14.5H58.2407V17.5133H51.8673V34.5H48.374V17.5133H42.0273L42.054 14.5ZM57.5473 20.02H60.534V22.82H60.5873C60.694 22.42 60.8807 22.0467 61.1473 21.6733C61.414 21.3 61.734 20.9533 62.134 20.66C62.5073 20.34 62.934 20.1 63.414 19.9133C63.8673 19.7267 64.3473 19.62 64.8273 19.62C65.2007 19.62 65.4673 19.6467 65.6007 19.6467C65.734 19.6733 65.894 19.7 66.0273 19.7V22.7667C65.814 22.7133 65.574 22.6867 65.334 22.66C65.094 22.6333 64.8807 22.6067 64.6407 22.6067C64.1073 22.6067 63.6007 22.7133 63.1207 22.9267C62.6407 23.14 62.2407 23.46 61.8673 23.86C61.5207 24.2867 61.2273 24.7933 61.014 25.4067C60.8007 26.02 60.694 26.74 60.694 27.54V34.42H57.494L57.5473 20.02ZM80.694 34.5H77.5473V32.4733H77.494C77.094 33.22 76.5073 33.78 75.734 34.2333C74.9607 34.6867 74.1607 34.9 73.3607 34.9C71.4673 34.9 70.0807 34.4467 69.2273 33.4867C68.374 32.5533 67.9473 31.1133 67.9473 29.22V20.02H71.1473V28.9C71.1473 30.18 71.3873 31.0867 71.894 31.5933C72.374 32.1267 73.0673 32.3933 73.9473 32.3933C74.614 32.3933 75.174 32.2867 75.6273 32.0733C76.0807 31.86 76.454 31.5933 76.7207 31.2467C77.014 30.9 77.2007 30.4733 77.334 29.9933C77.4673 29.5133 77.5207 28.98 77.5207 28.42V20.02H80.7207V34.5H80.694ZM86.134 29.86C86.2407 30.7933 86.5873 31.4333 87.2007 31.8333C87.814 32.2067 88.5607 32.3933 89.414 32.3933C89.7073 32.3933 90.054 32.3667 90.4273 32.3133C90.8007 32.26 91.174 32.18 91.494 32.0467C91.8407 31.9133 92.1073 31.7267 92.3207 31.46C92.534 31.1933 92.6407 30.8733 92.614 30.4733C92.5873 30.0733 92.454 29.7267 92.1607 29.46C91.8673 29.1933 91.5207 29.0067 91.094 28.82C90.6673 28.66 90.1607 28.5267 89.6007 28.42C89.0407 28.3133 88.4807 28.18 87.894 28.0467C87.3073 27.9133 86.7207 27.7533 86.1607 27.5667C85.6007 27.38 85.1207 27.14 84.6673 26.7933C84.2407 26.4733 83.8673 26.0733 83.6273 25.5667C83.3607 25.06 83.2273 24.4733 83.2273 23.7267C83.2273 22.9267 83.414 22.2867 83.814 21.7533C84.1873 21.22 84.694 20.7933 85.2807 20.4733C85.8673 20.1533 86.534 19.9133 87.254 19.78C87.974 19.6467 88.6673 19.5933 89.3073 19.5933C90.054 19.5933 90.774 19.6733 91.4407 19.8333C92.1073 19.9933 92.7473 20.2333 93.2807 20.6067C93.8407 20.9533 94.294 21.4333 94.6407 21.9933C95.014 22.5533 95.2273 23.2467 95.334 24.0467H92.0007C91.8407 23.2733 91.494 22.7667 90.9607 22.5C90.4007 22.2333 89.7873 22.1 89.0673 22.1C88.854 22.1 88.5607 22.1267 88.2673 22.1533C87.9473 22.2067 87.6807 22.26 87.3873 22.3667C87.1207 22.4733 86.8807 22.6333 86.694 22.82C86.5073 23.0067 86.4007 23.2733 86.4007 23.5933C86.4007 23.9933 86.534 24.2867 86.8007 24.5267C87.0673 24.7667 87.414 24.9533 87.8673 25.14C88.294 25.3 88.8007 25.4333 89.3607 25.54C89.9207 25.6467 90.5073 25.78 91.094 25.9133C91.6807 26.0467 92.2407 26.2067 92.8007 26.3933C93.3607 26.58 93.8673 26.82 94.294 27.1667C94.7207 27.4867 95.094 27.8867 95.3607 28.3667C95.6273 28.8467 95.7607 29.46 95.7607 30.1533C95.7607 31.0067 95.574 31.7267 95.174 32.34C94.774 32.9267 94.2673 33.4333 93.654 33.8067C93.0407 34.18 92.3207 34.4467 91.574 34.6333C90.8007 34.7933 90.054 34.9 89.3073 34.9C88.4007 34.9 87.5473 34.7933 86.774 34.58C86.0007 34.3667 85.3073 34.0467 84.7473 33.6467C84.1873 33.22 83.734 32.7133 83.414 32.0733C83.094 31.46 82.9073 30.7133 82.8807 29.8333H86.1073V29.86H86.134ZM96.6673 20.02H99.094V15.6467H102.294V19.9933H105.174V22.3667H102.294V30.1C102.294 30.4467 102.321 30.7133 102.347 30.98C102.374 31.22 102.454 31.4333 102.534 31.5933C102.641 31.7533 102.801 31.8867 102.987 31.9667C103.201 32.0467 103.467 32.1 103.841 32.1C104.054 32.1 104.294 32.1 104.507 32.0733C104.721 32.0467 104.961 32.02 105.174 31.9667V34.4467C104.827 34.5 104.481 34.5267 104.134 34.5533C103.787 34.6067 103.467 34.6067 103.094 34.6067C102.241 34.6067 101.574 34.5267 101.067 34.3667C100.561 34.2067 100.161 33.9667 99.8673 33.6733C99.574 33.3533 99.3873 32.98 99.2807 32.5267C99.174 32.0733 99.1207 31.5133 99.094 30.9267V22.3933H96.6673V19.9667V20.02ZM107.414 20.02H110.427V21.9933H110.481C110.934 21.14 111.547 20.5533 112.347 20.18C113.147 19.8067 114.001 19.62 114.961 19.62C116.107 19.62 117.094 19.8067 117.947 20.2333C118.801 20.6333 119.494 21.1667 120.054 21.8867C120.614 22.58 121.041 23.4067 121.307 24.34C121.574 25.2733 121.734 26.2867 121.734 27.3267C121.734 28.3133 121.601 29.2467 121.361 30.1533C121.094 31.06 120.721 31.8867 120.214 32.58C119.707 33.2733 119.067 33.8333 118.267 34.26C117.467 34.6867 116.561 34.9 115.494 34.9C115.041 34.9 114.561 34.8467 114.107 34.7667C113.654 34.6867 113.201 34.5533 112.774 34.3667C112.347 34.18 111.947 33.94 111.601 33.6467C111.227 33.3533 110.934 33.0067 110.694 32.6333H110.641V39.86H107.441V20.02H107.414ZM118.587 27.2733C118.587 26.6333 118.507 25.9933 118.321 25.38C118.161 24.7667 117.894 24.2333 117.547 23.7533C117.201 23.2733 116.774 22.9 116.294 22.6067C115.787 22.3133 115.201 22.18 114.561 22.18C113.227 22.18 112.214 22.6333 111.521 23.5667C110.854 24.5 110.507 25.7533 110.507 27.3C110.507 28.0467 110.587 28.7133 110.774 29.3267C110.961 29.94 111.201 30.4733 111.574 30.9267C111.921 31.38 112.347 31.7267 112.854 31.9933C113.361 32.26 113.921 32.3933 114.587 32.3933C115.334 32.3933 115.921 32.2333 116.427 31.94C116.934 31.6467 117.334 31.2467 117.681 30.7933C118.001 30.3133 118.241 29.78 118.374 29.1667C118.507 28.5267 118.587 27.9133 118.587 27.2733ZM124.214 14.5H127.414V17.5133H124.214V14.5ZM124.214 20.02H127.414V34.5H124.214V20.02ZM130.267 14.5H133.467V34.5H130.267V14.5ZM143.227 34.9C142.081 34.9 141.041 34.7133 140.134 34.3133C139.227 33.9133 138.481 33.4067 137.841 32.74C137.227 32.0733 136.747 31.2467 136.427 30.3133C136.107 29.38 135.921 28.34 135.921 27.2467C135.921 26.1533 136.081 25.14 136.427 24.2067C136.747 23.2733 137.227 22.4733 137.841 21.78C138.454 21.1133 139.227 20.58 140.134 20.2067C141.041 19.8333 142.081 19.62 143.227 19.62C144.374 19.62 145.414 19.8067 146.321 20.2067C147.227 20.58 147.974 21.1133 148.614 21.78C149.227 22.4467 149.707 23.2733 150.027 24.2067C150.347 25.14 150.534 26.1533 150.534 27.2467C150.534 28.3667 150.374 29.38 150.027 30.3133C149.681 31.2467 149.227 32.0467 148.614 32.74C148.001 33.4067 147.227 33.94 146.321 34.3133C145.414 34.6867 144.401 34.9 143.227 34.9ZM143.227 32.3667C143.921 32.3667 144.561 32.2067 145.067 31.9133C145.601 31.62 146.001 31.22 146.347 30.74C146.694 30.26 146.934 29.7 147.094 29.1133C147.254 28.5 147.334 27.8867 147.334 27.2467C147.334 26.6333 147.254 26.02 147.094 25.4067C146.934 24.7933 146.694 24.26 146.347 23.78C146.001 23.3 145.574 22.9267 145.067 22.6333C144.534 22.34 143.921 22.18 143.227 22.18C142.534 22.18 141.894 22.34 141.387 22.6333C140.854 22.9267 140.454 23.3267 140.107 23.78C139.761 24.26 139.521 24.7933 139.361 25.4067C139.201 26.02 139.121 26.6333 139.121 27.2467C139.121 27.8867 139.201 28.5 139.361 29.1133C139.521 29.7267 139.761 30.26 140.107 30.74C140.454 31.22 140.881 31.62 141.387 31.9133C141.921 32.2333 142.534 32.3667 143.227 32.3667ZM151.494 20.02H153.921V15.6467H157.121V19.9933H160.001V22.3667H157.121V30.1C157.121 30.4467 157.147 30.7133 157.174 30.98C157.201 31.22 157.281 31.4333 157.361 31.5933C157.467 31.7533 157.627 31.8867 157.814 31.9667C158.027 32.0467 158.294 32.1 158.667 32.1C158.881 32.1 159.121 32.1 159.334 32.0733C159.547 32.0467 159.787 32.02 160.001 31.9667V34.4467C159.654 34.5 159.307 34.5267 158.961 34.5533C158.614 34.6067 158.294 34.6067 157.921 34.6067C157.067 34.6067 156.401 34.5267 155.894 34.3667C155.387 34.2067 154.987 33.9667 154.694 33.6733C154.401 33.3533 154.214 32.98 154.107 32.5267C154.001 32.0733 153.947 31.5133 153.921 30.9267V22.3933H151.494V19.9667V20.02Z" fill="white"/>
<path d="M38.32 14.5001H23.68L19.1733 0.580078L14.64 14.5001L0 14.4734L11.84 23.0867L7.30667 37.0067L19.1467 28.3934L30.9867 37.0067L26.48 23.0867L38.32 14.5001Z" fill="#00B67A"/>
<path d="M27.4938 26.2346L26.4805 23.0879L19.1738 28.3946L27.4938 26.2346Z" fill="#005128"/>
<rect x="353.043" width="40" height="40" fill="#DCDCE6"/>
<rect x="353.043" width="20" height="40" fill="#00B67A"/>
<path fill-rule="evenodd" clip-rule="evenodd" d="M376.263 16.619H387.035L378.323 22.9368L378.323 22.9374L372.947 26.8419L379.069 25.2526L378.323 22.9374L381.639 33.1789L372.928 26.8414L364.216 33.1789L367.551 22.9368L358.84 16.5993L369.612 16.619L372.947 6.37695L376.263 16.619Z" fill="white"/>
<rect x="308.985" width="40" height="40" fill="#00B67A"/>
<path fill-rule="evenodd" clip-rule="evenodd" d="M332.207 16.619H342.979L334.268 22.9368L337.583 33.1789L328.872 26.8414L320.16 33.1789L323.496 22.9368L314.784 16.5993L325.556 16.619L328.891 6.37695L332.207 16.619ZM334.266 22.9374L335.012 25.2526L328.89 26.8419L334.266 22.9374Z" fill="white"/>
<rect x="264.928" width="40" height="40" fill="#00B67A"/>
<path fill-rule="evenodd" clip-rule="evenodd" d="M288.148 16.619H298.92L290.208 22.9368L293.524 33.1789L284.812 26.8414L276.101 33.1789L279.436 22.9368L270.725 16.5993L281.496 16.619L284.832 6.37695L288.148 16.619ZM290.208 22.9374L290.953 25.2526L284.832 26.8419L290.208 22.9374Z" fill="white"/>
<rect x="220.87" width="40" height="40" fill="#00B67A"/>
<path fill-rule="evenodd" clip-rule="evenodd" d="M244.09 16.619H254.862L246.15 22.9368L249.466 33.1789L240.755 26.8414L232.043 33.1789L235.379 22.9368L226.667 16.5993L237.439 16.619L240.774 6.37695L244.09 16.619ZM246.15 22.9374L246.896 25.2526L240.774 26.8419L246.15 22.9374Z" fill="white"/>
<rect x="176.812" width="40" height="40" fill="#00B67A"/>
<path fill-rule="evenodd" clip-rule="evenodd" d="M200.032 16.619H210.803L202.092 22.9368L205.408 33.1789L196.696 26.8414L187.984 33.1789L191.32 22.9368L182.608 16.5993L193.38 16.619L196.716 6.37695L200.032 16.619ZM202.092 22.9374L202.837 25.2526L196.716 26.8419L202.092 22.9374Z" fill="white"/>
<path d="M417.22 34.2036H420.141V30.3314H422.831V27.777H420.141V14.5977H415.739C411.323 20.9835 409.095 24.5025 407.41 27.6683V30.3314H417.22V34.2036ZM410.25 27.7498C411.812 24.9102 413.796 21.8531 417.193 16.9482H417.247V27.8178H410.25V27.7498Z" fill="white"/>
<path d="M427.872 34.3531C428.877 34.3531 429.651 33.565 429.651 32.5732C429.651 31.5678 428.877 30.7933 427.872 30.7933C426.88 30.7933 426.092 31.5678 426.092 32.5732C426.092 33.565 426.88 34.3531 427.872 34.3531Z" fill="white"/>
<path d="M443.034 34.2036H445.955V30.3314H448.645V27.777H445.955V14.5977H441.553C437.137 20.9835 434.909 24.5025 433.224 27.6683V30.3314H443.034V34.2036ZM436.064 27.7498C437.626 24.9102 439.61 21.8531 443.007 16.9482H443.061V27.8178H436.064V27.7498Z" fill="white"/>
<path d="M465.363 34.3927C469.263 34.3927 471.885 31.4851 471.885 26.8927C471.885 22.2867 469.263 19.3791 465.363 19.3791C461.477 19.3791 458.855 22.2867 458.855 26.8927C458.855 31.4851 461.464 34.3927 465.363 34.3927ZM465.363 33.4416C462.075 33.4416 459.915 30.928 459.915 26.8927C459.915 22.8438 462.075 20.3438 465.363 20.3438C468.651 20.3438 470.812 22.8438 470.812 26.8927C470.812 30.9144 468.651 33.4416 465.363 33.4416Z" fill="white"/>
<path d="M486.314 19.5693H485.254V28.3193C485.254 31.4307 483.148 33.4416 480.363 33.4416C477.686 33.4416 475.933 31.784 475.933 28.9035V19.5693H474.873V29.0666C474.873 32.341 476.993 34.3927 480.145 34.3927C482.577 34.3927 484.629 32.9796 485.281 31.0095H485.322V34.2024H486.314V19.5693Z" fill="white"/>
<path d="M490.919 15.8057V19.5693H488.772V20.4932H490.919V30.8736C490.919 33.2921 491.829 34.2296 493.949 34.2296C494.112 34.2296 495.022 34.216 495.104 34.2024V33.2649C495.05 33.2785 494.166 33.2921 494.085 33.2921C492.617 33.2921 491.965 32.5992 491.965 30.8465V20.4932H494.914V19.5693H491.965V15.8057H490.919Z" fill="white"/>
<path d="M510.008 34.3927C513.907 34.3927 516.529 31.4851 516.529 26.8927C516.529 22.2867 513.907 19.3791 510.008 19.3791C506.122 19.3791 503.5 22.2867 503.5 26.8927C503.5 31.4851 506.108 34.3927 510.008 34.3927ZM510.008 33.4416C506.72 33.4416 504.559 30.928 504.559 26.8927C504.559 22.8438 506.72 20.3438 510.008 20.3438C513.296 20.3438 515.456 22.8438 515.456 26.8927C515.456 30.9144 513.296 33.4416 510.008 33.4416Z" fill="white"/>
<path d="M520.306 34.2024H521.366V20.4932H524.504V19.5693H521.366V17.5584C521.366 15.7106 522.195 15.0177 523.594 15.0177C523.961 15.0177 524.314 15.0584 524.613 15.1399V14.216C524.341 14.1345 523.961 14.0938 523.54 14.0938C521.488 14.0938 520.306 15.0992 520.306 17.4905V19.5693H518.268V20.4932H520.306V34.2024Z" fill="white"/>
<path d="M539.979 34.4878C543.865 34.4878 546.718 31.7296 546.718 27.9524C546.718 24.216 543.946 21.4307 540.251 21.4307C538.131 21.4307 536.161 22.409 535.101 23.9579H535.06L535.984 15.5747H545.454V14.5965H535.06L533.892 25.2894H534.979C536.039 23.4823 537.954 22.3954 540.128 22.3954C543.267 22.3954 545.645 24.8003 545.645 27.966C545.645 31.159 543.24 33.5231 539.992 33.5231C537.221 33.5231 534.952 31.7704 534.653 29.4062H533.579C533.878 32.341 536.596 34.4878 539.979 34.4878Z" fill="white"/>
</svg>
