<svg width="281" height="135" viewBox="0 0 281 135" fill="none" xmlns="http://www.w3.org/2000/svg">
<path d="M111.5 118V135" stroke="black"/>
<path d="M85.0396 131H86.6667V128.843H88.1653V127.42H86.6667V120.079H84.2146C81.7549 123.636 80.5137 125.596 79.5752 127.36V128.843H85.0396V131ZM81.157 127.405C82.0273 125.823 83.1323 124.12 85.0244 121.388H85.0547V127.443H81.157V127.405ZM90.9728 131.083C91.5329 131.083 91.9643 130.644 91.9643 130.092C91.9643 129.532 91.5329 129.1 90.9728 129.1C90.4204 129.1 89.9814 129.532 89.9814 130.092C89.9814 130.644 90.4204 131.083 90.9728 131.083ZM98.1549 131.204C100.509 131.204 102.159 129.653 102.159 127.413C102.159 125.293 100.652 123.757 98.556 123.757C97.4889 123.757 96.5958 124.173 96.119 124.862H96.0812L96.3839 121.509H101.523V120.079H95.0216L94.4464 126.255H95.9979C96.4218 125.536 97.2391 125.104 98.1852 125.104C99.5475 125.104 100.501 126.088 100.501 127.458C100.501 128.828 99.5475 129.789 98.17 129.789C96.9515 129.789 96.0206 129.047 95.8995 127.965H94.2799C94.3783 129.872 95.9752 131.204 98.1549 131.204Z" fill="black"/>
<path d="M124.511 131.204C127.25 131.204 128.87 129.04 128.87 125.384C128.87 124.105 128.643 123.031 128.197 122.16C127.493 120.692 126.191 119.867 124.571 119.867C122.263 119.867 120.583 121.456 120.583 123.644C120.583 125.717 122.134 127.254 124.208 127.254C125.616 127.254 126.766 126.542 127.205 125.468H127.213H127.22C127.228 125.468 127.235 125.468 127.235 125.468C127.235 128.222 126.236 129.797 124.533 129.797C123.527 129.797 122.694 129.199 122.437 128.306H120.734C121.06 130.039 122.566 131.204 124.511 131.204ZM124.571 125.869C123.247 125.869 122.271 124.9 122.271 123.591C122.271 122.319 123.292 121.312 124.594 121.312C125.896 121.312 126.91 122.327 126.91 123.621C126.91 124.907 125.911 125.869 124.571 125.869ZM133.335 131H134.993V120.079H133.32L130.444 122.122V123.787L133.297 121.759H133.335V131Z" fill="black"/>
<path d="M4.60913 131V120.631H8.45386V120.079H0.158936V120.631H4.00366V131H4.60913ZM8.44599 131H9.03632V125.937C9.03632 124.4 9.83856 123.303 11.1176 123.303C11.5036 123.303 11.7988 123.386 11.9653 123.469V122.879C11.8139 122.819 11.5187 122.743 11.2084 122.743C10.1186 122.743 9.34662 123.348 9.02118 124.461H8.99848V122.849H8.44599V131ZM19.7301 122.849H19.1398V127.723C19.1398 129.456 17.9667 130.576 16.4152 130.576C14.9242 130.576 13.9479 129.653 13.9479 128.048V122.849H13.3575V128.139C13.3575 129.963 14.5382 131.106 16.2941 131.106C17.6488 131.106 18.7916 130.319 19.1549 129.221H19.1776V131H19.7301V122.849ZM21.6522 124.938C21.6522 125.99 22.3409 126.595 23.7183 126.928L25.0277 127.246C26.3597 127.564 26.8895 128.033 26.8895 128.881C26.8895 129.918 25.8299 130.599 24.4752 130.599C23.0826 130.599 22.0836 129.774 21.9776 128.699H21.3873C21.4781 130.046 22.7042 131.106 24.46 131.106C26.2083 131.106 27.4722 130.19 27.4722 128.843C27.4722 127.723 26.8214 127.117 25.2017 126.724L23.9378 126.414C22.7799 126.141 22.2274 125.717 22.2274 124.915C22.2274 123.931 23.234 123.258 24.4449 123.258C25.7996 123.258 26.6473 124.06 26.7684 125.195H27.3436C27.2149 123.712 26.0948 122.743 24.4525 122.743C22.8858 122.743 21.6522 123.644 21.6522 124.938ZM29.5986 120.752V122.849H28.4028V123.364H29.5986V129.146C29.5986 130.493 30.1057 131.015 31.2864 131.015C31.3772 131.015 31.8843 131.008 31.9297 131V130.478C31.8994 130.485 31.4075 130.493 31.3621 130.493C30.5447 130.493 30.1814 130.107 30.1814 129.131V123.364H31.8237V122.849H30.1814V120.752H29.5986ZM36.5458 128.086C36.6366 129.895 38.2411 131.159 40.4813 131.159C42.767 131.159 44.2882 129.895 44.2882 128.086C44.2882 126.633 43.3422 125.823 41.2306 125.301L40.0121 124.991C38.2562 124.552 37.454 123.924 37.454 122.834C37.454 121.456 38.7633 120.472 40.4057 120.472C42.1237 120.472 43.4027 121.426 43.486 122.735H44.0839C44.0158 121.131 42.4794 119.92 40.4208 119.92C38.4303 119.92 36.841 121.146 36.841 122.849C36.841 124.219 37.7567 125.036 39.7775 125.551L41.0717 125.869C42.9032 126.33 43.6752 126.989 43.6752 128.132C43.6752 129.554 42.381 130.606 40.5267 130.606C38.6271 130.606 37.2345 129.57 37.1437 128.086H36.5458ZM52.6434 125.301C52.4012 123.863 51.1373 122.743 49.389 122.743C47.2093 122.743 45.8016 124.378 45.8016 126.928C45.8016 129.494 47.2093 131.106 49.3966 131.106C51.1221 131.106 52.3936 130.084 52.6434 128.616H52.0531C51.8109 129.789 50.7891 130.576 49.3966 130.576C47.5574 130.576 46.3919 129.161 46.3919 126.928C46.3919 124.703 47.5574 123.28 49.389 123.28C50.8043 123.28 51.826 124.135 52.0606 125.301H52.6434ZM57.5171 131.106C59.6892 131.106 61.1499 129.486 61.1499 126.928C61.1499 124.363 59.6892 122.743 57.5171 122.743C55.3526 122.743 53.8919 124.363 53.8919 126.928C53.8919 129.486 55.345 131.106 57.5171 131.106ZM57.5171 130.576C55.6856 130.576 54.4822 129.176 54.4822 126.928C54.4822 124.673 55.6856 123.28 57.5171 123.28C59.3487 123.28 60.552 124.673 60.552 126.928C60.552 129.168 59.3487 130.576 57.5171 130.576ZM62.8601 131H63.4504V125.937C63.4504 124.4 64.2526 123.303 65.5317 123.303C65.9177 123.303 66.2129 123.386 66.3794 123.469V122.879C66.228 122.819 65.9328 122.743 65.6225 122.743C64.5327 122.743 63.7607 123.348 63.4353 124.461H63.4126V122.849H62.8601V131ZM70.3676 123.273C72.0856 123.273 73.2511 124.59 73.2587 126.52H67.4083C67.4992 124.574 68.6723 123.273 70.3676 123.273ZM73.1603 128.722C72.9257 129.789 71.9342 130.576 70.4433 130.576C68.6117 130.576 67.4008 129.274 67.4008 127.049V127.019H73.8566V126.678C73.8566 124.31 72.4791 122.743 70.3751 122.743C68.2257 122.743 66.8029 124.408 66.8029 126.936C66.8029 129.554 68.2257 131.106 70.4357 131.106C72.237 131.106 73.4933 130.099 73.7582 128.722H73.1603Z" fill="black"/>
<path d="M142.901 131H143.491V125.937C143.491 124.4 144.293 123.303 145.572 123.303C145.958 123.303 146.253 123.386 146.42 123.469V122.879C146.269 122.819 145.973 122.743 145.663 122.743C144.573 122.743 143.801 123.348 143.476 124.461H143.453V122.849H142.901V131ZM150.873 123.273C152.591 123.273 153.757 124.59 153.764 126.52H147.914C148.005 124.574 149.178 123.273 150.873 123.273ZM153.666 128.722C153.431 129.789 152.44 130.576 150.949 130.576C149.117 130.576 147.906 129.274 147.906 127.049V127.019H154.362V126.678C154.362 124.31 152.985 122.743 150.881 122.743C148.731 122.743 147.308 124.408 147.308 126.936C147.308 129.554 148.731 131.106 150.941 131.106C152.743 131.106 153.999 130.099 154.264 128.722H153.666ZM162.297 122.849H161.676L158.883 130.402H158.868L156.083 122.849H155.455L158.528 131H159.224L162.297 122.849ZM164.101 131H164.691V122.849H164.101V131ZM164.396 120.851C164.661 120.851 164.873 120.646 164.873 120.389C164.873 120.124 164.661 119.92 164.396 119.92C164.139 119.92 163.927 120.124 163.927 120.389C163.927 120.646 164.139 120.851 164.396 120.851ZM170.499 123.273C172.217 123.273 173.383 124.59 173.391 126.52H167.54C167.631 124.574 168.804 123.273 170.499 123.273ZM173.292 128.722C173.058 129.789 172.066 130.576 170.575 130.576C168.744 130.576 167.533 129.274 167.533 127.049V127.019H173.988V126.678C173.988 124.31 172.611 122.743 170.507 122.743C168.358 122.743 166.935 124.408 166.935 126.936C166.935 129.554 168.358 131.106 170.568 131.106C172.369 131.106 173.625 130.099 173.89 128.722H173.292ZM185.851 122.849H185.23L183.134 130.342H183.111L180.833 122.849H180.167L177.889 130.342H177.866L175.77 122.849H175.149L177.526 131H178.215L180.493 123.613H180.508L182.786 131H183.475L185.851 122.849ZM187.398 124.938C187.398 125.99 188.087 126.595 189.464 126.928L190.774 127.246C192.106 127.564 192.635 128.033 192.635 128.881C192.635 129.918 191.576 130.599 190.221 130.599C188.828 130.599 187.829 129.774 187.723 128.699H187.133C187.224 130.046 188.45 131.106 190.206 131.106C191.954 131.106 193.218 130.19 193.218 128.843C193.218 127.723 192.567 127.117 190.948 126.724L189.684 126.414C188.526 126.141 187.973 125.717 187.973 124.915C187.973 123.931 188.98 123.258 190.191 123.258C191.546 123.258 192.393 124.06 192.514 125.195H193.089C192.961 123.712 191.841 122.743 190.198 122.743C188.632 122.743 187.398 123.644 187.398 124.938Z" fill="black"/>
<rect x="229.019" y="50.0188" width="51.9813" height="51.9813" fill="#DCDCE6"/>
<rect x="229.019" y="50.0188" width="25.9906" height="51.9813" fill="#00B67A"/>
<path fill-rule="evenodd" clip-rule="evenodd" d="M259.194 71.6157H273.193L261.872 79.826L266.181 93.1358L254.86 84.9001L243.539 93.1358L247.873 79.826L236.552 71.5902L250.551 71.6157L254.885 58.3059L259.194 71.6157ZM261.871 79.8264L262.84 82.8352L254.885 84.9005L261.871 79.8264Z" fill="white"/>
<rect x="171.764" y="50.0188" width="51.9813" height="51.9813" fill="#00B67A"/>
<path fill-rule="evenodd" clip-rule="evenodd" d="M201.939 71.6157H215.938L204.617 79.826L204.617 79.8264L197.63 84.9005L205.586 82.8352L204.617 79.8264L208.926 93.1358L197.605 84.9001L186.284 93.1358L190.618 79.826L179.297 71.5902L193.296 71.6157L197.63 58.3059L201.939 71.6157Z" fill="white"/>
<rect x="114.509" y="50.0188" width="51.9813" height="51.9813" fill="#00B67A"/>
<path fill-rule="evenodd" clip-rule="evenodd" d="M144.685 71.6157H158.683L147.362 79.826L147.362 79.8264L140.376 84.9005L148.331 82.8352L147.362 79.8264L151.671 93.1358L140.35 84.9001L129.029 93.1358L133.364 79.826L122.043 71.5902L136.041 71.6157L140.376 58.3059L144.685 71.6157Z" fill="white"/>
<rect x="57.2546" y="50.0188" width="51.9813" height="51.9813" fill="#00B67A"/>
<path fill-rule="evenodd" clip-rule="evenodd" d="M87.4302 71.6157H101.428L90.1075 79.826L94.4166 93.1358L83.0956 84.9001L71.7746 93.1358L76.1092 79.826L64.7882 71.5902L78.7865 71.6157L83.1211 58.3059L87.4302 71.6157ZM90.1074 79.8264L91.0763 82.8352L83.121 84.9005L90.1074 79.8264Z" fill="white"/>
<rect y="50.0188" width="51.9813" height="51.9813" fill="#00B67A"/>
<path fill-rule="evenodd" clip-rule="evenodd" d="M30.1757 71.6157H44.1739L32.853 79.826L37.1621 93.1358L25.8411 84.9001L14.5201 93.1358L18.8547 79.826L7.53369 71.5902L21.532 71.6157L25.8666 58.3059L30.1757 71.6157ZM32.8528 79.8264L33.8218 82.8352L25.8665 84.9005L32.8528 79.8264Z" fill="white"/>
<path d="M42.8419 14.5527H59.3321V17.6226H52.8392V34.9277H49.2804V17.6226H42.8147L42.8419 14.5527ZM58.6257 20.1762H61.6684V23.0287H61.7227C61.8314 22.6212 62.0216 22.2409 62.2932 21.8606C62.5649 21.4802 62.8909 21.1271 63.2984 20.8282C63.6787 20.5022 64.1134 20.2577 64.6024 20.0676C65.0642 19.8774 65.5532 19.7687 66.0422 19.7687C66.4226 19.7687 66.6942 19.7959 66.8301 19.7959C66.9659 19.8231 67.1289 19.8502 67.2647 19.8502V22.9744C67.0474 22.9201 66.8029 22.8929 66.5584 22.8657C66.3139 22.8386 66.0965 22.8114 65.8521 22.8114C65.3087 22.8114 64.7926 22.9201 64.3036 23.1374C63.8146 23.3547 63.4071 23.6807 63.0267 24.0882C62.6736 24.5229 62.3747 25.0391 62.1574 25.6639C61.9401 26.2887 61.8314 27.0222 61.8314 27.8372V34.8462H58.5714L58.6257 20.1762ZM82.2064 34.9277H79.0007V32.8631H78.9464C78.5389 33.6237 77.9412 34.1942 77.1534 34.6561C76.3656 35.1179 75.5506 35.3352 74.7356 35.3352C72.8067 35.3352 71.3941 34.8734 70.5247 33.8954C69.6554 32.9446 69.2207 31.4776 69.2207 29.5487V20.1762H72.4807V29.2227C72.4807 30.5267 72.7252 31.4504 73.2414 31.9666C73.7304 32.5099 74.4367 32.7816 75.3332 32.7816C76.0124 32.7816 76.5829 32.6729 77.0447 32.4556C77.5065 32.2382 77.8869 31.9666 78.1586 31.6134C78.4574 31.2602 78.6475 30.8256 78.7834 30.3366C78.9192 29.8476 78.9736 29.3042 78.9736 28.7337V20.1762H82.2336V34.9277H82.2064ZM87.7484 30.2007C87.857 31.1516 88.2102 31.8036 88.835 32.2111C89.4599 32.5914 90.2205 32.7816 91.0899 32.7816C91.3887 32.7816 91.7419 32.7544 92.1222 32.7001C92.5025 32.6457 92.8829 32.5642 93.2089 32.4284C93.562 32.2926 93.8337 32.1024 94.051 31.8307C94.2684 31.5591 94.377 31.2331 94.3499 30.8256C94.3227 30.4181 94.1869 30.0649 93.888 29.7932C93.5892 29.5216 93.236 29.3314 92.8014 29.1412C92.3667 28.9782 91.8505 28.8424 91.28 28.7337C90.7095 28.6251 90.139 28.4892 89.5414 28.3534C88.9437 28.2176 88.346 28.0546 87.7755 27.8644C87.205 27.6742 86.716 27.4297 86.2542 27.0766C85.8195 26.7506 85.4392 26.3431 85.1947 25.8269C84.923 25.3107 84.7872 24.7131 84.7872 23.9524C84.7872 23.1374 84.9774 22.4854 85.3849 21.9421C85.7652 21.3987 86.2814 20.9641 86.879 20.6381C87.4767 20.3121 88.1559 20.0676 88.8894 19.9317C89.6229 19.7959 90.3292 19.7416 90.9812 19.7416C91.7419 19.7416 92.4754 19.8231 93.1545 19.9861C93.8337 20.1491 94.4857 20.3936 95.029 20.7739C95.5995 21.1271 96.0614 21.6161 96.4145 22.1866C96.7949 22.7571 97.0122 23.4634 97.1209 24.2784H93.725C93.562 23.4906 93.2089 22.9744 92.6655 22.7027C92.095 22.4311 91.4702 22.2952 90.7367 22.2952C90.5194 22.2952 90.2205 22.3224 89.9217 22.3496C89.5957 22.4039 89.3241 22.4582 89.0252 22.5669C88.7535 22.6756 88.509 22.8386 88.3189 23.0287C88.1287 23.2189 88.02 23.4906 88.02 23.8166C88.02 24.2241 88.1559 24.5229 88.4275 24.7674C88.6992 25.0119 89.0524 25.2021 89.5142 25.3922C89.9489 25.5552 90.465 25.6911 91.0355 25.7997C91.606 25.9084 92.2037 26.0442 92.8014 26.1801C93.399 26.3159 93.9695 26.4789 94.54 26.6691C95.1105 26.8592 95.6267 27.1037 96.0614 27.4569C96.496 27.7829 96.8764 28.1904 97.148 28.6794C97.4197 29.1684 97.5555 29.7932 97.5555 30.4996C97.5555 31.3689 97.3654 32.1024 96.9579 32.7272C96.5504 33.3249 96.0342 33.8411 95.4094 34.2214C94.7845 34.6017 94.051 34.8734 93.2904 35.0636C92.5025 35.2266 91.7419 35.3352 90.9812 35.3352C90.0575 35.3352 89.1882 35.2266 88.4004 35.0092C87.6125 34.7919 86.9062 34.4659 86.3357 34.0584C85.7652 33.6237 85.3034 33.1076 84.9774 32.4556C84.6514 31.8307 84.4612 31.0701 84.434 30.1736H87.7212V30.2007H87.7484ZM98.4792 20.1762H100.951V15.7209H104.211V20.1491H107.145V22.5669H104.211V30.4452C104.211 30.7984 104.239 31.0701 104.266 31.3417C104.293 31.5862 104.374 31.8036 104.456 31.9666C104.565 32.1296 104.728 32.2654 104.918 32.3469C105.135 32.4284 105.407 32.4827 105.787 32.4827C106.004 32.4827 106.249 32.4827 106.466 32.4556C106.684 32.4284 106.928 32.4012 107.145 32.3469V34.8734C106.792 34.9277 106.439 34.9549 106.086 34.9821C105.733 35.0364 105.407 35.0364 105.026 35.0364C104.157 35.0364 103.478 34.9549 102.962 34.7919C102.446 34.6289 102.038 34.3844 101.739 34.0856C101.44 33.7596 101.25 33.3792 101.142 32.9174C101.033 32.4556 100.979 31.8851 100.951 31.2874V22.5941H98.4792V20.1219V20.1762ZM109.427 20.1762H112.497V22.1866H112.552C113.013 21.3172 113.638 20.7196 114.453 20.3392C115.268 19.9589 116.138 19.7687 117.116 19.7687C118.284 19.7687 119.289 19.9589 120.158 20.3936C121.028 20.8011 121.734 21.3444 122.304 22.0779C122.875 22.7842 123.31 23.6264 123.581 24.5772C123.853 25.5281 124.016 26.5604 124.016 27.6199C124.016 28.6251 123.88 29.5759 123.636 30.4996C123.364 31.4232 122.984 32.2654 122.467 32.9717C121.951 33.6781 121.299 34.2486 120.484 34.6832C119.669 35.1179 118.746 35.3352 117.659 35.3352C117.197 35.3352 116.708 35.2809 116.246 35.1994C115.784 35.1179 115.323 34.9821 114.888 34.7919C114.453 34.6017 114.046 34.3572 113.693 34.0584C113.312 33.7596 113.013 33.4064 112.769 33.0261H112.715V40.3882H109.455V20.1762H109.427ZM120.81 27.5656C120.81 26.9136 120.729 26.2616 120.539 25.6367C120.376 25.0119 120.104 24.4686 119.751 23.9796C119.398 23.4906 118.963 23.1102 118.474 22.8114C117.958 22.5126 117.36 22.3767 116.708 22.3767C115.35 22.3767 114.317 22.8386 113.611 23.7894C112.932 24.7402 112.579 26.0171 112.579 27.5927C112.579 28.3534 112.66 29.0326 112.85 29.6574C113.041 30.2822 113.285 30.8256 113.665 31.2874C114.019 31.7492 114.453 32.1024 114.969 32.3741C115.486 32.6457 116.056 32.7816 116.735 32.7816C117.496 32.7816 118.094 32.6186 118.61 32.3197C119.126 32.0209 119.533 31.6134 119.887 31.1516C120.213 30.6626 120.457 30.1192 120.593 29.4944C120.729 28.8424 120.81 28.2176 120.81 27.5656ZM126.542 14.5527H129.802V17.6226H126.542V14.5527ZM126.542 20.1762H129.802V34.9277H126.542V20.1762ZM132.709 14.5527H135.969V34.9277H132.709V14.5527ZM145.912 35.3352C144.744 35.3352 143.685 35.1451 142.761 34.7376C141.837 34.3301 141.077 33.8139 140.425 33.1347C139.8 32.4556 139.311 31.6134 138.985 30.6626C138.659 29.7117 138.469 28.6522 138.469 27.5384C138.469 26.4246 138.632 25.3922 138.985 24.4414C139.311 23.4906 139.8 22.6756 140.425 21.9692C141.049 21.2901 141.837 20.7467 142.761 20.3664C143.685 19.9861 144.744 19.7687 145.912 19.7687C147.08 19.7687 148.14 19.9589 149.064 20.3664C149.987 20.7467 150.748 21.2901 151.4 21.9692C152.025 22.6484 152.514 23.4906 152.84 24.4414C153.166 25.3922 153.356 26.4246 153.356 27.5384C153.356 28.6794 153.193 29.7117 152.84 30.6626C152.487 31.6134 152.025 32.4284 151.4 33.1347C150.775 33.8139 149.987 34.3572 149.064 34.7376C148.14 35.1179 147.108 35.3352 145.912 35.3352ZM145.912 32.7544C146.619 32.7544 147.271 32.5914 147.787 32.2926C148.33 31.9937 148.738 31.5862 149.091 31.0972C149.444 30.6082 149.688 30.0377 149.851 29.4401C150.014 28.8152 150.096 28.1904 150.096 27.5384C150.096 26.9136 150.014 26.2887 149.851 25.6639C149.688 25.0391 149.444 24.4957 149.091 24.0067C148.738 23.5177 148.303 23.1374 147.787 22.8386C147.243 22.5397 146.619 22.3767 145.912 22.3767C145.206 22.3767 144.554 22.5397 144.038 22.8386C143.494 23.1374 143.087 23.5449 142.734 24.0067C142.381 24.4957 142.136 25.0391 141.973 25.6639C141.81 26.2887 141.729 26.9136 141.729 27.5384C141.729 28.1904 141.81 28.8152 141.973 29.4401C142.136 30.0649 142.381 30.6082 142.734 31.0972C143.087 31.5862 143.522 31.9937 144.038 32.2926C144.581 32.6186 145.206 32.7544 145.912 32.7544ZM154.334 20.1762H156.806V15.7209H160.066V20.1491H163V22.5669H160.066V30.4452C160.066 30.7984 160.093 31.0701 160.12 31.3417C160.148 31.5862 160.229 31.8036 160.311 31.9666C160.419 32.1296 160.582 32.2654 160.772 32.3469C160.99 32.4284 161.261 32.4827 161.642 32.4827C161.859 32.4827 162.104 32.4827 162.321 32.4556C162.538 32.4284 162.783 32.4012 163 32.3469V34.8734C162.647 34.9277 162.294 34.9549 161.941 34.9821C161.587 35.0364 161.261 35.0364 160.881 35.0364C160.012 35.0364 159.333 34.9549 158.816 34.7919C158.3 34.6289 157.893 34.3844 157.594 34.0856C157.295 33.7596 157.105 33.3792 156.996 32.9174C156.888 32.4556 156.833 31.8851 156.806 31.2874V22.5941H154.334V20.1219V20.1762Z" fill="black"/>
<path d="M39.0385 14.5526H24.124L19.5328 0.371582L14.9145 14.5526L0 14.5254L12.062 23.3002L7.44367 37.4812L19.5057 28.7064L31.5677 37.4812L26.9765 23.3002L39.0385 14.5526Z" fill="#00B67A"/>
<path d="M28.0089 26.506L26.9766 23.3003L19.5329 28.7065L28.0089 26.506Z" fill="#005128"/>
</svg>
