<svg width="80" height="60" viewBox="0 0 80 60" fill="none" xmlns="http://www.w3.org/2000/svg">
<g clip-path="url(#clip0)">
<path d="M-20.0801 0H100.24V60.16H-20.0801V0Z" fill="#012169"/>
<path d="M-20.0801 0V6.721L86.7861 60.16H100.24V53.439L-6.62633 0H-20.0801ZM100.24 0V6.721L-6.62633 60.16H-20.0801V53.439L86.7861 0H100.24Z" fill="white"/>
<path d="M30.0572 0V60.16H50.1026V0H30.0572ZM-20.0801 20.0572V40.1027H100.24V20.0572H-20.0801Z" fill="white"/>
<path d="M-20.0801 24.064V36.096H100.24V24.064H-20.0801ZM34.0639 0V60.16H46.0959V0H34.0639ZM-20.0801 60.16L20.0227 40.1027H28.9997L-11.1148 60.16H-20.0801ZM-20.0801 0L20.0227 20.0572H11.0574L-20.0801 4.4885V0ZM51.1719 20.0572L91.2746 0H100.24L60.1371 20.0572H51.1719ZM100.24 60.16L60.1371 40.1027H69.1024L100.24 55.6715V60.16Z" fill="#C8102E"/>
</g>
<defs>
<clipPath id="clip0">
<rect width="80" height="60" fill="white"/>
</clipPath>
</defs>
</svg>
