<svg width="197" height="210" viewBox="0 0 197 210" fill="none" xmlns="http://www.w3.org/2000/svg">
<path d="M56.188 19.0697L55.79 18.577C58.5658 16.3266 61.4539 14.2184 64.4433 12.2607L64.7907 12.7913C61.8187 14.7372 58.9474 16.8326 56.188 19.0697Z" fill="#263238"/>
<path d="M51.5257 23.0562L51.1025 22.5888C51.9489 21.8246 52.8143 21.0603 53.6859 20.3213L54.0965 20.8013C53.2248 21.5403 52.3658 22.2667 51.5257 23.0562Z" fill="#263238"/>
<path d="M149.89 56.5189C140.801 90.3993 105.581 120.117 71.2333 122.903C36.8854 125.688 16.4081 100.474 25.4972 66.5933C34.5863 32.7129 69.7995 2.98856 104.154 0.209405C138.508 -2.56975 158.979 22.6385 149.89 56.5189Z" fill="#5B5863"/>
<path d="M141.645 57.1876C133.756 86.5772 103.211 112.36 73.4298 114.773C43.6486 117.186 25.8493 95.3126 33.7447 65.923C41.64 36.5335 72.1728 10.7505 101.96 8.36923C131.748 5.988 149.528 27.7981 141.645 57.1876Z" fill="#FFF1F5"/>
<path d="M100.793 12.7221C73.4497 14.9328 45.4181 38.6188 38.1797 65.564L137.2 57.5487C144.438 30.5782 128.136 10.5114 100.793 12.7221Z" fill="#E4013F"/>
<path opacity="0.7" d="M38.167 65.5642L87.6739 61.5534L61.9477 29.8457C50.6163 39.4212 41.7988 52.079 38.167 65.5642Z" fill="white"/>
<path opacity="0.4" d="M100.793 12.7217C87.1186 13.827 73.2796 20.3012 61.9482 29.8577L87.6933 61.5527L100.793 12.7217Z" fill="white"/>
<path opacity="0.1" d="M100.792 12.7221L87.6924 61.5532L131.963 24.1609C125.375 16.0824 114.467 11.6168 100.792 12.7221Z" fill="white"/>
<path d="M109.705 59.7726C106.49 71.7735 94.0214 82.2838 81.8689 83.2628C69.7165 84.2418 62.4591 75.3233 65.6804 63.3224C68.9016 51.3215 81.3636 40.8112 93.5161 39.8322C105.669 38.8532 112.92 47.7844 109.705 59.7726Z" fill="white"/>
<path d="M92.9106 70.9024C86.1585 75.6585 78.3831 75.3238 75.4714 70.1634C72.5596 65.003 75.724 56.9561 82.4698 52.1999C89.2155 47.4438 96.9972 47.7786 99.909 52.9389C102.821 58.0993 99.6626 66.1526 92.9106 70.9024Z" fill="#5B5863"/>
<path d="M124.751 35.4355C112.971 39.8801 101.801 45.7992 91.5088 53.0516L96.1639 61.3891C106.689 53.903 116.286 45.1905 124.751 35.4355Z" fill="#5B5863"/>
<path d="M43.8524 84.2027C43.706 84.2092 43.56 84.1818 43.4258 84.1227C43.2916 84.0637 43.1729 83.9744 43.0788 83.862C42.9847 83.7496 42.9178 83.617 42.8833 83.4745C42.8487 83.3321 42.8475 83.1835 42.8797 83.0405C42.9524 82.6855 43.136 82.3628 43.4038 82.1187C43.6717 81.8747 44.0101 81.7219 44.3704 81.6825L98.8039 77.3622C98.9579 77.3391 99.1152 77.3538 99.2622 77.405C99.4092 77.4562 99.5416 77.5424 99.6479 77.6562C99.7542 77.7699 99.8312 77.9078 99.8723 78.058C99.9135 78.2081 99.9175 78.366 99.884 78.5181C99.8113 78.8731 99.6278 79.1958 99.3599 79.4399C99.092 79.6839 98.7536 79.8366 98.3934 79.8761L43.9977 84.1964L43.8524 84.2027Z" fill="#FD3E72"/>
<path d="M90.9403 89.3827C90.7939 89.3892 90.6479 89.3618 90.5137 89.3027C90.3795 89.2437 90.2608 89.1544 90.1667 89.042C90.0726 88.9296 90.0057 88.797 89.9712 88.6545C89.9366 88.5121 89.9354 88.3635 89.9676 88.2205C90.0403 87.8655 90.2238 87.5428 90.4917 87.2987C90.7596 87.0547 91.098 86.9019 91.4582 86.8625L109.144 85.454C109.298 85.4309 109.455 85.4456 109.602 85.4968C109.749 85.548 109.881 85.6342 109.988 85.748C110.094 85.8617 110.171 85.9996 110.212 86.1498C110.253 86.2999 110.257 86.4578 110.224 86.6099C110.151 86.9649 109.968 87.2876 109.7 87.5317C109.432 87.7757 109.093 87.9284 108.733 87.9679L91.0477 89.3764L90.9403 89.3827Z" fill="#FD3E72"/>
<path d="M0.995969 112.008C0.849513 112.014 0.703531 111.987 0.569364 111.928C0.435197 111.869 0.316454 111.779 0.222363 111.667C0.128271 111.555 0.061365 111.422 0.0268348 111.28C-0.00769535 111.137 -0.00891816 110.989 0.023264 110.846C0.0970201 110.488 0.283332 110.163 0.554951 109.918C0.826569 109.674 1.16924 109.523 1.53285 109.488L19.2184 108.079C19.3724 108.056 19.5296 108.071 19.6767 108.122C19.8237 108.173 19.956 108.259 20.0623 108.373C20.1686 108.487 20.2457 108.625 20.2868 108.775C20.3279 108.925 20.3319 109.083 20.2985 109.235C20.2257 109.59 20.0422 109.913 19.7743 110.157C19.5065 110.401 19.1681 110.553 18.8078 110.593L1.12229 112.001L0.995969 112.008Z" fill="#FD3E72"/>
<path d="M16.7499 101.668C16.6034 101.674 16.4574 101.647 16.3233 101.588C16.1891 101.529 16.0704 101.439 15.9763 101.327C15.8822 101.214 15.8153 101.082 15.7807 100.939C15.7462 100.797 15.745 100.648 15.7772 100.505C15.8499 100.15 16.0334 99.8276 16.3013 99.5836C16.5692 99.3396 16.9076 99.1868 17.2678 99.1474L70.3244 94.9345C70.4784 94.9114 70.6357 94.926 70.7827 94.9773C70.9297 95.0285 71.0621 95.1147 71.1684 95.2284C71.2747 95.3422 71.3517 95.4801 71.3928 95.6302C71.434 95.7804 71.438 95.9383 71.4045 96.0903C71.3318 96.4453 71.1483 96.7681 70.8804 97.0121C70.6125 97.2562 70.2741 97.4089 69.9139 97.4483L16.8573 101.661L16.7499 101.668Z" fill="#FD3E72"/>
<path d="M130.631 158.387L132.879 162.928L144.002 158.93L141.754 154.389L130.631 158.387Z" fill="#FF8B7B"/>
<path d="M76.5518 195.735L79.931 199.519L88.5211 189.76L84.3587 186.867L76.5518 195.735Z" fill="#FF8B7B"/>
<path d="M80.7016 199.122L78.4025 193.387C78.3661 193.295 78.2988 193.219 78.2123 193.172C78.1258 193.125 78.0255 193.109 77.9288 193.128L73.4442 194.044C73.3334 194.069 73.2294 194.118 73.1395 194.188C73.0496 194.258 72.976 194.346 72.9237 194.447C72.8714 194.548 72.8417 194.659 72.8367 194.773C72.8317 194.886 72.8515 195 72.8947 195.105C73.6653 196.937 74.3096 198.263 75.2444 200.562C75.8191 201.99 77.3982 206.373 78.1877 208.35C78.9773 210.327 81.0048 209.721 80.8532 208.836C80.1837 204.857 80.1647 201.642 80.7269 199.994C80.8222 199.709 80.8132 199.4 80.7016 199.122Z" fill="#27160F"/>
<path d="M133.392 162.638L130.935 157.674C130.89 157.584 130.817 157.512 130.726 157.469C130.635 157.427 130.533 157.417 130.436 157.44L125.951 158.539C125.842 158.565 125.741 158.615 125.654 158.686C125.568 158.757 125.499 158.847 125.452 158.948C125.405 159.05 125.382 159.161 125.384 159.272C125.386 159.384 125.414 159.494 125.465 159.594C126.38 161.369 127.764 163.901 128.882 166.156C130.183 168.79 130.36 168.866 131.888 171.955C132.81 173.85 134.952 173.407 134.737 172.542C133.758 168.601 133.208 167.919 133.581 163.908C133.637 163.475 133.571 163.036 133.392 162.638Z" fill="#27160F"/>
<path d="M177.126 76.7367C176.892 78.3789 176.639 80.1475 176.443 81.8655C176.248 83.5835 176.058 85.3205 175.913 87.0448C175.578 90.4151 175.476 93.8045 175.61 97.1888C175.61 97.5993 175.648 98.0036 175.692 98.3952L175.805 99.5195C175.819 99.8039 175.895 100.082 176.027 100.334C176.237 100.646 176.537 100.888 176.886 101.029C177.455 101.293 178.059 101.476 178.679 101.572C180.234 101.805 181.81 101.864 183.379 101.749C184.206 101.692 185.052 101.629 185.905 101.534C186.758 101.44 187.623 101.301 188.432 101.181L189.657 104.787C188.784 105.199 187.89 105.566 186.979 105.886C186.082 106.208 185.172 106.518 184.231 106.745C183.277 106.998 182.309 107.194 181.332 107.333C180.3 107.489 179.256 107.556 178.212 107.535C177.04 107.521 175.875 107.344 174.751 107.011C173.38 106.595 172.135 105.847 171.125 104.831C170.071 103.733 169.344 102.361 169.028 100.871C168.984 100.682 168.965 100.568 168.94 100.448L168.877 100.075L168.744 99.3363C168.649 98.8373 168.586 98.351 168.529 97.8709C168.116 94.0955 168.034 90.2914 168.283 86.5016C168.403 84.651 168.535 82.8003 168.763 80.9686C168.99 79.1369 169.211 77.3367 169.565 75.4355L177.126 76.7367Z" fill="#FABFB4"/>
<path d="M169.034 72.1639C165.712 75.6947 167.051 84.607 167.051 84.607L176.386 86.0597C176.386 86.0597 178.553 81.0067 177.738 75.7958C176.74 69.4669 172.666 68.2794 169.034 72.1639Z" fill="#FD3E72"/>
<path opacity="0.2" d="M172.073 76.0748C170.532 74.0915 168.915 73.384 168.05 73.5483C165.984 77.597 167.033 84.5828 167.033 84.5828L173.646 85.6502C174.41 83.6038 174.505 79.1761 172.073 76.0748Z" fill="black"/>
<path d="M187.199 101.719L192.606 98.1689L193.812 103.67C193.812 103.67 190.446 107.075 187.641 104.675L187.199 101.719Z" fill="#FABFB4"/>
<path d="M195.937 96.9805L196.562 101.73L193.808 103.663L192.602 98.1679L195.937 96.9805Z" fill="#FABFB4"/>
<path opacity="0.2" d="M143.996 158.936L138.267 160.995L136.019 156.448L141.747 154.389L143.996 158.936Z" fill="black"/>
<path opacity="0.2" d="M84.3589 186.867L88.5213 189.76L84.4915 194.333L80.3291 191.434L84.3589 186.867Z" fill="black"/>
<path d="M149.801 59.9805C145.961 79.6241 135.735 97.3601 134.308 101.27C137.977 102.805 151.797 108.565 159.339 111.711C173.393 90.7912 175.547 75.6574 175.869 72.0003C175.891 71.7386 175.844 71.4756 175.733 71.2375C175.622 70.9993 175.451 70.7942 175.237 70.6423C174.637 70.2065 173.677 69.518 172.508 68.7474C171.877 68.3432 171.201 67.92 170.475 67.4842C170.077 67.2505 169.666 67.0294 169.249 66.802C165.789 65.1257 162.236 63.6495 158.606 62.3806C157.924 62.1343 157.217 61.9006 156.535 61.6795C155.852 61.4585 155.271 61.2942 154.64 61.13C151.974 60.41 149.801 59.9805 149.801 59.9805Z" fill="#FD3E72"/>
<path d="M164.676 50.9727C163.918 54.674 161.973 61.2303 158.625 62.5125C159.718 65.14 161.259 68.2855 165.263 70.1236C169.268 71.9616 169.723 68.8603 169.268 66.9654C165.832 64.4389 167.108 61.6724 168.883 59.2912L164.676 50.9727Z" fill="#FABFB4"/>
<path opacity="0.2" d="M166.388 54.3594L168.877 59.2671C168.454 59.8165 168.08 60.402 167.759 61.0167C166.388 60.1956 165.049 57.7638 165.536 56.1721C165.708 55.5212 165.997 54.907 166.388 54.3594Z" fill="black"/>
<path d="M174.776 51.1119C178.736 51.4024 182.242 41.5238 176.462 40.3742C172.565 39.5973 172.603 41.9343 172.186 44.4798C171.769 47.0253 172.268 50.9287 174.776 51.1119Z" fill="#263238"/>
<path d="M165.125 46.1098C164.102 51.0365 163.23 53.8661 165.03 57.0243C167.696 61.7678 174.277 61.1741 176.753 56.6516C178.977 52.5776 180.271 45.2065 176.052 41.9852C175.125 41.2714 174.031 40.8063 172.873 40.6342C171.716 40.4621 170.534 40.5887 169.439 41.0019C168.344 41.4151 167.373 42.1013 166.618 42.9953C165.863 43.8892 165.349 44.9613 165.125 46.1098Z" fill="#FABFB4"/>
<path d="M164.285 49.6343C168.246 49.9248 170.898 40.8925 165.125 39.7367C161.228 38.9598 160.9 41.2399 160.957 43.678C161.02 46.2677 161.771 49.4258 164.285 49.6343Z" fill="#263238"/>
<path d="M167.481 42.7239C170.146 44.025 183.025 46.7916 182.286 41.2522C181.547 35.7128 174.668 33.1484 174.668 33.1484C174.668 33.1484 178.667 37.5319 175.37 36.4834C172.072 35.4349 171.119 34.658 167.158 33.9569C167.158 33.9569 171.056 37.1845 166.527 36.275C163.901 35.7076 161.159 36.1448 158.84 37.5003C159.989 38.273 160.906 39.3436 161.494 40.5975C162.081 41.8514 162.317 43.2414 162.175 44.6188C161.878 49.4823 167.481 42.7239 167.481 42.7239Z" fill="#263238"/>
<path d="M161.967 49.8668C162.139 51.012 162.753 52.0439 163.678 52.7407C164.897 53.6313 166.003 52.6081 166.079 51.1301C166.148 49.7973 165.605 47.7319 164.184 47.4287C162.763 47.1255 161.777 48.4393 161.967 49.8668Z" fill="#FABFB4"/>
<path d="M142.968 104.888L137.7 121.853L164.816 138.907C160.135 146.714 136.354 154.483 136.354 154.483L140.144 162.176C140.144 162.176 173.26 159.65 179.975 145.009C186.436 130.949 159.32 111.709 159.32 111.709L142.968 104.888Z" fill="#4C2D22"/>
<path opacity="0.2" d="M146.485 127.38L141.754 124.418L147.578 115.954C147.578 115.954 147.742 122.738 146.485 127.38Z" fill="black"/>
<path opacity="0.2" d="M146.485 127.38L141.754 124.418L147.578 115.954C147.578 115.954 147.742 122.738 146.485 127.38Z" fill="black"/>
<path d="M153.459 109.265C153.459 109.265 131.592 145.634 122.566 157.433C112.681 170.35 87.0876 194.699 87.0876 194.699L79.4639 189.399C79.4639 189.399 101.571 165.031 109.902 151.546C119.414 136.185 134.308 101.269 134.308 101.269L153.459 109.265Z" fill="#4C2D22"/>
<path d="M87.8826 195.508L78.9072 189.267L80.7705 186.583L90.9271 193.386L87.8826 195.508Z" fill="#27160F"/>
<path d="M140.459 163.232L135.918 154.067L138.88 152.602L144.11 162.771L140.459 163.232Z" fill="#27160F"/>
<path d="M80.4872 201.06C80.3296 200.637 80.2194 200.199 80.1588 199.752C80.1549 199.728 80.1583 199.703 80.1684 199.681C80.1785 199.658 80.1949 199.639 80.2156 199.626C80.235 199.612 80.2582 199.604 80.282 199.604C80.3058 199.604 80.329 199.612 80.3483 199.626C80.5251 199.752 82.0474 200.858 81.9905 201.521C81.9837 201.591 81.9585 201.659 81.9175 201.716C81.8765 201.774 81.8211 201.82 81.7568 201.849C81.6542 201.906 81.5391 201.935 81.422 201.935C81.305 201.935 81.1898 201.906 81.0873 201.849C80.803 201.662 80.5913 201.384 80.4872 201.06ZM80.4872 200.005C80.6515 200.876 80.9231 201.476 81.2389 201.641C81.3094 201.68 81.3887 201.701 81.4694 201.701C81.5501 201.701 81.6295 201.68 81.7 201.641C81.7821 201.597 81.7947 201.552 81.801 201.514C81.8137 201.154 81.0683 200.466 80.4872 200.005Z" fill="#FD3E72"/>
<path d="M80.1958 199.753C80.1898 199.737 80.187 199.72 80.1876 199.703C80.1881 199.686 80.1921 199.67 80.1991 199.655C80.2062 199.639 80.2162 199.626 80.2287 199.614C80.2411 199.603 80.2558 199.594 80.2716 199.588C80.3285 199.588 81.7117 199.083 82.3686 199.431C82.4497 199.471 82.5209 199.529 82.5776 199.6C82.6343 199.671 82.675 199.753 82.6971 199.841C82.7309 199.927 82.735 200.021 82.7086 200.109C82.6823 200.198 82.627 200.274 82.5518 200.327C82.0781 200.656 80.6569 200.17 80.2274 199.803C80.2128 199.789 80.202 199.772 80.1958 199.753ZM82.4508 199.86C82.4138 199.767 82.3442 199.691 82.2549 199.645C81.7006 199.504 81.116 199.537 80.5811 199.74C81.137 200.062 82.1413 200.315 82.4255 200.119C82.4255 200.119 82.5139 200.062 82.4697 199.904L82.4508 199.86Z" fill="#FD3E72"/>
<path d="M132.988 163.395C132.984 163.372 132.988 163.348 132.998 163.327C133.008 163.306 133.025 163.288 133.045 163.276C133.065 163.264 133.088 163.258 133.112 163.259C133.136 163.26 133.158 163.268 133.177 163.282C133.386 163.433 135.217 164.804 135.18 165.505C135.178 165.571 135.159 165.636 135.124 165.692C135.09 165.749 135.042 165.795 134.984 165.827C134.891 165.888 134.785 165.924 134.675 165.934C134.565 165.944 134.454 165.927 134.352 165.884C133.664 165.606 133.196 164.21 132.981 163.408L132.988 163.395ZM134.939 165.448C134.889 165.044 134.024 164.242 133.323 163.692C133.651 164.779 134.068 165.505 134.453 165.663C134.52 165.69 134.592 165.7 134.664 165.693C134.736 165.685 134.804 165.66 134.864 165.619C134.888 165.607 134.908 165.589 134.922 165.567C134.937 165.545 134.945 165.519 134.946 165.492C134.945 165.478 134.943 165.463 134.939 165.448Z" fill="#FD3E72"/>
<path d="M132.987 163.396C132.984 163.37 132.99 163.343 133.003 163.32C133.017 163.297 133.038 163.28 133.063 163.27C133.12 163.27 134.402 162.765 135.16 163.112C135.27 163.159 135.37 163.228 135.452 163.315C135.535 163.402 135.599 163.505 135.64 163.617C135.754 163.927 135.64 164.085 135.539 164.167C135.065 164.502 133.543 163.902 133.012 163.479C132.994 163.455 132.985 163.426 132.987 163.396ZM135.451 163.82C135.445 163.779 135.434 163.738 135.419 163.7C135.389 163.616 135.343 163.54 135.282 163.476C135.221 163.411 135.147 163.361 135.065 163.327C134.503 163.183 133.909 163.216 133.366 163.422C133.998 163.813 135.116 164.173 135.4 163.971C135.438 163.959 135.438 163.927 135.438 163.82H135.451Z" fill="#FD3E72"/>
<path d="M149.966 68.5762L147.977 67.2434C147.288 66.7886 146.587 66.3528 145.88 65.9233C144.471 65.0517 143.044 64.2306 141.604 63.4473C140.164 62.6641 138.704 61.9314 137.233 61.2935C136.5 60.9587 135.761 60.6619 135.022 60.3776L133.91 59.986L133.633 59.885L133.494 59.8344C133.456 59.8344 133.494 59.8344 133.494 59.8344C133.494 59.8344 133.449 59.8344 133.386 59.7965C132.856 59.749 132.322 59.7788 131.801 59.885C131.074 60.0202 130.357 60.2017 129.653 60.4282C128.103 60.9199 126.578 61.4913 125.087 62.1399C122.023 63.46 118.903 64.9632 115.871 66.4981L113.724 63.34C116.464 61.0049 119.388 58.8927 122.465 57.0237C124.056 56.0525 125.708 55.1853 127.411 54.4277C128.334 54.0256 129.281 53.6817 130.247 53.3982C131.409 53.0412 132.62 52.8727 133.835 52.8992C134.234 52.9162 134.631 52.9648 135.022 53.0445L135.319 53.1076L135.496 53.1518L135.843 53.2403L137.233 53.6003C138.136 53.8719 139.052 54.1435 139.93 54.4782C141.681 55.1042 143.396 55.8296 145.065 56.651C146.726 57.4532 148.337 58.3312 149.91 59.266C150.686 59.746 151.463 60.2324 152.228 60.7377C152.992 61.243 153.725 61.7483 154.539 62.3609L149.966 68.5762Z" fill="#FABFB4"/>
<path d="M157.545 63.214C156.427 60.4475 145.86 56.6641 145.86 56.6641L142.449 65.5826C142.449 65.5826 146.144 68.0207 149.208 69.8587C155.019 73.3643 159.731 68.6586 157.545 63.214Z" fill="#FD3E72"/>
<path d="M116.932 65.1722L114.791 69.8147L111.525 65.5828C111.525 65.5828 113.982 61.433 115.745 63.0563L116.932 65.1722Z" fill="#FABFB4"/>
<path d="M110.274 71.272L108.619 67.558L111.525 65.5811L114.79 69.8129L110.274 71.272Z" fill="#FABFB4"/>
</svg>
