<svg width="80" height="60" viewBox="0 0 80 60" fill="none" xmlns="http://www.w3.org/2000/svg">
<rect width="80" height="60" fill="white"/>
<path fill-rule="evenodd" clip-rule="evenodd" d="M0 0H80V4.61719H0V0ZM0 9.23438H80V13.8516H0V9.23438ZM0 18.457H80V23.0859H0V18.457ZM0 27.6914H80V32.3086H0V27.6914ZM0 36.9258H80V41.543H0V36.9258ZM0 46.1484H80V50.7656H0V46.1484ZM0 55.3828H80V60H0V55.3828Z" fill="#BD3D44"/>
<path fill-rule="evenodd" clip-rule="evenodd" d="M0 0H44.3054V32.374H0V0Z" fill="#192F5D"/>
<path fill-rule="evenodd" clip-rule="evenodd" d="M3.68846 1.38477L4.09838 2.66469H5.39646L4.34889 3.45144L4.74742 4.74311L3.68846 3.94462L2.64089 4.73137L3.03943 3.45144L1.98047 2.66469H3.30132L3.68846 1.38477ZM11.0784 1.38477L11.4769 2.66469H12.7864L11.7274 3.45144L12.126 4.74311L11.0784 3.94462L10.0194 4.73137L10.418 3.45144L9.37039 2.66469H10.6685L11.0784 1.38477ZM18.4569 1.38477L18.8668 2.66469H20.1535L19.106 3.45144L19.5045 4.74311L18.4455 3.94462L17.398 4.73137L17.7965 3.45144L16.7375 2.66469H18.047L18.4569 1.38477ZM25.8469 1.38477L26.2454 2.66469H27.5549L26.4959 3.45144L26.9058 4.74311L25.8469 3.94462L24.7879 4.73137L25.1978 3.45144L24.1389 2.66469H25.4369L25.8469 1.38477ZM33.2254 1.38477L33.6353 2.66469H34.9334L33.8858 3.45144L34.2844 4.74311L33.2254 3.94462L32.1778 4.73137L32.5764 3.45144L31.5288 2.66469H32.8269L33.2254 1.38477ZM40.6153 1.38477L41.0139 2.66469H42.3233L41.2644 3.45144L41.6743 4.74311L40.6153 3.94462L39.5564 4.73137L39.9663 3.45144L38.9073 2.66469H40.2168L40.6153 1.38477ZM7.38912 4.62569L7.78765 5.90562H9.09712L8.03816 6.69236L8.4253 7.97229L7.40051 7.18555L6.34155 7.97229L6.71731 6.69236L5.69251 5.90562H6.99059L7.38912 4.62569ZM14.7677 4.62569L15.1776 5.90562H16.4757L15.4167 6.69236L15.8266 7.97229L14.7677 7.18555L13.7087 7.97229L14.1186 6.69236L13.0597 5.90562H14.3691L14.7677 4.62569ZM22.1576 4.62569L22.5561 5.90562H23.8656L22.8066 6.69236L23.2052 7.97229L22.1576 7.18555L21.0986 7.97229L21.4972 6.69236L20.4496 5.90562H21.7477L22.1576 4.62569ZM29.5361 4.62569L29.946 5.90562H31.2441L30.1852 6.69236L30.5951 7.97229L29.5361 7.18555L28.4886 7.97229L28.8871 6.69236L27.8281 5.90562H29.149L29.5361 4.62569ZM36.9261 4.62569L37.3246 5.90562H38.634L37.5751 6.69236L37.9736 7.97229L36.9261 7.18555L35.8671 7.97229L36.2656 6.69236L35.2181 5.90562H36.5161L36.9261 4.62569ZM3.68846 7.85487L4.09838 9.15828H5.39646L4.34889 9.94502L4.74742 11.225L3.68846 10.4265L2.64089 11.225L3.03943 9.93328L1.98047 9.14654H3.30132L3.68846 7.85487ZM11.0784 7.85487L11.4769 9.14654H12.7864L11.7274 9.93328L12.126 11.2132L11.0784 10.4147L10.0194 11.2132L10.418 9.92154L9.37039 9.13479H10.6685L11.0784 7.85487ZM18.4569 7.85487L18.8668 9.14654H20.1535L19.106 9.93328L19.5045 11.2132L18.4455 10.4147L17.398 11.2132L17.7965 9.92154L16.7375 9.13479H18.047L18.4569 7.85487ZM25.8469 7.85487L26.2454 9.14654H27.5549L26.4959 9.93328L26.9058 11.2132L25.8469 10.4147L24.7879 11.2132L25.1978 9.92154L24.1389 9.13479H25.4369L25.8469 7.85487ZM33.2254 7.85487L33.6353 9.14654H34.9334L33.8858 9.93328L34.2844 11.2132L33.2254 10.4147L32.1778 11.2132L32.5764 9.92154L31.5288 9.13479H32.8269L33.2254 7.85487ZM40.6153 7.85487L41.0139 9.14654H42.3233L41.2644 9.93328L41.6743 11.2132L40.6153 10.4147L39.5564 11.2132L39.9663 9.92154L38.9073 9.13479H40.2168L40.6153 7.85487ZM7.38912 11.0958L7.78765 12.3757H9.09712L8.03816 13.1625L8.43669 14.4541L7.38912 13.6556L6.33016 14.4424L6.72869 13.1625L5.68113 12.3757H6.9792L7.38912 11.0958ZM14.7677 11.0958L15.1776 12.3757H16.4757L15.4167 13.1625L15.8266 14.4541L14.7677 13.6556L13.7087 14.4424L14.1186 13.1625L13.0597 12.3757H14.3691L14.7677 11.0958ZM22.1576 11.0958L22.5561 12.3757H23.8656L22.8066 13.1625L23.2052 14.4541L22.1576 13.6556L21.0986 14.4424L21.4972 13.1625L20.4496 12.3757H21.7477L22.1576 11.0958ZM29.5361 11.0958L29.946 12.3757H31.2441L30.1966 13.1625L30.5951 14.4541L29.5361 13.6556L28.4886 14.4424L28.8871 13.1625L27.8281 12.3757H29.149L29.5361 11.0958ZM36.9261 11.0958L37.3246 12.3757H38.634L37.5751 13.1625L37.9736 14.4541L36.9261 13.6556L35.8671 14.4424L36.2656 13.1625L35.2181 12.3757H36.5161L36.9261 11.0958ZM3.68846 14.3367L4.09838 15.6166H5.39646L4.34889 16.4034L4.74742 17.6951L3.68846 16.8966L2.64089 17.6833L3.03943 16.4034L1.98047 15.6166H3.30132L3.68846 14.3367ZM11.0784 14.3367L11.4769 15.6166H12.7864L11.7274 16.4034L12.126 17.6833L11.0784 16.8966L10.0194 17.6833L10.418 16.4034L9.37039 15.6166H10.6685L11.0784 14.3367ZM18.4569 14.3367L18.8668 15.6166H20.1535L19.106 16.4034L19.5045 17.6951L18.4455 16.8966L17.398 17.6833L17.7965 16.4034L16.7375 15.6166H18.047L18.4569 14.3367ZM25.8469 14.3367L26.2454 15.6166H27.5549L26.4959 16.4034L26.9058 17.6951L25.8469 16.8966L24.7879 17.6833L25.1978 16.4034L24.1389 15.6166H25.4369L25.8469 14.3367ZM33.2254 14.3367L33.6353 15.6166H34.9334L33.8858 16.4034L34.2844 17.6951L33.2254 16.8966L32.1778 17.6833L32.5764 16.4034L31.5288 15.6166H32.8269L33.2254 14.3367ZM40.6153 14.3367L41.0139 15.6166H42.3233L41.2644 16.4034L41.6743 17.6951L40.6153 16.8966L39.5564 17.6833L39.9663 16.4034L38.9073 15.6166H40.2168L40.6153 14.3367ZM7.38912 17.5776L7.78765 18.8576H9.09712L8.03816 19.6443L8.43669 20.9242L7.38912 20.1257L6.33016 20.9242L6.72869 19.6326L5.68113 18.8458H6.9792L7.38912 17.5776ZM14.7677 17.5776L15.1776 18.8576H16.4757L15.4167 19.6443L15.8266 20.9242L14.7677 20.1257L13.7087 20.9242L14.1186 19.6326L13.0597 18.8458H14.3691L14.7677 17.5776ZM22.1576 17.5776L22.5561 18.8576H23.8656L22.8066 19.6443L23.2052 20.9242L22.1576 20.1257L21.0986 20.9242L21.4972 19.6326L20.4496 18.8458H21.7477L22.1576 17.5776ZM29.5361 17.5776L29.946 18.8576H31.2441L30.1966 19.6443L30.5951 20.9242L29.5361 20.1257L28.4886 20.9242L28.8871 19.6326L27.8281 18.8458H29.149L29.5361 17.5776ZM36.9261 17.5776L37.3246 18.8576H38.634L37.5751 19.6443L37.9736 20.9242L36.9261 20.1257L35.8671 20.9242L36.2656 19.6326L35.2181 18.8458H36.5161L36.9261 17.5776ZM3.68846 20.8068L4.09838 22.0985H5.39646L4.34889 22.8852L4.74742 24.1534L3.68846 23.3667L2.64089 24.1534L3.03943 22.8735L1.98047 22.0867H3.30132L3.68846 20.8068ZM11.0784 20.8068L11.4769 22.0985H12.7864L11.7274 22.8852L12.1373 24.1534L11.0784 23.3667L10.0194 24.1534L10.4294 22.8735L9.37039 22.0867H10.6685L11.0784 20.8068ZM18.4569 20.8068L18.8668 22.0985H20.1535L19.106 22.8852L19.5045 24.1534L18.4455 23.3667L17.398 24.1534L17.7965 22.8735L16.7375 22.0867H18.047L18.4569 20.8068ZM25.8469 20.8068L26.2454 22.0985H27.5549L26.4959 22.8852L26.9058 24.1534L25.8469 23.3667L24.7879 24.1534L25.1978 22.8735L24.1389 22.0867H25.4369L25.8469 20.8068ZM33.2254 20.8068L33.6353 22.0985H34.9334L33.8858 22.8852L34.2844 24.1534L33.2254 23.3667L32.1778 24.1534L32.5764 22.8735L31.5288 22.0867H32.8269L33.2254 20.8068ZM40.6153 20.8068L41.0139 22.0985H42.3233L41.2644 22.8852L41.6743 24.1534L40.6153 23.3667L39.5564 24.1534L39.9663 22.8735L38.9073 22.0867H40.2168L40.6153 20.8068ZM7.38912 24.0477L7.78765 25.3277H9.09712L8.03816 26.1144L8.43669 27.4061L7.38912 26.6076L6.33016 27.3943L6.72869 26.1144L5.68113 25.3277H6.9792L7.38912 24.0477ZM14.7677 24.0477L15.1776 25.3277H16.4757L15.4167 26.1144L15.8266 27.4061L14.7677 26.6076L13.7087 27.3943L14.1186 26.1144L13.0597 25.3277H14.3691L14.7677 24.0477ZM22.1576 24.0477L22.5561 25.3277H23.8656L22.8066 26.1144L23.2052 27.4061L22.1576 26.6076L21.0986 27.3943L21.4972 26.1144L20.4496 25.3277H21.7477L22.1576 24.0477ZM29.5361 24.0477L29.946 25.3277H31.2441L30.1966 26.1144L30.5951 27.4061L29.5361 26.6076L28.4886 27.3943L28.8871 26.1144L27.8281 25.3277H29.149L29.5361 24.0477ZM36.9261 24.0477L37.3246 25.3277H38.634L37.5751 26.1144L37.9736 27.4061L36.9261 26.6076L35.8671 27.3943L36.2656 26.1144L35.2181 25.3277H36.5161L36.9261 24.0477ZM3.68846 27.2886L4.09838 28.5686H5.39646L4.34889 29.3553L4.74742 30.6353L3.68846 29.8485L2.64089 30.6353L3.03943 29.3436L1.98047 28.5568H3.30132L3.68846 27.2886ZM11.0784 27.2886L11.4769 28.5686H12.7864L11.7274 29.3553L12.1373 30.6353L11.0784 29.8485L10.0194 30.6353L10.4294 29.3436L9.37039 28.5568H10.6685L11.0784 27.2886ZM18.4569 27.2886L18.8668 28.5686H20.1535L19.1287 29.3553L19.5273 30.6353L18.4683 29.8485L17.4207 30.6353L17.8193 29.3436L16.7603 28.5568H18.0698L18.4569 27.2886ZM25.8469 27.2886L26.2454 28.5686H27.5549L26.4959 29.3553L26.9058 30.6353L25.8469 29.8485L24.7879 30.6353L25.1978 29.3436L24.1389 28.5568H25.4369L25.8469 27.2886ZM33.2254 27.2886L33.6353 28.5686H34.9334L33.8858 29.3553L34.2844 30.6353L33.2254 29.8485L32.1778 30.6353L32.5764 29.3436L31.5288 28.5568H32.8269L33.2254 27.2886ZM40.6153 27.2886L41.0139 28.5686H42.3233L41.2644 29.3553L41.6743 30.6353L40.6153 29.8485L39.5564 30.6353L39.9663 29.3436L38.9073 28.5568H40.2168L40.6153 27.2886Z" fill="white"/>
</svg>
