<?xml version="1.0" standalone="no"?>
<!DOCTYPE svg PUBLIC "-//W3C//DTD SVG 20010904//EN"
 "http://www.w3.org/TR/2001/REC-SVG-20010904/DTD/svg10.dtd">
<svg version="1.0" xmlns="http://www.w3.org/2000/svg"
 width="228.000000pt" height="228.000000pt" viewBox="0 0 228.000000 228.000000"
 preserveAspectRatio="xMidYMid meet">
<metadata>
Created by potrace 1.11, written by Peter Selinger 2001-2013
</metadata>
<g transform="translate(0.000000,228.000000) scale(0.100000,-0.100000)"
fill="#000000" stroke="none">
<path d="M985 2233 c-38 -7 -79 -15 -90 -17 -32 -5 -106 -27 -124 -35 -239
-113 -347 -195 -468 -356 -42 -56 -136 -222 -138 -245 -1 -3 -8 -27 -18 -55
-33 -100 -49 -207 -49 -330 0 -91 6 -134 35 -270 2 -5 6 -16 10 -22 5 -7 5
-17 2 -23 -3 -5 -1 -10 4 -10 6 0 10 -3 9 -7 -1 -5 4 -24 11 -43 8 -19 13 -38
12 -42 0 -5 4 -8 10 -8 6 0 9 -7 5 -15 -3 -8 0 -18 7 -22 7 -5 18 -19 25 -32
11 -19 11 -22 0 -16 -7 5 -5 0 5 -11 35 -38 57 -67 62 -85 4 -11 11 -19 17
-19 5 0 8 -7 5 -15 -4 -8 -1 -17 5 -21 7 -4 8 -3 4 4 -4 7 -2 12 3 12 6 0 11
-4 11 -10 0 -5 11 -21 26 -35 14 -14 23 -29 20 -34 -3 -5 2 -8 11 -7 9 0 18
-5 21 -13 3 -9 0 -11 -9 -6 -8 5 -11 4 -6 -1 5 -5 13 -10 18 -10 5 -1 14 -2
19 -3 6 0 10 -6 10 -12 0 -5 -5 -7 -12 -3 -7 4 -8 3 -4 -5 4 -6 12 -9 17 -6
16 10 33 -6 18 -17 -10 -7 -9 -8 6 -4 14 4 30 -4 52 -24 18 -17 37 -30 44 -30
6 0 8 -7 5 -16 -3 -8 -2 -12 4 -9 15 9 51 -5 44 -17 -4 -6 -3 -8 3 -5 6 4 33
-5 61 -19 38 -19 49 -29 45 -42 -4 -13 -2 -13 11 3 13 14 16 15 13 4 -3 -9 1
-16 9 -16 7 0 11 3 9 7 -2 4 11 2 31 -4 20 -6 32 -16 30 -23 -3 -7 -1 -15 5
-18 5 -4 8 -1 7 7 -2 9 6 12 27 9 39 -4 48 -10 38 -25 -4 -7 -1 -5 7 5 11 11
22 14 37 8 18 -6 62 -13 117 -18 5 -1 3 -8 -4 -16 -11 -13 -10 -14 4 -9 9 3
16 13 16 21 0 8 5 11 11 8 6 -4 8 -13 5 -20 -5 -14 18 -14 31 0 4 4 2 5 -4 1
-15 -8 -18 10 -4 19 10 6 24 -11 27 -33 2 -8 5 -17 9 -20 3 -4 4 6 1 22 -3 19
-1 26 7 23 7 -2 21 -1 32 3 11 4 28 3 39 -2 13 -7 16 -7 12 1 -5 7 3 12 21 13
70 3 145 18 161 31 10 8 16 7 23 -4 7 -11 9 -10 9 5 0 11 3 16 7 13 3 -4 12
-2 19 4 8 6 22 8 31 5 10 -4 14 -4 10 1 -12 12 86 53 99 42 8 -7 11 -5 10 3 0
7 3 14 8 15 5 0 13 8 18 17 5 9 15 13 25 9 9 -4 14 -2 10 3 -3 5 14 22 39 38
24 15 44 33 44 39 0 5 3 7 7 4 6 -6 109 96 173 171 14 16 27 28 30 26 3 -1 7
7 7 19 1 12 12 30 24 40 13 10 16 17 8 17 -9 0 -10 3 -3 8 6 4 13 15 17 25 4
10 11 15 17 12 5 -3 7 0 4 8 -3 8 0 18 5 22 6 3 9 11 6 16 -4 5 2 9 12 10 11
0 13 3 5 6 -8 3 -10 9 -4 16 8 10 29 66 39 102 1 6 7 28 13 50 17 62 21 87 24
122 1 17 4 34 6 37 7 7 3 182 -4 194 -3 6 -2 14 4 17 7 4 8 11 2 18 -6 7 -12
30 -15 52 -3 22 -11 58 -17 80 -7 22 -12 48 -13 58 -1 9 -5 17 -9 17 -4 0 -8
8 -8 18 0 25 -85 187 -135 257 -140 195 -364 346 -591 400 -108 25 -117 26
-229 29 -63 2 -140 -3 -180 -11z"/>
<path d="M185 680 c-3 -6 1 -7 9 -4 18 7 21 14 7 14 -6 0 -13 -4 -16 -10z"/>
<path d="M247 619 c7 -7 15 -10 18 -7 3 3 -2 9 -12 12 -14 6 -15 5 -6 -5z"/>
<path d="M350 481 c0 -6 4 -13 10 -16 6 -3 7 1 4 9 -7 18 -14 21 -14 7z"/>
<path d="M1835 400 c-3 -5 -1 -10 4 -10 6 0 11 5 11 10 0 6 -2 10 -4 10 -3 0
-8 -4 -11 -10z"/>
<path d="M1742 325 c15 -16 20 -17 30 -6 11 11 10 13 0 7 -7 -4 -21 -2 -30 5
-15 12 -15 11 0 -6z"/>
<path d="M530 299 c0 -5 5 -7 10 -4 6 3 10 8 10 11 0 2 -4 4 -10 4 -5 0 -10
-5 -10 -11z"/>
<path d="M630 266 c0 -2 7 -7 16 -10 8 -3 12 -2 9 4 -6 10 -25 14 -25 6z"/>
<path d="M1622 244 c10 -10 20 -16 22 -13 3 3 -5 11 -17 18 -21 13 -21 12 -5
-5z"/>
<path d="M1530 202 c0 -5 7 -9 15 -9 8 0 12 4 9 9 -3 4 -9 8 -15 8 -5 0 -9 -4
-9 -8z"/>
<path d="M1495 191 c-3 -5 -2 -12 3 -15 5 -3 9 1 9 9 0 17 -3 19 -12 6z"/>
<path d="M1314 145 c0 -13 3 -22 7 -19 8 4 6 30 -2 38 -3 3 -5 -5 -5 -19z"/>
<path d="M1033 135 c0 -8 4 -12 9 -9 5 3 6 10 3 15 -9 13 -12 11 -12 -6z"/>
<path d="M1425 140 c-3 -6 1 -7 9 -4 18 7 21 14 7 14 -6 0 -13 -4 -16 -10z"/>
<path d="M1250 137 c0 -2 6 -10 14 -16 11 -9 16 -9 22 1 4 7 4 10 -1 6 -4 -4
-14 -3 -22 3 -7 6 -13 9 -13 6z"/>
</g>
</svg>
