<svg width="547" height="40" viewBox="0 0 547 40" fill="none" xmlns="http://www.w3.org/2000/svg">
<path d="M42.0535 14.5H58.2402V17.5133H51.8669V34.5H48.3735V17.5133H42.0269L42.0535 14.5ZM57.5469 20.02H60.5335V22.82H60.5869C60.6935 22.42 60.8802 22.0467 61.1469 21.6733C61.4135 21.3 61.7335 20.9533 62.1335 20.66C62.5069 20.34 62.9335 20.1 63.4135 19.9133C63.8668 19.7267 64.3469 19.62 64.8269 19.62C65.2002 19.62 65.4669 19.6467 65.6002 19.6467C65.7335 19.6733 65.8935 19.7 66.0269 19.7V22.7667C65.8135 22.7133 65.5735 22.6867 65.3335 22.66C65.0935 22.6333 64.8802 22.6067 64.6402 22.6067C64.1068 22.6067 63.6002 22.7133 63.1202 22.9267C62.6402 23.14 62.2402 23.46 61.8669 23.86C61.5202 24.2867 61.2269 24.7933 61.0135 25.4067C60.8002 26.02 60.6935 26.74 60.6935 27.54V34.42H57.4935L57.5469 20.02ZM80.6935 34.5H77.5468V32.4733H77.4935C77.0935 33.22 76.5069 33.78 75.7335 34.2333C74.9602 34.6867 74.1602 34.9 73.3602 34.9C71.4669 34.9 70.0802 34.4467 69.2269 33.4867C68.3735 32.5533 67.9468 31.1133 67.9468 29.22V20.02H71.1468V28.9C71.1468 30.18 71.3869 31.0867 71.8935 31.5933C72.3735 32.1267 73.0668 32.3933 73.9468 32.3933C74.6135 32.3933 75.1735 32.2867 75.6269 32.0733C76.0802 31.86 76.4535 31.5933 76.7202 31.2467C77.0135 30.9 77.2002 30.4733 77.3335 29.9933C77.4669 29.5133 77.5202 28.98 77.5202 28.42V20.02H80.7202V34.5H80.6935ZM86.1335 29.86C86.2402 30.7933 86.5869 31.4333 87.2002 31.8333C87.8135 32.2067 88.5602 32.3933 89.4135 32.3933C89.7068 32.3933 90.0535 32.3667 90.4269 32.3133C90.8002 32.26 91.1735 32.18 91.4935 32.0467C91.8402 31.9133 92.1069 31.7267 92.3202 31.46C92.5335 31.1933 92.6402 30.8733 92.6135 30.4733C92.5868 30.0733 92.4535 29.7267 92.1602 29.46C91.8669 29.1933 91.5202 29.0067 91.0935 28.82C90.6669 28.66 90.1602 28.5267 89.6002 28.42C89.0402 28.3133 88.4802 28.18 87.8935 28.0467C87.3069 27.9133 86.7202 27.7533 86.1602 27.5667C85.6002 27.38 85.1202 27.14 84.6669 26.7933C84.2402 26.4733 83.8669 26.0733 83.6269 25.5667C83.3602 25.06 83.2269 24.4733 83.2269 23.7267C83.2269 22.9267 83.4135 22.2867 83.8135 21.7533C84.1868 21.22 84.6935 20.7933 85.2802 20.4733C85.8668 20.1533 86.5335 19.9133 87.2535 19.78C87.9735 19.6467 88.6668 19.5933 89.3069 19.5933C90.0535 19.5933 90.7735 19.6733 91.4402 19.8333C92.1068 19.9933 92.7468 20.2333 93.2802 20.6067C93.8402 20.9533 94.2935 21.4333 94.6402 21.9933C95.0135 22.5533 95.2269 23.2467 95.3335 24.0467H92.0002C91.8402 23.2733 91.4935 22.7667 90.9602 22.5C90.4002 22.2333 89.7869 22.1 89.0669 22.1C88.8535 22.1 88.5602 22.1267 88.2668 22.1533C87.9468 22.2067 87.6802 22.26 87.3869 22.3667C87.1202 22.4733 86.8802 22.6333 86.6935 22.82C86.5069 23.0067 86.4002 23.2733 86.4002 23.5933C86.4002 23.9933 86.5335 24.2867 86.8002 24.5267C87.0668 24.7667 87.4135 24.9533 87.8668 25.14C88.2935 25.3 88.8002 25.4333 89.3602 25.54C89.9202 25.6467 90.5069 25.78 91.0935 25.9133C91.6802 26.0467 92.2402 26.2067 92.8002 26.3933C93.3602 26.58 93.8669 26.82 94.2935 27.1667C94.7202 27.4867 95.0935 27.8867 95.3602 28.3667C95.6269 28.8467 95.7602 29.46 95.7602 30.1533C95.7602 31.0067 95.5735 31.7267 95.1735 32.34C94.7735 32.9267 94.2669 33.4333 93.6535 33.8067C93.0402 34.18 92.3202 34.4467 91.5735 34.6333C90.8002 34.7933 90.0535 34.9 89.3069 34.9C88.4002 34.9 87.5468 34.7933 86.7735 34.58C86.0002 34.3667 85.3068 34.0467 84.7468 33.6467C84.1868 33.22 83.7335 32.7133 83.4135 32.0733C83.0935 31.46 82.9068 30.7133 82.8802 29.8333H86.1068V29.86H86.1335ZM96.6668 20.02H99.0935V15.6467H102.294V19.9933H105.174V22.3667H102.294V30.1C102.294 30.4467 102.32 30.7133 102.347 30.98C102.374 31.22 102.454 31.4333 102.534 31.5933C102.64 31.7533 102.8 31.8867 102.987 31.9667C103.2 32.0467 103.467 32.1 103.84 32.1C104.054 32.1 104.294 32.1 104.507 32.0733C104.72 32.0467 104.96 32.02 105.174 31.9667V34.4467C104.827 34.5 104.48 34.5267 104.134 34.5533C103.787 34.6067 103.467 34.6067 103.094 34.6067C102.24 34.6067 101.574 34.5267 101.067 34.3667C100.56 34.2067 100.16 33.9667 99.8669 33.6733C99.5735 33.3533 99.3868 32.98 99.2802 32.5267C99.1735 32.0733 99.1202 31.5133 99.0935 30.9267V22.3933H96.6668V19.9667V20.02ZM107.414 20.02H110.427V21.9933H110.48C110.934 21.14 111.547 20.5533 112.347 20.18C113.147 19.8067 114 19.62 114.96 19.62C116.107 19.62 117.094 19.8067 117.947 20.2333C118.8 20.6333 119.494 21.1667 120.054 21.8867C120.614 22.58 121.04 23.4067 121.307 24.34C121.574 25.2733 121.734 26.2867 121.734 27.3267C121.734 28.3133 121.6 29.2467 121.36 30.1533C121.094 31.06 120.72 31.8867 120.214 32.58C119.707 33.2733 119.067 33.8333 118.267 34.26C117.467 34.6867 116.56 34.9 115.494 34.9C115.04 34.9 114.56 34.8467 114.107 34.7667C113.654 34.6867 113.2 34.5533 112.774 34.3667C112.347 34.18 111.947 33.94 111.6 33.6467C111.227 33.3533 110.934 33.0067 110.694 32.6333H110.64V39.86H107.44V20.02H107.414ZM118.587 27.2733C118.587 26.6333 118.507 25.9933 118.32 25.38C118.16 24.7667 117.894 24.2333 117.547 23.7533C117.2 23.2733 116.774 22.9 116.294 22.6067C115.787 22.3133 115.2 22.18 114.56 22.18C113.227 22.18 112.214 22.6333 111.52 23.5667C110.854 24.5 110.507 25.7533 110.507 27.3C110.507 28.0467 110.587 28.7133 110.774 29.3267C110.96 29.94 111.2 30.4733 111.574 30.9267C111.92 31.38 112.347 31.7267 112.854 31.9933C113.36 32.26 113.92 32.3933 114.587 32.3933C115.334 32.3933 115.92 32.2333 116.427 31.94C116.934 31.6467 117.334 31.2467 117.68 30.7933C118 30.3133 118.24 29.78 118.374 29.1667C118.507 28.5267 118.587 27.9133 118.587 27.2733ZM124.214 14.5H127.414V17.5133H124.214V14.5ZM124.214 20.02H127.414V34.5H124.214V20.02ZM130.267 14.5H133.467V34.5H130.267V14.5ZM143.227 34.9C142.08 34.9 141.04 34.7133 140.134 34.3133C139.227 33.9133 138.48 33.4067 137.84 32.74C137.227 32.0733 136.747 31.2467 136.427 30.3133C136.107 29.38 135.92 28.34 135.92 27.2467C135.92 26.1533 136.08 25.14 136.427 24.2067C136.747 23.2733 137.227 22.4733 137.84 21.78C138.454 21.1133 139.227 20.58 140.134 20.2067C141.04 19.8333 142.08 19.62 143.227 19.62C144.374 19.62 145.414 19.8067 146.32 20.2067C147.227 20.58 147.974 21.1133 148.614 21.78C149.227 22.4467 149.707 23.2733 150.027 24.2067C150.347 25.14 150.534 26.1533 150.534 27.2467C150.534 28.3667 150.374 29.38 150.027 30.3133C149.68 31.2467 149.227 32.0467 148.614 32.74C148 33.4067 147.227 33.94 146.32 34.3133C145.414 34.6867 144.4 34.9 143.227 34.9ZM143.227 32.3667C143.92 32.3667 144.56 32.2067 145.067 31.9133C145.6 31.62 146 31.22 146.347 30.74C146.694 30.26 146.934 29.7 147.094 29.1133C147.254 28.5 147.334 27.8867 147.334 27.2467C147.334 26.6333 147.254 26.02 147.094 25.4067C146.934 24.7933 146.694 24.26 146.347 23.78C146 23.3 145.574 22.9267 145.067 22.6333C144.534 22.34 143.92 22.18 143.227 22.18C142.534 22.18 141.894 22.34 141.387 22.6333C140.854 22.9267 140.454 23.3267 140.107 23.78C139.76 24.26 139.52 24.7933 139.36 25.4067C139.2 26.02 139.12 26.6333 139.12 27.2467C139.12 27.8867 139.2 28.5 139.36 29.1133C139.52 29.7267 139.76 30.26 140.107 30.74C140.454 31.22 140.88 31.62 141.387 31.9133C141.92 32.2333 142.534 32.3667 143.227 32.3667ZM151.493 20.02H153.92V15.6467H157.12V19.9933H160V22.3667H157.12V30.1C157.12 30.4467 157.147 30.7133 157.174 30.98C157.2 31.22 157.28 31.4333 157.36 31.5933C157.467 31.7533 157.627 31.8867 157.814 31.9667C158.027 32.0467 158.294 32.1 158.667 32.1C158.88 32.1 159.12 32.1 159.334 32.0733C159.547 32.0467 159.787 32.02 160 31.9667V34.4467C159.654 34.5 159.307 34.5267 158.96 34.5533C158.614 34.6067 158.294 34.6067 157.92 34.6067C157.067 34.6067 156.4 34.5267 155.894 34.3667C155.387 34.2067 154.987 33.9667 154.694 33.6733C154.4 33.3533 154.214 32.98 154.107 32.5267C154 32.0733 153.947 31.5133 153.92 30.9267V22.3933H151.493V19.9667V20.02Z" fill="white"/>
<path d="M38.32 14.4996H23.68L19.1733 0.57959L14.64 14.4996L0 14.4729L11.84 23.0863L7.30667 37.0063L19.1467 28.3929L30.9867 37.0063L26.48 23.0863L38.32 14.4996Z" fill="#00B67A"/>
<path d="M27.4933 26.2336L26.48 23.0869L19.1733 28.3936L27.4933 26.2336Z" fill="#005128"/>
<path d="M353.043 0H393.043V40H353.043V0Z" fill="#DCDCE6"/>
<path fill-rule="evenodd" clip-rule="evenodd" d="M376.264 16.619H387.036L378.324 22.9368L381.64 33.1789L372.928 26.8414L364.217 33.1789L367.552 22.9368L358.841 16.5993L369.613 16.619L372.948 6.37695L376.264 16.619ZM378.324 22.9372L379.07 25.2524L372.948 26.8417L378.324 22.9372Z" fill="white"/>
<path d="M308.985 0H348.985V40H308.985V0Z" fill="#8CC94A"/>
<path fill-rule="evenodd" clip-rule="evenodd" d="M332.206 16.619H342.978L334.266 22.9368L337.582 33.1789L328.87 26.8414L320.159 33.1789L323.494 22.9368L314.783 16.5993L325.554 16.619L328.89 6.37695L332.206 16.619ZM334.266 22.9372L335.012 25.2524L328.89 26.8417L334.266 22.9372Z" fill="white"/>
<path d="M264.928 0H304.928V40H264.928V0Z" fill="#8CC94A"/>
<path fill-rule="evenodd" clip-rule="evenodd" d="M288.148 16.619H298.92L290.208 22.9368L293.524 33.1789L284.812 26.8414L276.101 33.1789L279.436 22.9368L270.725 16.5993L281.496 16.619L284.832 6.37695L288.148 16.619ZM290.208 22.9372L290.953 25.2524L284.832 26.8417L290.208 22.9372Z" fill="white"/>
<path d="M220.87 0H260.87V40H220.87V0Z" fill="#8CC94A"/>
<path fill-rule="evenodd" clip-rule="evenodd" d="M244.09 16.619H254.861L246.15 22.9368L249.466 33.1789L240.754 26.8414L232.043 33.1789L235.378 22.9368L226.667 16.5993L237.438 16.619L240.774 6.37695L244.09 16.619ZM246.15 22.9372L246.895 25.2524L240.774 26.8417L246.15 22.9372Z" fill="white"/>
<path d="M176.812 0H216.812V40H176.812V0Z" fill="#8CC94A"/>
<path fill-rule="evenodd" clip-rule="evenodd" d="M200.032 16.619H210.804L202.092 22.9368L205.408 33.1789L196.697 26.8414L187.985 33.1789L191.32 22.9368L182.609 16.5993L193.381 16.619L196.716 6.37695L200.032 16.619ZM202.092 22.9372L202.838 25.2524L196.716 26.8417L202.092 22.9372Z" fill="white"/>
<path d="M417.219 34.2027H420.14V30.3304H422.83V27.776H420.14V14.5967H415.738C411.322 20.9825 409.094 24.5016 407.409 27.6673V30.3304H417.219V34.2027ZM410.249 27.7489C411.811 24.9092 413.795 21.8521 417.192 16.9472H417.246V27.8168H410.249V27.7489Z" fill="white"/>
<path d="M427.871 34.3521C428.876 34.3521 429.65 33.5641 429.65 32.5722C429.65 31.5668 428.876 30.7923 427.871 30.7923C426.879 30.7923 426.091 31.5668 426.091 32.5722C426.091 33.5641 426.879 34.3521 427.871 34.3521Z" fill="white"/>
<path d="M436.987 34.2027H439.962V14.5967H436.96L431.797 18.2652V21.2543L436.919 17.613H436.987V34.2027Z" fill="white"/>
<path d="M465.362 34.3932C469.262 34.3932 471.884 31.4855 471.884 26.8932C471.884 22.2872 469.262 19.3796 465.362 19.3796C461.476 19.3796 458.854 22.2872 458.854 26.8932C458.854 31.4855 461.463 34.3932 465.362 34.3932ZM465.362 33.4421C462.074 33.4421 459.914 30.9285 459.914 26.8932C459.914 22.8442 462.074 20.3442 465.362 20.3442C468.65 20.3442 470.811 22.8442 470.811 26.8932C470.811 30.9149 468.65 33.4421 465.362 33.4421Z" fill="white"/>
<path d="M486.313 19.5698H485.253V28.3198C485.253 31.4312 483.147 33.4421 480.362 33.4421C477.685 33.4421 475.932 31.7845 475.932 28.904V19.5698H474.872V29.0671C474.872 32.3415 476.992 34.3932 480.144 34.3932C482.576 34.3932 484.628 32.9801 485.28 31.01H485.321V34.2029H486.313V19.5698Z" fill="white"/>
<path d="M490.918 15.8062V19.5698H488.771V20.4937H490.918V30.8741C490.918 33.2926 491.828 34.2301 493.948 34.2301C494.111 34.2301 495.021 34.2165 495.103 34.2029V33.2654C495.049 33.279 494.165 33.2926 494.084 33.2926C492.617 33.2926 491.964 32.5997 491.964 30.847V20.4937H494.913V19.5698H491.964V15.8062H490.918Z" fill="white"/>
<path d="M510.007 34.3932C513.906 34.3932 516.528 31.4855 516.528 26.8932C516.528 22.2872 513.906 19.3796 510.007 19.3796C506.121 19.3796 503.499 22.2872 503.499 26.8932C503.499 31.4855 506.107 34.3932 510.007 34.3932ZM510.007 33.4421C506.719 33.4421 504.558 30.9285 504.558 26.8932C504.558 22.8442 506.719 20.3442 510.007 20.3442C513.295 20.3442 515.455 22.8442 515.455 26.8932C515.455 30.9149 513.295 33.4421 510.007 33.4421Z" fill="white"/>
<path d="M520.305 34.2029H521.365V20.4937H524.503V19.5698H521.365V17.5589C521.365 15.7111 522.194 15.0182 523.593 15.0182C523.96 15.0182 524.313 15.0589 524.612 15.1404V14.2165C524.34 14.135 523.96 14.0942 523.539 14.0942C521.487 14.0942 520.305 15.0997 520.305 17.491V19.5698H518.267V20.4937H520.305V34.2029Z" fill="white"/>
<path d="M539.978 34.4883C543.864 34.4883 546.717 31.7301 546.717 27.9529C546.717 24.2165 543.945 21.4312 540.25 21.4312C538.13 21.4312 536.16 22.4095 535.1 23.9584H535.059L535.983 15.5752H545.453V14.597H535.059L533.891 25.2899H534.978C536.038 23.4828 537.953 22.3959 540.127 22.3959C543.266 22.3959 545.644 24.8008 545.644 27.9665C545.644 31.1595 543.239 33.5236 539.992 33.5236C537.22 33.5236 534.951 31.7709 534.652 29.4067H533.578C533.877 32.3415 536.595 34.4883 539.978 34.4883Z" fill="white"/>
</svg>
