<svg width="274" height="20" viewBox="0 0 274 20" fill="none" xmlns="http://www.w3.org/2000/svg">
<path d="M21.0266 7.25H29.12V8.75666H25.9333V17.25H24.1866V8.75666H21.0133L21.0266 7.25ZM28.7733 10.01H30.2666V11.41H30.2933C30.3466 11.21 30.44 11.0233 30.5733 10.8367C30.7066 10.65 30.8666 10.4767 31.0666 10.33C31.2533 10.17 31.4666 10.05 31.7066 9.95667C31.9333 9.86333 32.1733 9.81 32.4133 9.81C32.6 9.81 32.7333 9.82333 32.8 9.82333C32.8666 9.83666 32.9466 9.85 33.0133 9.85V11.3833C32.9066 11.3567 32.7866 11.3433 32.6666 11.33C32.5466 11.3167 32.44 11.3033 32.32 11.3033C32.0533 11.3033 31.8 11.3567 31.56 11.4633C31.32 11.57 31.12 11.73 30.9333 11.93C30.76 12.1433 30.6133 12.3967 30.5066 12.7033C30.4 13.01 30.3466 13.37 30.3466 13.77V17.21H28.7466L28.7733 10.01ZM40.3466 17.25H38.7733V16.2367H38.7466C38.5466 16.61 38.2533 16.89 37.8666 17.1167C37.48 17.3433 37.08 17.45 36.68 17.45C35.7333 17.45 35.04 17.2233 34.6133 16.7433C34.1866 16.2767 33.9733 15.5567 33.9733 14.61V10.01H35.5733V14.45C35.5733 15.09 35.6933 15.5433 35.9466 15.7967C36.1866 16.0633 36.5333 16.1967 36.9733 16.1967C37.3066 16.1967 37.5866 16.1433 37.8133 16.0367C38.04 15.93 38.2266 15.7967 38.36 15.6233C38.5066 15.45 38.6 15.2367 38.6666 14.9967C38.7333 14.7567 38.76 14.49 38.76 14.21V10.01H40.36V17.25H40.3466ZM43.0666 14.93C43.12 15.3967 43.2933 15.7167 43.6 15.9167C43.9066 16.1033 44.28 16.1967 44.7066 16.1967C44.8533 16.1967 45.0266 16.1833 45.2133 16.1567C45.4 16.13 45.5866 16.09 45.7466 16.0233C45.92 15.9567 46.0533 15.8633 46.16 15.73C46.2666 15.5967 46.32 15.4367 46.3066 15.2367C46.2933 15.0367 46.2266 14.8633 46.08 14.73C45.9333 14.5967 45.76 14.5033 45.5466 14.41C45.3333 14.33 45.08 14.2633 44.8 14.21C44.52 14.1567 44.24 14.09 43.9466 14.0233C43.6533 13.9567 43.36 13.8767 43.08 13.7833C42.8 13.69 42.56 13.57 42.3333 13.3967C42.12 13.2367 41.9333 13.0367 41.8133 12.7833C41.68 12.53 41.6133 12.2367 41.6133 11.8633C41.6133 11.4633 41.7066 11.1433 41.9066 10.8767C42.0933 10.61 42.3466 10.3967 42.64 10.2367C42.9333 10.0767 43.2666 9.95666 43.6266 9.89C43.9866 9.82333 44.3333 9.79666 44.6533 9.79666C45.0266 9.79666 45.3866 9.83667 45.72 9.91667C46.0533 9.99667 46.3733 10.1167 46.64 10.3033C46.92 10.4767 47.1466 10.7167 47.32 10.9967C47.5066 11.2767 47.6133 11.6233 47.6666 12.0233H46C45.92 11.6367 45.7466 11.3833 45.48 11.25C45.2 11.1167 44.8933 11.05 44.5333 11.05C44.4266 11.05 44.28 11.0633 44.1333 11.0767C43.9733 11.1033 43.84 11.13 43.6933 11.1833C43.56 11.2367 43.44 11.3167 43.3466 11.41C43.2533 11.5033 43.2 11.6367 43.2 11.7967C43.2 11.9967 43.2666 12.1433 43.4 12.2633C43.5333 12.3833 43.7066 12.4767 43.9333 12.57C44.1466 12.65 44.4 12.7167 44.68 12.77C44.96 12.8233 45.2533 12.89 45.5466 12.9567C45.84 13.0233 46.12 13.1033 46.4 13.1967C46.68 13.29 46.9333 13.41 47.1466 13.5833C47.36 13.7433 47.5466 13.9433 47.68 14.1833C47.8133 14.4233 47.88 14.73 47.88 15.0767C47.88 15.5033 47.7866 15.8633 47.5866 16.17C47.3866 16.4633 47.1333 16.7167 46.8266 16.9033C46.52 17.09 46.16 17.2233 45.7866 17.3167C45.4 17.3967 45.0266 17.45 44.6533 17.45C44.2 17.45 43.7733 17.3967 43.3866 17.29C43 17.1833 42.6533 17.0233 42.3733 16.8233C42.0933 16.61 41.8666 16.3567 41.7066 16.0367C41.5466 15.73 41.4533 15.3567 41.44 14.9167H43.0533V14.93H43.0666ZM48.3333 10.01H49.5466V7.82333H51.1466V9.99666H52.5866V11.1833H51.1466V15.05C51.1466 15.2233 51.16 15.3567 51.1733 15.49C51.1866 15.61 51.2266 15.7167 51.2666 15.7967C51.32 15.8767 51.4 15.9433 51.4933 15.9833C51.6 16.0233 51.7333 16.05 51.92 16.05C52.0266 16.05 52.1466 16.05 52.2533 16.0367C52.36 16.0233 52.48 16.01 52.5866 15.9833V17.2233C52.4133 17.25 52.24 17.2633 52.0666 17.2767C51.8933 17.3033 51.7333 17.3033 51.5466 17.3033C51.12 17.3033 50.7866 17.2633 50.5333 17.1833C50.28 17.1033 50.08 16.9833 49.9333 16.8367C49.7866 16.6767 49.6933 16.49 49.64 16.2633C49.5866 16.0367 49.56 15.7567 49.5466 15.4633V11.1967H48.3333V9.98333V10.01ZM53.7066 10.01H55.2133V10.9967H55.24C55.4666 10.57 55.7733 10.2767 56.1733 10.09C56.5733 9.90333 57 9.81 57.48 9.81C58.0533 9.81 58.5466 9.90333 58.9733 10.1167C59.4 10.3167 59.7466 10.5833 60.0266 10.9433C60.3066 11.29 60.52 11.7033 60.6533 12.17C60.7866 12.6367 60.8666 13.1433 60.8666 13.6633C60.8666 14.1567 60.8 14.6233 60.68 15.0767C60.5466 15.53 60.36 15.9433 60.1066 16.29C59.8533 16.6367 59.5333 16.9167 59.1333 17.13C58.7333 17.3433 58.28 17.45 57.7466 17.45C57.52 17.45 57.28 17.4233 57.0533 17.3833C56.8266 17.3433 56.6 17.2767 56.3866 17.1833C56.1733 17.09 55.9733 16.97 55.8 16.8233C55.6133 16.6767 55.4666 16.5033 55.3466 16.3167H55.32V19.93H53.72V10.01H53.7066ZM59.2933 13.6367C59.2933 13.3167 59.2533 12.9967 59.16 12.69C59.08 12.3833 58.9466 12.1167 58.7733 11.8767C58.6 11.6367 58.3866 11.45 58.1466 11.3033C57.8933 11.1567 57.6 11.09 57.28 11.09C56.6133 11.09 56.1066 11.3167 55.76 11.7833C55.4266 12.25 55.2533 12.8767 55.2533 13.65C55.2533 14.0233 55.2933 14.3567 55.3866 14.6633C55.48 14.97 55.6 15.2367 55.7866 15.4633C55.96 15.69 56.1733 15.8633 56.4266 15.9967C56.68 16.13 56.96 16.1967 57.2933 16.1967C57.6666 16.1967 57.96 16.1167 58.2133 15.97C58.4666 15.8233 58.6666 15.6233 58.84 15.3967C59 15.1567 59.12 14.89 59.1866 14.5833C59.2533 14.2633 59.2933 13.9567 59.2933 13.6367ZM62.1066 7.25H63.7066V8.75666H62.1066V7.25ZM62.1066 10.01H63.7066V17.25H62.1066V10.01ZM65.1333 7.25H66.7333V17.25H65.1333V7.25ZM71.6133 17.45C71.04 17.45 70.52 17.3567 70.0666 17.1567C69.6133 16.9567 69.24 16.7033 68.92 16.37C68.6133 16.0367 68.3733 15.6233 68.2133 15.1567C68.0533 14.69 67.96 14.17 67.96 13.6233C67.96 13.0767 68.04 12.57 68.2133 12.1033C68.3733 11.6367 68.6133 11.2367 68.92 10.89C69.2266 10.5567 69.6133 10.29 70.0666 10.1033C70.52 9.91667 71.04 9.81 71.6133 9.81C72.1866 9.81 72.7066 9.90333 73.16 10.1033C73.6133 10.29 73.9866 10.5567 74.3066 10.89C74.6133 11.2233 74.8533 11.6367 75.0133 12.1033C75.1733 12.57 75.2666 13.0767 75.2666 13.6233C75.2666 14.1833 75.1866 14.69 75.0133 15.1567C74.84 15.6233 74.6133 16.0233 74.3066 16.37C74 16.7033 73.6133 16.97 73.16 17.1567C72.7066 17.3433 72.2 17.45 71.6133 17.45ZM71.6133 16.1833C71.96 16.1833 72.28 16.1033 72.5333 15.9567C72.8 15.81 73 15.61 73.1733 15.37C73.3466 15.13 73.4666 14.85 73.5466 14.5567C73.6266 14.25 73.6666 13.9433 73.6666 13.6233C73.6666 13.3167 73.6266 13.01 73.5466 12.7033C73.4666 12.3967 73.3466 12.13 73.1733 11.89C73 11.65 72.7866 11.4633 72.5333 11.3167C72.2666 11.17 71.96 11.09 71.6133 11.09C71.2666 11.09 70.9466 11.17 70.6933 11.3167C70.4266 11.4633 70.2266 11.6633 70.0533 11.89C69.88 12.13 69.76 12.3967 69.68 12.7033C69.6 13.01 69.56 13.3167 69.56 13.6233C69.56 13.9433 69.6 14.25 69.68 14.5567C69.76 14.8633 69.88 15.13 70.0533 15.37C70.2266 15.61 70.44 15.81 70.6933 15.9567C70.96 16.1167 71.2666 16.1833 71.6133 16.1833ZM75.7466 10.01H76.96V7.82333H78.56V9.99666H80V11.1833H78.56V15.05C78.56 15.2233 78.5733 15.3567 78.5866 15.49C78.6 15.61 78.64 15.7167 78.68 15.7967C78.7333 15.8767 78.8133 15.9433 78.9066 15.9833C79.0133 16.0233 79.1466 16.05 79.3333 16.05C79.44 16.05 79.56 16.05 79.6666 16.0367C79.7733 16.0233 79.8933 16.01 80 15.9833V17.2233C79.8266 17.25 79.6533 17.2633 79.48 17.2767C79.3066 17.3033 79.1466 17.3033 78.96 17.3033C78.5333 17.3033 78.2 17.2633 77.9466 17.1833C77.6933 17.1033 77.4933 16.9833 77.3466 16.8367C77.2 16.6767 77.1066 16.49 77.0533 16.2633C77 16.0367 76.9733 15.7567 76.96 15.4633V11.1967H75.7466V9.98333V10.01Z" fill="white"/>
<path d="M19.16 7.24986H11.84L9.58667 0.289856L7.32 7.24986L0 7.23652L5.92 11.5432L3.65333 18.5032L9.57333 14.1965L15.4933 18.5032L13.24 11.5432L19.16 7.24986Z" fill="#00B67A"/>
<path d="M13.7467 13.1167L13.24 11.5433L9.58667 14.1967L13.7467 13.1167Z" fill="#005128"/>
<path d="M176.522 0H196.522V20H176.522V0Z" fill="#DCDCE6"/>
<path d="M176.522 0H186.522V20H176.522V0Z" fill="#00B67A"/>
<path fill-rule="evenodd" clip-rule="evenodd" d="M188.132 8.30942H193.518L189.162 11.4684L190.82 16.5894L186.464 13.4206L182.108 16.5894L183.776 11.4684L179.42 8.29961L184.806 8.30942L186.474 3.18842L188.132 8.30942ZM189.162 11.4685L189.535 12.6262L186.474 13.4208L189.162 11.4685Z" fill="white"/>
<path d="M154.493 0H174.493V20H154.493V0Z" fill="#00B67A"/>
<path fill-rule="evenodd" clip-rule="evenodd" d="M166.103 8.30942H171.489L167.133 11.4684L168.791 16.5894L164.435 13.4206L160.08 16.5894L161.747 11.4684L157.391 8.29961L162.777 8.30942L164.445 3.18842L166.103 8.30942ZM167.133 11.4685L167.506 12.6262L164.445 13.4208L167.133 11.4685Z" fill="white"/>
<path d="M132.464 0H152.464V20H132.464V0Z" fill="#00B67A"/>
<path fill-rule="evenodd" clip-rule="evenodd" d="M144.074 8.30942H149.46L145.104 11.4684L146.762 16.5894L142.406 13.4206L138.05 16.5894L139.718 11.4684L135.362 8.29961L140.748 8.30942L142.416 3.18842L144.074 8.30942ZM145.104 11.4685L145.477 12.6262L142.416 13.4208L145.104 11.4685Z" fill="white"/>
<path d="M110.435 0H130.435V20H110.435V0Z" fill="#00B67A"/>
<path fill-rule="evenodd" clip-rule="evenodd" d="M122.045 8.30942H127.431L123.075 11.4684L124.733 16.5894L120.377 13.4206L116.021 16.5894L117.689 11.4684L113.333 8.29961L118.719 8.30942L120.387 3.18842L122.045 8.30942ZM123.075 11.4685L123.448 12.6262L120.387 13.4208L123.075 11.4685Z" fill="white"/>
<path d="M88.4058 0H108.406V20H88.4058V0Z" fill="#00B67A"/>
<path fill-rule="evenodd" clip-rule="evenodd" d="M100.016 8.30942H105.402L101.046 11.4684L102.704 16.5894L98.3482 13.4206L93.9924 16.5894L95.6601 11.4684L91.3043 8.29961L96.6902 8.30942L98.358 3.18842L100.016 8.30942ZM101.046 11.4685L101.419 12.6262L98.3579 13.4208L101.046 11.4685Z" fill="white"/>
<path d="M208.61 17.1015H210.07V15.1653H211.415V13.8881H210.07V7.29846H207.869C205.661 10.4914 204.547 12.2509 203.705 13.8338V15.1653H208.61V17.1015ZM205.125 13.8745C205.906 12.4547 206.898 10.9262 208.596 8.47373H208.623V13.9085H205.125V13.8745Z" fill="white"/>
<path d="M213.935 17.1762C214.438 17.1762 214.825 16.7822 214.825 16.2862C214.825 15.7835 214.438 15.3963 213.935 15.3963C213.439 15.3963 213.045 15.7835 213.045 16.2862C213.045 16.7822 213.439 17.1762 213.935 17.1762Z" fill="white"/>
<path d="M220.382 17.2849C222.495 17.2849 223.976 15.8922 223.976 13.8813C223.976 11.9792 222.624 10.6001 220.742 10.6001C219.784 10.6001 218.983 10.9737 218.555 11.5919H218.521L218.792 8.58243H223.405V7.29846H217.57L217.053 12.8419H218.446C218.826 12.1966 219.56 11.8093 220.409 11.8093C221.632 11.8093 222.488 12.6925 222.488 13.9221C222.488 15.1517 221.632 16.0145 220.396 16.0145C219.302 16.0145 218.466 15.3487 218.358 14.3773H216.904C216.992 16.0892 218.426 17.2849 220.382 17.2849Z" fill="white"/>
<path d="M232.681 17.1966C234.631 17.1966 235.942 15.7428 235.942 13.4466C235.942 11.1436 234.631 9.68978 232.681 9.68978C230.738 9.68978 229.427 11.1436 229.427 13.4466C229.427 15.7428 230.731 17.1966 232.681 17.1966ZM232.681 16.721C231.037 16.721 229.957 15.4642 229.957 13.4466C229.957 11.4221 231.037 10.1721 232.681 10.1721C234.325 10.1721 235.405 11.4221 235.405 13.4466C235.405 15.4574 234.325 16.721 232.681 16.721Z" fill="white"/>
<path d="M243.156 9.78489H242.627V14.1599C242.627 15.7156 241.574 16.721 240.181 16.721C238.843 16.721 237.966 15.8922 237.966 14.452V9.78489H237.436V14.5335C237.436 16.1708 238.496 17.1966 240.072 17.1966C241.288 17.1966 242.314 16.4901 242.64 15.505H242.661V17.1015H243.156V9.78489Z" fill="white"/>
<path d="M245.459 7.9031V9.78489H244.386V10.2468H245.459V15.4371C245.459 16.6463 245.914 17.1151 246.974 17.1151C247.056 17.1151 247.511 17.1083 247.552 17.1015V16.6327C247.524 16.6395 247.083 16.6463 247.042 16.6463C246.308 16.6463 245.982 16.2998 245.982 15.4235V10.2468H247.456V9.78489H245.982V7.9031H245.459Z" fill="white"/>
<path d="M255.003 17.1966C256.953 17.1966 258.264 15.7428 258.264 13.4466C258.264 11.1436 256.953 9.68978 255.003 9.68978C253.061 9.68978 251.749 11.1436 251.749 13.4466C251.749 15.7428 253.054 17.1966 255.003 17.1966ZM255.003 16.721C253.359 16.721 252.279 15.4642 252.279 13.4466C252.279 11.4221 253.359 10.1721 255.003 10.1721C256.648 10.1721 257.728 11.4221 257.728 13.4466C257.728 15.4574 256.648 16.721 255.003 16.721Z" fill="white"/>
<path d="M260.153 17.1015H260.683V10.2468H262.252V9.78489H260.683V8.77946C260.683 7.85554 261.097 7.50908 261.797 7.50908C261.98 7.50908 262.157 7.52946 262.306 7.57022V7.10826C262.17 7.0675 261.98 7.04712 261.77 7.04712C260.744 7.04712 260.153 7.54984 260.153 8.74549V9.78489H259.134V10.2468H260.153V17.1015Z" fill="white"/>
<path d="M269.989 17.2441C271.932 17.2441 273.359 15.8651 273.359 13.9765C273.359 12.1083 271.973 10.7156 270.125 10.7156C269.065 10.7156 268.08 11.2047 267.55 11.9792H267.53L267.992 7.78761H272.727V7.29848H267.53L266.946 12.6449H267.489C268.019 11.7414 268.977 11.1979 270.064 11.1979C271.633 11.1979 272.822 12.4004 272.822 13.9833C272.822 15.5797 271.62 16.7618 269.996 16.7618C268.61 16.7618 267.475 15.8854 267.326 14.7034H266.789C266.939 16.1708 268.298 17.2441 269.989 17.2441Z" fill="white"/>
</svg>
