<svg width="274" height="20" viewBox="0 0 274 20" fill="none" xmlns="http://www.w3.org/2000/svg">
<path d="M21.0266 7.24963H29.12V8.7563H25.9333V17.2496H24.1866V8.7563H21.0133L21.0266 7.24963ZM28.7733 10.0096H30.2666V11.4096H30.2933C30.3466 11.2096 30.44 11.023 30.5733 10.8363C30.7066 10.6496 30.8666 10.4763 31.0666 10.3296C31.2533 10.1696 31.4666 10.0496 31.7066 9.9563C31.9333 9.86297 32.1733 9.80963 32.4133 9.80963C32.6 9.80963 32.7333 9.82297 32.8 9.82297C32.8666 9.8363 32.9466 9.84963 33.0133 9.84963V11.383C32.9066 11.3563 32.7866 11.343 32.6666 11.3296C32.5466 11.3163 32.44 11.303 32.32 11.303C32.0533 11.303 31.8 11.3563 31.56 11.463C31.32 11.5696 31.12 11.7296 30.9333 11.9296C30.76 12.143 30.6133 12.3963 30.5066 12.703C30.4 13.0096 30.3466 13.3696 30.3466 13.7696V17.2096H28.7466L28.7733 10.0096ZM40.3466 17.2496H38.7733V16.2363H38.7466C38.5466 16.6096 38.2533 16.8896 37.8666 17.1163C37.48 17.343 37.08 17.4496 36.68 17.4496C35.7333 17.4496 35.04 17.223 34.6133 16.743C34.1866 16.2763 33.9733 15.5563 33.9733 14.6096V10.0096H35.5733V14.4496C35.5733 15.0896 35.6933 15.543 35.9466 15.7963C36.1866 16.063 36.5333 16.1963 36.9733 16.1963C37.3066 16.1963 37.5866 16.143 37.8133 16.0363C38.04 15.9296 38.2266 15.7963 38.36 15.623C38.5066 15.4496 38.6 15.2363 38.6666 14.9963C38.7333 14.7563 38.76 14.4896 38.76 14.2096V10.0096H40.36V17.2496H40.3466ZM43.0666 14.9296C43.12 15.3963 43.2933 15.7163 43.6 15.9163C43.9066 16.103 44.28 16.1963 44.7066 16.1963C44.8533 16.1963 45.0266 16.183 45.2133 16.1563C45.4 16.1296 45.5866 16.0896 45.7466 16.023C45.92 15.9563 46.0533 15.863 46.16 15.7296C46.2666 15.5963 46.32 15.4363 46.3066 15.2363C46.2933 15.0363 46.2266 14.863 46.08 14.7296C45.9333 14.5963 45.76 14.503 45.5466 14.4096C45.3333 14.3296 45.08 14.263 44.8 14.2096C44.52 14.1563 44.24 14.0896 43.9466 14.023C43.6533 13.9563 43.36 13.8763 43.08 13.783C42.8 13.6896 42.56 13.5696 42.3333 13.3963C42.12 13.2363 41.9333 13.0363 41.8133 12.783C41.68 12.5296 41.6133 12.2363 41.6133 11.863C41.6133 11.463 41.7066 11.143 41.9066 10.8763C42.0933 10.6096 42.3466 10.3963 42.64 10.2363C42.9333 10.0763 43.2666 9.9563 43.6266 9.88963C43.9866 9.82297 44.3333 9.7963 44.6533 9.7963C45.0266 9.7963 45.3866 9.8363 45.72 9.9163C46.0533 9.9963 46.3733 10.1163 46.64 10.303C46.92 10.4763 47.1466 10.7163 47.32 10.9963C47.5066 11.2763 47.6133 11.623 47.6666 12.023H46C45.92 11.6363 45.7466 11.383 45.48 11.2496C45.2 11.1163 44.8933 11.0496 44.5333 11.0496C44.4266 11.0496 44.28 11.063 44.1333 11.0763C43.9733 11.103 43.84 11.1296 43.6933 11.183C43.56 11.2363 43.44 11.3163 43.3466 11.4096C43.2533 11.503 43.2 11.6363 43.2 11.7963C43.2 11.9963 43.2666 12.143 43.4 12.263C43.5333 12.383 43.7066 12.4763 43.9333 12.5696C44.1466 12.6496 44.4 12.7163 44.68 12.7696C44.96 12.823 45.2533 12.8896 45.5466 12.9563C45.84 13.023 46.12 13.103 46.4 13.1963C46.68 13.2896 46.9333 13.4096 47.1466 13.583C47.36 13.743 47.5466 13.943 47.68 14.183C47.8133 14.423 47.88 14.7296 47.88 15.0763C47.88 15.503 47.7866 15.863 47.5866 16.1696C47.3866 16.463 47.1333 16.7163 46.8266 16.903C46.52 17.0896 46.16 17.223 45.7866 17.3163C45.4 17.3963 45.0266 17.4496 44.6533 17.4496C44.2 17.4496 43.7733 17.3963 43.3866 17.2896C43 17.183 42.6533 17.023 42.3733 16.823C42.0933 16.6096 41.8666 16.3563 41.7066 16.0363C41.5466 15.7296 41.4533 15.3563 41.44 14.9163H43.0533V14.9296H43.0666ZM48.3333 10.0096H49.5466V7.82297H51.1466V9.9963H52.5866V11.183H51.1466V15.0496C51.1466 15.223 51.16 15.3563 51.1733 15.4896C51.1866 15.6096 51.2266 15.7163 51.2666 15.7963C51.32 15.8763 51.4 15.943 51.4933 15.983C51.6 16.023 51.7333 16.0496 51.92 16.0496C52.0266 16.0496 52.1466 16.0496 52.2533 16.0363C52.36 16.023 52.48 16.0096 52.5866 15.983V17.223C52.4133 17.2496 52.24 17.263 52.0666 17.2763C51.8933 17.303 51.7333 17.303 51.5466 17.303C51.12 17.303 50.7866 17.263 50.5333 17.183C50.28 17.103 50.08 16.983 49.9333 16.8363C49.7866 16.6763 49.6933 16.4896 49.64 16.263C49.5866 16.0363 49.56 15.7563 49.5466 15.463V11.1963H48.3333V9.98297V10.0096ZM53.7066 10.0096H55.2133V10.9963H55.24C55.4666 10.5696 55.7733 10.2763 56.1733 10.0896C56.5733 9.90297 57 9.80963 57.48 9.80963C58.0533 9.80963 58.5466 9.90297 58.9733 10.1163C59.4 10.3163 59.7466 10.583 60.0266 10.943C60.3066 11.2896 60.52 11.703 60.6533 12.1696C60.7866 12.6363 60.8666 13.143 60.8666 13.663C60.8666 14.1563 60.8 14.623 60.68 15.0763C60.5466 15.5296 60.36 15.943 60.1066 16.2896C59.8533 16.6363 59.5333 16.9163 59.1333 17.1296C58.7333 17.343 58.28 17.4496 57.7466 17.4496C57.52 17.4496 57.28 17.423 57.0533 17.383C56.8266 17.343 56.6 17.2763 56.3866 17.183C56.1733 17.0896 55.9733 16.9696 55.8 16.823C55.6133 16.6763 55.4666 16.503 55.3466 16.3163H55.32V19.9296H53.72V10.0096H53.7066ZM59.2933 13.6363C59.2933 13.3163 59.2533 12.9963 59.16 12.6896C59.08 12.383 58.9466 12.1163 58.7733 11.8763C58.6 11.6363 58.3866 11.4496 58.1466 11.303C57.8933 11.1563 57.6 11.0896 57.28 11.0896C56.6133 11.0896 56.1066 11.3163 55.76 11.783C55.4266 12.2496 55.2533 12.8763 55.2533 13.6496C55.2533 14.023 55.2933 14.3563 55.3866 14.663C55.48 14.9696 55.6 15.2363 55.7866 15.463C55.96 15.6896 56.1733 15.863 56.4266 15.9963C56.68 16.1296 56.96 16.1963 57.2933 16.1963C57.6666 16.1963 57.96 16.1163 58.2133 15.9696C58.4666 15.823 58.6666 15.623 58.84 15.3963C59 15.1563 59.12 14.8896 59.1866 14.583C59.2533 14.263 59.2933 13.9563 59.2933 13.6363ZM62.1066 7.24963H63.7066V8.7563H62.1066V7.24963ZM62.1066 10.0096H63.7066V17.2496H62.1066V10.0096ZM65.1333 7.24963H66.7333V17.2496H65.1333V7.24963ZM71.6133 17.4496C71.04 17.4496 70.52 17.3563 70.0666 17.1563C69.6133 16.9563 69.24 16.703 68.92 16.3696C68.6133 16.0363 68.3733 15.623 68.2133 15.1563C68.0533 14.6896 67.96 14.1696 67.96 13.623C67.96 13.0763 68.04 12.5696 68.2133 12.103C68.3733 11.6363 68.6133 11.2363 68.92 10.8896C69.2266 10.5563 69.6133 10.2896 70.0666 10.103C70.52 9.9163 71.04 9.80963 71.6133 9.80963C72.1866 9.80963 72.7066 9.90297 73.16 10.103C73.6133 10.2896 73.9866 10.5563 74.3066 10.8896C74.6133 11.223 74.8533 11.6363 75.0133 12.103C75.1733 12.5696 75.2666 13.0763 75.2666 13.623C75.2666 14.183 75.1866 14.6896 75.0133 15.1563C74.84 15.623 74.6133 16.023 74.3066 16.3696C74 16.703 73.6133 16.9696 73.16 17.1563C72.7066 17.343 72.2 17.4496 71.6133 17.4496ZM71.6133 16.183C71.96 16.183 72.28 16.103 72.5333 15.9563C72.8 15.8096 73 15.6096 73.1733 15.3696C73.3466 15.1296 73.4666 14.8496 73.5466 14.5563C73.6266 14.2496 73.6666 13.943 73.6666 13.623C73.6666 13.3163 73.6266 13.0096 73.5466 12.703C73.4666 12.3963 73.3466 12.1296 73.1733 11.8896C73 11.6496 72.7866 11.463 72.5333 11.3163C72.2666 11.1696 71.96 11.0896 71.6133 11.0896C71.2666 11.0896 70.9466 11.1696 70.6933 11.3163C70.4266 11.463 70.2266 11.663 70.0533 11.8896C69.88 12.1296 69.76 12.3963 69.68 12.703C69.6 13.0096 69.56 13.3163 69.56 13.623C69.56 13.943 69.6 14.2496 69.68 14.5563C69.76 14.863 69.88 15.1296 70.0533 15.3696C70.2266 15.6096 70.44 15.8096 70.6933 15.9563C70.96 16.1163 71.2666 16.183 71.6133 16.183ZM75.7466 10.0096H76.96V7.82297H78.56V9.9963H80V11.183H78.56V15.0496C78.56 15.223 78.5733 15.3563 78.5866 15.4896C78.6 15.6096 78.64 15.7163 78.68 15.7963C78.7333 15.8763 78.8133 15.943 78.9066 15.983C79.0133 16.023 79.1466 16.0496 79.3333 16.0496C79.44 16.0496 79.56 16.0496 79.6666 16.0363C79.7733 16.023 79.8933 16.0096 80 15.983V17.223C79.8266 17.2496 79.6533 17.263 79.48 17.2763C79.3066 17.303 79.1466 17.303 78.96 17.303C78.5333 17.303 78.2 17.263 77.9466 17.183C77.6933 17.103 77.4933 16.983 77.3466 16.8363C77.2 16.6763 77.1066 16.4896 77.0533 16.263C77 16.0363 76.9733 15.7563 76.96 15.463V11.1963H75.7466V9.98297V10.0096Z" fill="black"/>
<path d="M19.16 7.2498H11.84L9.58667 0.289795L7.32 7.2498L0 7.23646L5.92 11.5431L3.65333 18.5031L9.57333 14.1965L15.4933 18.5031L13.24 11.5431L19.16 7.2498Z" fill="#00B67A"/>
<path d="M13.7467 13.1163L13.24 11.543L9.58667 14.1963L13.7467 13.1163Z" fill="#005128"/>
<path d="M176.522 0H196.522V20H176.522V0Z" fill="#DCDCE6"/>
<path d="M176.522 0H186.522V20H176.522V0Z" fill="#00B67A"/>
<path fill-rule="evenodd" clip-rule="evenodd" d="M188.132 8.30936H193.518L189.162 11.4683L190.82 16.5893L186.464 13.4206L182.108 16.5893L183.776 11.4683L179.42 8.29955L184.806 8.30936L186.474 3.18835L188.132 8.30936ZM189.162 11.4685L189.535 12.6261L186.474 13.4207L189.162 11.4685Z" fill="white"/>
<path d="M154.493 0H174.493V20H154.493V0Z" fill="#00B67A"/>
<path fill-rule="evenodd" clip-rule="evenodd" d="M166.103 8.30936H171.489L167.133 11.4683L168.791 16.5893L164.435 13.4206L160.08 16.5893L161.747 11.4683L157.391 8.29955L162.777 8.30936L164.445 3.18835L166.103 8.30936ZM167.133 11.4685L167.506 12.6261L164.445 13.4207L167.133 11.4685Z" fill="white"/>
<path d="M132.464 0H152.464V20H132.464V0Z" fill="#00B67A"/>
<path fill-rule="evenodd" clip-rule="evenodd" d="M144.074 8.30936H149.46L145.104 11.4683L146.762 16.5893L142.406 13.4206L138.05 16.5893L139.718 11.4683L135.362 8.29955L140.748 8.30936L142.416 3.18835L144.074 8.30936ZM145.104 11.4685L145.477 12.6261L142.416 13.4207L145.104 11.4685Z" fill="white"/>
<path d="M110.435 0H130.435V20H110.435V0Z" fill="#00B67A"/>
<path fill-rule="evenodd" clip-rule="evenodd" d="M122.045 8.30936H127.431L123.075 11.4683L124.733 16.5893L120.377 13.4206L116.021 16.5893L117.689 11.4683L113.333 8.29955L118.719 8.30936L120.387 3.18835L122.045 8.30936ZM123.075 11.4685L123.448 12.6261L120.387 13.4207L123.075 11.4685Z" fill="white"/>
<path d="M88.4058 0H108.406V20H88.4058V0Z" fill="#00B67A"/>
<path fill-rule="evenodd" clip-rule="evenodd" d="M100.016 8.30936H105.402L101.046 11.4683L102.704 16.5893L98.3482 13.4206L93.9924 16.5893L95.6601 11.4683L91.3043 8.29955L96.6902 8.30936L98.358 3.18835L100.016 8.30936ZM101.046 11.4685L101.419 12.6261L98.3579 13.4207L101.046 11.4685Z" fill="white"/>
<path d="M208.61 17.1015H210.07V15.1653H211.415V13.8882H210.07V7.29849H207.869C205.661 10.4914 204.547 12.2509 203.705 13.8338V15.1653H208.61V17.1015ZM205.125 13.8746C205.906 12.4547 206.898 10.9262 208.596 8.47377H208.623V13.9085H205.125V13.8746Z" fill="black"/>
<path d="M213.935 17.1762C214.438 17.1762 214.825 16.7822 214.825 16.2863C214.825 15.7835 214.438 15.3963 213.935 15.3963C213.439 15.3963 213.045 15.7835 213.045 16.2863C213.045 16.7822 213.439 17.1762 213.935 17.1762Z" fill="black"/>
<path d="M220.409 17.2917C222.488 17.2917 223.989 15.8651 223.989 13.9018C223.989 12.0403 222.604 10.6613 220.735 10.6613C219.513 10.6613 218.473 11.2999 218.045 12.2509H218.018C218.025 9.78491 218.922 8.38545 220.464 8.38545C221.36 8.38545 222.094 8.90855 222.332 9.71018H223.854C223.555 8.14768 222.21 7.10828 220.477 7.10828C218.025 7.10828 216.557 9.05121 216.557 12.3325C216.557 13.4806 216.761 14.4452 217.162 15.2265C217.801 16.5512 218.962 17.2917 220.409 17.2917ZM220.396 16.0077C219.227 16.0077 218.324 15.0838 218.324 13.9221C218.324 12.7604 219.214 11.9045 220.409 11.9045C221.612 11.9045 222.475 12.7604 222.475 13.9493C222.475 15.0974 221.551 16.0077 220.396 16.0077Z" fill="black"/>
<path d="M232.681 17.1966C234.631 17.1966 235.942 15.7428 235.942 13.4466C235.942 11.1436 234.631 9.68978 232.681 9.68978C230.738 9.68978 229.427 11.1436 229.427 13.4466C229.427 15.7428 230.731 17.1966 232.681 17.1966ZM232.681 16.721C231.037 16.721 229.957 15.4642 229.957 13.4466C229.957 11.4221 231.037 10.1721 232.681 10.1721C234.325 10.1721 235.405 11.4221 235.405 13.4466C235.405 15.4574 234.325 16.721 232.681 16.721Z" fill="black"/>
<path d="M243.156 9.78489H242.627V14.1599C242.627 15.7156 241.574 16.721 240.181 16.721C238.843 16.721 237.966 15.8922 237.966 14.452V9.78489H237.436V14.5335C237.436 16.1708 238.496 17.1966 240.072 17.1966C241.288 17.1966 242.314 16.4901 242.64 15.505H242.661V17.1015H243.156V9.78489Z" fill="black"/>
<path d="M245.459 7.9031V9.78489H244.386V10.2468H245.459V15.4371C245.459 16.6463 245.914 17.1151 246.974 17.1151C247.056 17.1151 247.511 17.1083 247.552 17.1015V16.6327C247.524 16.6395 247.083 16.6463 247.042 16.6463C246.308 16.6463 245.982 16.2998 245.982 15.4235V10.2468H247.456V9.78489H245.982V7.9031H245.459Z" fill="black"/>
<path d="M255.003 17.1966C256.953 17.1966 258.264 15.7428 258.264 13.4466C258.264 11.1436 256.953 9.68978 255.003 9.68978C253.061 9.68978 251.749 11.1436 251.749 13.4466C251.749 15.7428 253.054 17.1966 255.003 17.1966ZM255.003 16.721C253.359 16.721 252.279 15.4642 252.279 13.4466C252.279 11.4221 253.359 10.1721 255.003 10.1721C256.648 10.1721 257.728 11.4221 257.728 13.4466C257.728 15.4574 256.648 16.721 255.003 16.721Z" fill="black"/>
<path d="M260.153 17.1015H260.683V10.2468H262.252V9.78489H260.683V8.77946C260.683 7.85554 261.097 7.50908 261.797 7.50908C261.98 7.50908 262.157 7.52946 262.306 7.57022V7.10826C262.17 7.0675 261.98 7.04712 261.77 7.04712C260.744 7.04712 260.153 7.54984 260.153 8.74549V9.78489H259.134V10.2468H260.153V17.1015Z" fill="black"/>
<path d="M269.989 17.2441C271.932 17.2441 273.359 15.8651 273.359 13.9765C273.359 12.1083 271.973 10.7156 270.125 10.7156C269.065 10.7156 268.08 11.2047 267.55 11.9792H267.53L267.992 7.78761H272.727V7.29848H267.53L266.946 12.6449H267.489C268.019 11.7414 268.977 11.1979 270.064 11.1979C271.633 11.1979 272.822 12.4004 272.822 13.9833C272.822 15.5797 271.62 16.7618 269.996 16.7618C268.61 16.7618 267.475 15.8854 267.326 14.7034H266.789C266.939 16.1708 268.298 17.2441 269.989 17.2441Z" fill="black"/>
</svg>
