<svg width="261" height="20" viewBox="0 0 261 20" fill="none" xmlns="http://www.w3.org/2000/svg">
<path d="M21.0266 7.24997H29.12V8.75663H25.9333V17.25H24.1866V8.75663H21.0133L21.0266 7.24997ZM28.7733 10.01H30.2666V11.41H30.2933C30.3466 11.21 30.44 11.0233 30.5733 10.8366C30.7066 10.65 30.8666 10.4766 31.0666 10.33C31.2533 10.17 31.4666 10.05 31.7066 9.95663C31.9333 9.8633 32.1733 9.80997 32.4133 9.80997C32.6 9.80997 32.7333 9.8233 32.8 9.8233C32.8666 9.83663 32.9466 9.84997 33.0133 9.84997V11.3833C32.9066 11.3566 32.7866 11.3433 32.6666 11.33C32.5466 11.3166 32.44 11.3033 32.32 11.3033C32.0533 11.3033 31.8 11.3566 31.56 11.4633C31.32 11.57 31.12 11.73 30.9333 11.93C30.76 12.1433 30.6133 12.3966 30.5066 12.7033C30.4 13.01 30.3466 13.37 30.3466 13.77V17.21H28.7466L28.7733 10.01ZM40.3466 17.25H38.7733V16.2366H38.7466C38.5466 16.61 38.2533 16.89 37.8666 17.1166C37.48 17.3433 37.08 17.45 36.68 17.45C35.7333 17.45 35.04 17.2233 34.6133 16.7433C34.1866 16.2766 33.9733 15.5566 33.9733 14.61V10.01H35.5733V14.45C35.5733 15.09 35.6933 15.5433 35.9466 15.7966C36.1866 16.0633 36.5333 16.1966 36.9733 16.1966C37.3066 16.1966 37.5866 16.1433 37.8133 16.0366C38.04 15.93 38.2266 15.7966 38.36 15.6233C38.5066 15.45 38.6 15.2366 38.6666 14.9966C38.7333 14.7566 38.76 14.49 38.76 14.21V10.01H40.36V17.25H40.3466ZM43.0666 14.93C43.12 15.3966 43.2933 15.7166 43.6 15.9166C43.9066 16.1033 44.28 16.1966 44.7066 16.1966C44.8533 16.1966 45.0266 16.1833 45.2133 16.1566C45.4 16.13 45.5866 16.09 45.7466 16.0233C45.92 15.9566 46.0533 15.8633 46.16 15.73C46.2666 15.5966 46.32 15.4366 46.3066 15.2366C46.2933 15.0366 46.2266 14.8633 46.08 14.73C45.9333 14.5966 45.76 14.5033 45.5466 14.41C45.3333 14.33 45.08 14.2633 44.8 14.21C44.52 14.1566 44.24 14.09 43.9466 14.0233C43.6533 13.9566 43.36 13.8766 43.08 13.7833C42.8 13.69 42.56 13.57 42.3333 13.3966C42.12 13.2366 41.9333 13.0366 41.8133 12.7833C41.68 12.53 41.6133 12.2366 41.6133 11.8633C41.6133 11.4633 41.7066 11.1433 41.9066 10.8766C42.0933 10.61 42.3466 10.3966 42.64 10.2366C42.9333 10.0766 43.2666 9.95663 43.6266 9.88997C43.9866 9.8233 44.3333 9.79663 44.6533 9.79663C45.0266 9.79663 45.3866 9.83664 45.72 9.91664C46.0533 9.99664 46.3733 10.1166 46.64 10.3033C46.92 10.4766 47.1466 10.7166 47.32 10.9966C47.5066 11.2766 47.6133 11.6233 47.6666 12.0233H46C45.92 11.6366 45.7466 11.3833 45.48 11.25C45.2 11.1166 44.8933 11.05 44.5333 11.05C44.4266 11.05 44.28 11.0633 44.1333 11.0766C43.9733 11.1033 43.84 11.13 43.6933 11.1833C43.56 11.2366 43.44 11.3166 43.3466 11.41C43.2533 11.5033 43.2 11.6366 43.2 11.7966C43.2 11.9966 43.2666 12.1433 43.4 12.2633C43.5333 12.3833 43.7066 12.4766 43.9333 12.57C44.1466 12.65 44.4 12.7166 44.68 12.77C44.96 12.8233 45.2533 12.89 45.5466 12.9566C45.84 13.0233 46.12 13.1033 46.4 13.1966C46.68 13.29 46.9333 13.41 47.1466 13.5833C47.36 13.7433 47.5466 13.9433 47.68 14.1833C47.8133 14.4233 47.88 14.73 47.88 15.0766C47.88 15.5033 47.7866 15.8633 47.5866 16.17C47.3866 16.4633 47.1333 16.7166 46.8266 16.9033C46.52 17.09 46.16 17.2233 45.7866 17.3166C45.4 17.3966 45.0266 17.45 44.6533 17.45C44.2 17.45 43.7733 17.3966 43.3866 17.29C43 17.1833 42.6533 17.0233 42.3733 16.8233C42.0933 16.61 41.8666 16.3566 41.7066 16.0366C41.5466 15.73 41.4533 15.3566 41.44 14.9166H43.0533V14.93H43.0666ZM48.3333 10.01H49.5466V7.8233H51.1466V9.99663H52.5866V11.1833H51.1466V15.05C51.1466 15.2233 51.16 15.3566 51.1733 15.49C51.1866 15.61 51.2266 15.7166 51.2666 15.7966C51.32 15.8766 51.4 15.9433 51.4933 15.9833C51.6 16.0233 51.7333 16.05 51.92 16.05C52.0266 16.05 52.1466 16.05 52.2533 16.0366C52.36 16.0233 52.48 16.01 52.5866 15.9833V17.2233C52.4133 17.25 52.24 17.2633 52.0666 17.2766C51.8933 17.3033 51.7333 17.3033 51.5466 17.3033C51.12 17.3033 50.7866 17.2633 50.5333 17.1833C50.28 17.1033 50.08 16.9833 49.9333 16.8366C49.7866 16.6766 49.6933 16.49 49.64 16.2633C49.5866 16.0366 49.56 15.7566 49.5466 15.4633V11.1966H48.3333V9.9833V10.01ZM53.7066 10.01H55.2133V10.9966H55.24C55.4666 10.57 55.7733 10.2766 56.1733 10.09C56.5733 9.9033 57 9.80997 57.48 9.80997C58.0533 9.80997 58.5466 9.9033 58.9733 10.1166C59.4 10.3166 59.7466 10.5833 60.0266 10.9433C60.3066 11.29 60.52 11.7033 60.6533 12.17C60.7866 12.6366 60.8666 13.1433 60.8666 13.6633C60.8666 14.1566 60.8 14.6233 60.68 15.0766C60.5466 15.53 60.36 15.9433 60.1066 16.29C59.8533 16.6366 59.5333 16.9166 59.1333 17.13C58.7333 17.3433 58.28 17.45 57.7466 17.45C57.52 17.45 57.28 17.4233 57.0533 17.3833C56.8266 17.3433 56.6 17.2766 56.3866 17.1833C56.1733 17.09 55.9733 16.97 55.8 16.8233C55.6133 16.6766 55.4666 16.5033 55.3466 16.3166H55.32V19.93H53.72V10.01H53.7066ZM59.2933 13.6366C59.2933 13.3166 59.2533 12.9966 59.16 12.69C59.08 12.3833 58.9466 12.1166 58.7733 11.8766C58.6 11.6366 58.3866 11.45 58.1466 11.3033C57.8933 11.1566 57.6 11.09 57.28 11.09C56.6133 11.09 56.1066 11.3166 55.76 11.7833C55.4266 12.25 55.2533 12.8766 55.2533 13.65C55.2533 14.0233 55.2933 14.3566 55.3866 14.6633C55.48 14.97 55.6 15.2366 55.7866 15.4633C55.96 15.69 56.1733 15.8633 56.4266 15.9966C56.68 16.13 56.96 16.1966 57.2933 16.1966C57.6666 16.1966 57.96 16.1166 58.2133 15.97C58.4666 15.8233 58.6666 15.6233 58.84 15.3966C59 15.1566 59.12 14.89 59.1866 14.5833C59.2533 14.2633 59.2933 13.9566 59.2933 13.6366ZM62.1066 7.24997H63.7066V8.75663H62.1066V7.24997ZM62.1066 10.01H63.7066V17.25H62.1066V10.01ZM65.1333 7.24997H66.7333V17.25H65.1333V7.24997ZM71.6133 17.45C71.04 17.45 70.52 17.3566 70.0666 17.1566C69.6133 16.9566 69.24 16.7033 68.92 16.37C68.6133 16.0366 68.3733 15.6233 68.2133 15.1566C68.0533 14.69 67.96 14.17 67.96 13.6233C67.96 13.0766 68.04 12.57 68.2133 12.1033C68.3733 11.6366 68.6133 11.2366 68.92 10.89C69.2266 10.5566 69.6133 10.29 70.0666 10.1033C70.52 9.91664 71.04 9.80997 71.6133 9.80997C72.1866 9.80997 72.7066 9.9033 73.16 10.1033C73.6133 10.29 73.9866 10.5566 74.3066 10.89C74.6133 11.2233 74.8533 11.6366 75.0133 12.1033C75.1733 12.57 75.2666 13.0766 75.2666 13.6233C75.2666 14.1833 75.1866 14.69 75.0133 15.1566C74.84 15.6233 74.6133 16.0233 74.3066 16.37C74 16.7033 73.6133 16.97 73.16 17.1566C72.7066 17.3433 72.2 17.45 71.6133 17.45ZM71.6133 16.1833C71.96 16.1833 72.28 16.1033 72.5333 15.9566C72.8 15.81 73 15.61 73.1733 15.37C73.3466 15.13 73.4666 14.85 73.5466 14.5566C73.6266 14.25 73.6666 13.9433 73.6666 13.6233C73.6666 13.3166 73.6266 13.01 73.5466 12.7033C73.4666 12.3966 73.3466 12.13 73.1733 11.89C73 11.65 72.7866 11.4633 72.5333 11.3166C72.2666 11.17 71.96 11.09 71.6133 11.09C71.2666 11.09 70.9466 11.17 70.6933 11.3166C70.4266 11.4633 70.2266 11.6633 70.0533 11.89C69.88 12.13 69.76 12.3966 69.68 12.7033C69.6 13.01 69.56 13.3166 69.56 13.6233C69.56 13.9433 69.6 14.25 69.68 14.5566C69.76 14.8633 69.88 15.13 70.0533 15.37C70.2266 15.61 70.44 15.81 70.6933 15.9566C70.96 16.1166 71.2666 16.1833 71.6133 16.1833ZM75.7466 10.01H76.96V7.8233H78.56V9.99663H80V11.1833H78.56V15.05C78.56 15.2233 78.5733 15.3566 78.5866 15.49C78.6 15.61 78.64 15.7166 78.68 15.7966C78.7333 15.8766 78.8133 15.9433 78.9066 15.9833C79.0133 16.0233 79.1466 16.05 79.3333 16.05C79.44 16.05 79.56 16.05 79.6666 16.0366C79.7733 16.0233 79.8933 16.01 80 15.9833V17.2233C79.8266 17.25 79.6533 17.2633 79.48 17.2766C79.3066 17.3033 79.1466 17.3033 78.96 17.3033C78.5333 17.3033 78.2 17.2633 77.9466 17.1833C77.6933 17.1033 77.4933 16.9833 77.3466 16.8366C77.2 16.6766 77.1066 16.49 77.0533 16.2633C77 16.0366 76.9733 15.7566 76.96 15.4633V11.1966H75.7466V9.9833V10.01Z" fill="white"/>
<path d="M19.16 7.24986H11.84L9.58667 0.289856L7.32 7.24986L0 7.23652L5.92 11.5432L3.65333 18.5032L9.57333 14.1965L15.4933 18.5032L13.24 11.5432L19.16 7.24986Z" fill="#00B67A"/>
<path d="M13.7467 13.1167L13.24 11.5433L9.58667 14.1967L13.7467 13.1167Z" fill="#005128"/>
<path d="M176.522 0H196.522V20H176.522V0Z" fill="#DCDCE6"/>
<path d="M176.522 0H186.522V20H176.522V0Z" fill="#8CC94A"/>
<path fill-rule="evenodd" clip-rule="evenodd" d="M188.132 8.30941H193.518L189.162 11.4683L190.82 16.5894L186.464 13.4206L182.108 16.5894L183.776 11.4683L179.42 8.2996L184.806 8.30941L186.474 3.1884L188.132 8.30941ZM189.162 11.4685L189.535 12.6261L186.474 13.4208L189.162 11.4685Z" fill="white"/>
<path d="M154.493 0H174.493V20H154.493V0Z" fill="#8CC94A"/>
<path fill-rule="evenodd" clip-rule="evenodd" d="M166.103 8.30941H171.489L167.133 11.4683L168.791 16.5894L164.435 13.4206L160.08 16.5894L161.747 11.4683L157.391 8.2996L162.777 8.30941L164.445 3.1884L166.103 8.30941ZM167.133 11.4685L167.506 12.6261L164.445 13.4208L167.133 11.4685Z" fill="white"/>
<path d="M132.464 0H152.464V20H132.464V0Z" fill="#8CC94A"/>
<path fill-rule="evenodd" clip-rule="evenodd" d="M144.074 8.30941H149.46L145.104 11.4683L146.762 16.5894L142.406 13.4206L138.05 16.5894L139.718 11.4683L135.362 8.2996L140.748 8.30941L142.416 3.1884L144.074 8.30941ZM145.104 11.4685L145.477 12.6261L142.416 13.4208L145.104 11.4685Z" fill="white"/>
<path d="M110.435 0H130.435V20H110.435V0Z" fill="#8CC94A"/>
<path fill-rule="evenodd" clip-rule="evenodd" d="M122.045 8.30941H127.431L123.075 11.4683L124.733 16.5894L120.377 13.4206L116.021 16.5894L117.689 11.4683L113.333 8.2996L118.719 8.30941L120.387 3.1884L122.045 8.30941ZM123.075 11.4685L123.448 12.6261L120.387 13.4208L123.075 11.4685Z" fill="white"/>
<path d="M88.4058 0H108.406V20H88.4058V0Z" fill="#8CC94A"/>
<path fill-rule="evenodd" clip-rule="evenodd" d="M100.016 8.30941H105.402L101.046 11.4683L102.704 16.5894L98.3482 13.4206L93.9924 16.5894L95.6601 11.4683L91.3043 8.2996L96.6902 8.30941L98.358 3.1884L100.016 8.30941ZM101.046 11.4685L101.419 12.6261L98.3579 13.4208L101.046 11.4685Z" fill="white"/>
<path d="M208.61 17.1015H210.07V15.1653H211.415V13.8881H210.07V7.29846H207.869C205.661 10.4914 204.547 12.2509 203.705 13.8338V15.1653H208.61V17.1015ZM205.125 13.8745C205.906 12.4547 206.898 10.9262 208.596 8.47373H208.623V13.9085H205.125V13.8745Z" fill="white"/>
<path d="M219.669 17.1966C221.619 17.1966 222.93 15.7428 222.93 13.4466C222.93 11.1436 221.619 9.68978 219.669 9.68978C217.726 9.68978 216.415 11.1436 216.415 13.4466C216.415 15.7428 217.72 17.1966 219.669 17.1966ZM219.669 16.721C218.025 16.721 216.945 15.4642 216.945 13.4466C216.945 11.4221 218.025 10.1721 219.669 10.1721C221.313 10.1721 222.394 11.4221 222.394 13.4466C222.394 15.4574 221.313 16.721 219.669 16.721Z" fill="white"/>
<path d="M230.145 9.78489H229.615V14.1599C229.615 15.7156 228.562 16.721 227.169 16.721C225.831 16.721 224.954 15.8922 224.954 14.452V9.78489H224.425V14.5335C224.425 16.1708 225.484 17.1966 227.06 17.1966C228.276 17.1966 229.302 16.4901 229.628 15.505H229.649V17.1015H230.145V9.78489Z" fill="white"/>
<path d="M232.447 7.9031V9.78489H231.374V10.2468H232.447V15.4371C232.447 16.6463 232.903 17.1151 233.962 17.1151C234.044 17.1151 234.499 17.1083 234.54 17.1015V16.6327C234.513 16.6395 234.071 16.6463 234.03 16.6463C233.297 16.6463 232.97 16.2998 232.97 15.4235V10.2468H234.445V9.78489H232.97V7.9031H232.447Z" fill="white"/>
<path d="M241.992 17.1966C243.941 17.1966 245.253 15.7428 245.253 13.4466C245.253 11.1436 243.941 9.68978 241.992 9.68978C240.049 9.68978 238.738 11.1436 238.738 13.4466C238.738 15.7428 240.042 17.1966 241.992 17.1966ZM241.992 16.721C240.348 16.721 239.267 15.4642 239.267 13.4466C239.267 11.4221 240.348 10.1721 241.992 10.1721C243.636 10.1721 244.716 11.4221 244.716 13.4466C244.716 15.4574 243.636 16.721 241.992 16.721Z" fill="white"/>
<path d="M247.141 17.1015H247.671V10.2468H249.24V9.78489H247.671V8.77946C247.671 7.85554 248.085 7.50908 248.785 7.50908C248.968 7.50908 249.145 7.52946 249.294 7.57022V7.10826C249.158 7.0675 248.968 7.04712 248.758 7.04712C247.732 7.04712 247.141 7.54984 247.141 8.74549V9.78489H246.122V10.2468H247.141V17.1015Z" fill="white"/>
<path d="M256.977 17.2441C258.92 17.2441 260.347 15.8651 260.347 13.9765C260.347 12.1083 258.961 10.7156 257.113 10.7156C256.053 10.7156 255.068 11.2047 254.538 11.9792H254.518L254.98 7.78761H259.715V7.29848H254.518L253.934 12.6449H254.477C255.007 11.7414 255.965 11.1979 257.052 11.1979C258.621 11.1979 259.81 12.4004 259.81 13.9833C259.81 15.5797 258.608 16.7618 256.984 16.7618C255.598 16.7618 254.464 15.8854 254.314 14.7034H253.778C253.927 16.1708 255.286 17.2441 256.977 17.2441Z" fill="white"/>
</svg>
