<svg width="274" height="20" viewBox="0 0 274 20" fill="none" xmlns="http://www.w3.org/2000/svg">
<path d="M21.0268 7.24988H29.1201V8.75654H25.9334V17.2499H24.1868V8.75654H21.0134L21.0268 7.24988ZM28.7734 10.0099H30.2668V11.4099H30.2934C30.3468 11.2099 30.4401 11.0232 30.5734 10.8365C30.7068 10.6499 30.8668 10.4765 31.0668 10.3299C31.2534 10.1699 31.4668 10.0499 31.7068 9.95654C31.9334 9.86321 32.1734 9.80988 32.4134 9.80988C32.6001 9.80988 32.7334 9.82321 32.8001 9.82321C32.8668 9.83654 32.9468 9.84988 33.0134 9.84988V11.3832C32.9068 11.3565 32.7868 11.3432 32.6668 11.3299C32.5468 11.3165 32.4401 11.3032 32.3201 11.3032C32.0534 11.3032 31.8001 11.3565 31.5601 11.4632C31.3201 11.5699 31.1201 11.7299 30.9334 11.9299C30.7601 12.1432 30.6134 12.3965 30.5068 12.7032C30.4001 13.0099 30.3468 13.3699 30.3468 13.7699V17.2099H28.7468L28.7734 10.0099ZM40.3468 17.2499H38.7734V16.2365H38.7468C38.5468 16.6099 38.2534 16.8899 37.8668 17.1165C37.4801 17.3432 37.0801 17.4499 36.6801 17.4499C35.7334 17.4499 35.0401 17.2232 34.6134 16.7432C34.1868 16.2765 33.9734 15.5565 33.9734 14.6099V10.0099H35.5734V14.4499C35.5734 15.0899 35.6934 15.5432 35.9468 15.7965C36.1868 16.0632 36.5334 16.1965 36.9734 16.1965C37.3068 16.1965 37.5868 16.1432 37.8134 16.0365C38.0401 15.9299 38.2268 15.7965 38.3601 15.6232C38.5068 15.4499 38.6001 15.2365 38.6668 14.9965C38.7334 14.7565 38.7601 14.4899 38.7601 14.2099V10.0099H40.3601V17.2499H40.3468ZM43.0668 14.9299C43.1201 15.3965 43.2934 15.7165 43.6001 15.9165C43.9068 16.1032 44.2801 16.1965 44.7068 16.1965C44.8534 16.1965 45.0268 16.1832 45.2134 16.1565C45.4001 16.1299 45.5868 16.0899 45.7468 16.0232C45.9201 15.9565 46.0534 15.8632 46.1601 15.7299C46.2668 15.5965 46.3201 15.4365 46.3068 15.2365C46.2934 15.0365 46.2268 14.8632 46.0801 14.7299C45.9334 14.5965 45.7601 14.5032 45.5468 14.4099C45.3334 14.3299 45.0801 14.2632 44.8001 14.2099C44.5201 14.1565 44.2401 14.0899 43.9468 14.0232C43.6534 13.9565 43.3601 13.8765 43.0801 13.7832C42.8001 13.6899 42.5601 13.5699 42.3334 13.3965C42.1201 13.2365 41.9334 13.0365 41.8134 12.7832C41.6801 12.5299 41.6134 12.2365 41.6134 11.8632C41.6134 11.4632 41.7068 11.1432 41.9068 10.8765C42.0934 10.6099 42.3468 10.3965 42.6401 10.2365C42.9334 10.0765 43.2668 9.95654 43.6268 9.88988C43.9868 9.82321 44.3334 9.79654 44.6534 9.79654C45.0268 9.79654 45.3868 9.83654 45.7201 9.91654C46.0534 9.99654 46.3734 10.1165 46.6401 10.3032C46.9201 10.4765 47.1468 10.7165 47.3201 10.9965C47.5068 11.2765 47.6134 11.6232 47.6668 12.0232H46.0001C45.9201 11.6365 45.7468 11.3832 45.4801 11.2499C45.2001 11.1165 44.8934 11.0499 44.5334 11.0499C44.4268 11.0499 44.2801 11.0632 44.1334 11.0765C43.9734 11.1032 43.8401 11.1299 43.6934 11.1832C43.5601 11.2365 43.4401 11.3165 43.3468 11.4099C43.2534 11.5032 43.2001 11.6365 43.2001 11.7965C43.2001 11.9965 43.2668 12.1432 43.4001 12.2632C43.5334 12.3832 43.7068 12.4765 43.9334 12.5699C44.1468 12.6499 44.4001 12.7165 44.6801 12.7699C44.9601 12.8232 45.2534 12.8899 45.5468 12.9565C45.8401 13.0232 46.1201 13.1032 46.4001 13.1965C46.6801 13.2899 46.9334 13.4099 47.1468 13.5832C47.3601 13.7432 47.5468 13.9432 47.6801 14.1832C47.8134 14.4232 47.8801 14.7299 47.8801 15.0765C47.8801 15.5032 47.7868 15.8632 47.5868 16.1699C47.3868 16.4632 47.1334 16.7165 46.8268 16.9032C46.5201 17.0899 46.1601 17.2232 45.7868 17.3165C45.4001 17.3965 45.0268 17.4499 44.6534 17.4499C44.2001 17.4499 43.7734 17.3965 43.3868 17.2899C43.0001 17.1832 42.6534 17.0232 42.3734 16.8232C42.0934 16.6099 41.8668 16.3565 41.7068 16.0365C41.5468 15.7299 41.4534 15.3565 41.4401 14.9165H43.0534V14.9299H43.0668ZM48.3334 10.0099H49.5468V7.82321H51.1468V9.99654H52.5868V11.1832H51.1468V15.0499C51.1468 15.2232 51.1601 15.3565 51.1734 15.4899C51.1868 15.6099 51.2268 15.7165 51.2668 15.7965C51.3201 15.8765 51.4001 15.9432 51.4934 15.9832C51.6001 16.0232 51.7334 16.0499 51.9201 16.0499C52.0268 16.0499 52.1468 16.0499 52.2534 16.0365C52.3601 16.0232 52.4801 16.0099 52.5868 15.9832V17.2232C52.4134 17.2499 52.2401 17.2632 52.0668 17.2765C51.8934 17.3032 51.7334 17.3032 51.5468 17.3032C51.1201 17.3032 50.7868 17.2632 50.5334 17.1832C50.2801 17.1032 50.0801 16.9832 49.9334 16.8365C49.7868 16.6765 49.6934 16.4899 49.6401 16.2632C49.5868 16.0365 49.5601 15.7565 49.5468 15.4632V11.1965H48.3334V9.98321V10.0099ZM53.7068 10.0099H55.2134V10.9965H55.2401C55.4668 10.5699 55.7734 10.2765 56.1734 10.0899C56.5734 9.90321 57.0001 9.80988 57.4801 9.80988C58.0534 9.80988 58.5468 9.90321 58.9734 10.1165C59.4001 10.3165 59.7468 10.5832 60.0268 10.9432C60.3068 11.2899 60.5201 11.7032 60.6534 12.1699C60.7868 12.6365 60.8668 13.1432 60.8668 13.6632C60.8668 14.1565 60.8001 14.6232 60.6801 15.0765C60.5468 15.5299 60.3601 15.9432 60.1068 16.2899C59.8534 16.6365 59.5334 16.9165 59.1334 17.1299C58.7334 17.3432 58.2801 17.4499 57.7468 17.4499C57.5201 17.4499 57.2801 17.4232 57.0534 17.3832C56.8268 17.3432 56.6001 17.2765 56.3868 17.1832C56.1734 17.0899 55.9734 16.9699 55.8001 16.8232C55.6134 16.6765 55.4668 16.5032 55.3468 16.3165H55.3201V19.9299H53.7201V10.0099H53.7068ZM59.2934 13.6365C59.2934 13.3165 59.2534 12.9965 59.1601 12.6899C59.0801 12.3832 58.9468 12.1165 58.7734 11.8765C58.6001 11.6365 58.3868 11.4499 58.1468 11.3032C57.8934 11.1565 57.6001 11.0899 57.2801 11.0899C56.6134 11.0899 56.1068 11.3165 55.7601 11.7832C55.4268 12.2499 55.2534 12.8765 55.2534 13.6499C55.2534 14.0232 55.2934 14.3565 55.3868 14.6632C55.4801 14.9699 55.6001 15.2365 55.7868 15.4632C55.9601 15.6899 56.1734 15.8632 56.4268 15.9965C56.6801 16.1299 56.9601 16.1965 57.2934 16.1965C57.6668 16.1965 57.9601 16.1165 58.2134 15.9699C58.4668 15.8232 58.6668 15.6232 58.8401 15.3965C59.0001 15.1565 59.1201 14.8899 59.1868 14.5832C59.2534 14.2632 59.2934 13.9565 59.2934 13.6365ZM62.1068 7.24988H63.7068V8.75654H62.1068V7.24988ZM62.1068 10.0099H63.7068V17.2499H62.1068V10.0099ZM65.1334 7.24988H66.7334V17.2499H65.1334V7.24988ZM71.6134 17.4499C71.0401 17.4499 70.5201 17.3565 70.0668 17.1565C69.6134 16.9565 69.2401 16.7032 68.9201 16.3699C68.6134 16.0365 68.3734 15.6232 68.2134 15.1565C68.0534 14.6899 67.9601 14.1699 67.9601 13.6232C67.9601 13.0765 68.0401 12.5699 68.2134 12.1032C68.3734 11.6365 68.6134 11.2365 68.9201 10.8899C69.2268 10.5565 69.6134 10.2899 70.0668 10.1032C70.5201 9.91654 71.0401 9.80988 71.6134 9.80988C72.1868 9.80988 72.7068 9.90321 73.1601 10.1032C73.6134 10.2899 73.9868 10.5565 74.3068 10.8899C74.6134 11.2232 74.8534 11.6365 75.0134 12.1032C75.1734 12.5699 75.2668 13.0765 75.2668 13.6232C75.2668 14.1832 75.1868 14.6899 75.0134 15.1565C74.8401 15.6232 74.6134 16.0232 74.3068 16.3699C74.0001 16.7032 73.6134 16.9699 73.1601 17.1565C72.7068 17.3432 72.2001 17.4499 71.6134 17.4499ZM71.6134 16.1832C71.9601 16.1832 72.2801 16.1032 72.5334 15.9565C72.8001 15.8099 73.0001 15.6099 73.1734 15.3699C73.3468 15.1299 73.4668 14.8499 73.5468 14.5565C73.6268 14.2499 73.6668 13.9432 73.6668 13.6232C73.6668 13.3165 73.6268 13.0099 73.5468 12.7032C73.4668 12.3965 73.3468 12.1299 73.1734 11.8899C73.0001 11.6499 72.7868 11.4632 72.5334 11.3165C72.2668 11.1699 71.9601 11.0899 71.6134 11.0899C71.2668 11.0899 70.9468 11.1699 70.6934 11.3165C70.4268 11.4632 70.2268 11.6632 70.0534 11.8899C69.8801 12.1299 69.7601 12.3965 69.6801 12.7032C69.6001 13.0099 69.5601 13.3165 69.5601 13.6232C69.5601 13.9432 69.6001 14.2499 69.6801 14.5565C69.7601 14.8632 69.8801 15.1299 70.0534 15.3699C70.2268 15.6099 70.4401 15.8099 70.6934 15.9565C70.9601 16.1165 71.2668 16.1832 71.6134 16.1832ZM75.7467 10.0099H76.9601V7.82321H78.5601V9.99654H80.0001V11.1832H78.5601V15.0499C78.5601 15.2232 78.5734 15.3565 78.5868 15.4899C78.6001 15.6099 78.6401 15.7165 78.6801 15.7965C78.7334 15.8765 78.8134 15.9432 78.9068 15.9832C79.0134 16.0232 79.1468 16.0499 79.3334 16.0499C79.4401 16.0499 79.5601 16.0499 79.6668 16.0365C79.7734 16.0232 79.8934 16.0099 80.0001 15.9832V17.2232C79.8268 17.2499 79.6534 17.2632 79.4801 17.2765C79.3068 17.3032 79.1468 17.3032 78.9601 17.3032C78.5334 17.3032 78.2001 17.2632 77.9468 17.1832C77.6934 17.1032 77.4934 16.9832 77.3468 16.8365C77.2001 16.6765 77.1068 16.4899 77.0534 16.2632C77.0001 16.0365 76.9734 15.7565 76.9601 15.4632V11.1965H75.7467V9.98321V10.0099Z" fill="black"/>
<path d="M19.16 7.2498H11.84L9.58667 0.289795L7.32 7.2498L0 7.23646L5.92 11.5431L3.65333 18.5031L9.57333 14.1965L15.4933 18.5031L13.24 11.5431L19.16 7.2498Z" fill="#00B67A"/>
<path d="M13.7467 13.1165L13.24 11.5432L9.58667 14.1965L13.7467 13.1165Z" fill="#005128"/>
<path d="M176.522 0H196.522V20H176.522V0Z" fill="#DCDCE6"/>
<path d="M176.522 0H186.522V20H176.522V0Z" fill="#00B67A"/>
<path fill-rule="evenodd" clip-rule="evenodd" d="M188.132 8.30936H193.518L189.162 11.4683L190.82 16.5893L186.464 13.4206L182.108 16.5893L183.776 11.4683L179.42 8.29955L184.806 8.30936L186.474 3.18835L188.132 8.30936ZM189.162 11.4685L189.535 12.6261L186.474 13.4207L189.162 11.4685Z" fill="white"/>
<path d="M154.493 0H174.493V20H154.493V0Z" fill="#00B67A"/>
<path fill-rule="evenodd" clip-rule="evenodd" d="M166.103 8.30936H171.489L167.133 11.4683L168.791 16.5893L164.435 13.4206L160.079 16.5893L161.747 11.4683L157.391 8.29955L162.777 8.30936L164.445 3.18835L166.103 8.30936ZM167.133 11.4685L167.506 12.6261L164.445 13.4207L167.133 11.4685Z" fill="white"/>
<path d="M132.464 0H152.464V20H132.464V0Z" fill="#00B67A"/>
<path fill-rule="evenodd" clip-rule="evenodd" d="M144.074 8.30936H149.46L145.104 11.4683L146.762 16.5893L142.406 13.4206L138.05 16.5893L139.718 11.4683L135.362 8.29955L140.748 8.30936L142.416 3.18835L144.074 8.30936ZM145.104 11.4685L145.477 12.6261L142.416 13.4207L145.104 11.4685Z" fill="white"/>
<path d="M110.435 0H130.435V20H110.435V0Z" fill="#00B67A"/>
<path fill-rule="evenodd" clip-rule="evenodd" d="M122.045 8.30936H127.431L123.075 11.4683L124.733 16.5893L120.377 13.4206L116.021 16.5893L117.689 11.4683L113.333 8.29955L118.719 8.30936L120.387 3.18835L122.045 8.30936ZM123.075 11.4685L123.448 12.6261L120.387 13.4207L123.075 11.4685Z" fill="white"/>
<path d="M88.4058 0H108.406V20H88.4058V0Z" fill="#00B67A"/>
<path fill-rule="evenodd" clip-rule="evenodd" d="M100.016 8.30936H105.402L101.046 11.4683L102.704 16.5893L98.3482 13.4206L93.9924 16.5893L95.6601 11.4683L91.3043 8.29955L96.6902 8.30936L98.358 3.18835L100.016 8.30936ZM101.046 11.4685L101.419 12.6261L98.3579 13.4207L101.046 11.4685Z" fill="white"/>
<path d="M208.61 17.1015H210.07V15.1653H211.415V13.8881H210.07V7.29846H207.869C205.661 10.4914 204.547 12.2509 203.705 13.8338V15.1653H208.61V17.1015ZM205.125 13.8745C205.906 12.4547 206.898 10.9262 208.596 8.47373H208.623V13.9085H205.125V13.8745Z" fill="black"/>
<path d="M213.935 17.1762C214.438 17.1762 214.825 16.7822 214.825 16.2862C214.825 15.7835 214.438 15.3963 213.935 15.3963C213.439 15.3963 213.045 15.7835 213.045 16.2862C213.045 16.7822 213.439 17.1762 213.935 17.1762Z" fill="black"/>
<path d="M216.897 17.1015H218.494L222.753 8.6164V7.29846H216.082V8.58243H221.252V8.6164L216.897 17.1015Z" fill="black"/>
<path d="M232.681 17.1966C234.631 17.1966 235.942 15.7428 235.942 13.4466C235.942 11.1436 234.631 9.68978 232.681 9.68978C230.738 9.68978 229.427 11.1436 229.427 13.4466C229.427 15.7428 230.731 17.1966 232.681 17.1966ZM232.681 16.721C231.037 16.721 229.957 15.4642 229.957 13.4466C229.957 11.4221 231.037 10.1721 232.681 10.1721C234.325 10.1721 235.405 11.4221 235.405 13.4466C235.405 15.4574 234.325 16.721 232.681 16.721Z" fill="black"/>
<path d="M243.156 9.78489H242.627V14.1599C242.627 15.7156 241.574 16.721 240.181 16.721C238.843 16.721 237.966 15.8922 237.966 14.452V9.78489H237.436V14.5335C237.436 16.1708 238.496 17.1966 240.072 17.1966C241.288 17.1966 242.314 16.4901 242.64 15.505H242.661V17.1015H243.156V9.78489Z" fill="black"/>
<path d="M245.459 7.9031V9.78489H244.386V10.2468H245.459V15.4371C245.459 16.6463 245.914 17.1151 246.974 17.1151C247.056 17.1151 247.511 17.1083 247.552 17.1015V16.6327C247.524 16.6395 247.083 16.6463 247.042 16.6463C246.308 16.6463 245.982 16.2998 245.982 15.4235V10.2468H247.456V9.78489H245.982V7.9031H245.459Z" fill="black"/>
<path d="M255.003 17.1966C256.953 17.1966 258.264 15.7428 258.264 13.4466C258.264 11.1436 256.953 9.68978 255.003 9.68978C253.061 9.68978 251.749 11.1436 251.749 13.4466C251.749 15.7428 253.054 17.1966 255.003 17.1966ZM255.003 16.721C253.359 16.721 252.279 15.4642 252.279 13.4466C252.279 11.4221 253.359 10.1721 255.003 10.1721C256.648 10.1721 257.728 11.4221 257.728 13.4466C257.728 15.4574 256.648 16.721 255.003 16.721Z" fill="black"/>
<path d="M260.153 17.1015H260.683V10.2468H262.252V9.78489H260.683V8.77946C260.683 7.85554 261.097 7.50908 261.797 7.50908C261.98 7.50908 262.157 7.52946 262.306 7.57022V7.10826C262.17 7.0675 261.98 7.04712 261.77 7.04712C260.744 7.04712 260.153 7.54984 260.153 8.74549V9.78489H259.134V10.2468H260.153V17.1015Z" fill="black"/>
<path d="M269.989 17.2441C271.932 17.2441 273.359 15.8651 273.359 13.9765C273.359 12.1083 271.973 10.7156 270.125 10.7156C269.065 10.7156 268.08 11.2047 267.55 11.9792H267.53L267.992 7.78761H272.727V7.29848H267.53L266.946 12.6449H267.489C268.019 11.7414 268.977 11.1979 270.064 11.1979C271.633 11.1979 272.822 12.4004 272.822 13.9833C272.822 15.5797 271.62 16.7618 269.996 16.7618C268.61 16.7618 267.475 15.8854 267.326 14.7034H266.789C266.939 16.1708 268.298 17.2441 269.989 17.2441Z" fill="black"/>
</svg>
