<svg width="547" height="40" viewBox="0 0 547 40" fill="none" xmlns="http://www.w3.org/2000/svg">
<path d="M42.2073 14.5H58.4531V17.5133H52.0565V34.5H48.5504V17.5133H42.1805L42.2073 14.5ZM57.7573 20.02H60.7549V22.82H60.8084C60.9155 22.42 61.1028 22.0467 61.3704 21.6733C61.6381 21.3 61.9593 20.9533 62.3607 20.66C62.7354 20.34 63.1636 20.1 63.6454 19.9133C64.1004 19.7267 64.5821 19.62 65.0639 19.62C65.4386 19.62 65.7062 19.6467 65.8401 19.6467C65.9739 19.6733 66.1345 19.7 66.2683 19.7V22.7667C66.0542 22.7133 65.8133 22.6867 65.5724 22.66C65.3315 22.6333 65.1174 22.6067 64.8765 22.6067C64.3413 22.6067 63.8328 22.7133 63.351 22.9267C62.8692 23.14 62.4678 23.46 62.0931 23.86C61.7451 24.2867 61.4507 24.7933 61.2366 25.4067C61.0225 26.02 60.9155 26.74 60.9155 27.54V34.42H57.7038L57.7573 20.02ZM80.9886 34.5H77.8304V32.4733H77.7769C77.3754 33.22 76.7866 33.78 76.0104 34.2333C75.2343 34.6867 74.4314 34.9 73.6284 34.9C71.7282 34.9 70.3364 34.4467 69.48 33.4867C68.6235 32.5533 68.1953 31.1133 68.1953 29.22V20.02H71.407V28.9C71.407 30.18 71.6479 31.0867 72.1564 31.5933C72.6382 32.1267 73.334 32.3933 74.2172 32.3933C74.8863 32.3933 75.4484 32.2867 75.9034 32.0733C76.3584 31.86 76.7331 31.5933 77.0007 31.2467C77.2951 30.9 77.4825 30.4733 77.6163 29.9933C77.7501 29.5133 77.8036 28.98 77.8036 28.42V20.02H81.0153V34.5H80.9886ZM86.4485 29.86C86.5555 30.7933 86.9035 31.4333 87.519 31.8333C88.1346 32.2067 88.884 32.3933 89.7405 32.3933C90.0349 32.3933 90.3828 32.3667 90.7575 32.3133C91.1322 32.26 91.5069 32.18 91.8281 32.0467C92.176 31.9133 92.4436 31.7267 92.6578 31.46C92.8719 31.1933 92.9789 30.8733 92.9522 30.4733C92.9254 30.0733 92.7916 29.7267 92.4972 29.46C92.2028 29.1933 91.8548 29.0067 91.4266 28.82C90.9984 28.66 90.4899 28.5267 89.9278 28.42C89.3658 28.3133 88.8037 28.18 88.2149 28.0467C87.6261 27.9133 87.0373 27.7533 86.4752 27.5667C85.9132 27.38 85.4314 27.14 84.9764 26.7933C84.5482 26.4733 84.1735 26.0733 83.9326 25.5667C83.665 25.06 83.5312 24.4733 83.5312 23.7267C83.5312 22.9267 83.7185 22.2867 84.12 21.7533C84.4947 21.22 85.0032 20.7933 85.592 20.4733C86.1808 20.1533 86.8499 19.9133 87.5726 19.78C88.2952 19.6467 88.9911 19.5933 89.6334 19.5933C90.3828 19.5933 91.1054 19.6733 91.7745 19.8333C92.4436 19.9933 93.086 20.2333 93.6213 20.6067C94.1833 20.9533 94.6383 21.4333 94.9862 21.9933C95.3609 22.5533 95.575 23.2467 95.6821 24.0467H92.3366C92.176 23.2733 91.8281 22.7667 91.2928 22.5C90.7307 22.2333 90.1152 22.1 89.3925 22.1C89.1784 22.1 88.884 22.1267 88.5896 22.1533C88.2684 22.2067 88.0008 22.26 87.7064 22.3667C87.4387 22.4733 87.1979 22.6333 87.0105 22.82C86.8232 23.0067 86.7161 23.2733 86.7161 23.5933C86.7161 23.9933 86.8499 24.2867 87.1176 24.5267C87.3852 24.7667 87.7331 24.9533 88.1881 25.14C88.6164 25.3 89.1249 25.4333 89.6869 25.54C90.249 25.6467 90.8378 25.78 91.4266 25.9133C92.0154 26.0467 92.5775 26.2067 93.1395 26.3933C93.7016 26.58 94.2101 26.82 94.6383 27.1667C95.0665 27.4867 95.4412 27.8867 95.7089 28.3667C95.9765 28.8467 96.1103 29.46 96.1103 30.1533C96.1103 31.0067 95.923 31.7267 95.5215 32.34C95.1201 32.9267 94.6115 33.4333 93.996 33.8067C93.3804 34.18 92.6577 34.4467 91.9084 34.6333C91.1322 34.7933 90.3828 34.9 89.6334 34.9C88.7234 34.9 87.867 34.7933 87.0908 34.58C86.3146 34.3667 85.6188 34.0467 85.0567 33.6467C84.4947 33.22 84.0397 32.7133 83.7185 32.0733C83.3974 31.46 83.21 30.7133 83.1832 29.8333H86.4217V29.86H86.4485ZM97.0203 20.02H99.4559V15.6467H102.668V19.9933H105.558V22.3667H102.668V30.1C102.668 30.4467 102.694 30.7133 102.721 30.98C102.748 31.22 102.828 31.4333 102.908 31.5933C103.015 31.7533 103.176 31.8867 103.363 31.9667C103.578 32.0467 103.845 32.1 104.22 32.1C104.434 32.1 104.675 32.1 104.889 32.0733C105.103 32.0467 105.344 32.02 105.558 31.9667V34.4467C105.21 34.5 104.862 34.5267 104.514 34.5533C104.166 34.6067 103.845 34.6067 103.47 34.6067C102.614 34.6067 101.945 34.5267 101.436 34.3667C100.928 34.2067 100.526 33.9667 100.232 33.6733C99.9376 33.3533 99.7503 32.98 99.6432 32.5267C99.5361 32.0733 99.4826 31.5133 99.4559 30.9267V22.3933H97.0203V19.9667V20.02ZM107.806 20.02H110.831V21.9933H110.884C111.339 21.14 111.955 20.5533 112.758 20.18C113.561 19.8067 114.417 19.62 115.381 19.62C116.531 19.62 117.522 19.8067 118.378 20.2333C119.235 20.6333 119.93 21.1667 120.492 21.8867C121.055 22.58 121.483 23.4067 121.75 24.34C122.018 25.2733 122.179 26.2867 122.179 27.3267C122.179 28.3133 122.045 29.2467 121.804 30.1533C121.536 31.06 121.162 31.8867 120.653 32.58C120.145 33.2733 119.502 33.8333 118.699 34.26C117.896 34.6867 116.986 34.9 115.916 34.9C115.461 34.9 114.979 34.8467 114.524 34.7667C114.069 34.6867 113.614 34.5533 113.186 34.3667C112.758 34.18 112.356 33.94 112.008 33.6467C111.634 33.3533 111.339 33.0067 111.098 32.6333H111.045V39.86H107.833V20.02H107.806ZM119.02 27.2733C119.02 26.6333 118.94 25.9933 118.753 25.38C118.592 24.7667 118.325 24.2333 117.977 23.7533C117.629 23.2733 117.2 22.9 116.719 22.6067C116.21 22.3133 115.621 22.18 114.979 22.18C113.641 22.18 112.624 22.6333 111.928 23.5667C111.259 24.5 110.911 25.7533 110.911 27.3C110.911 28.0467 110.991 28.7133 111.179 29.3267C111.366 29.94 111.607 30.4733 111.981 30.9267C112.329 31.38 112.758 31.7267 113.266 31.9933C113.775 32.26 114.337 32.3933 115.006 32.3933C115.755 32.3933 116.344 32.2333 116.853 31.94C117.361 31.6467 117.763 31.2467 118.11 30.7933C118.432 30.3133 118.673 29.78 118.806 29.1667C118.94 28.5267 119.02 27.9133 119.02 27.2733ZM124.668 14.5H127.879V17.5133H124.668V14.5ZM124.668 20.02H127.879V34.5H124.668V20.02ZM130.743 14.5H133.955V34.5H130.743V14.5ZM143.751 34.9C142.6 34.9 141.556 34.7133 140.646 34.3133C139.736 33.9133 138.987 33.4067 138.344 32.74C137.729 32.0733 137.247 31.2467 136.926 30.3133C136.605 29.38 136.417 28.34 136.417 27.2467C136.417 26.1533 136.578 25.14 136.926 24.2067C137.247 23.2733 137.729 22.4733 138.344 21.78C138.96 21.1133 139.736 20.58 140.646 20.2067C141.556 19.8333 142.6 19.62 143.751 19.62C144.901 19.62 145.945 19.8067 146.855 20.2067C147.765 20.58 148.515 21.1133 149.157 21.78C149.772 22.4467 150.254 23.2733 150.575 24.2067C150.897 25.14 151.084 26.1533 151.084 27.2467C151.084 28.3667 150.923 29.38 150.575 30.3133C150.227 31.2467 149.772 32.0467 149.157 32.74C148.541 33.4067 147.765 33.94 146.855 34.3133C145.945 34.6867 144.928 34.9 143.751 34.9ZM143.751 32.3667C144.446 32.3667 145.089 32.2067 145.597 31.9133C146.133 31.62 146.534 31.22 146.882 30.74C147.23 30.26 147.471 29.7 147.631 29.1133C147.792 28.5 147.872 27.8867 147.872 27.2467C147.872 26.6333 147.792 26.02 147.631 25.4067C147.471 24.7933 147.23 24.26 146.882 23.78C146.534 23.3 146.106 22.9267 145.597 22.6333C145.062 22.34 144.446 22.18 143.751 22.18C143.055 22.18 142.412 22.34 141.904 22.6333C141.369 22.9267 140.967 23.3267 140.619 23.78C140.271 24.26 140.03 24.7933 139.87 25.4067C139.709 26.02 139.629 26.6333 139.629 27.2467C139.629 27.8867 139.709 28.5 139.87 29.1133C140.03 29.7267 140.271 30.26 140.619 30.74C140.967 31.22 141.395 31.62 141.904 31.9133C142.439 32.2333 143.055 32.3667 143.751 32.3667ZM152.047 20.02H154.483V15.6467H157.695V19.9933H160.585V22.3667H157.695V30.1C157.695 30.4467 157.721 30.7133 157.748 30.98C157.775 31.22 157.855 31.4333 157.936 31.5933C158.043 31.7533 158.203 31.8867 158.391 31.9667C158.605 32.0467 158.872 32.1 159.247 32.1C159.461 32.1 159.702 32.1 159.916 32.0733C160.13 32.0467 160.371 32.02 160.585 31.9667V34.4467C160.237 34.5 159.889 34.5267 159.541 34.5533C159.193 34.6067 158.872 34.6067 158.498 34.6067C157.641 34.6067 156.972 34.5267 156.464 34.3667C155.955 34.2067 155.554 33.9667 155.259 33.6733C154.965 33.3533 154.777 32.98 154.67 32.5267C154.563 32.0733 154.51 31.5133 154.483 30.9267V22.3933H152.047V19.9667V20.02Z" fill="black"/>
<path d="M38.4601 14.4996H23.7666L19.2434 0.57959L14.6935 14.4996L0 14.4729L11.8833 23.0863L7.33338 37.0063L19.2167 28.3929L31.1 37.0063L26.5768 23.0863L38.4601 14.4996Z" fill="#00B67A"/>
<path d="M27.5938 26.2336L26.5768 23.0869L19.2434 28.3936L27.5938 26.2336Z" fill="#005128"/>
<path d="M353.043 0H393.043V40H353.043V0Z" fill="#DCDCE6"/>
<path d="M353.043 0H373.043V40H353.043V0Z" fill="#00B67A"/>
<path fill-rule="evenodd" clip-rule="evenodd" d="M376.264 16.619H387.036L378.324 22.9368L381.64 33.1789L372.928 26.8414L364.217 33.1789L367.552 22.9368L358.841 16.5993L369.613 16.619L372.948 6.37695L376.264 16.619ZM378.324 22.9372L379.07 25.2524L372.948 26.8417L378.324 22.9372Z" fill="white"/>
<path d="M308.985 0H348.985V40H308.985V0Z" fill="#00B67A"/>
<path fill-rule="evenodd" clip-rule="evenodd" d="M332.206 16.619H342.978L334.266 22.9368L337.582 33.1789L328.87 26.8414L320.159 33.1789L323.494 22.9368L314.783 16.5993L325.554 16.619L328.89 6.37695L332.206 16.619ZM334.266 22.9372L335.012 25.2524L328.89 26.8417L334.266 22.9372Z" fill="white"/>
<path d="M264.928 0H304.928V40H264.928V0Z" fill="#00B67A"/>
<path fill-rule="evenodd" clip-rule="evenodd" d="M288.148 16.619H298.92L290.208 22.9368L293.524 33.1789L284.812 26.8414L276.101 33.1789L279.436 22.9368L270.725 16.5993L281.496 16.619L284.832 6.37695L288.148 16.619ZM290.208 22.9372L290.953 25.2524L284.832 26.8417L290.208 22.9372Z" fill="white"/>
<path d="M220.87 0H260.87V40H220.87V0Z" fill="#00B67A"/>
<path fill-rule="evenodd" clip-rule="evenodd" d="M244.09 16.619H254.861L246.15 22.9368L249.466 33.1789L240.754 26.8414L232.043 33.1789L235.378 22.9368L226.667 16.5993L237.438 16.619L240.774 6.37695L244.09 16.619ZM246.15 22.9372L246.895 25.2524L240.774 26.8417L246.15 22.9372Z" fill="white"/>
<path d="M176.812 0H216.812V40H176.812V0Z" fill="#00B67A"/>
<path fill-rule="evenodd" clip-rule="evenodd" d="M200.032 16.619H210.804L202.092 22.9368L205.408 33.1789L196.697 26.8414L187.985 33.1789L191.32 22.9368L182.609 16.5993L193.381 16.619L196.716 6.37695L200.032 16.619ZM202.092 22.9372L202.838 25.2524L196.716 26.8417L202.092 22.9372Z" fill="white"/>
<path d="M417.219 34.2027H420.14V30.3304H422.83V27.776H420.14V14.5967H415.738C411.322 20.9825 409.094 24.5016 407.409 27.6673V30.3304H417.219V34.2027ZM410.249 27.7489C411.811 24.9092 413.795 21.8521 417.192 16.9472H417.246V27.8168H410.249V27.7489Z" fill="black"/>
<path d="M427.871 34.3521C428.876 34.3521 429.65 33.5641 429.65 32.5722C429.65 31.5668 428.876 30.7923 427.871 30.7923C426.879 30.7923 426.091 31.5668 426.091 32.5722C426.091 33.5641 426.879 34.3521 427.871 34.3521Z" fill="black"/>
<path d="M443.033 34.2027H445.954V30.3304H448.645V27.776H445.954V14.5967H441.552C437.136 20.9825 434.908 24.5016 433.223 27.6673V30.3304H443.033V34.2027ZM436.063 27.7489C437.625 24.9092 439.609 21.8521 443.006 16.9472H443.06V27.8168H436.063V27.7489Z" fill="black"/>
<path d="M465.362 34.3932C469.262 34.3932 471.884 31.4855 471.884 26.8932C471.884 22.2872 469.262 19.3796 465.362 19.3796C461.476 19.3796 458.854 22.2872 458.854 26.8932C458.854 31.4855 461.463 34.3932 465.362 34.3932ZM465.362 33.4421C462.074 33.4421 459.914 30.9285 459.914 26.8932C459.914 22.8442 462.074 20.3442 465.362 20.3442C468.65 20.3442 470.811 22.8442 470.811 26.8932C470.811 30.9149 468.65 33.4421 465.362 33.4421Z" fill="black"/>
<path d="M486.313 19.5698H485.253V28.3198C485.253 31.4312 483.147 33.4421 480.362 33.4421C477.685 33.4421 475.932 31.7845 475.932 28.904V19.5698H474.872V29.0671C474.872 32.3415 476.992 34.3932 480.144 34.3932C482.576 34.3932 484.628 32.9801 485.28 31.01H485.321V34.2029H486.313V19.5698Z" fill="black"/>
<path d="M490.918 15.8062V19.5698H488.771V20.4937H490.918V30.8741C490.918 33.2926 491.828 34.2301 493.948 34.2301C494.111 34.2301 495.021 34.2165 495.103 34.2029V33.2654C495.049 33.279 494.165 33.2926 494.084 33.2926C492.617 33.2926 491.964 32.5997 491.964 30.847V20.4937H494.913V19.5698H491.964V15.8062H490.918Z" fill="black"/>
<path d="M510.007 34.3932C513.906 34.3932 516.528 31.4855 516.528 26.8932C516.528 22.2872 513.906 19.3796 510.007 19.3796C506.121 19.3796 503.499 22.2872 503.499 26.8932C503.499 31.4855 506.107 34.3932 510.007 34.3932ZM510.007 33.4421C506.719 33.4421 504.558 30.9285 504.558 26.8932C504.558 22.8442 506.719 20.3442 510.007 20.3442C513.295 20.3442 515.455 22.8442 515.455 26.8932C515.455 30.9149 513.295 33.4421 510.007 33.4421Z" fill="black"/>
<path d="M520.305 34.2029H521.365V20.4937H524.503V19.5698H521.365V17.5589C521.365 15.7111 522.194 15.0182 523.593 15.0182C523.96 15.0182 524.313 15.0589 524.612 15.1404V14.2165C524.34 14.135 523.96 14.0942 523.539 14.0942C521.487 14.0942 520.305 15.0997 520.305 17.491V19.5698H518.267V20.4937H520.305V34.2029Z" fill="black"/>
<path d="M539.978 34.4883C543.864 34.4883 546.717 31.7301 546.717 27.9529C546.717 24.2165 543.945 21.4312 540.25 21.4312C538.13 21.4312 536.16 22.4095 535.1 23.9584H535.059L535.983 15.5752H545.453V14.597H535.059L533.891 25.2899H534.978C536.038 23.4828 537.953 22.3959 540.127 22.3959C543.266 22.3959 545.644 24.8008 545.644 27.9665C545.644 31.1595 543.239 33.5236 539.992 33.5236C537.22 33.5236 534.951 31.7709 534.652 29.4067H533.578C533.877 32.3415 536.595 34.4883 539.978 34.4883Z" fill="black"/>
</svg>
