<svg width="547" height="40" viewBox="0 0 547 40" fill="none" xmlns="http://www.w3.org/2000/svg">
<path d="M42.0535 14.4995H58.2402V17.5128H51.8669V34.4995H48.3735V17.5128H42.0269L42.0535 14.4995ZM57.5469 20.0195H60.5335V22.8195H60.5869C60.6935 22.4195 60.8802 22.0462 61.1469 21.6728C61.4135 21.2995 61.7335 20.9528 62.1335 20.6595C62.5069 20.3395 62.9335 20.0995 63.4135 19.9128C63.8668 19.7262 64.3469 19.6195 64.8269 19.6195C65.2002 19.6195 65.4669 19.6462 65.6002 19.6462C65.7335 19.6728 65.8935 19.6995 66.0269 19.6995V22.7662C65.8135 22.7128 65.5735 22.6862 65.3335 22.6595C65.0935 22.6328 64.8802 22.6062 64.6402 22.6062C64.1068 22.6062 63.6002 22.7128 63.1202 22.9262C62.6402 23.1395 62.2402 23.4595 61.8669 23.8595C61.5202 24.2862 61.2269 24.7928 61.0135 25.4062C60.8002 26.0195 60.6935 26.7395 60.6935 27.5395V34.4195H57.4935L57.5469 20.0195ZM80.6935 34.4995H77.5468V32.4728H77.4935C77.0935 33.2195 76.5069 33.7795 75.7335 34.2328C74.9602 34.6862 74.1602 34.8995 73.3602 34.8995C71.4669 34.8995 70.0802 34.4462 69.2269 33.4862C68.3735 32.5528 67.9468 31.1128 67.9468 29.2195V20.0195H71.1468V28.8995C71.1468 30.1795 71.3869 31.0862 71.8935 31.5928C72.3735 32.1262 73.0668 32.3928 73.9468 32.3928C74.6135 32.3928 75.1735 32.2862 75.6269 32.0728C76.0802 31.8595 76.4535 31.5928 76.7202 31.2462C77.0135 30.8995 77.2002 30.4728 77.3335 29.9928C77.4669 29.5128 77.5202 28.9795 77.5202 28.4195V20.0195H80.7202V34.4995H80.6935ZM86.1335 29.8595C86.2402 30.7928 86.5869 31.4328 87.2002 31.8328C87.8135 32.2062 88.5602 32.3928 89.4135 32.3928C89.7068 32.3928 90.0535 32.3662 90.4269 32.3128C90.8002 32.2595 91.1735 32.1795 91.4935 32.0462C91.8402 31.9128 92.1069 31.7262 92.3202 31.4595C92.5335 31.1928 92.6402 30.8728 92.6135 30.4728C92.5868 30.0728 92.4535 29.7262 92.1602 29.4595C91.8669 29.1928 91.5202 29.0062 91.0935 28.8195C90.6669 28.6595 90.1602 28.5262 89.6002 28.4195C89.0402 28.3128 88.4802 28.1795 87.8935 28.0462C87.3069 27.9128 86.7202 27.7528 86.1602 27.5662C85.6002 27.3795 85.1202 27.1395 84.6669 26.7928C84.2402 26.4728 83.8669 26.0728 83.6269 25.5662C83.3602 25.0595 83.2269 24.4728 83.2269 23.7262C83.2269 22.9262 83.4135 22.2862 83.8135 21.7528C84.1868 21.2195 84.6935 20.7928 85.2802 20.4728C85.8668 20.1528 86.5335 19.9128 87.2535 19.7795C87.9735 19.6462 88.6668 19.5928 89.3069 19.5928C90.0535 19.5928 90.7735 19.6728 91.4402 19.8328C92.1068 19.9928 92.7468 20.2328 93.2802 20.6062C93.8402 20.9528 94.2935 21.4328 94.6402 21.9928C95.0135 22.5528 95.2269 23.2462 95.3335 24.0462H92.0002C91.8402 23.2728 91.4935 22.7662 90.9602 22.4995C90.4002 22.2328 89.7869 22.0995 89.0669 22.0995C88.8535 22.0995 88.5602 22.1262 88.2668 22.1528C87.9468 22.2062 87.6802 22.2595 87.3869 22.3662C87.1202 22.4728 86.8802 22.6328 86.6935 22.8195C86.5069 23.0062 86.4002 23.2728 86.4002 23.5928C86.4002 23.9928 86.5335 24.2862 86.8002 24.5262C87.0668 24.7662 87.4135 24.9528 87.8668 25.1395C88.2935 25.2995 88.8002 25.4328 89.3602 25.5395C89.9202 25.6462 90.5069 25.7795 91.0935 25.9128C91.6802 26.0462 92.2402 26.2062 92.8002 26.3928C93.3602 26.5795 93.8669 26.8195 94.2935 27.1662C94.7202 27.4862 95.0935 27.8862 95.3602 28.3662C95.6269 28.8462 95.7602 29.4595 95.7602 30.1528C95.7602 31.0062 95.5735 31.7262 95.1735 32.3395C94.7735 32.9262 94.2669 33.4328 93.6535 33.8062C93.0402 34.1795 92.3202 34.4462 91.5735 34.6328C90.8002 34.7928 90.0535 34.8995 89.3069 34.8995C88.4002 34.8995 87.5468 34.7928 86.7735 34.5795C86.0002 34.3662 85.3068 34.0462 84.7468 33.6462C84.1868 33.2195 83.7335 32.7128 83.4135 32.0728C83.0935 31.4595 82.9068 30.7128 82.8802 29.8328H86.1068V29.8595H86.1335ZM96.6668 20.0195H99.0935V15.6462H102.294V19.9928H105.174V22.3662H102.294V30.0995C102.294 30.4462 102.32 30.7128 102.347 30.9795C102.374 31.2195 102.454 31.4328 102.534 31.5928C102.64 31.7528 102.8 31.8862 102.987 31.9662C103.2 32.0462 103.467 32.0995 103.84 32.0995C104.054 32.0995 104.294 32.0995 104.507 32.0728C104.72 32.0462 104.96 32.0195 105.174 31.9662V34.4462C104.827 34.4995 104.48 34.5262 104.134 34.5528C103.787 34.6062 103.467 34.6062 103.094 34.6062C102.24 34.6062 101.574 34.5262 101.067 34.3662C100.56 34.2062 100.16 33.9662 99.8669 33.6728C99.5735 33.3528 99.3868 32.9795 99.2802 32.5262C99.1735 32.0728 99.1202 31.5128 99.0935 30.9262V22.3928H96.6668V19.9662V20.0195ZM107.414 20.0195H110.427V21.9928H110.48C110.934 21.1395 111.547 20.5528 112.347 20.1795C113.147 19.8062 114 19.6195 114.96 19.6195C116.107 19.6195 117.094 19.8062 117.947 20.2328C118.8 20.6328 119.494 21.1662 120.054 21.8862C120.614 22.5795 121.04 23.4062 121.307 24.3395C121.574 25.2728 121.734 26.2862 121.734 27.3262C121.734 28.3128 121.6 29.2462 121.36 30.1528C121.094 31.0595 120.72 31.8862 120.214 32.5795C119.707 33.2728 119.067 33.8328 118.267 34.2595C117.467 34.6862 116.56 34.8995 115.494 34.8995C115.04 34.8995 114.56 34.8462 114.107 34.7662C113.654 34.6862 113.2 34.5528 112.774 34.3662C112.347 34.1795 111.947 33.9395 111.6 33.6462C111.227 33.3528 110.934 33.0062 110.694 32.6328H110.64V39.8595H107.44V20.0195H107.414ZM118.587 27.2728C118.587 26.6328 118.507 25.9928 118.32 25.3795C118.16 24.7662 117.894 24.2328 117.547 23.7528C117.2 23.2728 116.774 22.8995 116.294 22.6062C115.787 22.3128 115.2 22.1795 114.56 22.1795C113.227 22.1795 112.214 22.6328 111.52 23.5662C110.854 24.4995 110.507 25.7528 110.507 27.2995C110.507 28.0462 110.587 28.7128 110.774 29.3262C110.96 29.9395 111.2 30.4728 111.574 30.9262C111.92 31.3795 112.347 31.7262 112.854 31.9928C113.36 32.2595 113.92 32.3928 114.587 32.3928C115.334 32.3928 115.92 32.2328 116.427 31.9395C116.934 31.6462 117.334 31.2462 117.68 30.7928C118 30.3128 118.24 29.7795 118.374 29.1662C118.507 28.5262 118.587 27.9128 118.587 27.2728ZM124.214 14.4995H127.414V17.5128H124.214V14.4995ZM124.214 20.0195H127.414V34.4995H124.214V20.0195ZM130.267 14.4995H133.467V34.4995H130.267V14.4995ZM143.227 34.8995C142.08 34.8995 141.04 34.7128 140.134 34.3128C139.227 33.9128 138.48 33.4062 137.84 32.7395C137.227 32.0728 136.747 31.2462 136.427 30.3128C136.107 29.3795 135.92 28.3395 135.92 27.2462C135.92 26.1528 136.08 25.1395 136.427 24.2062C136.747 23.2728 137.227 22.4728 137.84 21.7795C138.454 21.1128 139.227 20.5795 140.134 20.2062C141.04 19.8328 142.08 19.6195 143.227 19.6195C144.374 19.6195 145.414 19.8062 146.32 20.2062C147.227 20.5795 147.974 21.1128 148.614 21.7795C149.227 22.4462 149.707 23.2728 150.027 24.2062C150.347 25.1395 150.534 26.1528 150.534 27.2462C150.534 28.3662 150.374 29.3795 150.027 30.3128C149.68 31.2462 149.227 32.0462 148.614 32.7395C148 33.4062 147.227 33.9395 146.32 34.3128C145.414 34.6862 144.4 34.8995 143.227 34.8995ZM143.227 32.3662C143.92 32.3662 144.56 32.2062 145.067 31.9128C145.6 31.6195 146 31.2195 146.347 30.7395C146.694 30.2595 146.934 29.6995 147.094 29.1128C147.254 28.4995 147.334 27.8862 147.334 27.2462C147.334 26.6328 147.254 26.0195 147.094 25.4062C146.934 24.7928 146.694 24.2595 146.347 23.7795C146 23.2995 145.574 22.9262 145.067 22.6328C144.534 22.3395 143.92 22.1795 143.227 22.1795C142.534 22.1795 141.894 22.3395 141.387 22.6328C140.854 22.9262 140.454 23.3262 140.107 23.7795C139.76 24.2595 139.52 24.7928 139.36 25.4062C139.2 26.0195 139.12 26.6328 139.12 27.2462C139.12 27.8862 139.2 28.4995 139.36 29.1128C139.52 29.7262 139.76 30.2595 140.107 30.7395C140.454 31.2195 140.88 31.6195 141.387 31.9128C141.92 32.2328 142.534 32.3662 143.227 32.3662ZM151.493 20.0195H153.92V15.6462H157.12V19.9928H160V22.3662H157.12V30.0995C157.12 30.4462 157.147 30.7128 157.174 30.9795C157.2 31.2195 157.28 31.4328 157.36 31.5928C157.467 31.7528 157.627 31.8862 157.814 31.9662C158.027 32.0462 158.294 32.0995 158.667 32.0995C158.88 32.0995 159.12 32.0995 159.334 32.0728C159.547 32.0462 159.787 32.0195 160 31.9662V34.4462C159.654 34.4995 159.307 34.5262 158.96 34.5528C158.614 34.6062 158.294 34.6062 157.92 34.6062C157.067 34.6062 156.4 34.5262 155.894 34.3662C155.387 34.2062 154.987 33.9662 154.694 33.6728C154.4 33.3528 154.214 32.9795 154.107 32.5262C154 32.0728 153.947 31.5128 153.92 30.9262V22.3928H151.493V19.9662V20.0195Z" fill="black"/>
<path d="M38.32 14.4996H23.68L19.1733 0.57959L14.64 14.4996L0 14.4729L11.84 23.0863L7.30667 37.0063L19.1467 28.3929L30.9867 37.0063L26.48 23.0863L38.32 14.4996Z" fill="#00B67A"/>
<path d="M27.4933 26.2326L26.48 23.0859L19.1733 28.3926L27.4933 26.2326Z" fill="#005128"/>
<path d="M353.043 0H393.043V40H353.043V0Z" fill="#DCDCE6"/>
<path d="M353.043 0H373.043V40H353.043V0Z" fill="#00B67A"/>
<path fill-rule="evenodd" clip-rule="evenodd" d="M376.264 16.619H387.036L378.324 22.9368L381.64 33.1789L372.928 26.8414L364.217 33.1789L367.552 22.9368L358.841 16.5993L369.613 16.619L372.948 6.37695L376.264 16.619ZM378.324 22.9372L379.07 25.2524L372.948 26.8417L378.324 22.9372Z" fill="white"/>
<path d="M308.985 0H348.985V40H308.985V0Z" fill="#00B67A"/>
<path fill-rule="evenodd" clip-rule="evenodd" d="M332.206 16.619H342.978L334.266 22.9368L337.582 33.1789L328.87 26.8414L320.159 33.1789L323.494 22.9368L314.783 16.5993L325.554 16.619L328.89 6.37695L332.206 16.619ZM334.266 22.9372L335.012 25.2524L328.89 26.8417L334.266 22.9372Z" fill="white"/>
<path d="M264.928 0H304.928V40H264.928V0Z" fill="#00B67A"/>
<path fill-rule="evenodd" clip-rule="evenodd" d="M288.148 16.619H298.92L290.208 22.9368L293.524 33.1789L284.812 26.8414L276.101 33.1789L279.436 22.9368L270.725 16.5993L281.496 16.619L284.832 6.37695L288.148 16.619ZM290.208 22.9372L290.953 25.2524L284.832 26.8417L290.208 22.9372Z" fill="white"/>
<path d="M220.87 0H260.87V40H220.87V0Z" fill="#00B67A"/>
<path fill-rule="evenodd" clip-rule="evenodd" d="M244.09 16.619H254.861L246.15 22.9368L249.466 33.1789L240.754 26.8414L232.043 33.1789L235.378 22.9368L226.667 16.5993L237.438 16.619L240.774 6.37695L244.09 16.619ZM246.15 22.9372L246.895 25.2524L240.774 26.8417L246.15 22.9372Z" fill="white"/>
<path d="M176.812 0H216.812V40H176.812V0Z" fill="#00B67A"/>
<path fill-rule="evenodd" clip-rule="evenodd" d="M200.032 16.619H210.804L202.092 22.9368L205.408 33.1789L196.697 26.8414L187.985 33.1789L191.32 22.9368L182.609 16.5993L193.381 16.619L196.716 6.37695L200.032 16.619ZM202.092 22.9372L202.838 25.2524L196.716 26.8417L202.092 22.9372Z" fill="white"/>
<path d="M417.219 34.2027H420.14V30.3304H422.83V27.7761H420.14V14.5967H415.738C411.322 20.9826 409.094 24.5016 407.409 27.6674V30.3304H417.219V34.2027ZM410.249 27.7489C411.811 24.9092 413.795 21.8522 417.192 16.9473H417.246V27.8169H410.249V27.7489Z" fill="black"/>
<path d="M427.871 34.3522C428.876 34.3522 429.65 33.5641 429.65 32.5723C429.65 31.5669 428.876 30.7924 427.871 30.7924C426.879 30.7924 426.091 31.5669 426.091 32.5723C426.091 33.5641 426.879 34.3522 427.871 34.3522Z" fill="black"/>
<path d="M440.818 34.5832C444.976 34.5832 447.979 31.7299 447.979 27.8033C447.979 24.0804 445.207 21.3223 441.471 21.3223C439.025 21.3223 436.946 22.5995 436.09 24.5016H436.036C436.049 19.5696 437.843 16.7707 440.927 16.7707C442.721 16.7707 444.188 17.8169 444.664 19.4201H447.707C447.109 16.2951 444.419 14.2163 440.954 14.2163C436.049 14.2163 433.115 18.1022 433.115 24.6647C433.115 26.9609 433.522 28.8902 434.324 30.4527C435.601 33.1022 437.924 34.5832 440.818 34.5832ZM440.791 32.0152C438.454 32.0152 436.647 30.1674 436.647 27.844C436.647 25.5207 438.427 23.8087 440.818 23.8087C443.223 23.8087 444.949 25.5207 444.949 27.8984C444.949 30.1946 443.101 32.0152 440.791 32.0152Z" fill="black"/>
<path d="M465.362 34.3932C469.262 34.3932 471.884 31.4855 471.884 26.8932C471.884 22.2872 469.262 19.3796 465.362 19.3796C461.476 19.3796 458.854 22.2872 458.854 26.8932C458.854 31.4855 461.463 34.3932 465.362 34.3932ZM465.362 33.4421C462.074 33.4421 459.914 30.9285 459.914 26.8932C459.914 22.8442 462.074 20.3442 465.362 20.3442C468.65 20.3442 470.811 22.8442 470.811 26.8932C470.811 30.9149 468.65 33.4421 465.362 33.4421Z" fill="black"/>
<path d="M486.313 19.5698H485.253V28.3198C485.253 31.4312 483.147 33.4421 480.362 33.4421C477.685 33.4421 475.932 31.7845 475.932 28.904V19.5698H474.872V29.0671C474.872 32.3415 476.992 34.3932 480.144 34.3932C482.576 34.3932 484.628 32.9801 485.28 31.01H485.321V34.2029H486.313V19.5698Z" fill="black"/>
<path d="M490.918 15.8062V19.5698H488.771V20.4937H490.918V30.8741C490.918 33.2926 491.828 34.2301 493.948 34.2301C494.111 34.2301 495.021 34.2165 495.103 34.2029V33.2654C495.049 33.279 494.165 33.2926 494.084 33.2926C492.617 33.2926 491.964 32.5997 491.964 30.847V20.4937H494.913V19.5698H491.964V15.8062H490.918Z" fill="black"/>
<path d="M510.007 34.3932C513.906 34.3932 516.528 31.4855 516.528 26.8932C516.528 22.2872 513.906 19.3796 510.007 19.3796C506.121 19.3796 503.499 22.2872 503.499 26.8932C503.499 31.4855 506.107 34.3932 510.007 34.3932ZM510.007 33.4421C506.719 33.4421 504.558 30.9285 504.558 26.8932C504.558 22.8442 506.719 20.3442 510.007 20.3442C513.295 20.3442 515.455 22.8442 515.455 26.8932C515.455 30.9149 513.295 33.4421 510.007 33.4421Z" fill="black"/>
<path d="M520.305 34.2029H521.365V20.4937H524.503V19.5698H521.365V17.5589C521.365 15.7111 522.194 15.0182 523.593 15.0182C523.96 15.0182 524.313 15.0589 524.612 15.1404V14.2165C524.34 14.135 523.96 14.0942 523.539 14.0942C521.487 14.0942 520.305 15.0997 520.305 17.491V19.5698H518.267V20.4937H520.305V34.2029Z" fill="black"/>
<path d="M539.978 34.4883C543.864 34.4883 546.717 31.7301 546.717 27.9529C546.717 24.2165 543.945 21.4312 540.25 21.4312C538.13 21.4312 536.16 22.4095 535.1 23.9584H535.059L535.983 15.5752H545.453V14.597H535.059L533.891 25.2899H534.978C536.038 23.4828 537.953 22.3959 540.127 22.3959C543.266 22.3959 545.644 24.8008 545.644 27.9665C545.644 31.1595 543.239 33.5236 539.992 33.5236C537.22 33.5236 534.951 31.7709 534.652 29.4067H533.578C533.877 32.3415 536.595 34.4883 539.978 34.4883Z" fill="black"/>
</svg>
