<svg xmlns="http://www.w3.org/2000/svg" xmlns:xlink="http://www.w3.org/1999/xlink" width="457" height="398" fill="none" xmlns:v="https://vecta.io/nano"><style><![CDATA[.B{fill:#000}.C{opacity:.2}.D{fill:#263238}.E{fill:#fff}.F{fill:#fd3e72}.G{opacity:.1}.H{fill:#5274b8}.I{fill:#f02a60}.J{fill:#9e906a}.K{fill:#ffa68a}.L{fill:#6a5b31}]]></style><g clip-path="url(#B)"><mask id="A" mask-type="alpha" maskUnits="userSpaceOnUse" x="-22" y="-19" width="525" height="417"><path fill="#c4c4c4" d="M-22-19h525v417H-22z"/></mask><g mask="url(#A)"><use xlink:href="#C" class="D"/><use xlink:href="#C" opacity=".3" class="E"/><use xlink:href="#D" class="D"/><use xlink:href="#D" opacity=".3" class="E"/><path d="M418.074 360.337H284.883v-16.326a3.93 3.93 0 0 1 1.15-2.776c.736-.736 1.734-1.15 2.775-1.15h125.341c1.041 0 2.04.414 2.776 1.15a3.93 3.93 0 0 1 1.149 2.776v16.326z" class="D"/><use xlink:href="#E" class="D"/><use xlink:href="#E" opacity=".6" class="E"/><path d="M445.555 193.384h-75.222a11.45 11.45 0 0 0-11.444 11.449v46.251a11.45 11.45 0 0 0 11.444 11.449h75.222A11.45 11.45 0 0 0 457 251.084v-46.251a11.45 11.45 0 0 0-11.445-11.449z" class="D"/><path d="M239.717 116.955l-9.498-25.065s4.074-3.769 1.279-7.601-20.33-14.598-23.548-12.705-10.291 9.03-6.452 12.988 20.824 10.569 20.824 10.569l8.399 32.886 8.996-11.072z" class="K"/><path d="M306.093 164.613s-43.236-8.889-47.922-10.994-22.096-53.114-22.096-53.114l-13.345 6.235s10.739 51.167 21.72 63.338 57.82 22.458 57.82 22.458l3.823-27.923z" class="F"/><path d="M302.5 192.512l-.785-.181c-2.355-.534-9.749-2.277-18.533-4.845-14.254-4.138-32.183-10.475-38.462-17.417C233.73 157.89 223 106.723 223 106.723l13.344-6.227s17.403 50.994 22.112 53.115 47.883 10.993 47.883 10.993l-3.839 27.908z" class="C F"/><path d="M236.279 99.483l2.763 5.317-17.144 5.905.66-6.494 13.721-4.728z" fill="#ca325b"/><path d="M302.623 191.814c-2.402-.346-9.898-1.516-18.839-3.392 5.11-8.819 20.064-13.35 20.064-13.35l-1.225 16.742z" class="B C"/><path d="M367.044 129.315s2.544 23.958-6.326 29.84-52.514-1.005-57.459-10.648 13.674-35.808 13.674-35.808l50.111 16.616z" class="D"/><path d="M196.011 420.778l15.793 5.873s42.152-105.365 50.787-105.734 96.808 40.174 118.904 17.684-9.851-76.633-9.851-76.633-53.141-7.585-57.137 4.421a84.17 84.17 0 0 0-2.252 10.774l-1.021 6.753c-1.648-.416-54.994-14.19-76.015 0-21.39 14.449-39.208 136.862-39.208 136.862z" class="L"/><path d="M343.331 344.012s-3.595.086-59.335-2.513l12.874 121.902-16.673 2.851s-39.821-111.765-39.389-129.52 20.778-22.953 20.778-22.953 39.711 22.953 81.745 30.233z" class="L"/><path d="M343.526 344.012s-3.595.086-59.334-2.513l12.873 121.902-16.673 2.851s-39.82-111.765-39.389-129.52 20.778-22.953 20.778-22.953 39.711 22.953 81.745 30.233zm-32.268-60.096l31.084 6.479s-17.206-9.463-30.087-13.232l-.997 6.753z" class="B G"/><path d="M370.357 253.707l1.279 8.277-57.137 4.405-1.515-9.784 57.373-2.898z" class="D"/><path d="M370.357 253.707l1.279 8.277-57.137 4.405-1.515-9.784 57.373-2.898z" class="B C"/><path d="M352.332 267.559l2.827-.29-1.479-14.389-2.827.291 1.479 14.388z" class="H"/><path d="M326.955 266.125l12.518-.806-.61-9.497-12.518.805.61 9.498z" class="E"/><path d="M319.881 269.581l2.813-.284-1.446-14.32-2.813.284 1.446 14.32z" class="H"/><path opacity=".6" d="M352.332 267.559l2.827-.29-1.479-14.389-2.827.291 1.479 14.388zm-32.451 2.022l2.813-.284-1.446-14.32-2.813.284 1.446 14.32z" class="E"/><path d="M306 164.5c10.699 2.961 20.859 3.508 31.946 2.955 18.337-.942 40.253 7.963 40.253 7.963l-7.85 78.281-57.364 2.89S294.65 191.913 306 164.5z" class="F"/><path d="M314.272 119.617s3.226-38.014 34.993-24.201c39.876 17.338 8.164 63.605-11.311 54.135s-23.682-29.934-23.682-29.934z" class="D"/><path d="M323.173 169.583l.911 21.485 7.127-10.107s-2.543 23.762-1.052 36.695c0 0 1.358-23.196 4.592-36.695l7.56 10.107 10.863-21.351s-17.583-6.322-30.001-.134z" class="B C"/><path d="M333.017 173.58l16.421-4.641c-10.118-6.973-5.016-22.552-5.016-22.552l-16.272 5.724a49.86 49.86 0 0 1 1.742 6.958c1.704 10.153-2.88 10.993-2.88 10.993l6.005 3.518z" class="K"/><path d="M328.15 152.111a49.88 49.88 0 0 1 1.742 6.957c7.787-3.141 14.522-12.673 14.522-12.673l-16.264 5.716z" class="B C"/><path d="M338.77 103.394c-14.412-3.188-20.754 3.503-25.118 18.124-5.424 18.273-4.231 32.376 14.663 32.399 25.683.032 34.388-45.23 10.455-50.523z" class="K"/><path d="M349.147 131.177s-4.121-13.35-1.075-22.255c0 0-25.974-17.998-33.8 10.696 0 0 2.904-26.369 27.803-21.453s16.774 41.148 1.57 49.118c.023-.008 8.03-7.774 5.502-16.105z" class="D"/><path d="M346.117 133.697c.613-2.3 3.87-5.701 8.086-4.271 4.356 1.476 4.458 11.119-7.136 10.867-1.664-.039-2.221-1.798-.95-6.596z" fill="#e4897b"/><path d="M338.825 104.549s.557 25.01 15.558 28.01-1.397-32.133-1.397-32.133-22.332-14.59-37.215-4.311-1.499 23.503-1.499 23.503 3.147-18.579 24.553-15.069z" class="D"/><path d="M339.343 102.892s-5.322 15.807 5.212 24.13" stroke="#263238" stroke-width=".5" stroke-linecap="round" stroke-linejoin="round"/><path d="M358.784 137.719c1.908-5.083.102-10.463-4.033-12.016s-9.035 1.308-10.943 6.391-.102 10.463 4.034 12.017 9.035-1.308 10.942-6.392z" class="I"/><path d="M353.991 129.378s6.209-27.837-7.724-35.132a40.94 40.94 0 0 1 4.709.919c1.798.526 12.936 11.779 7.308 36.836l-4.293-2.623z" class="F"/><path d="M327.852 145.295l-1.044-.157.282-1.712c7.65 1.173 15.464-.485 21.979-4.664l1.02 1.397c-6.557 4.325-14.449 6.148-22.237 5.136z" class="H"/><path d="M358.192 137.02c1.261-3.362.067-6.92-2.669-7.948s-5.976.865-7.237 4.227-.068 6.92 2.668 7.947 5.976-.865 7.238-4.226z" class="H"/><use xlink:href="#F" class="H"/><use xlink:href="#F" opacity=".4" class="B"/><path d="M345.034 162.979l-10.29 10.115 4.113 12.383 14.317-15.76-8.14-6.738zm-14.875 2.113l1.665 7.782-5.33 11.001-3.321-14.292 6.986-4.491z" class="I"/><path d="M342.836 171.782l5.974-21.877s-2.897-5.45-2.269-6.588 3.737-15.831 5.95-17.425 11.359 1.131 12.254 2.584S356 149.874 356 149.874l-3.516 23.699-9.648-1.791z" class="K"/><path d="M378.23 175.426c16.437 16.836-16.484 54.967-35.394 53.35s.471-70.783.471-70.783l12.088 1.987s-4.238 29.926-2.904 32.274 20.213-22.49 25.739-16.828z" class="I"/><path d="M378.677 175.426c16.437 16.836-16.484 54.967-35.393 53.35s.471-70.783.471-70.783l12.088 1.987s-4.239 29.926-2.904 32.274 20.212-22.49 25.738-16.828z" fill="#ca325b" class="C"/><path d="M342.311 155.778l-1.79 5.717 16.845 1.484v-4.986l-15.055-2.215z" class="F"/><path opacity=".6" d="M317.537 201.009h-8.328a.62.62 0 0 0-.62.62v14.386a.62.62 0 0 0 .62.62h8.328a.62.62 0 0 0 .62-.62v-14.386a.62.62 0 0 0-.62-.62z" class="E"/><path d="M316.917 202.038h-7.763v10.625h7.763v-10.625z" class="B C"/><path d="M314.068 197.24h-1.712v6.259h1.712v-6.259z" class="D"/><path d="M451.788 64.76h-70.042a3.98 3.98 0 0 0-3.979 3.981v35.462a3.98 3.98 0 0 0 3.979 3.981h70.042a3.98 3.98 0 0 0 3.979-3.981V68.741a3.98 3.98 0 0 0-3.979-3.981z" class="F"/><path d="M398.67 103.237l-18.211 24.775 29.381-23.11-11.17-1.665z" class="F"/><path d="M396.794 89.032a2.55 2.55 0 1 0 0-5.104 2.55 2.55 0 1 0 0 5.104z" class="E"/><use xlink:href="#G" class="E"/><path d="M423.428 89.032a2.552 2.552 0 1 0 0-5.104c-1.409 0-2.552 1.143-2.552 2.552s1.143 2.552 2.552 2.552zm13.313 0c1.408 0 2.551-1.143 2.551-2.552s-1.143-2.552-2.551-2.552-2.552 1.143-2.552 2.552 1.143 2.552 2.552 2.552zM95.576 223.938H29.852v13.483h65.724v-13.483z" class="E"/><path d="M95.576 223.938H29.852v13.483h65.724v-13.483z" class="F G"/><path d="M57.537 223.938H29.852v13.483h27.685v-13.483z" class="G I"/><path d="M29.852 225.886h58.51l-58.51 1.657v-1.657zm65.724 2.34l-50.716 1.256h50.716v-1.256zm-63.048 3.769l25.009-1.028 36.759 1.028-36.759.574-25.009-.574zm-2.676 2.859h43.322l-43.322 1.02v-1.02zm65.63 1.02l-28.925.542h29.02l-.094-.542z" class="B G"/><path d="M86.431 210.455H20.707v13.483h65.724v-13.483z" class="E"/><path d="M86.431 210.455H20.707v13.483h65.724v-13.483z" class="F G"/><path d="M48.392 210.455H20.707v13.483h27.685v-13.483z" class="G I"/><path d="M20.707 212.403H79.21l-58.503 1.657v-1.657zm65.724 2.34L35.715 216h50.716v-1.257zm-63.047 3.769l25.001-1.029 36.767 1.029-36.767.565-25.001-.565zm-2.677 2.85h43.322l-43.322 1.029v-1.029zm65.63 1.03l-28.933.541h29.028l-.094-.541z" class="B G"/><path d="M93.935 196.973H28.211v13.482h65.724v-13.482z" class="E"/><path d="M93.935 196.973H28.211v13.482h65.724v-13.482z" class="F G"/><path d="M55.896 196.973H28.211v13.482h27.685v-13.482z" class="G I"/><path d="M28.211 198.912h58.503l-58.503 1.657v-1.657zm65.725 2.34l-50.716 1.256h50.716v-1.256zm-63.048 3.77l25.001-1.021 36.767 1.021-36.767.573-25.001-.573zm-2.677 2.858h43.322l-43.322 1.029v-1.029zm65.63 1.028l-28.933.534h29.028l-.094-.534z" class="B G"/><path d="M137.72 237.146l1.711-6.462h70.215l32.332 3.227 1.232 3.235H137.72z" class="D"/><path opacity=".4" d="M209.646 230.684v6.462H137.72l1.711-6.462h70.215z" class="B"/><path d="M195.54 199.753c.1.784.029 1.581-.207 2.335s-.633 1.449-1.162 2.037-1.178 1.053-1.904 1.367-1.51.466-2.3.449H82.428c-1.684-.033-3.297-.68-4.538-1.82a6.91 6.91 0 0 1-2.197-4.368l-6.389-68.89a5.9 5.9 0 0 1 .141-2.011 5.5 5.5 0 0 1 1.988-3.042c.988-.759 2.205-1.159 3.451-1.135h107.538a6.91 6.91 0 0 1 6.735 6.188l6.382 68.89z" class="D"/><path opacity=".4" d="M189.59 205.941H82.404c-1.684-.033-3.297-.68-4.538-1.82a6.91 6.91 0 0 1-2.197-4.368l-6.389-68.89c-.069-.673-.021-1.353.141-2.01h107.178a6.93 6.93 0 0 1 4.53 1.827c1.239 1.138 2.022 2.688 2.205 4.36l6.389 68.891c.071.672.026 1.352-.133 2.01z" class="B"/><path d="M115.687 163.686h22.253l-5.934 63.738 35.189 5.285v4.437H93.088v-4.437l15.181-5.285 7.418-63.738z" class="D"/><path d="M137.94 163.686l-16.484 72.447-13.187-.393 7.417-72.054h22.254z" class="E G"/><path d="M137.838 515h-10.605l-19.059-265.446h14.067L137.838 515z" class="J"/><path d="M123.002 262.102h-13.901l-.934-12.124h14.074l.761 12.124z" class="B C"/><path d="M215.682 515h-10.605l-1.735-265.446h14.075L215.682 515z" class="J"/><path d="M217.424 249.978l-.274 43.306h-13.525l-.275-43.306h14.074z" class="B C"/><path d="M328.307 515H317.702L298.636 249.554H312.71L328.307 515Z" class="J"/><path d="M313.471 262.102H299.57l-.934-12.124h14.074l.761 12.124z" class="B C"/><path d="M16.484 515H5.879l15.597-265.446h14.066L16.484 515z" class="J"/><path d="M21.468 249.978h14.074l-.934 12.124H20.707l.761-12.124z" class="B C"/><path d="M10.322 242.902h313.542v11.599c0 .222-.044.443-.129.649a1.71 1.71 0 0 1-.367.55c-.158.157-.345.282-.551.368s-.426.129-.648.129H12.018a1.7 1.7 0 0 1-.649-.129c-.206-.086-.393-.211-.55-.368a1.71 1.71 0 0 1-.368-.55 1.7 1.7 0 0 1-.129-.649v-11.599z" class="L"/><path d="M323.872 242.902H10.322v6.651h313.55v-6.651z" class="B C"/><path d="M330.442 244.63H3.744c-.993 0-1.945-.395-2.648-1.097S0 241.878 0 240.884s.394-1.946 1.097-2.648a3.74 3.74 0 0 1 2.648-1.097h326.698c.993 0 1.945.394 2.648 1.097s1.096 1.655 1.096 2.648-.394 1.946-1.096 2.649a3.75 3.75 0 0 1-2.648 1.097z" class="J"/><path d="M253.171 225.603l4.027-6.023c.395-.592.929-1.077 1.556-1.412s1.328-.511 2.039-.512h5.094a4.31 4.31 0 0 1 1.256.189l18.164 5.496a4.33 4.33 0 0 1 2.465 1.932l2.606 4.382-37.207-4.052z" class="H"/><path d="M290.346 229.663l-37.199-4.091 4.019-6.031a4.33 4.33 0 0 1 1.561-1.414c.628-.336 1.33-.511 2.042-.51h5.095c.428.002.853.066 1.263.189l.401.117 17.748 5.387a4.29 4.29 0 0 1 2.472 1.924l2.598 4.429z" class="C F"/><path d="M290.346 229.662l-26.445-2.913 3.619-8.818 17.748 5.387c1.037.306 1.92.993 2.472 1.923l2.606 4.421z" class="B C"/><path d="M302.914 236.573v.573h-56.132l2.08-8.127a6.99 6.99 0 0 1 2.489-3.734c1.218-.937 2.71-1.446 4.246-1.449h24.899a6.83 6.83 0 0 1 2.425.432l3.14 1.162 12.363 4.61a6.97 6.97 0 0 1 3.263 2.566 6.98 6.98 0 0 1 1.227 3.967z" class="F"/><path d="M302.913 236.574v.573h-23.054l1.233-8.779a3.69 3.69 0 0 1 1.769-2.645 3.68 3.68 0 0 1 1.552-.501 3.69 3.69 0 0 1 1.616.217l12.363 4.609c1.328.499 2.472 1.39 3.28 2.556a6.97 6.97 0 0 1 1.241 3.97z" class="B C"/><path d="M283.455 231.17l7.331-21.987a1.63 1.63 0 0 1 .932-.993c.217-.089.452-.129.686-.119a1.63 1.63 0 0 1 1.416.963c.151.338.183.717.09 1.076l-6.201 23.479s-4.082 1.665-4.254-2.419z" class="D"/><path d="M253.148 235.317h-3.258l.628-3.196h3.258l-.628 3.196zm4.85-.126h-3.257l.628-3.196h3.257l-.628 3.196z" class="B C"/><path d="M222.552 57.016l-39.059-21.048c-.526-.284-1.183-.087-1.467.44l-12.843 23.851c-.284.527-.087 1.184.44 1.468l39.059 21.048c.527.284 1.184.087 1.468-.44l12.842-23.851c.284-.527.087-1.184-.44-1.468z" fill="#ffe3eb"/><path d="M180.586 39.074l11.673 21.83a4.76 4.76 0 0 0 1.958 1.953c.831.443 1.775.63 2.712.536l24.334-2.403-24.734 3.644a5.07 5.07 0 0 1-3.146-.551c-.961-.518-1.73-1.332-2.192-2.323l-10.605-22.686z" class="B C"/><path d="M152.25 35.038c.4-8.339 6.57-25.128 14.074-30.287s2.567 1.979 2.567 1.979 7.111-6.918 10.871-6.722 0 4.547 0 4.547S187.47-.196 191.026 0s0 4.35 0 4.35 6.327-4.547 8.894-2.356-32.803 25.497-36.752 34.991-11.319 6.494-10.918-1.948zm30.377-1.233l4.71 3.031a.39.39 0 0 1 .172.457c-.029.084-.086.156-.162.203a.38.38 0 0 1-.253.054l-4.961-.385.424 3.808a.43.43 0 0 1-.249.447.42.42 0 0 1-.268.025c-.09-.021-.17-.071-.229-.142l-2.865-3.243 3.681-4.256z" fill="#ee3164"/><path d="M116.33 15.038s6.523-4.547 16.398-1.571c0 0 2.841 13.051 10.612 17.393 4.27 2.356 14.718 2.183 22.984-.495 9.82-3.141 14.623-3.141 16.397.495 1.688 3.479-.196 7.515-7.708 9.289s-13.438 14.826-27.073 15.022-20.809-13.491-17.387-25.521a36.18 36.18 0 0 0-14.223-14.614z" class="F"/><path d="M144.785 44.297c-8.054 2.199-25.904 1.508-33.141-4.044s1.083-3.055 1.083-3.055-8.776-4.633-9.749-8.269 4.325-1.406 4.325-1.406-6.9-5.866-7.802-9.313 4.136-1.343 4.136-1.343-6.279-4.617-5-7.727 34.373 23.338 44.641 24.17 9.655 8.764 1.507 10.986z" fill="#ee3164"/></g></g><defs><clipPath id="B"><path d="M0 0h457v398H0z" class="E"/></clipPath><path id="C" d="M339.924 353.167h26.579v59.232c0 .86-.342 1.685-.95 2.293a3.24 3.24 0 0 1-2.292.95h-20.095a3.24 3.24 0 0 1-2.292-.95c-.608-.608-.95-1.433-.95-2.293v-59.232z"/><path id="D" d="M400.491 243.53s3.768 93.532-22.261 109.637h29.718s23.023-31.865 16.484-109.637h-23.941z"/><path id="E" d="M280.904 360.337h141.142a1.58 1.58 0 0 0 1.578-1.578v-6.966a1.58 1.58 0 0 0-1.578-1.578H280.904a1.58 1.58 0 0 0-1.578 1.578v6.966a1.58 1.58 0 0 0 1.578 1.578z"/><path id="F" d="M326.305 145.869l-1.389-.181a1.89 1.89 0 0 1-1.25-.719c-.151-.197-.261-.421-.326-.66s-.081-.488-.049-.733a1.89 1.89 0 0 1 .711-1.249c.393-.306.891-.445 1.385-.385l1.389.181c.246.032.482.112.697.235a1.89 1.89 0 0 1 .553.485c.151.196.262.42.326.659a1.89 1.89 0 0 1-.662 1.983c-.393.306-.89.444-1.385.384z"/><path id="G" d="M410.115 89.032a2.55 2.55 0 1 0 0-5.104c-1.409 0-2.552 1.143-2.552 2.552s1.143 2.552 2.552 2.552z"/></defs></svg>