<svg width="110" height="25" viewBox="0 0 110 25" fill="none" xmlns="http://www.w3.org/2000/svg">
<g clip-path="url(#clip0)">
<path d="M25.0707 12.5C25.0707 10.0277 24.3355 7.61099 22.9581 5.55538C21.5807 3.49976 19.623 1.89761 17.3324 0.951513C15.0419 0.00541727 12.5215 -0.242126 10.0898 0.240189C7.65821 0.722504 5.42463 1.91302 3.67153 3.66117C1.91842 5.40933 0.724549 7.63662 0.24087 10.0614C-0.24281 12.4861 0.0054302 14.9995 0.954202 17.2835C1.90297 19.5676 3.50966 21.5199 5.57109 22.8934C7.63252 24.2669 10.0561 25 12.5354 25C15.86 25 19.0484 23.683 21.3992 21.3388C23.75 18.9946 25.0707 15.8152 25.0707 12.5Z" fill="#FFCC00"/>
<path d="M18.5733 10.4166C18.5884 9.59578 18.4393 8.78013 18.1347 8.01737C17.8302 7.2546 17.3762 6.56 16.7994 5.97416C16.2226 5.38831 15.5345 4.92297 14.7753 4.6053C14.0161 4.28764 13.201 4.12402 12.3777 4.12402C11.5543 4.12402 10.7393 4.28764 9.98007 4.6053C9.22086 4.92297 8.53276 5.38831 7.95594 5.97416C7.37913 6.56 6.92518 7.2546 6.62061 8.01737C6.31604 8.78013 6.16696 9.59578 6.18208 10.4166C6.18208 13.8271 4.73424 20 8.15639 20C23.4224 20 18.5733 13.8271 18.5733 10.4166ZM11.0186 13.9854C9.75048 13.9854 8.72049 12.5479 8.72049 10.775C8.72049 9.00206 9.7463 7.56456 11.0186 7.56456C12.291 7.56456 13.3168 9.00206 13.3168 10.775C13.3168 12.5479 12.2722 13.9854 11.0186 13.9854ZM16.3441 12.9229C15.3433 12.9229 14.5306 11.7854 14.5306 10.3833C14.5306 8.98123 15.3433 7.84373 16.3441 7.84373C17.3448 7.84373 18.1596 8.97915 18.1596 10.3833C18.1596 11.7875 17.3365 12.9166 16.3336 12.9166L16.3441 12.9229Z" fill="#323232"/>
<path d="M34.3413 18.9083C30.3717 18.9083 29.4587 16.4708 29.3877 14.425C29.2394 10.1833 31.4936 5.62498 36.7919 5.62498C37.662 5.61659 38.5294 5.72165 39.3721 5.93748L38.9 7.85831C38.1561 7.62554 37.3814 7.50545 36.6018 7.50206C33.1546 7.50206 31.7256 10.7333 31.8363 13.9333C31.9094 15.9958 32.9624 16.9979 35.0558 16.9979C35.9041 16.9877 36.7494 16.8949 37.5796 16.7208C38.017 16.6124 38.4446 16.4682 38.8582 16.2896C38.9972 16.8686 39.0935 17.457 39.1465 18.05C38.7354 18.2305 38.3098 18.3761 37.8741 18.4854C36.7162 18.7516 35.5335 18.8961 34.3454 18.9166L34.3413 18.9083Z" fill="#323232"/>
<path d="M41.2588 21.5208C40.1828 22.6146 39.0818 23.025 37.985 23.025C37.5636 23.0253 37.1433 22.9806 36.7314 22.8917L37.0198 21.0396C37.3554 21.1563 37.709 21.2134 38.0644 21.2083C38.3552 21.2023 38.6419 21.1382 38.9075 21.0198C39.173 20.9013 39.4121 20.731 39.6104 20.5187C40.0993 20.0146 40.3479 19.3917 40.3124 18.3646C40.2288 15.975 39.5916 13.2125 38.735 10.4688H41.1C41.637 12.3042 42.0924 14.6771 42.1446 16.4437C42.1496 16.6813 42.1293 16.9188 42.084 17.1521H42.1175C43.2115 15.0017 44.1566 12.7791 44.9463 10.5L47.1295 10.4833C45.0737 16.4125 43.1642 19.5333 41.2588 21.5208Z" fill="#323232"/>
<path d="M49.3231 18.9856C48.3212 18.9938 47.3213 18.8918 46.3418 18.6815L47.9693 8.22731L47.9839 8.19398C47.5932 8.12731 47.05 8.05856 46.5591 8.02523L46.768 6.67731C47.9591 6.53968 49.1588 6.48954 50.3573 6.52731L49.7911 10.1127C49.6825 10.869 49.4568 11.6606 48.968 13.1273H49.0014C49.8036 11.4606 50.9444 10.2815 52.4298 10.2815C53.7126 10.2815 54.4334 11.1148 54.496 12.8898C54.6068 16.0544 53.0127 18.9856 49.3231 18.9856ZM51.6505 12.1336C50.4346 12.1336 49.062 14.8773 48.7841 16.6127L48.6859 17.1856C48.9968 17.2633 49.316 17.3032 49.6365 17.3044C51.5795 17.3044 52.3943 15.0481 52.3337 13.2981C52.3044 12.469 52.0558 12.1315 51.6505 12.1315V12.1336Z" fill="#323232"/>
<path d="M56.9708 15.4166C56.9604 15.602 56.9353 15.8874 56.9436 16.0729C56.9771 17.0333 57.3615 17.3229 58.5231 17.3229C59.3579 17.3114 60.1824 17.1381 60.9508 16.8124L61.5504 16.5687L61.214 18.3916C60.1476 18.7827 59.022 18.9891 57.8859 19.002C55.759 19.002 54.8816 18.0249 54.8168 16.1729C54.6936 12.6708 56.7389 10.2979 59.3546 10.2979C61.4313 10.2979 62.1103 11.3249 62.1458 12.3354C62.2168 14.3374 60.2592 15.3145 56.9708 15.4166ZM59.177 11.8749C58.0781 11.8749 57.4221 12.8854 57.1567 13.9791C59.0976 13.9124 60.0942 13.5083 60.0628 12.6145C60.0461 12.1479 59.716 11.8749 59.1749 11.8749H59.177Z" fill="#323232"/>
<path d="M67.5046 12.4021C66.0171 11.8479 64.6696 14.3375 64.2559 17.0146L63.9822 18.8333H61.8721C61.8721 18.8333 62.7788 13.2896 62.9 12.4667C62.9509 12.133 62.9206 11.7921 62.8115 11.4726C62.7024 11.1531 62.5178 10.8645 62.2732 10.6312L65.1981 10.3812C65.0475 11.2658 64.8324 12.1383 64.5546 12.9917H64.5881C65.4238 11.2083 66.3075 9.97708 67.889 10.3146L67.5046 12.4021Z" fill="#323232"/>
<path d="M74.6628 18.929C71.1843 18.929 69.2058 17.1874 69.0971 14.027C68.9237 9.0978 72.3438 5.52071 77.2305 5.52071C78.4522 5.514 79.6692 5.67096 80.849 5.98738L80.2954 8.00197C79.2531 7.61094 78.1498 7.40641 77.0362 7.3978C73.7122 7.3978 71.3013 10.1061 71.4266 13.6895C71.4997 15.7832 72.8577 17.0332 75.0577 17.0332C75.7275 17.0328 76.3943 16.9431 77.0404 16.7666L77.172 16.7311L77.874 12.1124H79.9632L79.0293 18.1874C77.6179 18.6742 76.1354 18.9248 74.6419 18.929H74.6628Z" fill="#323232"/>
<path d="M88.5295 18.8334H86.4194L87.2551 13.5813C87.4055 12.5542 87.2384 12.1334 86.6973 12.1334C85.567 12.1334 84.138 14.7605 83.835 16.7167L83.5154 18.8334H81.4053L83.0599 8.22715L83.0767 8.19382C82.686 8.12715 82.1261 8.0584 81.6518 8.02507L81.8419 6.67715C83.0338 6.53983 84.2341 6.4897 85.4333 6.52715L84.8817 10.0688C84.7029 11.0822 84.4387 12.0788 84.092 13.048L84.1254 13.0647C84.8316 11.5667 85.9535 10.2709 87.5559 10.2709C89.1584 10.2709 89.7058 11.4167 89.4363 13.0501L88.5295 18.8334Z" fill="#323232"/>
<path d="M93.2006 19.002C90.8544 19.002 89.887 17.8916 89.8202 16.0062C89.6969 12.5041 91.9825 10.2979 94.6672 10.2979C97.0656 10.2979 98.01 11.577 98.0664 13.3458C98.1896 16.7958 95.8413 19.002 93.2006 19.002ZM94.4123 12.127C92.8412 12.127 91.9637 14.002 92.0202 15.6687C92.0515 16.5791 92.438 17.1499 93.422 17.1499C94.9242 17.1499 95.9124 15.4833 95.8476 13.6083C95.8163 12.6541 95.3921 12.1312 94.4123 12.1312V12.127Z" fill="#323232"/>
<path d="M109.505 12.1313H107.531L106.954 15.9042C106.803 16.9146 106.954 17.1834 107.639 17.1834C107.991 17.1841 108.341 17.1443 108.684 17.0646L108.54 18.7813C107.978 18.9184 107.403 18.9918 106.824 19.0001C105.019 19.0001 104.482 18.1417 104.8 16.1376L105.427 12.1313H104.079L104.359 10.4646H105.69L106.078 7.88965L108.258 7.45215L107.79 10.4646H109.783L109.505 12.1313Z" fill="#323232"/>
<path d="M102.291 11.8645C102.732 11.8621 103.172 11.9181 103.599 12.0312L103.86 10.4395C103.344 10.3455 102.821 10.2981 102.297 10.2979C99.9007 10.2979 98.7453 11.477 98.7955 13.0062C98.8644 14.9749 101.018 15.2291 101.056 16.3562C101.066 16.5222 101.023 16.6872 100.934 16.8278C100.845 16.9683 100.714 17.0774 100.559 17.1395H100.542C100.475 17.1708 100.405 17.1966 100.333 17.2166C99.5075 17.4636 98.6179 17.3799 97.8532 16.9833C97.5517 17.5854 97.1052 18.1036 96.5537 18.4916C97.519 18.8095 98.527 18.9795 99.5434 18.9958C102.161 19.0166 103.325 17.5374 103.277 16.1499C103.212 14.2979 101.016 13.8103 100.979 12.7833C100.966 12.2499 101.413 11.8645 102.291 11.8645Z" fill="#323232"/>
</g>
<defs>
<clipPath id="clip0">
<rect width="109.783" height="25" fill="white"/>
</clipPath>
</defs>
</svg>
