<svg width="122" height="25" viewBox="0 0 122 25" fill="none" xmlns="http://www.w3.org/2000/svg">
<g clip-path="url(#clip0)">
<path d="M0 12.5C0 5.59644 5.53845 0 12.3705 0C19.2025 0 24.741 5.59643 24.741 12.5C24.741 19.4036 19.2025 25 12.3705 25C5.53845 25 0 19.4036 0 12.5Z" fill="#C8252C"/>
<path d="M17.3646 5.8291L14.3269 15.3773H14.2903L11.9693 8.43926H4.3048V10.2085H9.64465L10.1242 11.5709H5.63103V13.34H10.7469L11.1422 14.4634H4.21289V16.2327H11.7649L12.7517 19.0366H15.6588L20.3303 5.8291H17.3646Z" fill="white"/>
<path fill-rule="evenodd" clip-rule="evenodd" d="M28.084 19.0836V5.87207H37.7135V7.63029H29.9608V11.5449H36.8959V13.3029H29.9608V17.3257H37.8039V19.0836H28.084Z" fill="#C8252C"/>
<path fill-rule="evenodd" clip-rule="evenodd" d="M42.9255 15.3655L40.1973 19.0795H38.1396L41.8802 14.0444L38.2824 9.17432H40.3731L42.9614 12.6895L45.5493 9.17432H47.6085L43.9898 14.0094L47.7466 19.0795H45.6368L42.9255 15.3655Z" fill="#C8252C"/>
<path fill-rule="evenodd" clip-rule="evenodd" d="M48.0869 21.7778V9.20072H49.8893V10.6291C50.7907 9.53566 51.8774 9.00342 53.193 9.00342C55.4272 9.00342 57.8013 10.7644 57.8013 14.0281V14.063C57.8013 17.3385 55.4272 19.1054 53.193 19.1054C51.8803 19.1054 50.7721 18.585 49.8893 17.556V21.7778H48.0869V21.7778ZM52.9447 10.6787C51.4492 10.6787 49.8354 11.9594 49.8354 14.0281V14.063C49.8354 16.1718 51.4164 17.4312 52.9447 17.4312C54.7219 17.4312 55.9631 16.0537 55.9631 14.0825V14.0458C55.9631 12.0935 54.6932 10.6787 52.9447 10.6787Z" fill="#C8252C"/>
<path fill-rule="evenodd" clip-rule="evenodd" d="M58.1445 19.0783V9.20403H59.9782V11.0114C60.7878 9.76162 62.0245 9.0376 63.4114 9.0376C63.468 9.0376 63.5247 9.03881 63.5818 9.04121L63.7933 9.04962V11H63.4645C61.3466 11 59.9782 12.6084 59.9782 15.0989V19.0783H58.1445Z" fill="#C8252C"/>
<path fill-rule="evenodd" clip-rule="evenodd" d="M65.6078 13.363C65.8663 11.8051 66.9412 10.739 68.2861 10.739C69.9478 10.739 70.7249 12.053 70.9174 13.363H65.6078ZM68.321 9.16943C65.7414 9.16943 63.7959 11.2983 63.7959 14.12C63.7959 16.9411 65.8158 19.0706 68.4952 19.0706C70.0762 19.0706 71.268 18.5227 72.3574 17.2971L72.4995 17.1376L71.3535 16.1026L71.2114 16.2535C70.428 17.0816 69.5754 17.4676 68.5303 17.4676C67.0071 17.4676 65.8577 16.4355 65.6061 14.877H72.6909L72.707 14.6817C72.7247 14.4615 72.7247 14.317 72.7247 14.19C72.7247 11.1874 70.9557 9.16943 68.321 9.16943Z" fill="#C8252C"/>
<path fill-rule="evenodd" clip-rule="evenodd" d="M73.2194 17.6991L73.0645 17.5725L73.9876 16.2589L74.1632 16.3913C75.1319 17.1242 76.1697 17.5122 77.1641 17.5122C78.1553 17.5122 78.821 17.0179 78.821 16.2815V16.2455C78.821 15.4993 77.9111 15.1828 76.7219 14.8488C75.395 14.4679 73.5776 13.9481 73.5776 12.0676V12.0327C73.5776 10.3688 74.9303 9.2085 76.8665 9.2085C78.0644 9.22928 79.2322 9.58977 80.236 10.2486L80.4058 10.363L79.5755 11.7505L79.3911 11.6308C78.5647 11.0931 77.6318 10.7847 76.8313 10.7847C75.9145 10.7847 75.2971 11.2295 75.2971 11.8916V11.927C75.2971 12.6233 76.336 12.9422 77.4366 13.2801L77.4711 13.2906C78.6863 13.6577 80.5239 14.2134 80.5239 16.1039V16.141C80.5239 17.9036 79.1447 19.0878 77.0945 19.0878C75.6867 19.0646 74.3254 18.5767 73.2194 17.6991V17.6991Z" fill="#C8252C"/>
<path fill-rule="evenodd" clip-rule="evenodd" d="M84.8924 19.0878C83.4843 19.0645 82.1226 18.5767 81.0161 17.6991L80.8623 17.5725L81.7848 16.2589L81.9599 16.3913C82.9292 17.1242 83.9675 17.5122 84.9621 17.5122C85.9526 17.5122 86.6189 17.0179 86.6189 16.2815V16.2455C86.6189 15.4993 85.709 15.1828 84.5198 14.8488C83.1923 14.4679 81.3749 13.9481 81.3749 12.0676V12.0327C81.3749 10.3688 82.7282 9.2085 84.6643 9.2085C85.8622 9.22953 87.0299 9.59 88.0338 10.2486L88.2037 10.363L87.3733 11.7505L87.189 11.6308C86.362 11.0931 85.4285 10.7847 84.6292 10.7847C83.7112 10.7847 83.0951 11.2295 83.0951 11.8916V11.927C83.0951 12.6233 84.134 12.9422 85.2339 13.2801L85.269 13.2906C86.4836 13.6577 88.3218 14.2134 88.3218 16.1039V16.141C88.3218 17.9036 86.9425 19.0878 84.8924 19.0878" fill="#C8252C"/>
<path fill-rule="evenodd" clip-rule="evenodd" d="M108.377 10.2353C108.377 11.8071 107.111 12.8219 105.153 12.8219H102.268V7.64862H105.224C107.227 7.64862 108.377 8.57871 108.377 10.1992V10.2353V10.2353ZM105.332 5.87256H100.415V19.0839H102.268V14.58H105.098C107.662 14.58 110.248 13.2203 110.248 10.1806V10.1445C110.248 7.54889 108.319 5.87256 105.332 5.87256Z" fill="#C8252C"/>
<path fill-rule="evenodd" clip-rule="evenodd" d="M120.274 19.0834L112.426 9.03433V19.0834H110.593V5.87207H112.258L119.906 15.684V5.87207H121.739V19.0834H120.274Z" fill="#C8252C"/>
<path fill-rule="evenodd" clip-rule="evenodd" d="M94.6423 19.0797L100.095 5.88184H97.8974L93.5302 16.7024L89.1901 5.88184H86.9658L92.418 19.0797H94.6423Z" fill="#C8252C"/>
</g>
<defs>
<clipPath id="clip0">
<rect width="121.739" height="25" fill="white"/>
</clipPath>
</defs>
</svg>
