<svg xmlns="http://www.w3.org/2000/svg" xmlns:xlink="http://www.w3.org/1999/xlink" width="616" height="500" fill="none" xmlns:v="https://vecta.io/nano"><style><![CDATA[.B{fill:#fd3e72}.C{fill:#fff}.D{fill:#ffa68a}.E{fill:#8e7d4e}.F{fill:#00a8e1}.G{fill:#232f3e}.H{fill:#9e906a}.I{color-interpolation-filters:sRGB}.J{flood-opacity:0}.K{fill:#d82e5c}.L{fill:#f9fcfd}.M{fill:#e0e7ea}.N{fill:#3b4048}.O{stroke-miterlimit:10}]]></style><path d="M453.495 65.41H204.116c-1.124 0-2.035.911-2.035 2.035v141.431c0 1.124.911 2.035 2.035 2.035h249.379c1.123 0 2.035-.911 2.035-2.035V67.445c0-1.124-.912-2.035-2.035-2.035z" fill="#263238"/><path d="M448.715 71.831H208.903v128.835h239.812V71.831z" class="C"/><path d="M441.869 79.876h-227.16v114.369h227.16V79.876z" class="B"/><g fill="#fbc4b2"><path d="M351.328 250.735c-15.98-3.486-6.389 56.751-.497 70.988s7.193-3.029 7.099-28.774-.316-40.841-6.602-42.214z"/><path d="M349.009 316.627l-7.02 13.519c-.71 1.759 2.69 5.679 5.166 6.807s8.456-3.944 8.976-4.543 1.247-15.373 1.247-15.373l-8.369-.41z"/></g><path d="M356.123 332.411c-.512.615-6.499 5.679-8.976 4.543s-5.781-5.017-5.166-6.807c1.491-4.299 2.587-4.323 3.747-7.462-.655 1.759-1.854 6.263-.41 6.539s7.224.552 8.116 0 3.691-7.832 3.691-7.84c-.244 4.393-.67 10.632-1.002 11.027z" fill="#36366b"/><g fill="#fbc4b2"><path d="M374.154 250.735c15.98-3.486 6.389 56.751.497 70.988s-7.193-3.029-7.098-28.774.315-40.841 6.601-42.214z"/><path d="M376.473 316.627l7.02 13.519c.71 1.759-2.69 5.679-5.166 6.807s-8.456-3.944-8.976-4.543-1.247-15.373-1.247-15.373l8.369-.41z"/></g><path d="M369.351 332.411c.513.615 6.499 5.679 8.976 4.543s5.781-5.017 5.166-6.807c-1.491-4.299-2.587-4.323-3.746-7.462.654 1.759 1.853 6.263.41 6.539s-7.225.552-8.117 0-3.691-7.832-3.691-7.84c.253 4.393.671 10.632 1.002 11.027z" fill="#36366b"/><path d="M444.085 208.055a1.84 1.84 0 0 0 1.838-1.837 1.84 1.84 0 0 0-1.838-1.838 1.84 1.84 0 0 0-1.838 1.838 1.84 1.84 0 0 0 1.838 1.837z" fill="#f4817f"/><path d="M565.056 447.315H92.555a9.47 9.47 0 0 0-9.465 9.465v33.246c0 5.228 4.238 9.465 9.465 9.465h472.501c5.227 0 9.465-4.237 9.465-9.465V456.78a9.47 9.47 0 0 0-9.465-9.465zm38.767-31.392H53.054a11.61 11.61 0 0 1-8.171-19.741c2.168-2.168 5.105-3.39 8.171-3.401h550.769c3.065.011 6.002 1.233 8.17 3.401s3.39 5.105 3.401 8.17c-.011 3.066-1.233 6.003-3.401 8.171a11.61 11.61 0 0 1-8.17 3.4z" fill="#fed7e1"/><path d="M372.869 361.357H69.381v12.676h303.488v-12.676z" class="E"/><path d="M381.293 265.863H60.95c-2.431 0-4.401 1.971-4.401 4.402v91.518a4.4 4.4 0 0 0 4.401 4.401h320.343a4.4 4.4 0 0 0 4.401-4.401v-91.518c0-2.431-1.971-4.402-4.401-4.402z" class="H"/><path d="M377.704 355.047v-78.046a3.15 3.15 0 0 0-3.147-3.147H67.686a3.15 3.15 0 0 0-3.147 3.147v78.046a3.15 3.15 0 0 0 3.147 3.148h306.871a3.15 3.15 0 0 0 3.147-3.148z" fill="#b7af98" stroke="#746437" class="O"/><path d="M78.547 403.429h-9.165v-37.244h15.83l-6.665 37.244z" class="E"/><path d="M129.895 273.854v84.34" stroke="#746437" class="O"/><path d="M139.28 256.832h41.638v9.063H139.28a2.68 2.68 0 0 1-2.681-2.682v-3.699c0-.711.282-1.394.785-1.897s1.185-.785 1.896-.785z" class="B"/><path d="M189.95 264.917v-7.099h.986v-.986h-44.17c-1.203 0-2.357.478-3.207 1.328s-1.329 2.005-1.329 3.207.478 2.357 1.329 3.207 2.004 1.329 3.207 1.329h44.17v-.986h-.986z" class="K"/><path d="M146.79 264.916a3.55 3.55 0 0 1-3.55-3.549 3.55 3.55 0 0 1 1.04-2.51c.665-.666 1.568-1.04 2.51-1.04h43.16v7.099h-43.16z" class="L"/><path d="M189.95 259.419h-45.061v.45h45.061v-.45zm0 1.151h-45.661v.45h45.661v-.45zm0 1.144h-45.661v.449h45.661v-.449zm0 1.152h-45.061v.45h45.061v-.45z" class="M"/><path d="M174.546 256.831h-28.395c-1.203 0-2.357-.478-3.207-1.328s-1.329-2.004-1.329-3.207.478-2.356 1.329-3.207 2.004-1.328 3.207-1.328h28.395v9.07z" class="B"/><path d="M188.775 255.845v-7.098h.986v-.986h-37.923c-1.203 0-2.357.478-3.207 1.328s-1.329 2.004-1.329 3.207.478 2.356 1.329 3.207 2.004 1.328 3.207 1.328h37.923v-.986h-.986z" class="K"/><path d="M151.837 255.846c-.941 0-1.844-.374-2.509-1.04s-1.04-1.568-1.04-2.51.374-1.844 1.04-2.509 1.568-1.04 2.509-1.04h36.945v7.099h-36.945z" class="L"/><path d="M188.782 250.349h-38.845v.449h38.845v-.449zm0 1.151h-39.445v.45h39.445v-.45zm0 1.151h-39.445v.45h39.445v-.45zm0 1.144h-38.845v.45h38.845v-.45z" class="M"/><path d="M156.854 247.769h28.395a4.54 4.54 0 0 0 3.207-1.328c.851-.851 1.328-2.005 1.328-3.207a4.53 4.53 0 0 0-1.328-3.207c-.851-.851-2.004-1.329-3.207-1.329h-28.395v9.071z" class="B"/><path d="M142.625 246.783v-7.099h-.986v-.986h37.923c1.203 0 2.356.478 3.207 1.329s1.328 2.004 1.328 3.207a4.54 4.54 0 0 1-4.535 4.535h-37.923v-.986h.986z" class="K"/><path d="M179.562 246.783a3.55 3.55 0 0 0 3.549-3.549 3.55 3.55 0 0 0-3.549-3.549h-36.937v7.098h36.937z" class="L"/><path d="M181.463 241.285h-38.846v.45h38.846v-.45zm.6 1.153h-39.446v.449h39.446v-.449zm0 1.143h-39.446v.45h39.446v-.45zm-.6 1.151h-38.846v.45h38.846v-.45z" class="M"/><g fill="#87bd43"><path d="M107.257 249.457v-1.853l-.087-2.043a25.22 25.22 0 0 0-.252-2.603c-.103-.97-.292-2.004-.513-3.108l-.836-3.431c-.3-1.191-.733-2.366-1.23-3.589l-1.578-3.612c-.56-1.246-1.199-2.366-1.909-3.455l-2.113-3.21c-.71-1.033-1.467-1.972-2.24-2.816l-2.201-2.366a27.23 27.23 0 0 0-2.004-1.885l-1.625-1.365-1.467-1.136 1.578.994c.513.308 1.096.718 1.759 1.215l2.193 1.704 2.461 2.192c.883.805 1.68 1.728 2.563 2.658s1.704 1.988 2.485 3.092l2.319 3.392c.741 1.151 1.411 2.366 1.987 3.612l1.657 3.66a24.91 24.91 0 0 1 1.238 3.557l.868 3.282.552 2.855.299 2.2.182 1.846-4.086.213z"/><path d="M106.595 252.423v-.371c0-.228.079-.647.071-.97.026-.457.026-.915 0-1.372-.053-.626-.142-1.247-.268-1.862a17.31 17.31 0 0 0-1.72-4.543c-.927-1.685-2.069-3.241-3.399-4.63-.742-.789-1.436-1.404-2.209-2.066l-2.327-1.807-4.441-2.855-4.52-2.54 4.819 1.964 4.843 2.327 2.635 1.578 2.571 1.861a24.48 24.48 0 0 1 4.425 4.669 20.44 20.44 0 0 1 2.682 5.096c.254.749.462 1.513.623 2.287a16.16 16.16 0 0 1 .252 1.885l.055 1.136v.402l-4.093-.189z"/><path d="M107.297 254.056l.442-1.665c.118-.512.331-1.191.607-1.979.269-.866.585-1.717.946-2.548a25.88 25.88 0 0 1 1.326-2.871l1.727-3.061c.607-1.049 1.349-2.074 2.145-3.06l2.453-2.95c.828-.97 1.775-1.853 2.737-2.666l2.848-2.366c.938-.789 1.901-1.372 2.847-1.917.866-.541 1.758-1.039 2.674-1.49.768-.406 1.558-.77 2.366-1.089a19 19 0 0 1 1.846-.726l1.625-.56-1.578.726a18.82 18.82 0 0 0-1.743.907 23.26 23.26 0 0 0-2.185 1.302c-.846.534-1.665 1.11-2.453 1.727-.86.615-1.68 1.388-2.563 2.13a19.79 19.79 0 0 0-2.493 2.524l-2.366 2.8c-.789.946-1.428 1.971-2.019 3.013l-1.696 3.052a21.23 21.23 0 0 0-1.294 2.982 28.47 28.47 0 0 0-.93 2.744c-.246.764-.449 1.541-.608 2.327a17.86 17.86 0 0 0-.362 1.846l-.269 1.704-4.03-.836z"/><path d="M108.583 252.439l.078-1.807.316-4.803c.368-4.887 1.311-9.713 2.808-14.379a39.96 39.96 0 0 1 3.218-7.099 33.22 33.22 0 0 1 3.944-5.521 26.48 26.48 0 0 1 3.486-3.242c.907-.702 1.451-1.057 1.451-1.057s-.512.41-1.333 1.191a26.18 26.18 0 0 0-3.1 3.518c-1.294 1.778-2.404 3.684-3.312 5.687a38.25 38.25 0 0 0-2.367 7.099c-.982 4.581-1.422 9.261-1.309 13.945 0 1.917.095 3.533.158 4.646l.102 1.782-4.14.04z"/><path d="M108.496 253.78l-.056-7.651c0-4.598.04-10.751.466-16.887a110.94 110.94 0 0 1 2.366-16.714c.497-2.248 1.01-4.086 1.404-5.371l.615-2.011-.441 2.05a68.95 68.95 0 0 0-.939 5.443c-.733 5.521-1.044 11.09-.931 16.658.095 6.066.552 12.123.955 16.674l.702 7.588-4.141.221z"/></g><g class="B"><path d="M121.557 248.203c0-.726-.039-1.396-.102-2.035h-24.68l-.103 2.035a35.99 35.99 0 0 0 5.08 17.692h14.734c3.195-5.358 4.943-11.455 5.071-17.692z"/><path d="M123.34 243.644H94.882v2.531h28.458v-2.531z"/></g><path d="M121.541 247.832c0-.576 0-1.136-.086-1.664h-24.68l-.087 1.664h24.853z" fill="#f2f3f3" style="mix-blend-mode:multiply"/><path d="M583.363 223.121v159.186H475.738V223.121h107.625zm-6.72 142.653v-39.358h-94.185v39.358h94.185zm0-46.93v-39.359h-94.185v39.382l94.185-.023zm0-46.931v-39.366h-94.185v39.374l94.185-.008z" class="H"/><path d="M583.079 382.307L580.09 400.7h-6.894l-2.997-18.393h12.88z" class="E"/><path d="M576.65 326.416h-94.192v39.359h94.192v-39.359zm0-46.931h-94.192v39.359h94.192v-39.359zm0-46.938h-94.192v39.374h94.192v-39.374z" fill="#b7af98"/><path d="M488.626 382.307l-2.997 18.393h-6.886l-3.005-18.393h12.888z" fill="#565490"/><g fill="#f02a60"><use xlink:href="#J"/><path d="M529.546 303.471a4.31 4.31 0 0 0 4.306-4.307 4.31 4.31 0 0 0-4.306-4.307 4.31 4.31 0 0 0-4.307 4.307 4.31 4.31 0 0 0 4.307 4.307z"/></g><use xlink:href="#J" y="93.869" fill="#565490"/><path d="M505.797 166.852h-1.065v27.369h1.065v-27.369z" fill="#a90c37"/><path d="M505.45 203.473c-.356 0-.707-.075-1.032-.221a2.51 2.51 0 0 1-.849-.625 2.5 2.5 0 0 1-.518-.919c-.105-.34-.137-.698-.094-1.051l.789-6.444h3.4l.788 6.444a2.5 2.5 0 0 1-.093 1.049c-.105.339-.28.652-.515.918s-.524.48-.847.626-.674.222-1.029.223zm57.31-25.035h-66.42l11.318-45.676h43.784l11.318 45.676z" class="B"/><path d="M531.148 178.438h-3.195v40.597h3.195v-40.597z" class="E"/><path d="M511.089 216.905h36.914c.784 0 1.536.312 2.091.867s.866 1.307.866 2.091v3.258h-42.836v-3.258c0-.389.076-.774.225-1.134a2.97 2.97 0 0 1 .644-.96c.275-.275.602-.493.962-.641a2.96 2.96 0 0 1 1.134-.223z" fill="#827759"/><path d="M145.835 448.419v22.416h-32.512a11.04 11.04 0 0 1-7.808-3.234c-2.071-2.071-3.235-4.88-3.235-7.808v-80.981c0-7.74 3.075-15.163 8.548-20.636s12.896-8.548 20.636-8.548h14.332v98.791h.039z" class="H"/><path d="M511.784 453.932v16.903h-365.98V343.933c0-2.418.477-4.811 1.403-7.044a18.39 18.39 0 0 1 9.974-9.949c2.236-.921 4.631-1.391 7.048-1.385h329.185a18.38 18.38 0 0 1 18.37 18.378v109.999z" class="E"/><path d="M555.323 450.99v8.818a11.04 11.04 0 0 1-11.043 11.042h-32.496V349.58h14.331c7.74 0 15.163 3.075 20.636 8.548s8.548 12.896 8.548 20.636l.024 72.226zm-43.539-114.637v7.58c0-4.873-1.935-9.546-5.38-12.992a18.38 18.38 0 0 0-12.99-5.386H164.229a18.38 18.38 0 0 0-12.99 5.386c-3.445 3.446-5.38 8.119-5.38 12.992v-7.58a18.37 18.37 0 0 1 18.37-18.362h329.185a18.37 18.37 0 0 1 18.37 18.362z" class="H"/><path d="M555.323 369.97v8.842c0-7.74-3.075-15.163-8.548-20.636s-12.896-8.548-20.636-8.548h-14.355v-8.865h14.331a29.18 29.18 0 0 1 11.181 2.217c3.545 1.466 6.766 3.618 9.479 6.33a29.19 29.19 0 0 1 6.331 9.479 29.2 29.2 0 0 1 2.217 11.181zm-409.488-26.037v5.648h-14.331c-7.74 0-15.163 3.074-20.636 8.547s-8.548 12.896-8.548 20.636v-8.794c0-7.74 3.075-15.163 8.548-20.636s12.896-8.548 20.636-8.548h14.331v3.147z" fill="#cac4b3"/><path d="M511.784 313.211v23.15a18.37 18.37 0 0 0-18.37-18.37H164.229a18.37 18.37 0 0 0-18.37 18.37v-23.15c-.001-4.294.844-8.547 2.487-12.515a32.68 32.68 0 0 1 17.699-17.699c3.968-1.643 8.221-2.488 12.515-2.487h300.522c4.295-.001 8.548.844 12.516 2.487a32.69 32.69 0 0 1 10.61 7.089c3.037 3.036 5.445 6.642 7.089 10.61s2.488 8.221 2.487 12.515z" fill="#827759"/><path d="M154.291 479.653h-16.903v10.286h16.903v-10.286zm365.94 0h-16.903v10.286h16.903v-10.286z" fill="#a3806c"/><path d="M529.546 470.835v8.818H128.064v-8.818h401.482z" fill="#ba947d"/><path d="M400.957 270.43l8.045 3.399 14.04-.875 42.781-2.145c5.593-.158 9.986-.198 12.068 0 9.647.788 14.395 12.517 14.395 12.517-3.366-1.499-6.966-2.403-10.64-2.674-5.198 1.428-63.282 17.708-77.053 17.708-6.728 0-25.84-5.238-41.954-10.033 4.338-10.175 9.986-29.011 9.986-29.011 11.445 4.228 21.659 8.353 28.332 11.114z" class="D"/><path d="M430.74 250.514l6.097.875c10.963 2.241 24.545 7.044 28.978 19.404-12.257.386-30.327 1.396-42.782 2.145.04-.694 1.049-19.324-7.217-23.158v-.323c4.915.088 9.822.425 14.703 1.01l.221.047z" fill="#d12352"/><path d="M438.319 218.042c.332 1.948-1.774 10.734-2.981 11.294s-2.532-.788-2.532-.788c.324-.734.615-1.507.891-2.303.022-.036.04-.073.056-.111.25-.595.45-1.21.599-1.838a40.91 40.91 0 0 0 1.578-7.682s2.05-.529 2.389 1.428z" class="D"/><path d="M436.009 209.531a27.38 27.38 0 0 1 .149 2.761c.004 1.449-.075 2.898-.236 4.338-.278 2.606-.807 5.178-1.578 7.682l-.599 1.838c-.016.038-.034.075-.055.111-2.635 6.396-11.414 16.808-17.873 18.062h-7.58c-6.46-1.254-15.239-11.666-17.889-18.062a.82.82 0 0 1-.055-.111l-.6-1.838c-.771-2.504-1.299-5.076-1.577-7.682-.161-1.44-.24-2.889-.237-4.338a24.23 24.23 0 0 1 4.969-14.663c2.182-2.831 4.997-5.111 8.219-6.657 1.644-.788 3.38-1.371 5.166-1.735 1.799-.363 3.944-.789 5.703 0 .459.436.857.932 1.183 1.475.1-.326.243-.636.426-.923a2.28 2.28 0 0 1 1.136-.663c2.887-.891 6.728.789 9.228 2.169 3.116 1.756 5.802 4.184 7.862 7.108s3.443 6.27 4.048 9.795c.071.458.142.899.19 1.333z" class="N"/><path d="M433.697 226.26l-.891 2.303c-1.725 4.215-4.123 8.123-7.099 11.571v6.617c-3.283-.436-6.587-.699-9.898-.788v-1.625c6.467-1.27 15.246-11.681 17.888-18.078z" class="D"/><path d="M425.716 246.76l3.462.576 1.578 3.155h-.213a145.46 145.46 0 0 0-14.703-1.034v-3.525a94.09 94.09 0 0 1 9.876.828z" class="B"/><path d="M415.84 249.78c8.274 3.834 7.257 22.472 7.217 23.158l-14.04.876-8.045-3.4c0-5.34.749-17.621 7.288-20.642h7.58v.008z" class="N"/><path d="M415.817 249.481v.299h-7.572v-5.458h7.572v5.159z" fill="#263238"/><path d="M393.203 250.435a199.28 199.28 0 0 1 15.033-.962v.307c-6.538 3.021-7.288 15.302-7.288 20.642-6.672-2.761-16.887-6.886-28.332-11.137-2.027-.789-4.101-1.523-6.191-2.264 4.71-2.363 9.728-4.054 14.907-5.024 1.373-.269 2.761-.489 4.141-.679 2.579-.339 5.127-.639 7.73-.883z" fill="#d12352"/><path d="M398.33 246.759a95.18 95.18 0 0 1 9.907-.788v3.486c-5.025.118-10.041.45-15.034.962l1.664-3.1s1.254-.228 3.463-.56z" class="B"/><g class="D"><path d="M408.244 244.322v1.625c-3.313.09-6.62.353-9.906.789v-6.618a42.12 42.12 0 0 1-7.099-11.571l-.891-2.303c2.618 6.413 11.437 16.824 17.896 18.078z"/><path d="M390.356 226.261l.891 2.303s-1.302 1.349-2.516.789-3.329-9.347-2.997-11.295 2.366-1.412 2.366-1.412a40.83 40.83 0 0 0 1.577 7.682c.155.627.356 1.241.6 1.838a.71.71 0 0 0 .079.095z"/></g><path d="M337.557 280.51h-138.97l8.408-20.854a20.92 20.92 0 0 1 7.7-9.502c3.455-2.33 7.528-3.575 11.695-3.576l80.374-4.085c12.344-1.089 37.442 6.554 59.669 14.56l6.192 2.264s-5.648 18.835-9.986 29.01c-.323.789-.639 1.475-.946 2.129l-24.136-9.946z" fill="#f02a60"/><path d="M297.812 206.076c.331 1.956-1.775 10.751-2.982 11.311-.986.449-2.035-.348-2.366-.663.541-1.516 1.005-3.059 1.388-4.622.606-2.435.994-4.919 1.16-7.422.205-.063 2.516-.45 2.8 1.396z" class="D"/><path d="M243.356 204.672c-.761-3.721-1.026-7.527-.788-11.319a12.05 12.05 0 0 1 1.065-4.811 11.83 11.83 0 0 1 3.438-3.691c3.795-2.916 8.064-5.154 12.62-6.618a23.79 23.79 0 0 1 13.796-.615c1.995.481 5.111 1.215 6.649 2.595a3.27 3.27 0 0 0 1.412 1.009c.436.049.877.003 1.293-.134a8.94 8.94 0 0 1 5.009.347c3.612 1.357 6.01 4.954 6.925 8.677s.615 7.674.308 11.523h.079a41.45 41.45 0 0 1-.111 2.998c-.166 2.503-.554 4.987-1.159 7.422-1.783 5.671-8.259 16.303-9.946 17.542s-10.507 2.957-14.758 3.517c-4.236-.56-12.959-2.279-14.647-3.517s-7.485-10.585-9.654-16.438v-.063c-.743-2.735-1.221-5.535-1.428-8.361l-.103-.063z" class="N"/><path d="M292.433 216.725c-1.902 5.444-4.808 10.485-8.566 14.86v7.177a122.67 122.67 0 0 0-14.734-1.057 122.75 122.75 0 0 0-14.702 1.065v-7.178c-3.761-4.379-6.667-9.425-8.566-14.875-.402-1.12-.789-2.28-1.089-3.502 2.169 5.844 8.061 15.278 9.655 16.437s10.411 2.958 14.647 3.518c4.251-.56 13.054-2.279 14.757-3.518s8.164-11.831 9.946-17.542c-.371 1.56-.821 3.1-1.348 4.615z" class="D"/><path d="M283.867 238.77l3.715.536 1.987 4.047-42.143 2.161 3.305-6.192 3.731-.536a122.45 122.45 0 0 1 14.671-1.081 122.68 122.68 0 0 1 14.734 1.065z" class="B"/><path d="M244.776 213.175v.063l1.089 3.502c-.347.324-1.397 1.136-2.367.679-1.214-.56-3.328-9.347-2.997-11.311.308-1.838 2.548-1.467 2.824-1.412v.111a44.22 44.22 0 0 0 1.451 8.368z" class="D"/><g stroke="#fff" stroke-width="2.75"><path d="M346.633 137.85c0 9.913-8.037 17.949-17.95 17.949s-17.949-8.036-17.949-17.949 8.036-17.95 17.949-17.95 17.95 8.037 17.95 17.95z"/><path d="M324.276 130.73v14.918l12.883-7.459-12.883-7.459z" stroke-linejoin="round"/></g><g filter="url(#A)" class="C"><rect x="75.662" y="33.942" width="152.103" height="92.212" rx="10"/></g><path d="M147.078 90.32l.122.017c.907.124 1.799.289 2.482.596a2.57 2.57 0 0 1 1.342 1.272c.515.962.548 2.31.083 3.331-.348.759-1.111 1.396-1.807 1.733-.723.353-1.436.521-2.253.615-1.43.158-2.974-.14-4.26-.766-.761-.374-1.69-1.019-2.159-1.849-.345-.608-.334-1.4.086-1.978.668-.921 2.1-1.124 3.178-1.086.822.032 2.303.288 3.084.568.216.079 1.014.392 1.153.535.098.1.162.245.118.379-.179.549-1.504.839-1.887.897-1.025.158-1.557-.233-2.722-.696-.289-.114-.674-.241-.969-.268-.529-.051-1.168.098-1.269.68-.05.3.299.58.565.698a4.24 4.24 0 0 0 1.748.376c1.817.03 3.859-.271 5.346-1.332.203-.146.403-.36.405-.63.007-.545-.942-.878-.942-.878-1.001-.42-2.851-.625-3.804-.704l-2.951-.274c-.389-.056-.812-.135-1.149-.287s-.669-.499-.767-.88c-.174-.687.048-1.53.427-2.079.993-1.438 3.319-1.984 5.057-2.201 1.682-.211 4.401-.209 6.053.675.255.138.386.266.332.54-.107.516-.492.848-.958.993-.49.157-1.502.218-1.946.246-1.992.112-4.399.053-6.296.574-.149.043-.405.112-.489.206-.297.325.551.417.733.455.054.013.065.015.121.021l4.193.498zm-11.85-8.944l.596-.861c.494-.676 1.389-1.614 2.062-2.194l.449-.378-.595.084c-.511.1-1.26.602-1.635.926-.618.533-1.297 1.399-.99 2.168l.113.255zm3.435.926c.977-.068 1.891-.351 2.742-.826.835-.47 2.063-1.388 1.936-2.466-.039-.349-.266-.613-.552-.736-.373-.163-.567-.136-1.043.006a3.11 3.11 0 0 0-.827.352c-.958.56-2.315 1.759-3.053 2.716l-.477.651c-.085.107-.151.204-.143.231.03.109 1.036.099 1.417.073zm-2.485 1.838c-.101.107-.207.366-.317.553-.06.1-.169.229-.241.281-.254.188-.47.197-.715-.021-.344-.306-.543-.78-.557-1.241-.007-.201.027-.424-.011-.593-.062-.286-.347-.581-.5-.855-.18-.322-.326-.885-.344-1.248-.062-1.132.531-2.174 1.3-2.997.775-.832 1.789-1.523 2.892-1.993 1.042-.442 2.57-.743 3.714-.344.373.129.892.448 1.153.782.055.069.101.145.157.181.051.033.184.045.29.065.365.064.891.342 1.106.528.431.375.667.733.777 1.253.219 1.046-.379 2.194-1.06 2.892-1.167 1.202-2.319 2.047-3.811 2.636-.656.258-1.677.499-2.421.431-.23-.019-.468-.081-.693-.096-.114-.01-.534-.119-.579-.15-.055-.043-.127-.081-.14-.066zm1.333 2.319c.045.008.115.028.176.052.523.2.738.688.867 1.224.299 1.244.426 3.995.476 5.072l.09 2.403c.029.677.082 1.576-.058 2.21-.051.228-.202.493-.419.629-.248.16-.814.172-1.125.108-.766-.16-1.015-.656-1.124-1.419-.26-1.82-.135-5.393.019-6.901.051-.498.237-2.093.495-2.762.088-.226.276-.68.603-.615zm-23.304 3.029l-1.925.169c-.998.108-2.874.434-3.957.824-.324.117-.984.395-1.042.731-.06.349.155.621.394.903.138.164.92.921 1.139 1.105.919.773 2.783 1.965 4.156 2.543l1.252.478-.048-4.44.031-2.313zm20.905.89c.065.601-.088 1.737-.115 1.887-.049.345-.307 1.142-.35 1.239-.209.484-.415.881-.633 1.277a10.56 10.56 0 0 1-1.791 2.212c-1.962 1.708-5 2.681-7.606 3.001-1.769.216-3.801.184-5.675-.166l-1.604-.341s.003.386-.028.658a2.76 2.76 0 0 1-.16.556c-.136.284-.359.43-.685.493-.392.073-.809.098-1.171-.059-.596-.252-.81-.813-.914-1.46l-.172-1.417-.817-.399c-1.141-.566-2.225-1.252-3.173-1.958-.263-.197-1.391-1.149-1.64-1.386-.699-.668-1.327-1.332-1.805-2.185-.372-.666-.479-1.257-.196-1.963.389-.984 1.79-1.724 2.748-2.146.704-.313 2.891-1.032 3.8-1.165l1.135-.209c.017-.013.029-.024.041-.038.021-.03.056-1.004.049-1.36-.009-.35.258-2.65.343-3.137.045-.263.243-1.276.445-1.541.132-.18.365-.165.556-.047 1.042.653 1.359 2.916 1.436 4.067l.069 1.757 1.931-.015c.715.017 1.503.13 2.244.249.95.153 2.801.56 3.863 1.102.874.446 1.692 1.198 1.957 1.994.247.73.21 1.234-.166 1.893-.421.743-1.219 1.296-2.028 1.342-.241.014-1.147-.107-1.426-.325-.109-.087-.104-.243-.025-.349.03-.037.454-.264.704-.396.125-.069.229-.142.327-.232.207-.184.394-.387.373-.625-.028-.309-.352-.499-.661-.621-1.45-.58-4.344-1.061-5.743-1.145l-1.326-.06.164 7.778 1.152.206a29.23 29.23 0 0 0 1.852.164c2.496.066 5.281-.159 7.572-1.247 1.005-.476 1.928-1.07 2.626-1.873.921-1.063 1.403-2.517 1.275-4.037-.139-1.659-1.299-3.629-2.225-4.828-2.446-3.168-6.64-5.775-10.33-7.303-3.766-1.559-7.489-2.456-11.487-2.606-1.03-.038-3.277.014-4.413.33-.162.046-.326.101-.477.135-.119.029-.306.109-.358.151-.028.023-.056.055-.056.055a1.68 1.68 0 0 0 .137.067c.12.053.626.085.888.133.235.044.479.168.576.341.092.165.103.294-.007.431-.257.315-1.226.262-1.652.194-.444-.071-.995-.208-1.097-.596-.117-.458.099-.907.332-1.321.468-.83 1.14-1.262 2.123-1.532 1.396-.387 3.159-.657 4.478-.708 2.984-.114 5.809.412 8.7 1.296 1.655.504 3.822 1.35 5.408 2.119a42.45 42.45 0 0 1 3.939 2.233c.318.211 2.177 1.587 2.466 1.829a30.85 30.85 0 0 1 1.961 1.779c1.104 1.102 2.477 2.791 3.144 4.131.161.321.285.637.492 1.009.071.127.376.89.427 1.11l.134.551c.015.117.156.772.145 1.025zm37.518-1.72c-1.398.325-5.073.505-5.073.505l-.463 1.462s1.836-.158 3.173-.017c0 0 .432-.051.483.495.018.509-.043 1.055-.043 1.055s-.027.33-.492.414c-.504.085-3.959.219-3.959.219l-.559 1.906s-.208.441.258.315c.433-.117 4.053-.801 4.524-.702.506.126 1.065.805.903 1.423-.193.766-3.806 3.087-6.006 2.925 0 0-1.156.075-2.133-1.496-.911-1.497.345-4.333.345-4.333s-.576-1.324-.159-1.772c0 0 .248-.227.971-.278l.886-1.845s-1.009.07-1.609-.677c-.559-.709-.606-1.035-.177-1.231.458-.228 4.659-1 7.549-.902 0 0 1.005-.099 1.876 1.655 0 0 .422.71-.295.88zm-10.872 7.094c-.37.877-1.349 1.814-2.565 1.232-1.2-.583-3.111-4.523-3.111-4.523s-.726-1.469-.865-1.431c0 0-.157-.287-.253 1.319-.1 1.599.019 4.716-.614 5.206-.6.492-1.326.296-1.703-.279-.343-.566-.485-1.912-.298-4.275.219-2.368.766-4.887 1.463-5.671.697-.779 1.257-.214 1.475-.008 0 0 .932.851 2.469 3.349l.271.462s1.397 2.36 1.543 2.355c0 0 .114.109.216.031.146-.042.087-.799.087-.799s-.289-2.572-1.564-6.926c0 0-.192-.543-.062-1.052.129-.514.641-.273.641-.273s1.975 1 2.934 4.238c.952 3.239.312 6.161-.064 7.045zm21.257-1.94c-.9 1.58-3.438 4.888-6.811 4.107-1.114 2.72-2.049 5.472-2.584 9.589 0 0-.118.801-.778.523-.655-.231-1.733-1.327-1.951-2.843-.234-1.991.646-5.357 2.445-9.216-.525-.859-.883-2.086-.576-3.834 0 0 .452-3.245 3.688-6.17 0 0 .388-.337.613-.234.248.105.133 1.161-.064 1.674-.204.511-1.645 3.022-1.645 3.022s-.899 1.697-.646 3.036c1.698-2.628 5.556-7.927 7.948-6.256.803.579 1.173 1.838 1.173 3.195.001 1.192-.285 2.458-.812 3.407zm-.698-4.162s-.134-1.045-1.148.106c-.872.971-2.446 2.791-3.713 5.263 1.329-.15 2.611-.877 2.999-1.246.63-.563 2.098-2.091 1.862-4.123zm19.279-.238h-6.182a49.4 49.4 0 0 0-.775-6.3.46.46 0 0 0-.452-.379h-1.425c-.124 0-.242.056-.322.154s-.112.226-.089.35c.405 2.054.662 4.076.788 6.177h-5.947c-.277 0-.502.226-.502.504v1.294c0 .279.225.506.502.506h6.033l.007.874c0 1.866-.08 3.402-.267 5.137-.015.134.029.267.119.366a.46.46 0 0 0 .344.156h1.322a.5.5 0 0 0 .498-.454c.18-1.746.258-3.302.258-5.204l-.007-.874h6.097c.277 0 .502-.228.502-.506v-1.294c0-.279-.225-.506-.502-.506z" fill="#101c50"/><path d="M118.936 72.068c-.088.131-.109.292-.059.443s.167.265.315.318l1.108.376a.66.66 0 0 0 .199.032c.205 0 .398-.102.512-.274a40.81 40.81 0 0 1 14.208-12.93 40.14 40.14 0 0 1 19.164-4.876c8.081 0 15.877 2.4 22.547 6.941 6.509 4.429 11.563 10.609 14.618 17.871a.58.58 0 0 0 .535.358h1.324a.46.46 0 0 0 .382-.206c.087-.128.103-.291.045-.435a42.74 42.74 0 0 0-15.404-19.246c-7.093-4.896-15.408-7.484-24.047-7.484-14.28 0-27.532 7.146-35.447 19.114z" fill="url(#E)"/><g filter="url(#B)" class="C"><rect x="432.355" y="96.668" width="126.387" height="63.801" rx="10"/></g><g clip-path="url(#G)"><path d="M463.389 138.891c-1.334.231-2.692.301-4.097.486l-4.285-12.404v12.936l-3.816.509v-23.697h3.559l4.87 13.446v-13.446h3.769v22.17zm7.376-13.492l5.01-.069v3.702l-5.01.07v5.508l6.626-.394v3.564l-10.373.81v-21.869h10.373v3.702h-6.626v4.976zm20.557-4.975h-3.887v17.032l-3.746.046v-17.078h-3.886v-3.703h11.519v3.703zm6.087 4.721h5.128v3.702h-5.128v8.401h-3.676v-20.527h10.466v3.702h-6.79v4.722zm12.878 8.863l6.368.324v3.656l-10.114-.486v-20.781h3.746v17.287zm9.529 4.235l3.676.278v-21.8h-3.676v21.522zm20.089-21.522l-4.753 11.27 4.753 12.427-4.215-.671-2.692-6.85-2.739 6.295-4.027-.486 4.823-10.854-4.355-11.131h4.027l2.458 6.225 2.623-6.225h4.097z" fill="#d81f26"/></g><g filter="url(#C)" class="C"><rect x="324.692" y="9.599" width="95.493" height="48.205" rx="10"/></g><g clip-path="url(#H)"><path d="M378.93 43.552h4.832V23.746h-4.832v19.806zm-8.514-5.635c0 .707-.579 1.279-1.294 1.279h-2.81c-.717 0-1.296-.573-1.296-1.279v-7.991h-4.831v8.39c0 3.429 2.219 5.236 5.501 5.236h4.73v-.025c3.022 0 4.832-2.125 4.832-5.211v-8.39h-4.832v7.991zm27.254-7.991v7.991c0 .707-.579 1.279-1.294 1.279h-2.81c-.716 0-1.295-.573-1.295-1.279v-7.991h-4.832v8.39c0 3.429 2.219 5.236 5.501 5.236h4.73v-.025c3.022 0 4.831-2.125 4.831-5.211v-8.39h-4.831zm-46.439 0h-3.098c-1.088 0-1.633.29-1.633.29v-6.47h-4.831v19.806h4.831V35.56c0-.707.58-1.279 1.295-1.279h2.811c.715 0 1.294.573 1.294 1.279v7.992h4.832v-8.611c0-3.621-2.443-5.015-5.501-5.015z" fill="url(#F)"/></g><g filter="url(#D)" class="C"><rect x="29.788" y="194.029" width="144.84" height="75.832" rx="10"/></g><g clip-path="url(#I)"><path d="M102.128 247.112v-.05c.049-.061.135-.098.209-.086h1.059c.074 0 .161.025.21.086v.05h-1.478z" fill="#d1effa"/><g class="F"><path d="M103.606 247.063c-.493-.012-.986-.012-1.478 0l-2.032-.111a35.15 35.15 0 0 1-5.333-.813c-6.047-1.404-11.355-4.224-15.985-8.325-.431-.382-.838-.776-1.256-1.17-.099-.086-.185-.209-.234-.332-.074-.173-.037-.358.086-.493s.32-.185.493-.111a2.64 2.64 0 0 1 .32.16 47.94 47.94 0 0 0 14.311 5.912 52 52 0 0 0 5.135.923c2.476.308 4.976.419 7.464.333a39.4 39.4 0 0 0 4.002-.333 48.39 48.39 0 0 0 9.138-2.081c1.564-.517 3.091-1.108 4.582-1.798a1.03 1.03 0 0 1 .739-.099c.406.099.652.518.554.924a.88.88 0 0 1-.062.16c-.098.185-.234.345-.406.468a27.37 27.37 0 0 1-4.557 2.894 36.07 36.07 0 0 1-9.643 3.264 42.27 42.27 0 0 1-5.837.628zM85.366 222.1l.961-.555a5.5 5.5 0 0 1 2.796-.615c.702.037 1.342.234 1.835.751.468.48.64 1.071.69 1.712a4.61 4.61 0 0 1 .012.418v6.38c0 .554-.074.628-.628.628H89.53c-.099 0-.197 0-.296-.012-.148-.013-.271-.136-.296-.284-.025-.135-.025-.271-.025-.406v-5.702a2.08 2.08 0 0 0-.074-.677c-.099-.382-.443-.653-.837-.678a4.35 4.35 0 0 0-2.118.407c-.099.024-.16.123-.148.221v6.478c0 .123 0 .234-.025.357 0 .173-.136.296-.308.296l-.567.012h-1.305c-.456 0-.554-.111-.554-.566v-5.825a2.82 2.82 0 0 0-.062-.641.93.93 0 0 0-.862-.739 4.34 4.34 0 0 0-2.155.419c-.099.025-.16.135-.135.234v6.564c0 .456-.099.554-.554.554h-1.65c-.431 0-.542-.123-.542-.542v-8.547a1.19 1.19 0 0 1 .037-.295c.049-.148.197-.234.345-.234h1.539c.222 0 .357.135.431.345l.16.517c.123 0 .197-.086.283-.136.677-.418 1.392-.775 2.192-.923a4.67 4.67 0 0 1 1.847 0 2.31 2.31 0 0 1 1.429.96.56.56 0 0 0 .074.087c-.012.012 0 .012.012.037z"/></g><path d="M110.896 228.233l.222-.727 1.7-5.714.074-.222c.061-.221.271-.357.492-.357h1.872c.468 0 .567.136.407.579l-.739 1.958-2.476 6.441c-.024.074-.061.148-.086.222a.6.6 0 0 1-.616.406 36.68 36.68 0 0 0-1.625 0c-.382.012-.604-.16-.739-.505l-.936-2.451-2.229-5.812c-.074-.148-.124-.321-.16-.481-.037-.246.049-.369.295-.369h2.094c.295 0 .431.197.505.455l.418 1.417 1.503 5.148c-.012.012 0 .012.024.012z" class="G"/><g class="F"><path d="M67.164 222.568a.37.37 0 0 0 .209-.148c.222-.221.456-.431.702-.628a3.27 3.27 0 0 1 2.241-.677c.32.012.431.111.456.418l.012 1.269a2.32 2.32 0 0 1-.025.505c-.049.222-.135.308-.357.332-.172.013-.332 0-.505-.012-.825-.074-1.626.086-2.401.345-.172.062-.172.185-.172.32v5.912l-.012.32c-.012.16-.136.283-.296.283-.086.012-.185.012-.271.012h-1.601c-.086 0-.185 0-.271-.012a.33.33 0 0 1-.296-.308c-.012-.098-.012-.197-.012-.295v-8.375c0-.566.062-.628.628-.628h1.182c.32 0 .468.111.554.419l.234.948zm57.611 12.487c.813.024 1.614.074 2.402.283.222.062.431.135.64.234a.83.83 0 0 1 .505.677 4.98 4.98 0 0 1 .037 1.059c-.16 2.106-.813 4.138-1.896 5.949a8.23 8.23 0 0 1-1.429 1.761 1.01 1.01 0 0 1-.394.246c-.234.062-.382-.061-.394-.295.012-.124.037-.247.086-.37l1.182-3.497a12.21 12.21 0 0 0 .419-1.996c.025-.246.037-.492.012-.738a.96.96 0 0 0-.689-.899c-.382-.124-.776-.198-1.182-.222-1.134-.049-2.267 0-3.387.148l-1.49.184c-.161.013-.308 0-.395-.147s-.049-.296.037-.444c.099-.135.222-.258.37-.345.911-.652 1.933-1.046 3.017-1.305a14.67 14.67 0 0 1 2.549-.283z"/></g><path d="M119.616 226.016v4.433c-.025.247-.136.358-.382.37h-1.983c-.246 0-.357-.123-.382-.357-.012-.074-.012-.16-.012-.234v-8.522c.012-.382.111-.493.493-.493h1.773c.382 0 .493.111.493.493v4.31z" class="G"/><g class="F"><path d="M71.967 225.991v-4.372c.012-.295.123-.406.419-.418h1.921c.283 0 .37.086.394.369.012.111.012.209.012.32v8.202c0 .136-.012.271-.025.407-.012.16-.135.271-.296.283-.074.012-.135.012-.209.012h-1.712c-.061 0-.111 0-.172-.012-.172-.012-.32-.148-.333-.32-.012-.099-.012-.197-.012-.296l.012-4.175zm1.429-9.2c.197-.012.394.025.579.087.665.221 1.01.8.948 1.551-.049.641-.53 1.158-1.17 1.257-.271.049-.554.049-.825 0-.702-.136-1.219-.653-1.17-1.54.074-.874.653-1.355 1.638-1.355z"/></g><path d="M118.248 216.791c.247-.024.493.025.727.124.48.184.813.628.837 1.145.099 1.121-.652 1.687-1.65 1.663-.135 0-.271-.025-.406-.05-.764-.184-1.158-.776-1.084-1.625.061-.678.591-1.183 1.318-1.244.086-.013.172-.025.258-.013z" class="G"/><path d="M62.743 224.981a5.61 5.61 0 0 0-.48-1.847c-.505-1.059-1.281-1.835-2.463-2.106-1.355-.296-2.574 0-3.682.825a1 1 0 0 1-.259.185c-.025-.013-.049-.025-.049-.037l-.098-.37c-.099-.308-.222-.418-.554-.418h-1.121c-.283-.013-.542.024-.739.246l.012 12.931c.16.259.406.308.69.296h1.33c.776 0 .776 0 .776-.764v-3.51c0-.086-.037-.185.049-.258a4.14 4.14 0 0 0 2.143.849c1.084.111 2.069-.16 2.894-.899.603-.554 1.047-1.268 1.281-2.056.333-1.01.357-2.032.271-3.067zm-2.943 2.549a1.9 1.9 0 0 1-.566.986c-.32.271-.714.431-1.133.431-.628.037-1.244-.099-1.798-.394a.35.35 0 0 1-.209-.345v-4.446c-.012-.173.086-.32.246-.382.677-.32 1.379-.468 2.118-.32.517.074.961.406 1.17.887a3.44 3.44 0 0 1 .32 1.256c.074.788.074 1.576-.148 2.327z" class="F"/><g class="G"><path d="M151.845 225.252v.049c-.049-.049-.074-.123-.049-.185v-.234h.024c0-.012-.012-.012-.012-.025a4.24 4.24 0 0 0-.135-.689c-.456-1.626-1.478-2.697-3.141-3.116-.776-.185-1.564-.209-2.352-.086-1.663.246-2.857 1.133-3.436 2.709-.567 1.503-.554 3.153.012 4.655.493 1.367 1.478 2.229 2.894 2.587.752.184 1.54.234 2.316.123 2.586-.308 3.657-2.266 3.83-3.966h-.012v-.172c-.013-.074-.025-.136.049-.185v.025c0-.013.012-.037.024-.05v-1.416c0-.012-.012-.012-.012-.024zm-2.956 2.339a2.26 2.26 0 0 1-.344.715c-.271.382-.702.628-1.17.665-.234.024-.468.024-.702-.025a1.58 1.58 0 0 1-1.158-.923c-.185-.382-.296-.801-.333-1.22-.061-.726-.073-1.453.099-2.167a2.79 2.79 0 0 1 .332-.813c.271-.443.739-.727 1.257-.764.234-.024.468-.024.702.025.492.099.899.419 1.12.874.21.431.333.912.357 1.392l.013.665a4.49 4.49 0 0 1-.173 1.576zm-18.633-10.713h-1.712c-.468 0-.554.086-.554.554v3.99c0 .087.037.173-.025.259-.111-.012-.172-.086-.258-.136-1.281-.751-2.624-.886-3.978-.258-.949.443-1.54 1.244-1.922 2.192-.369.911-.455 1.872-.431 2.845 0 .911.21 1.81.616 2.623.468.899 1.146 1.589 2.131 1.884 1.342.419 2.598.21 3.744-.64.086-.049.135-.136.246-.16a1.7 1.7 0 0 1 .135.431c.05.197.222.332.432.332h1.601c.344 0 .443-.11.455-.468v-12.98c-.012-.382-.111-.468-.48-.468zm-2.254 9.064v2.242c.025.147-.061.283-.197.344-.591.333-1.268.468-1.933.37-.567-.062-1.06-.407-1.318-.912a3.41 3.41 0 0 1-.345-1.243c-.099-.776-.037-1.564.148-2.316a2.79 2.79 0 0 1 .246-.603 1.59 1.59 0 0 1 1.293-.825c.653-.062 1.306.061 1.897.332.148.049.234.197.221.357l-.012 2.254z"/></g><path d="M96.154 226.791a8.18 8.18 0 0 0 2.796.037 4.52 4.52 0 0 0 1.539-.492c.555-.32.961-.764 1.133-1.38.431-1.551-.234-3.115-1.847-3.694-.788-.259-1.626-.345-2.451-.234-1.946.221-3.214 1.293-3.793 3.153-.406 1.268-.357 2.561-.025 3.842.431 1.638 1.515 2.611 3.153 2.956.936.209 1.884.172 2.82.024a7.43 7.43 0 0 0 1.454-.394c.283-.111.431-.283.418-.603v-.912c0-.369-.147-.48-.504-.394l-1.06.234c-.764.16-1.552.16-2.315.025-1.047-.209-1.724-1.108-1.663-2.217l.345.049zm-.308-1.884c.037-.295.123-.579.234-.85.369-.899 1.145-1.207 1.933-1.157a1.98 1.98 0 0 1 .653.148c.32.135.53.431.566.775.037.21.025.431-.037.641-.148.443-.505.628-.936.714-.259.062-.529.086-.8.062a9.61 9.61 0 0 1-1.453-.111c-.185-.025-.185-.025-.16-.222z" class="F"/><path d="M137.694 226.915c.715-.049 1.429-.185 2.069-.53.653-.32 1.109-.923 1.244-1.637a3.36 3.36 0 0 0-.012-1.355c-.259-1.109-.961-1.798-2.02-2.155-.591-.185-1.219-.259-1.835-.234-2.069.049-3.645 1.096-4.286 3.165-.431 1.367-.369 2.758.05 4.125.431 1.404 1.416 2.254 2.82 2.636.603.148 1.232.209 1.847.185.899-.013 1.798-.185 2.648-.505.357-.136.443-.259.443-.641v-.886c-.012-.358-.16-.481-.517-.395l-.8.198c-.825.197-1.688.234-2.525.086-.837-.16-1.404-.641-1.626-1.478-.061-.246-.11-.493-.135-.751.062 0 .123 0 .172.024.813.148 1.638.21 2.463.148zm-2.573-1.97c.086-.481.197-.949.492-1.343.456-.603 1.084-.776 1.798-.702.062 0 .111.025.173.025.862.135 1.071.825.911 1.49-.123.493-.53.677-.985.764a3.18 3.18 0 0 1-.764.061 11.88 11.88 0 0 1-1.49-.123c-.111-.012-.16-.062-.135-.172z" class="G"/></g><defs><filter id="A" x="46.662" y="24.942" width="210.103" height="150.212" filterUnits="userSpaceOnUse" class="I"><feFlood result="A" class="J"/><feColorMatrix in="SourceAlpha" values="0 0 0 0 0 0 0 0 0 0 0 0 0 0 0 0 0 0 127 0"/><feOffset dy="20"/><feGaussianBlur stdDeviation="14.5"/><feColorMatrix values="0 0 0 0 0.1375 0 0 0 0 0.1375 0 0 0 0 0.1375 0 0 0 0.07 0"/><feBlend in2="A"/><feBlend in="SourceGraphic"/></filter><filter id="B" x="403.355" y="87.668" width="184.387" height="121.801" filterUnits="userSpaceOnUse" class="I"><feFlood result="A" class="J"/><feColorMatrix in="SourceAlpha" values="0 0 0 0 0 0 0 0 0 0 0 0 0 0 0 0 0 0 127 0"/><feOffset dy="20"/><feGaussianBlur stdDeviation="14.5"/><feColorMatrix values="0 0 0 0 0.1375 0 0 0 0 0.1375 0 0 0 0 0.1375 0 0 0 0.07 0"/><feBlend in2="A"/><feBlend in="SourceGraphic"/></filter><filter id="C" x="295.692" y=".599" width="153.493" height="106.205" filterUnits="userSpaceOnUse" class="I"><feFlood result="A" class="J"/><feColorMatrix in="SourceAlpha" values="0 0 0 0 0 0 0 0 0 0 0 0 0 0 0 0 0 0 127 0"/><feOffset dy="20"/><feGaussianBlur stdDeviation="14.5"/><feColorMatrix values="0 0 0 0 0.1375 0 0 0 0 0.1375 0 0 0 0 0.1375 0 0 0 0.07 0"/><feBlend in2="A"/><feBlend in="SourceGraphic"/></filter><filter id="D" x=".788" y="185.029" width="202.84" height="133.832" filterUnits="userSpaceOnUse" class="I"><feFlood result="A" class="J"/><feColorMatrix in="SourceAlpha" values="0 0 0 0 0 0 0 0 0 0 0 0 0 0 0 0 0 0 127 0"/><feOffset dy="20"/><feGaussianBlur stdDeviation="14.5"/><feColorMatrix values="0 0 0 0 0.1375 0 0 0 0 0.1375 0 0 0 0 0.1375 0 0 0 0.07 0"/><feBlend in2="A"/><feBlend in="SourceGraphic"/></filter><linearGradient id="E" x1="195.095" y1="70.75" x2="120.407" y2="60.723" gradientUnits="userSpaceOnUse"><stop stop-color="#101c50"/><stop offset=".236" stop-color="#0d267a"/><stop offset=".497" stop-color="#085aa4"/><stop offset=".655" stop-color="#058bbf"/><stop offset="1" stop-color="#b1ffff"/></linearGradient><linearGradient id="F" x1="372.085" y1="23.746" x2="372.085" y2="43.552" gradientUnits="userSpaceOnUse"><stop stop-color="#a5cd39"/><stop offset=".248" stop-color="#a1ca3a"/><stop offset=".504" stop-color="#95c33d"/><stop offset=".764" stop-color="#81b941"/><stop offset="1" stop-color="#66ae45"/></linearGradient><clipPath id="G"><path transform="translate(451.191 116.721)" d="M0 0h88.714v23.698H0z" class="C"/></clipPath><clipPath id="H"><path transform="translate(341.669 23.746)" d="M0 0h60.832v19.806H0z" class="C"/></clipPath><clipPath id="I"><path transform="translate(53.297 216.779)" d="M0 0h98.561v30.333H0z" class="C"/></clipPath><path id="J" d="M529.546 256.54c2.378 0 4.306-1.928 4.306-4.307s-1.928-4.306-4.306-4.306-4.307 1.928-4.307 4.306a4.31 4.31 0 0 0 4.307 4.307z"/></defs></svg>