<svg xmlns="http://www.w3.org/2000/svg" xmlns:xlink="http://www.w3.org/1999/xlink" width="245" height="360" fill="none" xmlns:v="https://vecta.io/nano"><g clip-path="url(#A)"><use xlink:href="#B" fill="#fcd8cf"/><use xlink:href="#B" fill="#ffa28a"/><path d="M93.581 148.941s-30.685 2.701-46.835 15.666-25.302 44.84-25.302 44.84L.5 281.502 39.5 317l1.5 42.5h196.937L245.5 297l-7.563-96s-8.437-30.99-38.761-47.197c-26.987-8.261-37.145-7.023-37.145-7.023s-11.844 22.149-31.762 23.23-36.688-21.069-36.688-21.069z" fill="#a12b52"/><path d="M133.95 24.012c23.644 6.8 22.106 23.333 22.106 23.333s.974 9.764-.312 24.969c1.138-1.486 2.761-2.518 4.582-2.914a7.84 7.84 0 0 1 5.368.751c7.962 3.955.554 29.482-11.714 26.575-.918 7.192-4.327 15.758-5.352 17.653-3.871 7.166-19.774 17.554-33.431 18.556s-30.76-9.485-31.17-25.609c-.574-22.341 8.285-83.339 8.285-83.339s2.486-11.235 41.639.026z" fill="#ffa68a"/><path d="M84.623 95.05c.257 9.732 7.459 15.367 7.972 6.403s18.767-5.89 18.767-5.89c27.51-3.329 21.856 10.756 28.271 9.481 5.305-1.056 7.983-17.456 8.738-23.162l.802-20.683c-2.531-1.499-4.469-3.819-5.49-6.572 0 0-.591-12.257.139-19.976-12.187 1.245-59.287 4.861-57.946-13.768C87.42-.512 101.175 3.98 105.158 0a12.64 12.64 0 0 1-2.297 3.749c2.287-.553 5.459-.825 9.879-.415 0 0-4.754 2.049-6.944 5.122 0 0 7.196-6.146 14.526-3.97 0 0-4.498.896-4.883 2.689s13.113 2.305 23.398-1.665c6.79-2.622 22.242-1.024 22.617 10.121 5.783-.896 10.455 6.193 10.543 12.682.195 14.383-7.978 41.611-7.978 41.611-6.528-.041-7.885 5.347-7.885 5.347l-1.403 11.064c0 .512.046 1.025.072 1.537 3.084 64.819-48.318 55.83-64.767 46.882S84.623 95.05 84.623 95.05z" fill="#263238"/><g opacity=".6"><path opacity=".6" d="M84.257 80.309a17.1 17.1 0 0 1 .797-2.944 8.82 8.82 0 0 1 1.475-2.701 3.63 3.63 0 0 1 1.244-.983c.507-.229 1.075-.282 1.615-.151.521.13 1.009.369 1.432.702.211.157.415.324.608.503l.587.589v.081l.829 5.672.775 5.678v.173l-.162.076c-.764.338-1.497.743-2.191 1.21-.343.233-.662.499-.953.794a2.16 2.16 0 0 0-.608 1.005c-.041.192-.035.39.019.579s.152.361.288.502a3.61 3.61 0 0 0 .98.745c.757.382 1.548.689 2.363.918a11.46 11.46 0 0 1-2.439-.767c-.398-.179-.762-.426-1.077-.729-.169-.162-.296-.364-.37-.587s-.09-.461-.05-.693c.102-.447.326-.856.646-1.183a6.69 6.69 0 0 1 .974-.875 12.78 12.78 0 0 1 2.229-1.324l-.135.243-.84-5.672-.786-5.678.059.13a5.27 5.27 0 0 0-2.336-1.653 2.08 2.08 0 0 0-1.357.081 3.28 3.28 0 0 0-1.147.848c-.645.765-1.164 1.627-1.54 2.555a20.04 20.04 0 0 0-.931 2.858z" fill="#b6b6b6"/></g><path d="M129 104l-33 .566s13.115 14.847 33-.566z" fill="#fff"/><path opacity=".1" d="M118.303 129.587c28.386-14.125 27.235-43.743 25.005-73.479-.463-6.264 1.475-15.605.514-21.807 4.984-9.162 4.573-16.607 3.407-26.129A50.1 50.1 0 0 0 146.53 4c6.921.242 14.655 3.35 14.927 11.222 5.781-.899 10.452 6.212 10.54 12.723.185 13.807-7.287 39.406-7.929 41.58.633.15 1.248.369 1.834.653 7.837 3.864.812 28.426-11.094 26.555-1.963 55.063-49.166 46.559-64.803 38.024-1.972-1.076-3.681-2.574-5.005-4.388 7.821 1.192 25.261 3.222 33.303-.781z" fill="#070a0b"/><path d="M210.102 289.521l-7.369 4.791c-2.257 1.395-3.614 3.929-3.639 6.626l-.053 8.788c.032 3.585-2.519 6.728-5.965 7.635l-8.543 2.105c-2.588.656-4.664 2.518-5.517 5.063l-2.847 8.282c-1.202 3.404-4.523 5.586-8.191 5.235l-8.746-.752c-2.645-.232-5.245.925-6.881 3.009l-5.388 6.935c-2.213 2.784-6.144 3.776-9.4 2.355l-8.041-3.569a7.83 7.83 0 0 0-7.501.624l-7.369 4.791c-3.063 1.936-7.022 1.637-9.654-.792l-6.457-5.944c-1.93-1.854-4.643-2.473-7.248-1.913l-8.543 2.104c-3.543.924-7.141-.736-8.904-3.916l-4.17-7.743c-1.221-2.379-3.585-3.857-6.23-4.089l-8.746-.752c-3.553-.271-6.545-3.036-7.062-6.535l-1.421-8.628c-.46-2.612-2.15-4.808-4.56-5.979l-8.041-3.569a7.91 7.91 0 0 1-4.598-8.466l1.481-8.641c.448-2.572-.436-5.309-2.445-7.05l-6.457-5.944c-2.632-2.428-3.331-6.395-1.575-9.497l4.246-7.732c1.293-2.322 1.301-5.117.081-7.495l-4.17-7.744c-1.831-3.567-1.216-7.466 1.454-9.932l6.467-5.928c1.995-1.748 2.929-4.407 2.451-7.115l-1.421-8.628c-.631-3.579 1.366-7.023 4.612-8.494l8.093-3.521c2.423-1.026 4.236-3.241 4.667-5.91l1.481-8.641c.569-3.591 3.61-6.222 7.158-6.549l8.799-.653c2.674-.172 4.995-1.779 6.288-4.101l4.246-7.732c1.739-3.199 5.374-4.738 8.933-3.869l8.499 2.192c2.667.926 5.45.236 7.428-1.609l6.467-5.928c2.67-2.466 6.624-2.764 9.673-.808l7.354 4.788c2.267 1.496 5.009 1.71 7.53.667l8.092-3.521c3.344-1.488 7.228-.477 9.345 2.442l5.33 6.94c1.672 2.099 4.179 3.253 6.853 3.081l8.782-.75c3.548-.327 6.94 1.868 8.057 5.362l2.763 8.291c.85 2.543 2.893 4.477 5.509 5.113l8.5 2.192c3.461.886 5.921 4.043 5.952 7.629l-.053 8.787c-.025 2.698 1.31 5.156 3.559 6.555l7.355 4.788c3.049 1.956 4.314 5.723 3.112 9.127l-2.944 8.299c-.853 2.545-.473 5.271 1.199 7.37l5.428 6.923c2.197 2.805 2.199 6.794-.094 9.692l-5.502 6.856c-1.635 2.084-2.146 4.867-1.297 7.41l2.861 8.274c1.231 3.573-.018 7.285-3.064 9.318z" fill="#fff"/><g fill="#fd3e72"><path d="M127.418 307.392c29.828-5.259 49.762-33.605 44.524-63.312s-33.665-49.525-63.493-44.265-49.762 33.605-44.524 63.312 33.665 49.525 63.493 44.265zm-76.569-99.115l12.934 6.896-1.356 2.533-8.063-4.264 3.88 6.099-.91 1.657-7.279.186 8.063 4.264-1.356 2.534-13.014-6.783 1.356-2.533 9.501-.08-5.289-7.845 1.533-2.664zm16.749 1.835c-.92.461-1.794.616-2.783.69s-1.834-.175-2.793-.505-1.759-.887-2.592-1.638-1.376-1.553-1.838-2.469-.713-1.769-.689-2.771c-.056-.888.081-1.81.511-2.783.332-.956.876-1.85 1.648-2.585.755-.831 1.561-1.372 2.384-1.817.92-.461 1.794-.615 2.783-.69a5.91 5.91 0 0 1 2.793.505c.96.33 1.856.87 2.592 1.638.834.75 1.473 1.536 1.838 2.469.462.916.633 1.883.689 2.771s-.179 1.827-.511 2.783-.893 1.754-1.647 2.585c-.578.7-1.464 1.355-2.384 1.817zm1.478-5.248c.206-.535.298-1.15.196-1.731s-.205-1.16-.501-1.707a7.43 7.43 0 0 0-1.181-1.587c-.702-.574-1.387-1.052-2.216-1.205-.845-.25-1.542-.227-2.302.007s-1.389.644-1.983 1.247-.961 1.367-1.116 2.192-.116 1.616.215 2.356c.234.757.759 1.462 1.364 2.054s1.387 1.052 2.216 1.205c.845.25 1.542.227 2.4-.024s1.486-.661 2.081-1.265a7.41 7.41 0 0 0 .83-1.542zm9.663-22.453l8.245 12.112-2.515 1.641-10.805-4.479 5.421 8.022-2.418 1.623-8.245-12.112 2.418-1.623 11.017 4.541-5.552-8.198 2.435-1.527zm4.955-2.569l8.676-3.624 1.026 2.412-6.075 2.468 1.374 3.249 4.864-1.955 1.009 2.316-4.846 2.051 1.26 3.17 6.447-2.633 1.026 2.412-9.144 3.807-5.616-13.673zm24.824-7.47l-3.116 9.028 1.321 6.35-2.897.611-1.321-6.351-6.449-7.042 3.286-.679 4.03 4.676 1.781-5.8 3.366-.793zm19.903 8.361c.525.706.661 1.48.638 2.481.005.598-.201 1.133-.424 1.571a4.21 4.21 0 0 1-.978 1.27c-.434.376-.904.558-1.566.775s-1.36.24-2.074.166l-6.085-.423.927-14.628 5.353.254c1.525.13 2.696.522 3.512 1.176s1.182 1.587 1.078 2.702c-.012.501-.138.923-.281 1.247-.126.421-.464.78-.801 1.139s-.806.541-1.372.74c.96.33 1.645.808 2.073 1.53zm-3.699 3.445c.388-.068.743-.33 1-.575s.4-.569.429-.973c-.005-.598-.187-1.065-.547-1.4-.457-.319-1.011-.62-1.919-.659l-2.337-.187-.243 3.734 2.24.203c.502.012.988-.074 1.377-.143zm-3.395-6.184l2.126.124c.405.028.794-.04 1.085-.092s.646-.313.806-.541c.258-.245.401-.569.332-.956.046-.308-.022-.694-.153-.871-.148-.273-.377-.432-.719-.671-.326-.142-.846-.25-1.348-.261l-1.931-.158-.198 3.426zm18.076 8.782l-5.461-1.431-1.745 2.602-2.941-.778 9.066-12.77 2.73.715 1.547 15.588-2.942-.778-.254-3.148zm-.17-2.663l-.474-6.101-3.41 5.09 3.884 1.011zm8.037 8.658c-.588-.495-1.096-1.103-1.41-1.746-.41-.626-.644-1.383-.763-2.06-.137-.774-.159-1.468-.021-2.39.155-.826.407-1.668.853-2.545.366-.763.847-1.446 1.344-2.032s1.11-1.094 1.755-1.407c.629-.41 1.389-.644 2.069-.764s1.474-.16 2.4-.024 1.673.403 2.553.847a5.27 5.27 0 0 1 1.713 1.194c.491.512.982 1.024 1.409 1.746s.759 1.463.896 2.237l-2.686.673c-.12-.678-.433-1.321-.844-1.946s-.982-1.024-1.65-1.405c-.326-.142-.651-.284-.96-.33l-1.022-.119c-.309-.045-.697.023-.989.075s-.662.216-.937.365-.548.296-.806.541-.514.489-.755.831-.48.683-.623 1.008c-.366.763-.619 1.605-.579 2.396s.273 1.548.684 2.174 1.015 1.217 1.781 1.581c.651.284 1.382.455 2.079.431s1.474-.16 2.12-.473l1.06 2.606c-1.017.478-1.988.65-3.188.662s-2.239-.204-3.347-.807c-.863-.346-1.548-.824-2.136-1.319zm15.64 2.928l-2.217.49-2.631 3.257-2.318-1.785 9.191-11.496 2.318 1.785-4.01 5.096 8.075-1.922 2.906 2.281-8.303 1.763-.66 9.892-2.791-2.201.44-7.16zM74.4 320.83c-.639-.785-.987-1.621-1.238-2.475s-.324-1.838-.089-2.777c.121-1.019.55-1.992 1.174-3 .543-.894 1.218-1.611 2.007-2.249s1.629-.986 2.486-1.237 1.846-.325 2.788-.092c1.022.119 1.999.545 2.896 1.085a8.45 8.45 0 0 1 2.386 2.173c.656.882 1.038 1.912 1.323 2.959l-2.64.365a5.15 5.15 0 0 0-2.38-3.271 5.91 5.91 0 0 0-1.611-.614c-.52-.107-1.12-.101-1.686.098-.583.103-1.034.382-1.566.775s-.949.866-1.332 1.532c-.464.78-.733 1.525-.79 2.334a4.78 4.78 0 0 0 .409 2.321c.33.739.936 1.332 1.718 1.792.897.54 1.953.853 2.959.875l1.087-1.788-2.804-1.7 1.327-2.129 5.168 3.179-3.261 5.363c-.874.154-1.8.018-2.839-.198s-2.016-.642-3.027-1.262c-1.222-.682-1.941-1.353-2.466-2.059zm14.774 7.67c-.588-.495-.999-1.121-1.312-1.764s-.45-1.417-.489-2.208.196-1.73.528-2.686l2.88-8.089 2.782 1.006-2.898 7.992c-.286.649-.378 1.264-.276 1.844.005.598.205 1.161.484 1.61s.736.768 1.37.956c.862.346 1.639.209 2.365-.218s1.287-1.224 1.699-2.294l2.818-7.879 2.782 1.006-2.881 8.089c-.395 1.167-1.019 2.175-1.791 2.909s-1.595 1.179-2.663 1.368c-.971.171-2.091.069-3.262-.323-.765-.364-1.547-.824-2.136-1.319zm20.759 2.423l-5.553-.816-1.419 2.743-2.987-.47 7.518-13.595 2.776.408 3.181 15.2-2.987-.471-.529-2.999zm-.558-2.595l-1.058-5.998-2.758 5.374 3.816.624zm15.729 5.706l-3.463-4.876-1.686.098.173 4.957-2.885.11-.662-14.547 5.559-.282c.891-.057 1.605.016 2.256.301a4.35 4.35 0 0 1 1.662.904c.377.432.771.961.97 1.524s.319 1.241.438 1.918c.04.791-.052 1.406-.241 2.038a2.99 2.99 0 0 1-.944 1.463c-.434.376-.966.769-1.532.968l3.806 5.115-3.451.309zm-5.284-7.248l1.994-.052c.891-.058 1.554-.274 1.989-.65s.623-1.008.601-1.702-.319-1.241-.776-1.559c-.473-.415-1.107-.603-1.999-.546l-2.188.087.379 4.422zm20.234 1.72l-5.468 1.363-.266 3.039-2.977.725 1.796-15.379 2.685-.673 8.691 12.931-2.978.725-1.483-2.731zm-1.397-2.248l-3.304-5.103-.548 5.982 3.852-.879zm14.65-15.75l6.228 13.166-2.681 1.271-9.959-5.925 4.146 8.745-2.583 1.254-6.228-13.166 2.584-1.254 10.09 6.101-4.278-8.921 2.681-1.271zm5.828-1.028l-3.287 2.375-1.575-2.117 8.861-6.549 1.575 2.116-3.287 2.375 7.104 9.62-2.303 1.703-7.088-9.523zm4.948-7.157l6.427-6.719 1.913 1.757-4.483 4.681 2.534 2.446 3.648-3.736 1.816 1.775-3.648 3.735 2.42 2.367 4.82-5.04 1.913 1.758-6.765 7.078-10.595-10.102zm7.84-8.365l5.251-7.709 2.152 1.416-3.649 5.432 2.952 1.973 2.946-4.31 2.152 1.416-2.945 4.31 2.837 1.894 3.89-5.773 2.153 1.415-5.474 8.148-12.265-8.212z"/></g><g fill="#fff"><path d="M112.372 257.279c1.473 1.536 2.414 3.464 2.823 5.786s.202 4.553-.754 6.517c-.938 2.061-2.351 3.706-4.317 5.051s-4.31 2.256-6.933 2.718c-3.594.634-6.856.311-9.768-.871s-5.151-3.082-6.697-5.602l6.659-4.266c1.712 2.89 4.413 4.009 8.007 3.376 1.749-.309 3.12-1.049 4.098-2.319s1.34-2.63 1.05-4.275a5.28 5.28 0 0 0-2.448-3.658c-1.354-.858-3.187-1.034-5.324-.657l-3.011.531-1.177-6.675 3.691-.651c1.749-.308 3.023-1.032 3.743-2.057s.985-2.368.746-3.722c-.256-1.451-.963-2.623-2.202-3.402s-2.587-1.04-4.142-.766c-2.72.479-4.555 2-5.505 4.561l-7.219-2.318c.579-2.396 1.923-4.429 3.919-6.177 2.093-1.765 4.596-2.905 7.607-3.436a18.9 18.9 0 0 1 5.382-.151c1.737.192 3.216.63 4.649 1.375 1.337.762 2.513 1.751 3.431 2.986.936 1.331 1.598 2.81 1.905 4.552.358 2.031.179 3.858-.405 5.657s-1.722 3.296-3.283 4.669l.034.193c2.096.528 3.969 1.495 5.442 3.031zm19.705 13.482c-2.211-.608-4.101-1.671-5.882-3.252s-3.242-3.618-4.48-6.093-2.172-5.503-2.752-8.792c-.563-3.192-.669-6.066-.369-8.912s.992-5.163 2.011-7.337c1.036-2.078 2.528-3.838 4.381-5.262s4.001-2.301 6.526-2.746c2.429-.429 4.748-.339 6.862.286 2.21.608 4.1 1.671 5.881 3.252s3.242 3.618 4.48 6.093 2.172 5.502 2.752 8.792c.751 4.256.719 8.052.019 11.468s-2.199 6.273-4.32 8.442-4.865 3.651-8.168 4.233c-2.508.542-4.731.435-6.941-.172zm10.727-11.867c.951-2.561 1.034-6.067.266-10.421-.75-4.256-2.01-7.426-3.797-9.605s-3.95-3.093-6.379-2.665-4.166 1.931-5.1 4.59c-.95 2.561-1.13 6.084-.363 10.438.495 2.805 1.213 5.173 2.154 7.101s2.185 3.306 3.556 4.261c1.353.859 2.912 1.182 4.466.908 2.509-.542 4.15-2.028 5.197-4.607zM109.2 204.072l3.28 6.105 6.896-1.216-4.985 4.67 3.245 5.911-6.253-3.087-4.934 4.96 1.045-6.568-6.185-2.7 6.897-1.216.994-6.859zm19.003 5.528l2.276 4.386 4.954-.873-3.556 3.121 2.339 4.176-4.512-2.297-3.585 3.525.804-4.531-4.409-1.716 4.954-.874.735-4.917zm-34.97 6.166l2.276 4.386 4.954-.873-3.556 3.121 2.339 4.176-4.511-2.297-3.585 3.525.804-4.531-4.409-1.716 4.954-.874.735-4.917zm13.562 80.66l3.747-.661c.884-.156 1.669-.429 2.344-.833.675-.397 1.209-.88 1.615-1.459a5 5 0 0 0 .819-1.969c.14-.731.146-1.509.001-2.333-.144-.815-.417-1.552-.816-2.196s-.888-1.168-1.475-1.572-1.27-.681-2.042-.83-1.597-.147-2.466.006l-3.701.653 1.974 11.194zm1.836-2.362l-1.275-7.233 1.562-.275c.661-.117 1.282-.06 1.867.155a3.26 3.26 0 0 1 1.459 1.075c.39.502.654 1.099.776 1.791a3.98 3.98 0 0 1-.01 1.469c-.091.477-.271.897-.521 1.274s-.592.692-1.006.955c-.422.265-.898.444-1.429.538l-1.423.251zm16.267-.83l2.316-.408-6.136-10.461-2.139.377-2.173 11.926 2.316-.408.367-2.374 4.293-.757 1.156 2.105zm-5.144-3.353l.717-4.656.016-.003 2.275 4.129-3.008.53zm11.78-9.36L130 285.004l-.031.006-2.998-3.684-2.539.448 4.808 5.625.867 4.917 2.239-.395-.867-4.917 2.617-6.934-2.562.451zm9.144 10.065c.377-.066.74-.17 1.096-.312.348-.14.678-.334.992-.579s.583-.516.799-.823.366-.668.459-1.089c.084-.419.093-.865.009-1.342a3.36 3.36 0 0 0-.43-1.178c-.328-.513-.881-.9-1.641-1.162-.336-.107-.998-.26-1.994-.466l-.749-.153-.56-.163c-.186-.063-.333-.132-.434-.209-.108-.076-.195-.164-.262-.271a.87.87 0 0 1-.143-.364c-.061-.346.021-.646.232-.89s.516-.4.916-.471c.724-.127 1.604.098 2.633.671l.983-1.895c-1.33-.749-2.667-.998-4.018-.743-.659.132-1.241.385-1.738.758-.506.375-.869.836-1.099 1.376-.236.549-.295 1.115-.192 1.7.052.292.131.564.247.813a3.18 3.18 0 0 0 .39.637c.143.181.322.34.53.486s.412.268.618.359a5.18 5.18 0 0 0 .705.264l.739.187.771.142.778.141c.199.044.391.097.576.16a1.74 1.74 0 0 1 .443.215 1.23 1.23 0 0 1 .275.301 1.32 1.32 0 0 1 .154.425c.042.238.017.457-.068.647a1.2 1.2 0 0 1-.473.511c-.228.151-.512.249-.858.31-.231.041-.466.059-.707.038-.248-.012-.502-.055-.761-.128-.257-.066-.521-.17-.793-.312-.269-.135-.529-.304-.771-.507l-1.042 1.874a5.73 5.73 0 0 0 2.141.986c.752.169 1.501.188 2.247.056z"/></g><g fill="#fd3e72"><path d="M47.237 270.16c2.521-.445 4.207-2.841 3.764-5.352s-2.846-4.187-5.367-3.742a4.63 4.63 0 0 0-3.764 5.352c.442 2.511 2.846 4.186 5.367 3.742zm144.735-25.521c2.521-.444 4.206-2.84 3.763-5.352s-2.845-4.186-5.367-3.741-4.206 2.84-3.764 5.351 2.846 4.187 5.368 3.742z"/></g><g fill="#ffa68a"><path d="M15.712 276.684s36.863-29.406-6.732-6.784c0 0-12.125 8.239-3.369 13.164 0 0-3.276 7.666 4.426 8.269 0 0-1.265 8.569 7.345 7.154 0 0-4.083 10.44 10.079 4.53s32.799-24.089-.282-10.563c0 0 42.819-25.936-4.974-8.234l15.502-10.157c6.541-4.311 5.832-10.538-2.927-6.575-4.527 2.045-12.385 5.565-19.067 9.196zm176.407 50.814s-35.757-30.914-5.393 7.886c0 0 10.375 10.435 13.539.916 0 0 8.123 1.817 7.271-5.882 0 0 8.633-.337 5.632-8.548 0 0 10.999 2.103 2.545-10.764s-29.779-27.89-10.307 2.208c0 0-33.466-37.445-7.136 6.416l-12.864-13.409c-5.452-5.654-11.417-3.807-5.89 4.087 2.865 4.079 7.793 11.171 12.603 17.09z"/></g></g><defs><clipPath id="A"><path fill="#fff" d="M0 0h245v360H0z"/></clipPath><path id="B" d="M137.849 105.63l6.643 38.638 35.234 7.217-41.57 37.249-62.178-34.083 27.649-6.888-3.623-52.441 37.845 10.308z"/></defs></svg>