<svg width="115" height="25" viewBox="0 0 115 25" fill="none" xmlns="http://www.w3.org/2000/svg">
<path fill-rule="evenodd" clip-rule="evenodd" d="M112.398 10.5233C112.191 10.5235 111.986 10.4828 111.795 10.4033C111.604 10.3239 111.43 10.2074 111.284 10.0605C111.138 9.91359 111.022 9.73919 110.943 9.54728C110.864 9.35537 110.824 9.14975 110.825 8.9422C110.825 8.52286 110.991 8.1207 111.286 7.82418C111.582 7.52766 111.983 7.36108 112.401 7.36108C112.819 7.36108 113.22 7.52766 113.516 7.82418C113.812 8.1207 113.978 8.52286 113.978 8.9422C113.978 9.1501 113.937 9.35597 113.857 9.548C113.778 9.74004 113.661 9.91448 113.515 10.0613C113.368 10.2082 113.194 10.3246 113.002 10.4039C112.811 10.4832 112.605 10.5237 112.398 10.5233ZM112.398 7.64884C111.692 7.64884 111.123 8.22358 111.123 8.9422C111.123 9.66161 111.692 10.2356 112.398 10.2356C113.1 10.2356 113.679 9.66082 113.679 8.9422C113.679 8.22279 113.099 7.64884 112.398 7.64884ZM112.163 9.19518V9.84502H111.789V8.03938H112.502C112.852 8.03938 113.145 8.22358 113.145 8.60858C113.151 8.72063 113.12 8.83148 113.058 8.92473C112.996 9.01798 112.905 9.08869 112.8 9.1264L113.174 9.84502H112.766L112.438 9.19518H112.162H112.163ZM112.766 8.62044C112.766 8.44178 112.616 8.39592 112.473 8.39592H112.163V8.84417H112.478C112.616 8.84417 112.766 8.78725 112.766 8.62044ZM48.6968 19.2195L43.3054 11.1083V19.2195H40.9092V7.45832H43.6798L48.7717 15.1339V7.45832H51.1679V19.2195H48.6968ZM52.5954 15.224C52.5954 12.8357 54.5573 11.0182 56.9834 11.0182C59.3946 11.0182 61.3266 12.7907 61.3266 15.1789C61.3266 17.5973 59.3647 19.3998 56.9535 19.3998C54.5273 19.3998 52.5954 17.6423 52.5954 15.224ZM54.9916 15.194C54.9916 16.4106 55.8752 17.2518 56.9685 17.2518C58.0617 17.2518 58.9304 16.4106 58.9304 15.194C58.9304 13.9923 58.0468 13.1512 56.9535 13.1512C55.8602 13.1512 54.9916 13.9923 54.9916 15.194ZM67.0546 11.1985V13.4966C66.7401 13.4365 66.4106 13.4365 66.3058 13.4365C65.1826 13.4365 64.4038 14.2176 64.4038 15.7047V19.2195H62.1124V11.1985H64.3289V12.3701H64.3589C64.7932 11.4538 65.6019 11.1083 66.4256 11.1083C66.6053 11.1083 66.8899 11.1534 67.0546 11.1985ZM73.8026 19.2195V18.1981H73.7726C73.0238 19.2946 71.8257 19.3697 71.2866 19.3697C68.9652 19.3697 67.4826 17.3569 67.4826 15.194C67.4826 13.1662 69.0252 11.0483 71.3165 11.0483C71.7808 11.0483 72.889 11.1384 73.7127 12.1147H73.7427V6.99268H76.064V19.2195H73.8026ZM73.8026 15.194C73.8026 13.9923 72.919 13.1662 71.8257 13.1662C70.7324 13.1662 69.8488 13.9923 69.8488 15.194C69.8488 16.4106 70.7324 17.2518 71.8257 17.2518C72.919 17.2518 73.8026 16.4106 73.8026 15.194ZM81.029 19.2195L76.7907 7.45832H79.4116L82.4518 16.3956L85.5069 7.45832H88.0828L83.8296 19.2195H81.029ZM97.6306 11.2285C97.6306 13.8271 95.8035 15.0738 93.3474 15.0738H91.5053V19.2195H89.0792V7.45832H93.4373C95.7885 7.45832 97.6306 8.73507 97.6306 11.2285ZM95.1895 11.2886C95.1895 10.147 94.231 9.75648 93.2276 9.75648H91.5053V12.8057H93.2426C94.201 12.8057 95.1895 12.3851 95.1895 11.2886ZM106.639 19.2195L101.248 11.1083V19.2195H98.8516V7.45832H101.622L106.714 15.1339V7.45832H109.11V19.2195H106.639Z" fill="#373B42"/>
<path fill-rule="evenodd" clip-rule="evenodd" d="M4.97414 24.7535C3.06819 22.1182 2.04437 18.9446 2.04983 15.6889C2.04983 7.15956 8.92945 0.246094 17.4155 0.246094C25.9023 0.246094 32.7811 7.15956 32.7811 15.6889C32.7867 18.9446 31.7629 22.1182 29.8568 24.7535L22.4767 12.7093L21.7641 13.9189L22.4869 17.2819L17.4155 8.56202L14.2783 13.8849L15.009 17.2819L12.3503 12.7156L4.97414 24.7535Z" fill="#4687FF"/>
</svg>
