<svg width="144" height="22" viewBox="0 0 144 22" fill="none" xmlns="http://www.w3.org/2000/svg">
<g clip-path="url(#clip0)">
<path d="M15.6602 8.48509V8.48567H14.9056V7.81178C14.9056 4.46835 12.1769 1.7583 8.81138 1.7583C5.4464 1.7583 2.71778 4.46893 2.71778 7.81178V8.48567H1.96434C1.17323 8.48567 0.532227 9.12193 0.532227 9.90814V15.4655C0.533965 15.836 0.555989 16.1046 0.700881 16.3003C0.85099 16.4971 1.10368 16.5672 1.48098 16.5666H2.69286L2.87775 19.4932C2.87775 19.5001 2.87717 19.5117 2.87717 19.5262C2.87775 19.6038 2.88644 19.7821 2.98439 19.9529C3.08117 20.1254 3.2846 20.2794 3.61322 20.2765H6.69363L8.29325 18.5814H9.48832L11.0352 20.3292H11.0781C11.0781 20.3292 11.6379 20.3292 12.2581 20.3292C12.8771 20.3292 13.5569 20.3292 13.7968 20.3292H13.7974C14.0356 20.328 14.253 20.3338 14.4419 20.214C14.6303 20.0912 14.7433 19.8585 14.7978 19.4527C14.8772 18.8627 14.8957 17.2486 14.9322 16.5672H16.1429C16.5156 16.566 16.759 16.5307 16.9172 16.3605C17.0697 16.188 17.09 15.9414 17.0917 15.5714V9.90872C17.0917 9.12193 16.4507 8.48567 15.6602 8.48509Z" fill="#349334"/>
<path d="M16.9008 15.5715C16.9025 15.9357 16.866 16.1395 16.7756 16.2333C16.6916 16.3311 16.5084 16.3786 16.1433 16.3774H14.7512L14.7465 16.4672C14.7129 17.1092 14.6903 18.8264 14.6092 19.4273C14.557 19.8152 14.4556 19.9796 14.3379 20.0549C14.2197 20.1342 14.0389 20.14 13.7978 20.1389H13.7972C13.3567 20.1389 11.4349 20.1389 11.1213 20.1389L9.57446 18.3904H8.21073L6.61111 20.0856H3.613C3.34002 20.0827 3.22353 19.9785 3.14934 19.8569C3.07806 19.7353 3.06646 19.5848 3.06762 19.5258C3.06762 19.5072 3.0682 19.4997 3.0682 19.4997L3.06878 19.4922L2.87115 16.3769H1.48076C1.11853 16.3763 0.945819 16.3097 0.853667 16.1864C0.756299 16.0625 0.721525 15.828 0.722684 15.465V9.9077C0.723843 9.22628 1.27849 8.6757 1.96412 8.67454H2.90882V7.81133C2.91462 4.57328 5.55108 1.95354 8.81174 1.94775C12.0718 1.95354 14.7089 4.57328 14.7147 7.81191V8.67512H15.6599C16.345 8.67628 16.8996 9.22686 16.9002 9.90828V15.5715H16.9008Z" fill="#4CB649"/>
<path d="M14.5593 16.2241H3.09082V16.5981H14.5593V16.2241Z" fill="#118011"/>
<path d="M2.90039 16.3585V9.18359H3.09107V16.3585H2.90039Z" fill="#118011"/>
<path d="M14.5605 16.3585V9.18359H14.7518V16.3585H14.5605Z" fill="#118011"/>
<path d="M8.72597 11.4834C10.9941 11.4834 12.8328 11.147 12.8328 10.7319C12.8328 10.3169 10.9941 9.98047 8.72597 9.98047C6.45783 9.98047 4.61914 10.3169 4.61914 10.7319C4.61914 11.147 6.45783 11.4834 8.72597 11.4834Z" fill="url(#paint0_linear)"/>
<path d="M12.5605 8.80857V7.71146C12.5605 5.6452 10.8838 3.96973 8.8147 3.96973C6.74621 3.96973 5.06836 5.6452 5.06836 7.71146V8.80857H12.5605Z" fill="white"/>
<path d="M10.5739 7.6665H7.23438V8.05729H10.5739V7.6665Z" fill="url(#paint1_radial)"/>
<path d="M7.56505 6.70479C7.94724 6.70479 8.25706 6.3953 8.25706 6.01353C8.25706 5.63175 7.94724 5.32227 7.56505 5.32227C7.18287 5.32227 6.87305 5.63175 6.87305 6.01353C6.87305 6.3953 7.18287 6.70479 7.56505 6.70479Z" fill="black"/>
<path d="M10.0328 6.70479C10.415 6.70479 10.7248 6.3953 10.7248 6.01353C10.7248 5.63175 10.415 5.32227 10.0328 5.32227C9.65064 5.32227 9.34082 5.63175 9.34082 6.01353C9.34082 6.3953 9.65064 6.70479 10.0328 6.70479Z" fill="black"/>
<path d="M9.98234 12.9785H7.46875V14.8543H9.98234V12.9785Z" fill="white"/>
<path d="M7.85219 12.7871C7.96521 12.3917 8.31585 12.1045 8.73024 12.104C9.14463 12.1045 9.49527 12.3917 9.60886 12.7871H9.90734C9.78679 12.2348 9.30923 11.818 8.73024 11.8174C8.15183 11.818 7.67368 12.2348 7.55371 12.7871H7.85219Z" fill="white"/>
<path d="M16.3338 16.7582C16.4011 16.7577 16.4625 16.7559 16.5216 16.753V16.5435C16.4132 16.5602 16.2881 16.5666 16.1426 16.5666H14.9319C14.9133 16.9053 14.9 17.4738 14.8809 18.0325H15.0779C15.0941 17.5381 15.1069 17.0576 15.1225 16.7582H16.3338Z" fill="#118011"/>
<path d="M16.5222 16.8571V16.7529C16.4631 16.7558 16.4011 16.7576 16.3344 16.7581H15.1237C15.1075 17.058 15.0947 17.5386 15.0791 18.0324H15.359C16.0018 18.0324 16.5222 17.5061 16.5222 16.8571Z" fill="url(#paint2_linear)"/>
<path d="M2.69302 16.5668H1.48114C1.29336 16.5674 1.13745 16.55 1.00879 16.5083V16.752C1.08529 16.7607 1.16875 16.7654 1.25974 16.7648L2.4722 16.7642L2.55276 18.0321H2.78633L2.69302 16.5668Z" fill="#118011"/>
<path d="M1.25974 16.7652C1.16875 16.7652 1.08529 16.7611 1.00879 16.7524V16.8578C1.00879 17.5068 1.52924 18.0331 2.17083 18.0331H2.55218L2.47162 16.7652H1.25974Z" fill="url(#paint3_linear)"/>
<path d="M25.5341 7.59403C25.5341 8.5765 25.311 9.36329 24.8641 9.95498C24.4179 10.5467 23.8145 10.8419 23.0559 10.8419C22.4108 10.8419 21.8892 10.6179 21.4922 10.1698V13.1762H19.7871V4.34613H21.3688L21.4279 4.97082C21.8411 4.47582 22.3801 4.22803 23.0449 4.22803C23.8313 4.22803 24.4434 4.51924 24.8798 5.1005C25.3162 5.68234 25.5347 6.48361 25.5347 7.50545V7.59403H25.5341ZM23.829 7.46434C23.829 6.86919 23.7235 6.41008 23.5132 6.08645C23.3028 5.7634 22.9968 5.60129 22.5957 5.60129C22.0608 5.60129 21.6927 5.80624 21.4922 6.21613V8.83529C21.7008 9.25676 22.0724 9.46808 22.6073 9.46808C23.4222 9.46866 23.829 8.80055 23.829 7.46434Z" fill="black"/>
<path d="M30.36 5.94403C30.1276 5.91276 29.9236 5.89713 29.7462 5.89713C29.1012 5.89713 28.6781 6.1154 28.4776 6.55134V10.7244H26.7725V4.34613H28.3837L28.4306 5.10629C28.7731 4.52097 29.2466 4.22803 29.8529 4.22803C30.0418 4.22803 30.2186 4.2535 30.3838 4.30445L30.36 5.94403Z" fill="black"/>
<path d="M31.3496 2.69613C31.3496 2.44082 31.4348 2.23066 31.6064 2.06566C31.7773 1.90066 32.0103 1.81787 32.3053 1.81787C32.5963 1.81787 32.8287 1.90066 33.0014 2.06566C33.1747 2.23066 33.261 2.44082 33.261 2.69613C33.261 2.9555 33.1735 3.16798 32.9985 3.33298C32.8235 3.49798 32.5922 3.58077 32.3053 3.58077C32.0179 3.58077 31.7872 3.49798 31.6122 3.33298C31.4371 3.1674 31.3496 2.9555 31.3496 2.69613ZM33.1613 10.7244H31.4499V4.34613H33.1613V10.7244Z" fill="black"/>
<path d="M37.1359 8.64372L38.3217 4.34677H40.1039L37.9502 10.7245H36.3217L34.168 4.34619H35.9501L37.1359 8.64372Z" fill="black"/>
<path d="M44.6462 10.7245C44.5674 10.5711 44.5106 10.3806 44.4752 10.1525C44.062 10.6122 43.5253 10.842 42.864 10.842C42.2387 10.842 41.72 10.6614 41.309 10.2995C40.8981 9.93828 40.6924 9.48207 40.6924 8.93207C40.6924 8.25643 40.9433 7.7377 41.4447 7.37585C41.9466 7.01459 42.671 6.83164 43.6192 6.82759H44.4039V6.46228C44.4039 6.16759 44.328 5.93196 44.1768 5.7548C44.0255 5.57822 43.7861 5.48964 43.4598 5.48964C43.1724 5.48964 42.9475 5.55854 42.784 5.69575C42.6206 5.83354 42.5389 6.02228 42.5389 6.26138H40.8338C40.8338 5.89201 40.948 5.55043 41.1763 5.23549C41.4041 4.92112 41.7269 4.67449 42.1442 4.49559C42.5609 4.3167 43.0292 4.22754 43.5485 4.22754C44.335 4.22754 44.9598 4.42496 45.4217 4.8198C45.8842 5.21464 46.1148 5.76986 46.1148 6.48486V9.24933C46.1189 9.85433 46.2035 10.3123 46.3687 10.6226V10.7228H44.6462V10.7245ZM43.2361 9.53938C43.4876 9.53938 43.7201 9.48322 43.9322 9.37149C44.1449 9.25917 44.3019 9.10922 44.4045 8.92049V7.82396H43.767C42.9133 7.82396 42.4589 8.11864 42.4039 8.70801L42.3981 8.80817C42.3981 9.02064 42.4728 9.19549 42.6224 9.3327C42.7719 9.47107 42.9765 9.53938 43.2361 9.53938Z" fill="black"/>
<path d="M49.6489 2.77832V4.34611H50.7409V5.59548H49.6489V8.77853C49.6489 9.01416 49.6942 9.18322 49.7846 9.28569C49.875 9.38816 50.0483 9.43911 50.3039 9.43911C50.4928 9.43911 50.6597 9.42522 50.8052 9.39801V10.6891C50.4708 10.791 50.1265 10.8425 49.7724 10.8425C48.5762 10.8425 47.9665 10.2392 47.9433 9.03269V5.59606H47.0107V4.34611H47.9433V2.77832H49.6489Z" fill="black"/>
<path d="M54.8101 10.8418C53.8735 10.8418 53.1114 10.5553 52.5237 9.98152C51.9354 9.40778 51.6416 8.64357 51.6416 7.68831V7.52331C51.6416 6.88299 51.7656 6.30983 52.0131 5.80499C52.2612 5.30015 52.6124 4.91109 53.0662 4.63783C53.5206 4.36457 54.0387 4.22852 54.6212 4.22852C55.4946 4.22852 56.182 4.50352 56.6839 5.05352C57.1852 5.60352 57.4361 6.38394 57.4361 7.39362V8.08894H53.3705C53.4255 8.50578 53.5919 8.83983 53.8689 9.09109C54.1465 9.34294 54.4971 9.46857 54.9226 9.46857C55.5792 9.46857 56.0927 9.23062 56.4625 8.75531L57.3005 9.69262C57.0449 10.0545 56.6984 10.3358 56.2619 10.5385C55.8249 10.7411 55.341 10.8418 54.8101 10.8418ZM54.6154 5.60178C54.2769 5.60178 54.0028 5.71641 53.7924 5.94509C53.582 6.17378 53.447 6.50146 53.3878 6.92815H55.76V6.7921C55.7519 6.41288 55.6499 6.11994 55.4534 5.91267C55.2564 5.70541 54.977 5.60178 54.6154 5.60178Z" fill="black"/>
<path d="M58.8096 2.50452C58.8096 2.37194 58.853 2.25963 58.9394 2.16757C59.0257 2.0761 59.144 2.02979 59.2935 2.02979C59.443 2.02979 59.5618 2.07552 59.6505 2.16757C59.7392 2.25963 59.7832 2.37136 59.7832 2.50452C59.7832 2.63768 59.7392 2.74884 59.6505 2.83857C59.5624 2.92831 59.443 2.97347 59.2935 2.97347C59.144 2.97347 59.0257 2.92831 58.9394 2.83857C58.853 2.74826 58.8096 2.6371 58.8096 2.50452ZM59.6418 10.7244H58.9336V4.34615H59.6418V10.7244Z" fill="black"/>
<path d="M62.4131 4.34613L62.4369 5.43687C62.6768 5.04376 62.9759 4.74445 63.3341 4.53776C63.6916 4.33108 64.0875 4.22803 64.5199 4.22803C65.2043 4.22803 65.7138 4.42082 66.0482 4.80582C66.3826 5.19082 66.5518 5.76861 66.5559 6.53861V10.7238H65.8534V6.53282C65.8494 5.96313 65.7288 5.53876 65.4906 5.25971C65.2524 4.98066 64.8722 4.84113 64.3489 4.84113C63.9125 4.84113 63.5259 4.97776 63.1892 5.25045C62.853 5.52371 62.6038 5.89192 62.4427 6.35566V10.7232H61.7402V4.34613H62.4131Z" fill="black"/>
<path d="M69.6576 2.71338V4.34601H70.9796V4.9238H69.6576V9.17848C69.6576 9.5328 69.7214 9.79622 69.8495 9.96933C69.977 10.1424 70.1908 10.2287 70.4899 10.2287C70.6081 10.2287 70.7988 10.209 71.0625 10.1696L71.0921 10.7422C70.9072 10.8082 70.6557 10.8412 70.3369 10.8412C69.853 10.8412 69.5012 10.7005 69.2809 10.4197C69.0607 10.139 68.9506 9.72501 68.9506 9.17906V4.9238H67.7764V4.34601H68.9506V2.71338H69.6576Z" fill="black"/>
<path d="M75.0967 10.8419C74.5536 10.8419 74.0633 10.7082 73.6246 10.4413C73.1858 10.1744 72.8445 9.80156 72.6011 9.3245C72.3571 8.84687 72.2354 8.31134 72.2354 7.71792V7.46434C72.2354 6.85124 72.3542 6.2995 72.5924 5.80797C72.8306 5.31703 73.1615 4.93087 73.5863 4.6495C74.0112 4.36871 74.4713 4.22803 74.9669 4.22803C75.7417 4.22803 76.3567 4.49261 76.8111 5.02119C77.2654 5.54976 77.4926 6.27171 77.4926 7.18761V7.58245H72.9372V7.71792C72.9372 8.44103 73.1447 9.04313 73.5597 9.52482C73.9746 10.0059 74.4968 10.2468 75.1262 10.2468C75.5041 10.2468 75.8374 10.1779 76.1266 10.0407C76.4158 9.90345 76.6783 9.68345 76.9142 9.38066L77.357 9.71645C76.8371 10.4668 76.0837 10.8419 75.0967 10.8419ZM74.9669 4.82955C74.436 4.82955 73.9885 5.02408 73.6246 5.41313C73.2606 5.80219 73.0392 6.32497 72.961 6.98092H76.7908V6.9045C76.7711 6.2914 76.596 5.79234 76.2657 5.40734C75.9342 5.02234 75.5012 4.82955 74.9669 4.82955Z" fill="black"/>
<path d="M81.999 4.94766C81.8495 4.92045 81.6901 4.90655 81.5209 4.90655C81.0804 4.90655 80.7077 5.02929 80.4023 5.27476C80.0975 5.52024 79.8801 5.87687 79.7503 6.34466V10.7244H79.0479V4.34613H79.7381L79.7497 5.35987C80.1235 4.6055 80.7234 4.22803 81.5493 4.22803C81.7458 4.22803 81.9011 4.2535 82.0153 4.30445L81.999 4.94766Z" fill="black"/>
<path d="M83.9688 4.34613L83.9925 5.43687C84.2325 5.04376 84.5315 4.74445 84.8897 4.53776C85.2473 4.33108 85.6432 4.22803 86.0755 4.22803C86.76 4.22803 87.2694 4.42082 87.6038 4.80582C87.9382 5.19082 88.1075 5.76861 88.1115 6.53861V10.7238H87.4091V6.53282C87.405 5.96313 87.2845 5.53876 87.0463 5.25971C86.8081 4.98066 86.4279 4.84113 85.9045 4.84113C85.4681 4.84113 85.0816 4.97776 84.7448 5.25045C84.4087 5.52371 84.1595 5.89192 83.9983 6.35566V10.7232H83.2959V4.34613H83.9688Z" fill="black"/>
<path d="M92.5879 10.8419C92.0448 10.8419 91.5545 10.7082 91.1158 10.4413C90.6771 10.1744 90.3357 9.80156 90.0923 9.3245C89.8483 8.84687 89.7266 8.31134 89.7266 7.71792V7.46434C89.7266 6.85124 89.8454 6.2995 90.0836 5.80797C90.3218 5.31703 90.6527 4.93087 91.0775 4.6495C91.5024 4.36871 91.9625 4.22803 92.4581 4.22803C93.233 4.22803 93.8479 4.49261 94.3023 5.02119C94.7567 5.54976 94.9838 6.27171 94.9838 7.18761V7.58245H90.4284V7.71792C90.4284 8.44103 90.6359 9.04313 91.0509 9.52482C91.4659 10.0059 91.988 10.2468 92.6175 10.2468C92.9953 10.2468 93.3286 10.1779 93.6178 10.0407C93.907 9.90345 94.1695 9.68345 94.4054 9.38066L94.8482 9.71645C94.3289 10.4668 93.5755 10.8419 92.5879 10.8419ZM92.4581 4.82955C91.9272 4.82955 91.4798 5.02408 91.1158 5.41313C90.7518 5.80219 90.5304 6.32497 90.4522 6.98092H94.282V6.9045C94.2623 6.2914 94.0872 5.79234 93.7569 5.40734C93.426 5.02234 92.993 4.82955 92.4581 4.82955Z" fill="black"/>
<path d="M97.6381 2.71338V4.34601H98.9601V4.9238H97.6381V9.17848C97.6381 9.5328 97.7019 9.79622 97.83 9.96933C97.9575 10.1424 98.1713 10.2287 98.4704 10.2287C98.5886 10.2287 98.7793 10.209 99.043 10.1696L99.0725 10.7422C98.8877 10.8082 98.6361 10.8412 98.3174 10.8412C97.8334 10.8412 97.4816 10.7005 97.2614 10.4197C97.0412 10.139 96.931 9.72501 96.931 9.17906V4.9238H95.7568V4.34601H96.931V2.71338H97.6381Z" fill="black"/>
<path d="M104.634 10.7246C104.563 10.5243 104.518 10.2273 104.498 9.83477C104.25 10.1572 103.935 10.4056 103.551 10.5805C103.168 10.7553 102.762 10.8427 102.333 10.8427C101.719 10.8427 101.223 10.6719 100.843 10.3298C100.464 9.98761 100.273 9.55572 100.273 9.03293C100.273 8.4123 100.532 7.92077 101.049 7.55951C101.567 7.19824 102.287 7.01703 103.212 7.01703H104.493V6.29219C104.493 5.83656 104.352 5.47761 104.071 5.21651C103.79 4.9554 103.379 4.82456 102.84 4.82456C102.348 4.82456 101.941 4.95019 101.619 5.20203C101.296 5.45387 101.135 5.75609 101.135 6.10982L100.426 6.10403C100.426 5.59688 100.662 5.15803 101.135 4.78693C101.607 4.41524 102.187 4.22998 102.876 4.22998C103.587 4.22998 104.15 4.40772 104.561 4.76377C104.971 5.11924 105.183 5.6154 105.195 6.25224V9.2703C105.195 9.88745 105.259 10.3489 105.389 10.6557V10.7263H104.634V10.7246ZM102.416 10.2175C102.888 10.2175 103.31 10.1034 103.681 9.8753C104.053 9.64777 104.323 9.34267 104.493 8.96172V7.55893H103.23C102.526 7.56703 101.975 7.69556 101.577 7.94509C101.18 8.19461 100.982 8.53735 100.982 8.97388C100.982 9.33167 101.114 9.62809 101.38 9.86372C101.645 10.0999 101.991 10.2175 102.416 10.2175Z" fill="black"/>
<path d="M109.618 10.2467C110.11 10.2467 110.522 10.1083 110.855 9.83099C111.187 9.55367 111.367 9.19531 111.395 8.75531H112.073C112.054 9.14436 111.932 9.49925 111.708 9.81941C111.483 10.1396 111.185 10.3903 110.814 10.5709C110.442 10.7515 110.044 10.8418 109.619 10.8418C108.781 10.8418 108.117 10.5512 107.627 9.96936C107.138 9.38809 106.893 8.60594 106.893 7.62346V7.41099C106.893 6.78225 107.003 6.22646 107.223 5.74304C107.443 5.25962 107.759 4.8862 108.17 4.62336C108.581 4.35994 109.062 4.22852 109.612 4.22852C110.313 4.22852 110.89 4.43694 111.344 4.8532C111.799 5.27004 112.041 5.81773 112.073 6.49799H111.394C111.362 5.99894 111.183 5.59599 110.854 5.28973C110.525 4.98346 110.112 4.83004 109.612 4.83004C108.974 4.83004 108.48 5.05988 108.128 5.51957C107.776 5.97925 107.6 6.6242 107.6 7.45325V7.65936C107.6 8.47278 107.776 9.10731 108.128 9.56352C108.481 10.0191 108.977 10.2467 109.618 10.2467Z" fill="black"/>
<path d="M116.026 10.2467C116.517 10.2467 116.929 10.1083 117.262 9.83099C117.594 9.55367 117.774 9.19531 117.802 8.75531H118.481C118.461 9.14436 118.339 9.49925 118.115 9.81941C117.891 10.1396 117.593 10.3903 117.221 10.5709C116.849 10.7515 116.451 10.8418 116.026 10.8418C115.188 10.8418 114.524 10.5512 114.035 9.96936C113.545 9.38809 113.3 8.60594 113.3 7.62346V7.41099C113.3 6.78225 113.41 6.22646 113.63 5.74304C113.85 5.25962 114.166 4.8862 114.577 4.62336C114.988 4.35994 115.469 4.22852 116.02 4.22852C116.72 4.22852 117.297 4.43694 117.751 4.8532C118.206 5.27004 118.449 5.81773 118.48 6.49799H117.801C117.769 5.99894 117.59 5.59599 117.261 5.28973C116.933 4.98346 116.519 4.83004 116.019 4.83004C115.382 4.83004 114.887 5.05988 114.535 5.51957C114.183 5.97925 114.007 6.6242 114.007 7.45325V7.65936C114.007 8.47278 114.183 9.10731 114.535 9.56352C114.888 10.0191 115.385 10.2467 116.026 10.2467Z" fill="black"/>
<path d="M122.544 10.8419C122.001 10.8419 121.511 10.7082 121.072 10.4413C120.633 10.1744 120.292 9.80156 120.048 9.3245C119.804 8.84687 119.683 8.31134 119.683 7.71792V7.46434C119.683 6.85124 119.801 6.2995 120.04 5.80797C120.278 5.31703 120.609 4.93087 121.034 4.6495C121.458 4.36871 121.919 4.22803 122.414 4.22803C123.189 4.22803 123.804 4.49261 124.258 5.02119C124.713 5.54976 124.94 6.27171 124.94 7.18761V7.58245H120.384V7.71792C120.384 8.44103 120.592 9.04313 121.007 9.52482C121.422 10.0059 121.944 10.2468 122.574 10.2468C122.951 10.2468 123.285 10.1779 123.574 10.0407C123.863 9.90345 124.126 9.68345 124.361 9.38066L124.804 9.71645C124.285 10.4668 123.532 10.8419 122.544 10.8419ZM122.414 4.82955C121.883 4.82955 121.436 5.02408 121.072 5.41313C120.708 5.80219 120.486 6.32497 120.408 6.98092H124.238V6.9045C124.218 6.2914 124.043 5.79234 123.713 5.40734C123.382 5.02234 122.949 4.82955 122.414 4.82955Z" fill="black"/>
<path d="M130.32 9.10325C130.32 8.75357 130.179 8.47278 129.898 8.26031C129.617 8.04783 129.193 7.88225 128.627 7.76241C128.061 7.64257 127.621 7.50536 127.308 7.34962C126.995 7.19446 126.763 7.00515 126.612 6.7811C126.46 6.55704 126.384 6.28609 126.384 5.96767C126.384 5.46457 126.595 5.04888 127.016 4.72062C127.436 4.39236 127.975 4.22852 128.633 4.22852C129.344 4.22852 129.916 4.40452 130.347 4.75594C130.778 5.10794 130.993 5.56646 130.993 6.13267H130.285C130.285 5.75925 130.128 5.44894 129.816 5.20115C129.503 4.95336 129.109 4.83004 128.633 4.83004C128.168 4.83004 127.796 4.93309 127.515 5.13978C127.233 5.34588 127.093 5.61394 127.093 5.94452C127.093 6.26294 127.21 6.50957 127.444 6.68441C127.678 6.85925 128.105 7.01962 128.724 7.16494C129.344 7.31025 129.808 7.46541 130.117 7.63041C130.426 7.79541 130.655 7.99399 130.804 8.22557C130.954 8.45773 131.029 8.73852 131.029 9.06852C131.029 9.60694 130.811 10.0371 130.376 10.3596C129.942 10.682 129.374 10.843 128.674 10.843C127.931 10.843 127.328 10.6629 126.866 10.304C126.404 9.94446 126.173 9.48941 126.173 8.93941H126.881C126.908 9.3522 127.083 9.67294 127.403 9.90336C127.724 10.1332 128.148 10.2478 128.675 10.2478C129.166 10.2478 129.564 10.1396 129.867 9.92362C130.168 9.70652 130.32 9.43325 130.32 9.10325Z" fill="black"/>
<path d="M136.62 9.10325C136.62 8.75357 136.479 8.47278 136.198 8.26031C135.917 8.04783 135.493 7.88225 134.927 7.76241C134.36 7.64257 133.92 7.50536 133.607 7.34962C133.295 7.19446 133.063 7.00515 132.911 6.7811C132.76 6.55704 132.684 6.28609 132.684 5.96767C132.684 5.46457 132.895 5.04888 133.315 4.72062C133.736 4.39236 134.275 4.22852 134.932 4.22852C135.644 4.22852 136.216 4.40452 136.647 4.75594C137.077 5.10794 137.293 5.56646 137.293 6.13267H136.585C136.585 5.75925 136.428 5.44894 136.116 5.20115C135.803 4.95336 135.409 4.83004 134.932 4.83004C134.468 4.83004 134.095 4.93309 133.814 5.13978C133.533 5.34588 133.392 5.61394 133.392 5.94452C133.392 6.26294 133.51 6.50957 133.744 6.68441C133.978 6.85925 134.404 7.01962 135.024 7.16494C135.643 7.31025 136.108 7.46541 136.417 7.63041C136.726 7.79541 136.954 7.99399 137.104 8.22557C137.254 8.45773 137.328 8.73852 137.328 9.06852C137.328 9.60694 137.111 10.0371 136.676 10.3596C136.242 10.682 135.674 10.843 134.974 10.843C134.23 10.843 133.628 10.6629 133.166 10.304C132.703 9.94446 132.473 9.48941 132.473 8.93941H133.181C133.208 9.3522 133.383 9.67294 133.703 9.90336C134.024 10.1332 134.448 10.2478 134.975 10.2478C135.466 10.2478 135.864 10.1396 136.167 9.92362C136.469 9.70652 136.62 9.43325 136.62 9.10325Z" fill="black"/>
<path d="M71.0442 18.8013C71.0083 18.7301 70.9793 18.6027 70.9573 18.4197C70.6692 18.7185 70.3249 18.8684 69.925 18.8684C69.5674 18.8684 69.2748 18.7677 69.0458 18.5656C68.8169 18.3642 68.7021 18.1077 68.7021 17.7974C68.7021 17.4205 68.8459 17.1275 69.1328 16.9191C69.4197 16.7101 69.8236 16.6059 70.3441 16.6059H70.9468V16.3211C70.9468 16.1045 70.8819 15.9326 70.7527 15.8041C70.6228 15.6755 70.4322 15.6118 70.18 15.6118C69.9587 15.6118 69.7738 15.6674 69.6237 15.7792C69.4741 15.8909 69.3994 16.0252 69.3994 16.1838H68.7763C68.7763 16.0032 68.8407 15.829 68.9687 15.6599C69.0968 15.4914 69.2713 15.3583 69.4915 15.2604C69.7118 15.162 69.9534 15.1128 70.2171 15.1128C70.6344 15.1128 70.9619 15.217 71.1989 15.426C71.4354 15.6344 71.5583 15.9216 71.5675 16.2875V17.9543C71.5675 18.2872 71.6098 18.5512 71.695 18.7474V18.8013H71.0442ZM70.0155 18.3294C70.2096 18.3294 70.3939 18.2791 70.5684 18.1789C70.7428 18.0782 70.8686 17.9479 70.9468 17.787V17.0442H70.4611C69.7013 17.0442 69.3217 17.2665 69.3217 17.71C69.3217 17.9045 69.3866 18.0556 69.5164 18.165C69.6457 18.2744 69.812 18.3294 70.0155 18.3294Z" fill="#4E4E4F"/>
<path d="M73.3158 18.8011H72.6963V13.6606H73.3158V18.8011Z" fill="#4E4E4F"/>
<path d="M77.6432 17.9471L78.3398 15.1797H78.9594L77.904 18.801H77.4015L76.5206 16.0568L75.6628 18.801H75.1603L74.1084 15.1797H74.7251L75.4385 17.8903L76.2829 15.1797H76.7819L77.6432 17.9471Z" fill="#4E4E4F"/>
<path d="M81.8752 18.8013C81.8393 18.7301 81.8103 18.6027 81.7883 18.4197C81.5003 18.7185 81.156 18.8684 80.7561 18.8684C80.3985 18.8684 80.1058 18.7677 79.8769 18.5656C79.648 18.3642 79.5332 18.1077 79.5332 17.7974C79.5332 17.4205 79.6769 17.1275 79.9638 16.9191C80.2507 16.7101 80.6547 16.6059 81.1751 16.6059H81.7779V16.3211C81.7779 16.1045 81.713 15.9326 81.5837 15.8041C81.4539 15.6755 81.2632 15.6118 81.0111 15.6118C80.7897 15.6118 80.6048 15.6674 80.4547 15.7792C80.3052 15.8909 80.2304 16.0252 80.2304 16.1838H79.6074C79.6074 16.0032 79.6717 15.829 79.7998 15.6599C79.9279 15.4914 80.1023 15.3583 80.3226 15.2604C80.5428 15.162 80.7845 15.1128 81.0482 15.1128C81.4655 15.1128 81.7929 15.217 82.03 15.426C82.2665 15.6344 82.3893 15.9216 82.3986 16.2875V17.9543C82.3986 18.2872 82.4409 18.5512 82.5261 18.7474V18.8013H81.8752ZM80.8465 18.3294C81.0407 18.3294 81.225 18.2791 81.3994 18.1789C81.5739 18.0782 81.6996 17.9479 81.7779 17.787V17.0442H81.2922C80.5324 17.0442 80.1528 17.2665 80.1528 17.71C80.1528 17.9045 80.2177 18.0556 80.3475 18.165C80.4767 18.2744 80.6437 18.3294 80.8465 18.3294Z" fill="#4E4E4F"/>
<path d="M84.5893 17.8938L85.4337 15.1797H86.0967L84.6397 19.3597C84.4137 19.9624 84.0555 20.2634 83.564 20.2634L83.4469 20.2536L83.2163 20.2102V19.7076L83.3838 19.7209C83.5936 19.7209 83.7576 19.6787 83.8747 19.5942C83.9917 19.5091 84.0885 19.3545 84.1644 19.1287L84.3018 18.7605L83.0088 15.1797H83.6857L84.5893 17.8938Z" fill="#4E4E4F"/>
<path d="M88.8328 17.8407C88.8328 17.6734 88.7696 17.5437 88.6433 17.4505C88.5169 17.3579 88.2972 17.278 87.9831 17.2114C87.669 17.1448 87.4204 17.0643 87.2361 16.9705C87.0518 16.8768 86.9156 16.7656 86.8275 16.6359C86.7394 16.5068 86.6953 16.3528 86.6953 16.1739C86.6953 15.8775 86.8211 15.6262 87.072 15.4213C87.3236 15.2163 87.6447 15.1133 88.0353 15.1133C88.4462 15.1133 88.7795 15.2192 89.0356 15.4311C89.2918 15.643 89.4193 15.914 89.4193 16.2445H88.7963C88.7963 16.0749 88.7244 15.929 88.5801 15.8057C88.4358 15.6835 88.2544 15.6216 88.0353 15.6216C87.8098 15.6216 87.6331 15.6708 87.5061 15.7692C87.3786 15.8671 87.3155 15.9956 87.3155 16.1536C87.3155 16.3036 87.3746 16.4159 87.4928 16.4918C87.611 16.5676 87.8249 16.64 88.1344 16.7094C88.4439 16.7783 88.6943 16.8617 88.8867 16.9572C89.0791 17.0533 89.2211 17.1685 89.3138 17.304C89.4065 17.4389 89.4529 17.6033 89.4529 17.7973C89.4529 18.1209 89.3231 18.3803 89.0646 18.5754C88.8055 18.7705 88.4694 18.8683 88.0561 18.8683C87.7658 18.8683 87.509 18.8168 87.2853 18.7143C87.0622 18.6113 86.8872 18.4683 86.7608 18.2836C86.6345 18.0995 86.5713 17.9003 86.5713 17.6867H87.1914C87.2024 17.894 87.2859 18.0584 87.4406 18.18C87.596 18.3021 87.8011 18.3623 88.0556 18.3623C88.2897 18.3623 88.4781 18.3149 88.6201 18.2205C88.7621 18.1255 88.8328 17.9988 88.8328 17.8407Z" fill="#4E4E4F"/>
<path d="M94.5807 18.4427C94.3396 18.7264 93.9855 18.8677 93.5184 18.8677C93.1318 18.8677 92.838 18.7554 92.6357 18.5313C92.4334 18.3073 92.3314 17.9755 92.3291 17.5355V15.1792H92.9492V17.5187C92.9492 18.0676 93.1724 18.342 93.6192 18.342C94.0927 18.342 94.408 18.166 94.5639 17.8134V15.1798H95.1841V18.8011H94.5946L94.5807 18.4427Z" fill="#4E4E4F"/>
<path d="M98.3533 17.8407C98.3533 17.6734 98.2901 17.5437 98.1638 17.4505C98.0374 17.3579 97.8178 17.278 97.5036 17.2114C97.1895 17.1442 96.9409 17.0643 96.7566 16.9705C96.5723 16.8768 96.4361 16.7656 96.348 16.6359C96.2599 16.5068 96.2158 16.3528 96.2158 16.1739C96.2158 15.8775 96.3416 15.6262 96.5925 15.4213C96.8441 15.2163 97.1652 15.1133 97.5558 15.1133C97.9667 15.1133 98.3 15.2192 98.5561 15.4311C98.8123 15.643 98.9398 15.914 98.9398 16.2445H98.3168C98.3168 16.0749 98.2449 15.929 98.1006 15.8057C97.9563 15.6835 97.7749 15.6216 97.5558 15.6216C97.3303 15.6216 97.1536 15.6708 97.0267 15.7692C96.8991 15.8671 96.836 15.9956 96.836 16.1536C96.836 16.3036 96.8951 16.4159 97.0133 16.4918C97.1316 16.5676 97.3454 16.64 97.6549 16.7094C97.9644 16.7783 98.2148 16.8617 98.4072 16.9572C98.5996 17.0533 98.7416 17.1685 98.8343 17.304C98.9271 17.4389 98.9734 17.6033 98.9734 17.7973C98.9734 18.1209 98.8436 18.3803 98.5851 18.5754C98.3261 18.7705 97.9899 18.8683 97.5767 18.8683C97.2863 18.8683 97.0296 18.8168 96.8058 18.7143C96.5827 18.6113 96.4077 18.4683 96.2813 18.2836C96.155 18.0995 96.0918 17.9003 96.0918 17.6867H96.7119C96.723 17.894 96.8064 18.0584 96.9612 18.18C97.1165 18.3021 97.3217 18.3623 97.5761 18.3623C97.8102 18.3623 97.9986 18.3149 98.1406 18.2205C98.2826 18.1255 98.3533 17.9988 98.3533 17.8407Z" fill="#4E4E4F"/>
<path d="M101.395 18.8677C100.904 18.8677 100.504 18.7067 100.196 18.3842C99.8876 18.0623 99.7334 17.6305 99.7334 17.0909V16.9774C99.7334 16.6179 99.8018 16.2971 99.9397 16.0152C100.077 15.7332 100.269 15.5121 100.516 15.3529C100.763 15.1931 101.03 15.1138 101.318 15.1138C101.789 15.1138 102.155 15.2689 102.417 15.5787C102.678 15.889 102.809 16.333 102.809 16.9108V17.169H100.353C100.362 17.5257 100.467 17.8146 100.666 18.034C100.866 18.254 101.12 18.3634 101.428 18.3634C101.647 18.3634 101.833 18.3188 101.984 18.2297C102.136 18.1405 102.269 18.0224 102.383 17.8753L102.761 18.17C102.458 18.6349 102.002 18.8677 101.395 18.8677ZM101.318 15.6215C101.068 15.6215 100.858 15.7124 100.688 15.8942C100.518 16.076 100.413 16.3313 100.373 16.659H102.188V16.6121C102.17 16.2977 102.086 16.054 101.934 15.8809C101.782 15.7083 101.577 15.6215 101.318 15.6215Z" fill="#4E4E4F"/>
<path d="M108.67 17.0308C108.67 17.5819 108.544 18.026 108.292 18.3629C108.04 18.6999 107.698 18.8683 107.267 18.8683C106.827 18.8683 106.48 18.7288 106.228 18.4503V20.1935H105.608V15.1804H106.175L106.205 15.5822C106.457 15.2696 106.808 15.1133 107.257 15.1133C107.692 15.1133 108.037 15.2771 108.29 15.6054C108.543 15.9337 108.67 16.3899 108.67 16.974V17.0308ZM108.051 16.9607C108.051 16.552 107.964 16.2301 107.789 15.9933C107.615 15.7571 107.376 15.639 107.072 15.639C106.697 15.639 106.416 15.8051 106.228 16.1374V17.8673C106.413 18.1979 106.697 18.3623 107.079 18.3623C107.376 18.3623 107.613 18.2448 107.788 18.0092C107.963 17.7741 108.051 17.4244 108.051 16.9607Z" fill="#4E4E4F"/>
<path d="M111.374 15.7357C111.28 15.7201 111.179 15.712 111.069 15.712C110.663 15.712 110.387 15.8851 110.242 16.2307V18.8013H109.622V15.18H110.225L110.235 15.598C110.439 15.2749 110.727 15.1128 111.099 15.1128C111.22 15.1128 111.312 15.1284 111.374 15.1597V15.7357Z" fill="#4E4E4F"/>
<path d="M111.89 16.9566C111.89 16.6023 111.96 16.2833 112.099 15.9996C112.239 15.716 112.433 15.4977 112.682 15.3437C112.932 15.1897 113.216 15.1133 113.535 15.1133C114.029 15.1133 114.428 15.2841 114.732 15.6251C115.037 15.9661 115.19 16.4205 115.19 16.9873V17.0308C115.19 17.3833 115.122 17.6994 114.987 17.9796C114.852 18.2599 114.659 18.4781 114.407 18.6339C114.156 18.7902 113.868 18.8683 113.541 18.8683C113.05 18.8683 112.652 18.6975 112.347 18.3565C112.042 18.015 111.89 17.5634 111.89 17.0012V16.9566H111.89ZM112.513 17.0308C112.513 17.4325 112.607 17.7544 112.793 17.9982C112.979 18.2413 113.229 18.3629 113.542 18.3629C113.857 18.3629 114.107 18.2396 114.293 17.9935C114.478 17.7469 114.571 17.4013 114.571 16.9572C114.571 16.5606 114.476 16.2382 114.288 15.9921C114.099 15.7455 113.849 15.6222 113.536 15.6222C113.23 15.6222 112.983 15.7438 112.795 15.9869C112.607 16.2295 112.513 16.578 112.513 17.0308Z" fill="#4E4E4F"/>
<path d="M116.933 14.3027V15.1798H117.61V15.6586H116.933V17.9073C116.933 18.0526 116.963 18.1614 117.023 18.2338C117.084 18.3062 117.186 18.3426 117.332 18.3426C117.403 18.3426 117.502 18.3293 117.627 18.3027V18.8017C117.464 18.8457 117.305 18.8683 117.151 18.8683C116.874 18.8683 116.665 18.7844 116.524 18.617C116.384 18.4503 116.313 18.2118 116.313 17.9044V15.6586H115.653V15.1798H116.313V14.3027H116.933Z" fill="#4E4E4F"/>
<path d="M119.867 18.8677C119.375 18.8677 118.975 18.7067 118.668 18.3842C118.359 18.0623 118.205 17.6305 118.205 17.0909V16.9774C118.205 16.6179 118.273 16.2971 118.411 16.0152C118.549 15.7332 118.741 15.5121 118.987 15.3529C119.234 15.1931 119.502 15.1138 119.79 15.1138C120.261 15.1138 120.627 15.2689 120.888 15.5787C121.15 15.889 121.28 16.333 121.28 16.9108V17.169H118.825C118.833 17.5257 118.938 17.8146 119.138 18.034C119.338 18.254 119.592 18.3634 119.9 18.3634C120.119 18.3634 120.304 18.3188 120.456 18.2297C120.607 18.1405 120.741 18.0224 120.854 17.8753L121.233 18.17C120.93 18.6349 120.474 18.8677 119.867 18.8677ZM119.789 15.6215C119.539 15.6215 119.329 15.7124 119.159 15.8942C118.989 16.076 118.884 16.3313 118.844 16.659H120.66V16.6121C120.642 16.2977 120.557 16.054 120.405 15.8809C120.254 15.7083 120.049 15.6215 119.789 15.6215Z" fill="#4E4E4F"/>
<path d="M123.634 18.3625C123.855 18.3625 124.048 18.2954 124.213 18.1616C124.379 18.0279 124.47 17.8606 124.488 17.6597H125.075C125.064 17.8669 124.992 18.0649 124.86 18.2519C124.728 18.4389 124.552 18.5889 124.332 18.7C124.112 18.8118 123.88 18.8674 123.634 18.8674C123.14 18.8674 122.748 18.7024 122.456 18.3735C122.165 18.0447 122.019 17.5943 122.019 17.0228V16.9192C122.019 16.5672 122.083 16.2534 122.213 15.979C122.343 15.7046 122.528 15.4915 122.77 15.3398C123.013 15.1881 123.299 15.1123 123.63 15.1123C124.036 15.1123 124.374 15.2339 124.643 15.477C124.912 15.7202 125.056 16.0357 125.074 16.4242H124.488C124.47 16.1897 124.381 15.9975 124.221 15.847C124.062 15.6965 123.864 15.6212 123.63 15.6212C123.315 15.6212 123.071 15.7347 122.898 15.9605C122.724 16.1868 122.638 16.5145 122.638 16.9429V17.0599C122.638 17.4773 122.724 17.7986 122.896 18.0238C123.069 18.2502 123.314 18.3625 123.634 18.3625Z" fill="#4E4E4F"/>
<path d="M126.857 14.3027V15.1798H127.534V15.6586H126.857V17.9073C126.857 18.0526 126.887 18.1614 126.947 18.2338C127.008 18.3062 127.11 18.3426 127.256 18.3426C127.327 18.3426 127.425 18.3293 127.551 18.3027V18.8017C127.388 18.8457 127.229 18.8683 127.075 18.8683C126.798 18.8683 126.589 18.7844 126.448 18.617C126.307 18.4503 126.237 18.2118 126.237 17.9044V15.6586H125.577V15.1798H126.237V14.3027H126.857Z" fill="#4E4E4F"/>
<path d="M128.335 14.2191C128.335 14.119 128.366 14.0339 128.427 13.965C128.489 13.8961 128.58 13.8613 128.7 13.8613C128.821 13.8613 128.912 13.8961 128.975 13.965C129.037 14.0339 129.069 14.119 129.069 14.2191C129.069 14.3199 129.037 14.4032 128.975 14.4704C128.912 14.5375 128.821 14.5711 128.7 14.5711C128.58 14.5711 128.489 14.5375 128.427 14.4704C128.366 14.4032 128.335 14.3199 128.335 14.2191ZM129.005 18.8009H128.385V15.1796H129.005V18.8009Z" fill="#4E4E4F"/>
<path d="M129.95 16.9566C129.95 16.6023 130.019 16.2833 130.159 15.9996C130.299 15.716 130.493 15.4977 130.742 15.3437C130.991 15.1897 131.275 15.1133 131.595 15.1133C132.088 15.1133 132.488 15.2841 132.792 15.6251C133.097 15.9661 133.249 16.4205 133.249 16.9873V17.0308C133.249 17.3833 133.181 17.6994 133.046 17.9796C132.911 18.2599 132.718 18.4781 132.467 18.6339C132.216 18.7902 131.927 18.8683 131.601 18.8683C131.11 18.8683 130.711 18.6975 130.407 18.3565C130.102 18.015 129.949 17.5634 129.949 17.0012V16.9566H129.95ZM130.572 17.0308C130.572 17.4325 130.666 17.7544 130.852 17.9982C131.038 18.2413 131.288 18.3629 131.601 18.3629C131.916 18.3629 132.166 18.2396 132.352 17.9935C132.537 17.7469 132.63 17.4013 132.63 16.9572C132.63 16.5606 132.535 16.2382 132.347 15.9921C132.158 15.7455 131.908 15.6222 131.595 15.6222C131.289 15.6222 131.042 15.7438 130.854 15.9869C130.666 16.2295 130.572 16.578 130.572 17.0308Z" fill="#4E4E4F"/>
<path d="M134.761 15.18L134.781 15.635C135.058 15.2871 135.42 15.1128 135.867 15.1128C136.633 15.1128 137.02 15.5447 137.026 16.4079V18.8007H136.407V16.4044C136.404 16.1433 136.345 15.9505 136.227 15.8255C136.11 15.7004 135.927 15.6379 135.68 15.6379C135.479 15.6379 135.302 15.6912 135.151 15.7983C134.999 15.9054 134.881 16.0461 134.795 16.2197V18.8001H134.176V15.1788H134.761V15.18Z" fill="#4E4E4F"/>
<path d="M140.692 2.70658H140.252V3.46326H140.004V1.59326H140.624C140.834 1.59326 140.997 1.64131 141.11 1.73684C141.224 1.83295 141.281 1.97247 141.281 2.15542C141.281 2.27179 141.249 2.3731 141.186 2.45995C141.123 2.54621 141.035 2.61163 140.923 2.65389L141.363 3.44763V3.46268H141.098L140.692 2.70658ZM140.253 2.5051H140.632C140.754 2.5051 140.852 2.47384 140.924 2.41016C140.997 2.34647 141.033 2.26195 141.033 2.15542C141.033 2.03963 140.998 1.95105 140.929 1.8891C140.861 1.82716 140.761 1.79589 140.63 1.79474H140.253V2.5051Z" fill="black"/>
<path d="M140.599 4.53273C139.507 4.53273 138.62 3.64636 138.62 2.55621C138.62 1.46605 139.508 0.579102 140.599 0.579102C141.69 0.579102 142.577 1.46547 142.577 2.55563C142.577 3.64579 141.69 4.53273 140.599 4.53273ZM140.599 0.872049C139.669 0.872049 138.913 1.62758 138.913 2.55621C138.913 3.48484 139.669 4.24037 140.599 4.24037C141.528 4.24037 142.285 3.48484 142.285 2.55621C142.285 1.62758 141.528 0.872049 140.599 0.872049Z" fill="black"/>
<path d="M139.502 13.6285H139.132V14.2647H138.924V12.6929H139.445C139.622 12.6929 139.758 12.7328 139.854 12.8139C139.949 12.8943 139.997 13.0119 139.997 13.1653C139.997 13.2631 139.971 13.3488 139.918 13.4212C139.865 13.4936 139.791 13.5486 139.697 13.5839L140.066 14.2508V14.2636H139.844L139.502 13.6285ZM139.132 13.4594H139.452C139.554 13.4594 139.637 13.4328 139.698 13.3789C139.758 13.3257 139.789 13.2545 139.789 13.1647C139.789 13.0675 139.76 12.9928 139.702 12.9412C139.644 12.8891 139.56 12.8631 139.451 12.8625H139.133V13.4594H139.132Z" fill="#4E4E4F"/>
<path d="M139.423 15.1635C138.506 15.1635 137.76 14.4184 137.76 13.5019C137.76 12.5854 138.506 11.8403 139.423 11.8403C140.341 11.8403 141.087 12.5854 141.087 13.5019C141.087 14.4184 140.341 15.1635 139.423 15.1635ZM139.423 12.0858C138.642 12.0858 138.006 12.7209 138.006 13.5013C138.006 14.2818 138.642 14.9169 139.423 14.9169C140.204 14.9169 140.84 14.2818 140.84 13.5013C140.841 12.7209 140.205 12.0858 139.423 12.0858Z" fill="#4E4E4F"/>
</g>
<defs>
<linearGradient id="paint0_linear" x1="8.7258" y1="11.4814" x2="8.7258" y2="10.1125" gradientUnits="userSpaceOnUse">
<stop stop-color="#4CB649"/>
<stop offset="1" stop-color="#78B280"/>
</linearGradient>
<radialGradient id="paint1_radial" cx="0" cy="0" r="1" gradientUnits="userSpaceOnUse" gradientTransform="translate(8.94208 7.88234) scale(1.56594 1.56425)">
<stop/>
<stop offset="0.1901" stop-color="#030303"/>
<stop offset="0.3236" stop-color="#0C0C0C"/>
<stop offset="0.4397" stop-color="#1C1C1C"/>
<stop offset="0.5461" stop-color="#323232"/>
<stop offset="0.6456" stop-color="#4E4E4E"/>
<stop offset="0.7402" stop-color="#717171"/>
<stop offset="0.8309" stop-color="#9A9A9A"/>
<stop offset="0.9161" stop-color="#C9C9C9"/>
<stop offset="0.9985" stop-color="#FEFEFE"/>
<stop offset="1" stop-color="white"/>
</radialGradient>
<linearGradient id="paint2_linear" x1="14.3752" y1="15.9015" x2="15.8929" y2="17.4932" gradientUnits="userSpaceOnUse">
<stop stop-color="#23FF16"/>
<stop offset="1" stop-color="#189A33"/>
</linearGradient>
<linearGradient id="paint3_linear" x1="3.69886" y1="15.2664" x2="1.38611" y2="17.8348" gradientUnits="userSpaceOnUse">
<stop stop-color="#23FF16"/>
<stop offset="1" stop-color="#189A33"/>
</linearGradient>
<clipPath id="clip0">
<rect width="143.733" height="22" fill="white"/>
</clipPath>
</defs>
</svg>
