<svg xmlns="http://www.w3.org/2000/svg" width="544" height="459" fill="none"  xmlns:v="https://vecta.io/nano"><style><![CDATA[.B{fill:#e9275c}.C{fill:#fd3e72}.D{fill:#fff}.E{fill:#ffa68a}.F{fill:#ff6c94}.G{fill:#4c2d22}]]></style><g class="B"><path d="M473.093 411.172l-.878-3.423-9.935 2.547.878 3.423 9.935-2.547z"/><path d="M467.956 416.074l-.876-3.423-9.936 2.546.877 3.423 9.935-2.546z"/><path d="M462.875 421.023l-.876-3.422-9.936 2.545.877 3.423 9.935-2.546zm-4.987 4.989l-.878-3.422-9.935 2.547.878 3.423 9.935-2.548z"/></g><path d="M253.13 102.572l-93.279 54.75c-23.645-7.256-53.78-5.015-73.665 6.651-24.192 14.191-24.032 36.93.358 50.786 5.771 3.203 11.942 5.624 18.352 7.197a97.72 97.72 0 0 0 14.6 2.519c19.404 1.891 40.106-1.57 55.028-10.33 18.082-10.606 22.549-25.98 13.483-38.857l12.87-7.556-.365-8.169 13.548-.095-.35-7.672 13.549-.095-.343-7.65 13.548-.095-.343-7.65 13.549-.095-.343-7.651 14.461-.102 4.38-2.591 4.869-20.09-23.907-3.205zM121.869 207.291c-6.3 3.694-16.549 3.767-22.9.16s-6.388-9.49-.095-13.22 16.549-3.767 22.9-.161 6.387 9.527.095 13.221zm182.288 241.477L178.356 376.44c-8.468-4.891-7.409-13.432 2.373-19.075l122.099-70.496c9.782-5.651 24.572-6.264 33.048-1.373l125.8 72.329c8.468 4.891 7.41 13.432-2.372 19.074l-122.1 70.504c-9.782 5.643-24.572 6.256-33.047 1.365z" fill="#dee5e9"/><path d="M451.646 284.773L429.9 272.217l80.19-46.297c3.789-2.19 3.789-5.745 0-7.927l-81.928-47.297c-3.789-2.19-9.95-2.19-13.738 0L334.24 217l-21.746-12.556 80.19-46.297c15.783-9.11 41.457-9.11 57.239 0l81.921 47.297c15.783 9.11 15.783 23.937 0 33.047l-80.198 46.282z" class="C"/><path d="M486.73 290.307c0-11.629-7.066-25.134-15.79-30.171l-145.27-83.885c-3.905-2.255-7.475-2.416-10.22-.876L141.951 276.181l167.754 126.407 170.908-99.192c.534-.236 1.041-.53 1.511-.876 2.854-2.169 4.606-6.403 4.606-12.213z" class="F"/><path d="M309.705 402.588l170.908-99.193c.534-.235 1.041-.529 1.511-.875 2.854-2.19 4.621-6.403 4.621-12.213-.133-5.847-1.588-11.587-4.256-16.79L287.667 385.98l22.038 16.608z" class="B"/><path d="M298.777 402.143l-145.27-83.884c-8.724-5.037-15.79-18.543-15.79-30.171s7.066-16.973 15.79-11.936l145.27 83.884c8.723 5.037 15.79 18.542 15.79 30.171 0 11.622-7.067 16.966-15.79 11.936z" class="C"/><path d="M277.016 373.848l-17.469-10.074c-1.738-1-3.147-3.694-3.147-6.016s1.409-3.379 3.147-2.379l17.469 10.074c1.737 1 3.146 3.693 3.146 6.015-.022 2.321-1.409 3.387-3.146 2.38z" class="D"/><path d="M145.856 78.461l29.85 16.958 30.463-17.87-.08-7.775-.263.153-.022-.547 13.542-.095-.081-7.658 13.286-.088-.08-7.658 13.286-.095-.08-7.65 13.286-.095-.081-7.65 14.199-.102 4.409-2.592 4.876-20.09-.087-7.774-2.351 7.446-21.491-2.869-112.581 66.05z" class="B"/><path d="M175.626 87.644l30.462-17.87-.365-8.169 13.542-.095-.343-7.65 13.549-.095-.343-7.658 13.548-.095-.343-7.65 13.542-.095-.336-7.65L273 30.514l4.41-2.591 4.869-20.09-23.922-3.197-112.581 66.05 29.85 16.958z" class="F"/><path d="M195.913 75.745c-3.066-4.38-7.673-8.424-13.87-11.928a71.39 71.39 0 0 0-14.301-6.037L145.74 70.686l29.849 16.958 20.324-11.899zm85.548-64.54l.818-3.373-4.015-.533-95.119 55.809 5.015 2.84 93.301-54.743z" class="C"/><path d="M73.711 102.989l-.329-11.053 3.533 7.461-3.205 3.592z" fill="#d3d1d0"/><path d="M92.1 127.845c24.39 13.87 63.773 13.578 87.965-.613 12.132-7.118 18.133-16.381 18.038-25.594l-.336-11.68-1.986 2.19c-2.81-5.774-8.154-11.205-16.06-15.702-24.389-13.87-63.772-13.578-87.965.613s-24.046 36.938.343 50.786zm35.229-20.674c6.351 3.607 6.388 9.49.095 13.221s-16.549 3.766-22.9.16-6.387-9.49-.095-13.22 16.571-3.76 22.9-.153v-.008z" class="B"/><path d="M91.8 116.8c24.389 13.87 63.773 13.578 87.965-.613s24.032-36.931-.358-50.786-63.773-13.578-87.965.613-24.061 36.938.358 50.786zm35.23-20.673c6.351 3.606 6.387 9.49.095 13.22s-16.549 3.767-22.9.161-6.388-9.49-.095-13.221 16.52-3.76 22.871-.153l.029-.007z" fill="#f3f3f3"/><path d="M120.044 122.83c-5.366.839-11.301.109-15.528-2.293-4.555-2.584-5.84-6.358-3.898-9.65l-11.045-8.76-11.49-12.98c-8.899 13.002-4.212 28.317 14.016 38.69 8.03 4.57 17.053 7.162 27.273 8.666l.672-13.673z" class="C"/><path d="M91.8 116.8a74.27 74.27 0 0 0 18.352 7.198 97.85 97.85 0 0 0 14.6 2.519c19.403 1.89 40.106-1.57 55.027-10.33 24.193-14.191 24.032-36.931-.357-50.786s-63.773-13.578-87.965.613-24.075 36.938.343 50.786zm35.23-20.673c6.351 3.606 6.387 9.49.095 13.22s-16.55 3.767-22.901.161-6.387-9.49-.094-13.221 16.519-3.76 22.87-.153l.03-.007z" class="F"/><path d="M80.244 91.638c1.19-7.081 6.431-13.994 15.775-19.476 21.52-12.629 56.56-12.87 78.263-.547 10.782 6.125 16.228 14.206 16.352 22.331 1.548-9.227-3.818-18.732-16.06-25.711-21.696-12.33-56.736-12.081-78.263.547C85.457 75.14 80.12 83.41 80.244 91.638zM65.571 192.18a24.41 24.41 0 0 1-12.206-3.146c-8.76-4.957-13.6-14.929-13.695-28.069-.168-23.966 16.513-53.334 37.186-65.459 11.33-6.643 22.374-7.577 31.113-2.613a24.45 24.45 0 0 1 9.052 9.052c3.029 5.168 4.591 11.563 4.642 19.016.168 23.966-16.512 53.334-37.186 65.459-6.548 3.811-12.957 5.76-18.907 5.76zm30.178-93.63c-4.38 0-9.308 1.526-14.439 4.533-18.25 10.71-32.989 36.646-32.85 57.816.066 9.863 3.351 17.134 9.242 20.477s13.819 2.445 22.323-2.548c18.25-10.709 32.989-36.646 32.85-57.816-.036-5.84-1.226-10.869-3.438-14.6-1.352-2.429-3.341-4.442-5.753-5.824s-5.156-2.079-7.935-2.016v-.022z" class="B"/><g class="F"><path d="M107.232 117.983l17.359 4.256 2.497-12.885c-6.3 3.694-16.549 3.767-22.9.161l3.044 8.468z"/><path d="M91.8 116.8a74.31 74.31 0 0 0 18.352 7.198c4.796 1.207 9.677 2.049 14.6 2.518 19.403 1.891 40.106-1.569 55.027-10.329l-70.715-1.584L91.8 116.8z"/></g><path d="M117.897 125.75a102.59 102.59 0 0 1-15.33-3.957v10.848a84.16 84.16 0 0 0 15.17 3.891c16.162 2.117.16-10.782.16-10.782z" class="B"/><path d="M106.619 123.078a71.88 71.88 0 0 1-10.001-3.694c-9.49-4.431 2.504 11.98 2.504 11.98s3.226 1.284 7.497 2.598v-10.884z" class="C"/><path d="M246.611 414.435s-8.913-4.496-14.388 2.19-13.293 22.492-13.542 33.164 8.447 9.957 13.615 7.424 20.257-24.418 21.17-28.703-1.066-10.082-2.526-11.213-4.329-2.862-4.329-2.862z" class="G"/><path d="M248.553 412.29l.416 9.234c.05.963-.167 1.922-.626 2.769s-1.145 1.552-1.98 2.035a10.28 10.28 0 0 1-6.877 1.066c-6.716-1.081-7.3-3.001-7.789-12.228s16.856-2.876 16.856-2.876z" class="D"/><path d="M213.987 396.682s-8.913-4.496-14.381 2.19-13.3 22.528-13.541 33.172 8.446 9.957 13.614 7.424 20.258-24.419 21.17-28.704-1.08-10.089-2.525-11.22-4.337-2.862-4.337-2.862z" class="G"/><path d="M215.9 394.536l.416 9.235a5.23 5.23 0 0 1-.626 2.768c-.46.848-1.145 1.552-1.98 2.035a10.28 10.28 0 0 1-6.877 1.066c-6.716-1.081-7.3-3.001-7.789-12.228s16.856-2.876 16.856-2.876z" class="D"/><path d="M295.47 225.03c-2.635-42.917-46.479 6.315-46.479 6.315l-30.003 29.411-27.01 29.682c-2.611 2.861-4.567 6.257-5.73 9.951a26.62 26.62 0 0 0-1.008 11.438l10.95 83.22c.262 1.983 1.242 3.802 2.753 5.112s3.452 2.021 5.452 1.998a27.93 27.93 0 0 0 4.052-.357c9.752-1.519 9.03-10.79 9.03-10.79l-2.001-77.84 56.743-34.208s25.872-11.015 23.251-53.932z" class="G"/><path d="M237.135 298.468l-8.095-2.964c-.19 0-13.724 13.096-13.608 17.673l6.074 1.949 15.25-14.804.379-1.854zm46.881 15.228s33.719-19.257 37.734-27.346c1.584-3.161 4.037-6.467-5.804-11.242l-44.967 32.055 1.949 11.037 11.088-4.504z" class="B"/><path d="M328.072 241.586c-2.811-42.902-46.48 6.315-46.48 6.315l-30.003 29.411-27.01 29.682a26.64 26.64 0 0 0-5.716 9.958c-1.158 3.695-1.497 7.599-.992 11.438l10.95 83.22c.262 1.984 1.242 3.802 2.753 5.112a8.19 8.19 0 0 0 5.452 1.999 27.92 27.92 0 0 0 4.051-.358c9.753-1.519 9.031-10.79 9.031-10.79l-2.001-77.839 56.743-34.208s25.791-14.71 23.222-53.94z" class="G"/><path d="M302.135 103.617c33.237 13.782 32.572 33.426 32.572 33.426s-6.511 72.03-4.285 120.129c.927 20.112-106.843 21.645-90.768-32.003 18.98-63.254 11.848-114.464 20.717-122.187s33.164-2.928 41.764.635z" class="C"/><path d="M312.808 121.014c1.738-6.746-4.286-14.129-13.453-16.49s-18.007 1.195-19.745 7.942 4.286 14.129 13.454 16.49 18.007-1.195 19.744-7.942z" class="E"/><path d="M298.689 131.291a24.08 24.08 0 0 1-6.008-.774c-4.55-1.084-8.639-3.584-11.68-7.139-2.868-3.519-3.912-7.527-2.92-11.293 1.95-7.585 11.68-11.68 21.681-9.089 4.551 1.084 8.641 3.584 11.68 7.139 2.869 3.519 3.913 7.527 2.92 11.294-1.547 6.044-8.037 9.862-15.673 9.862zm-5-25.893c-6.176 0-11.337 2.869-12.52 7.482-.73 2.76.117 5.782 2.329 8.49 2.604 3.023 6.097 5.146 9.979 6.066 8.308 2.132 16.294-.912 17.812-6.803.73-2.76-.117-5.782-2.329-8.49-2.603-3.024-6.096-5.147-9.979-6.066-1.728-.448-3.507-.676-5.292-.679z" class="D"/><path d="M288.812 102.12s.285 1.336-.284 11.862c-.183 3.315 11.409 6.403 14.41 3.41s1.796-6.118 2.518-17.382-16.644 2.11-16.644 2.11z" class="E"/><path d="M305.449 100.01s-2.854 10.446-16.928 14.454l.211-9.49 16.717-4.964z" fill="#ea9c92"/><path d="M296.007 104.613c13.681-3.538 21.903-17.497 18.365-31.178s-17.497-21.903-31.178-18.365-21.903 17.497-18.365 31.178 17.497 21.903 31.178 18.365z" class="E"/><path d="M268.723 82.395s12.271-5.212 23.031-3.037c2.549.502 4.847 1.869 6.504 3.869a3.84 3.84 0 0 0 1.971 1.46c1.906.431 5.037-7.49 8.76-7.665s6.184 2.445 3.147 7.3-2.015 10.322-.613 11.103 16.242-10.592 3.153-36.5-46.362-11.972-51.538-6.709c0 0-5.453 4.752-9.884.526-.015-.066-4.986 37.157 15.469 29.653z" fill="#263238"/><path d="M316.063 189.669v19.462a7.92 7.92 0 0 1-.678 3.191c-.445 1.006-1.094 1.907-1.906 2.649l-39.982 36.448 4.541 6.95 52.801-38.296a10.73 10.73 0 0 0 4.38-7.563l3.569-33.945-22.725 11.104z" class="E"/><path d="M331.89 127.312s12.132 18.25 16.651 66.255c0 0-20.717 6.702-32.478 2.92s15.827-69.175 15.827-69.175z" class="C"/><path d="M313.844 150.373s-4.752 25.411-5.015 37.361a7.62 7.62 0 0 0 1.319 4.493c.9 1.322 2.193 2.327 3.696 2.873v-44.727z" class="B"/><path d="M303.5 276.751l-8.84-1.168-57.043-32.938c-1.832-1.059-5.022-.92-7.132.299l-40.42 23.36-5.343-.73v5.322c.004.397.121.785.339 1.117s.525.596.887.759l64.649 37.325c1.832 1.058 5.022.92 7.132-.299l44.019-25.404c1.19-.687 1.781-1.57 1.745-2.402l.007-5.241z" fill="#1f3f7a"/><path d="M260.612 255.938l-4.051-2.343h-44.53l-21.966 12.673-5.343-.73v5.321a2.08 2.08 0 0 0 1.226 1.876l64.649 37.325c1.127.572 2.392.812 3.65.694l6.365-54.816z" fill="#3b6dab"/><path d="M187.065 265.91l-2.373-.314v5.321c.004.398.122.785.339 1.118a2.09 2.09 0 0 0 .888.758l1.139.657.007-7.54z" fill="#5793ce"/><path d="M251.225 310.382a8.28 8.28 0 0 0 6.059-.38v-9.052h-6.059v9.432z" fill="#285089"/><path d="M250.575 304.768l-64.649-37.325c-1.832-1.059-1.598-2.92.511-4.117l44.019-25.404c2.11-1.219 5.307-1.351 7.132-.3l64.649 37.325c1.833 1.059 1.599 2.92-.511 4.118l-44.019 25.404c-2.109 1.219-5.307 1.35-7.132.299z" fill="#edebe5"/><path d="M249.48 299.11l-53.75-31.011c-1.518-.876-1.329-2.409.423-3.423l23.587-13.264c1.759-1.015 4.38-1.124 5.935-.248l53.735 31.01c1.518.876 1.329 2.409-.423 3.424L255.4 298.862c-1.744 1.014-4.402 1.124-5.92.248z" fill="#f9cbd7"/><g class="E"><path d="M232.96 236.71l-.672 4.46c-.569 3.801-.471 7.673.292 11.439l.796 3.928c.219 1.084.759 2.078 1.549 2.852a5.52 5.52 0 0 0 2.882 1.491 3.05 3.05 0 0 0 1.24-.031c.407-.095.79-.272 1.125-.521s.616-.565.825-.927.34-.763.387-1.178l1.066-9.534s2.438 3.198 3.65 3.198-1.321-9.549-3.978-14.958-9.162-.219-9.162-.219z"/><path d="M254.875 165.798l-6.935 13.731c-1.641 3.245-2.607 6.789-2.84 10.417l-3.015 46.961-9.125-.219-4.139-52.735c-.129-1.629-.05-3.267.233-4.876l4.731-26.74 21.09 13.461z"/></g><path d="M248.385 308.352l-5.417-7.073-56.998-33.011c-1.825-1.058-3.307-3.891-3.307-6.329l.051-46.669-3.314-4.278 3.081-1.781c.346-.193.74-.283 1.136-.26a2.08 2.08 0 0 1 1.097.391l64.605 37.406c1.825 1.058 3.307 3.891 3.307 6.329l-.029 50.793c0 1.373-.475 2.329-1.212 2.708l-3 1.774z" fill="#cf1b4c"/><path d="M208.965 281.59l-4.015-2.343-22.229-38.617v-25.36l-3.321-4.278 3.081-1.781c.346-.193.74-.283 1.136-.26a2.08 2.08 0 0 1 1.097.391l64.605 37.406c1.068.697 1.913 1.685 2.439 2.847l-42.793 31.995z" class="C"/><path d="M180.86 212.89l-1.46-1.898 3.081-1.781c.346-.193.74-.283 1.136-.26a2.08 2.08 0 0 1 1.097.391l1.139.657-4.993 2.891z" fill="#fe7ea1"/><path d="M249.933 247.156c1.556 1.406 2.522 3.349 2.701 5.439l-6.315 3.65-3.022-5.256 6.636-3.833z" fill="#ea3767"/><path d="M246.275 248.528l-64.605-37.405c-1.825-1.058-3.314.059-3.314 2.497l-.058 50.83c0 2.438 1.46 5.27 3.307 6.329l64.605 37.405c1.825 1.058 3.314-.058 3.314-2.497l.051-50.822c0-2.446-1.475-5.278-3.3-6.337z" fill="#263238"/><path d="M278.037 258.384l-1.036 2.146c-1.193 2.47-3.067 4.547-5.402 5.986l-6.417 3.957a6.39 6.39 0 0 1-6.57.153l-.219-.131c-.47-.321-.863-.741-1.152-1.231s-.465-1.038-.517-1.604.021-1.137.215-1.672a3.86 3.86 0 0 1 .906-1.421l6.709-6.891s-3.767 2.92-4.825 1.723c-.774-.855 3.65-5.008 7.052-5.11s6.686-2.804 6.686-2.804l4.57 6.899z" class="E"/><path d="M261.036 102.879s-24.586 26.747-34.5 51.282c0 0 8.41 15.148 28.981 21.09s5.519-72.372 5.519-72.372z" class="C"/><path d="M250.889 173.667l3.986-38.493-9.388 36.062c1.755.909 3.558 1.72 5.402 2.431z" class="B"/><path d="M154.076 38.355a18.5 18.5 0 0 1-10.281-3.119 18.51 18.51 0 0 1-7.869-18.997c.714-3.59 2.477-6.887 5.065-9.475s5.885-4.351 9.475-5.065a18.5 18.5 0 0 1 18.997 7.869 18.51 18.51 0 0 1 3.119 10.281 18.52 18.52 0 0 1-18.506 18.506zm0-32.967a14.46 14.46 0 0 0-13.36 8.927c-1.095 2.642-1.381 5.55-.823 8.355s1.935 5.382 3.958 7.404a14.46 14.46 0 0 0 24.687-10.226c-.004-3.834-1.529-7.51-4.24-10.221a14.48 14.48 0 0 0-10.222-4.24zm374.045 166.293a13.14 13.14 0 0 1-7.3-2.214c-2.161-1.444-3.845-3.496-4.84-5.897s-1.255-5.043-.748-7.592a13.14 13.14 0 0 1 3.597-6.728c1.837-1.838 4.179-3.089 6.727-3.596s5.191-.247 7.592.748a13.13 13.13 0 0 1 5.897 4.839 13.14 13.14 0 0 1-10.925 20.44zm0-22.199a9.08 9.08 0 0 0-5.045 1.531 9.07 9.07 0 0 0-3.345 4.075c-.687 1.659-.867 3.485-.517 5.247a9.08 9.08 0 0 0 12.382 6.618 9.08 9.08 0 0 0 4.076-3.344c.998-1.494 1.53-3.25 1.53-5.046a9.1 9.1 0 0 0-9.081-9.088v.007zM97.932 408.713l-8.906-18.112 18.104-8.906 8.906 18.112-18.104 8.906zm-3.504-16.272l5.344 10.87 10.87-5.344-5.336-10.877-10.877 5.351z" fill="#d4eaf9"/><path d="M360.82 127.94l-8.906-18.112 18.111-8.898 8.906 18.111-18.111 8.899zm-3.504-16.272l5.314 10.899 10.87-5.344-5.344-10.869-10.84 5.314zM73.61 298.258l-8.327 4.094 4.094 8.326 8.326-4.094-4.093-8.326zM399.962 29.69L350.468 1.117a2.53 2.53 0 0 0-1.249-.449c-.45-.036-.9.049-1.306.245l-4.803 2.774 3.372 1.234v36.004c0 2.92 1.782 6.336 3.979 7.607l47.304 27.309v4.227l4.847-2.796c.818-.496 1.343-1.599 1.343-3.175V37.296c-.014-2.927-1.795-6.336-3.993-7.607z" class="B"/><path d="M395.071 79.928l-49.494-28.572c-2.19-1.27-3.978-4.679-3.978-7.607V6.942c0-2.92 1.781-4.278 3.978-3.008l49.494 28.572c2.19 1.27 3.979 4.679 3.979 7.607v36.799c.007 2.935-1.782 4.307-3.979 3.015z" class="C"/><path d="M362.221 38.676c0 2.132-1.46 2.993-3.336 1.927-.971-.634-1.779-1.487-2.359-2.492a7.38 7.38 0 0 1-.977-3.289c0-2.132 1.46-2.993 3.336-1.927a7.39 7.39 0 0 1 2.359 2.492 7.38 7.38 0 0 1 .977 3.289zm10.118 5.84c0 2.132-1.46 2.993-3.336 1.927a7.39 7.39 0 0 1-2.359-2.492 7.38 7.38 0 0 1-.977-3.289c0-2.132 1.46-2.993 3.336-1.927.971.634 1.78 1.488 2.359 2.492a7.38 7.38 0 0 1 .977 3.289zm10.118 5.84c0 2.132-1.46 2.993-3.336 1.927-.971-.634-1.78-1.488-2.359-2.492s-.915-2.131-.977-3.29c0-2.132 1.46-2.993 3.336-1.927a7.39 7.39 0 0 1 3.336 5.782z" class="D"/><path d="M57.833 342.786L9.31 314.754c-.362-.255-.786-.408-1.228-.444s-.885.047-1.283.24l-4.708 2.723 3.285 1.197v35.361c0 2.877 1.752 6.22 3.906 7.468l46.406 26.791v4.11l4.76-2.737c.803-.489 1.321-1.57 1.321-3.117v-36.099c-.029-2.876-1.774-6.227-3.935-7.461z" class="B"/><path d="M53.037 392.069L4.485 364.037c-2.19-1.249-3.905-4.585-3.905-7.461V320.47c0-2.876 1.752-4.197 3.905-2.92l48.552 28.032c2.19 1.249 3.905 4.585 3.905 7.461v36.106c0 2.847-1.745 4.168-3.905 2.92z" class="C"/><path d="M20.815 351.597c0 2.088-1.46 2.92-3.278 1.891a7.25 7.25 0 0 1-3.278-5.672c0-2.088 1.46-2.92 3.278-1.891.954.621 1.747 1.459 2.317 2.444s.899 2.092.961 3.228zm9.921 5.731c0 2.088-1.46 2.92-3.278 1.891a7.25 7.25 0 0 1-2.321-2.462 7.24 7.24 0 0 1-.95-3.247c0-2.088 1.46-2.92 3.278-1.891a7.25 7.25 0 0 1 2.321 2.462 7.24 7.24 0 0 1 .95 3.247zm9.927 5.73c0 2.088-1.46 2.92-3.278 1.891-.951-.624-1.741-1.464-2.306-2.451s-.891-2.092-.95-3.228c0-2.088 1.46-2.92 3.278-1.891.95.625 1.741 1.464 2.306 2.451a7.26 7.26 0 0 1 .95 3.228z" class="D"/></svg>